<svg id="图层_1" data-name="图层 1" xmlns="http://www.w3.org/2000/svg" viewBox="0 0 45.35 45.35"><defs><style>.cls-1{fill:#ffe269;}.cls-2{fill:#fff;}.cls-3{opacity:0.2;}.cls-4{opacity:0.5;}</style></defs><title>XINGQIU [已恢复]</title><path class="cls-1" d="M38.45,23.61v0c0,.39-.06.79-.11,1.18s-.09.63-.15.94c0,.13,0,.26-.08.39s-.09.42-.14.63-.08.3-.13.45-.05.19-.08.29c-.12.4-.26.8-.4,1.19l-.09.21a1.17,1.17,0,0,1-.05.11,14.17,14.17,0,0,1-.6,1.31A16.46,16.46,0,0,1,35,32.87,16,16,0,0,1,34,34.13a17.18,17.18,0,0,1-2.39,2.12A16.88,16.88,0,0,1,5.11,26.06c-.1-.52-.18-1-.24-1.56a16.75,16.75,0,0,1,0-3.17l.09-.86c0-.15,0-.3.07-.44a1.1,1.1,0,0,1,0-.18c.06-.33.13-.66.2-1a1.6,1.6,0,0,1,0-.21c.08-.33.17-.66.27-1a17.36,17.36,0,0,1,.92-2.37l.34-.66c.25-.44.53-1,.65-1.1s.24-.41.36-.57l.11-.12.15-.2a5.19,5.19,0,0,1,.46-.56v0A15.82,15.82,0,0,1,9.84,10.6l.07-.09c.55-.75.19,0,.64-.57a17,17,0,0,1,7.51-3.77,16.89,16.89,0,0,1,18.22,8.16,16.63,16.63,0,0,1,1.5,3.49c.1.35.2.71.28,1.07.24,1.33,0,.19.21,1.17,0-.07.15.73.17,1.39a1.93,1.93,0,0,1,0,.24.71.71,0,0,1,0,.14c0,.1,0,.24,0,.4A5.81,5.81,0,0,1,38.45,23.61Z"/><path class="cls-2" d="M41.7,28.41c-.87,2.79-3.6,4.8-7.73,5.72l-.83.17a25.81,25.81,0,0,1-4.49.38,37.07,37.07,0,0,1-10.88-1.76A34.46,34.46,0,0,1,5.11,26.06l-.77-.73C1,22-.28,18.59.65,15.62s4.9-5,9.9-5.68c-.24.21-.48.43-.71.66a15.7,15.7,0,0,0-4.37,1.28,6.92,6.92,0,0,0-3.91,4c-.8,2.57.37,5.62,3.31,8.59l.15.15a32.3,32.3,0,0,0,13,7.36A32.35,32.35,0,0,0,33,33.36,18.33,18.33,0,0,0,35,32.87c3.07-.94,5.08-2.58,5.75-4.75.75-2.39-.06-5-2.45-7.67-.07-.48-.18-1.16-.29-1.63C41,21.58,42.56,25.64,41.7,28.41Z"/><circle class="cls-2" cx="1.12" cy="19.57" r="1.07"/><circle class="cls-2" cx="39.32" cy="31.11" r="1.07"/><path class="cls-2" d="M39,26.19a5.1,5.1,0,0,1-1.44,2.35l-.19.18A11,11,0,0,1,32.22,31a21.93,21.93,0,0,1-4.24.38,32.28,32.28,0,0,1-8.47-1.2A28.44,28.44,0,0,1,8.17,24.36,11.09,11.09,0,0,1,5,20L5,20a5.27,5.27,0,0,1-.17-3.15A6.16,6.16,0,0,1,7.5,13.37c0,.06-.59,1.05-.76,1.37a4.37,4.37,0,0,0-1.46,2.2,4.47,4.47,0,0,0-.08,1.93.43.43,0,0,0,0,.11,9.58,9.58,0,0,0,3.29,5,28.14,28.14,0,0,0,11.14,5.67A31.73,31.73,0,0,0,28,30.84c4.52,0,8.15-1.18,9.75-3.31l.05-.07a4.43,4.43,0,0,0,.68-1.4,4,4,0,0,0,0-2.26c0-.29,0-1.29,0-1.44A5.18,5.18,0,0,1,39,26.19Z"/><g class="cls-3"><path class="cls-2" d="M37.78,17.82c-9.87,2-17.36-8-19.72-11.65a16.89,16.89,0,0,1,18.22,8.16A16.63,16.63,0,0,1,37.78,17.82Z"/></g><g class="cls-4"><g class="cls-3"><path class="cls-2" d="M38.45,23.65c0,.39-.06.79-.11,1.18s-.09.63-.15.94c0,.13,0,.26-.08.39s-.09.42-.14.63A33.49,33.49,0,0,1,29.7,27.9,22.87,22.87,0,0,1,18.32,25,25,25,0,0,1,8.8,15c-.39-.71-.72-1.39-1-2l.11-.12.15-.2a5.19,5.19,0,0,1,.46-.56v0A15.82,15.82,0,0,1,9.84,10.6l.07-.09a27.61,27.61,0,0,0,1.49,3.2,22.29,22.29,0,0,0,8.37,8.81C24.85,25.37,31.13,25.75,38.45,23.65Z"/></g></g><g class="cls-3"><path class="cls-2" d="M31.58,36.25a16.86,16.86,0,0,1-24.39-4.9C11.91,34.18,21.73,38.88,31.58,36.25Z"/></g></svg>