<svg width="324" height="324" viewBox="0 0 324 324" fill="none" xmlns="http://www.w3.org/2000/svg">
<path d="M225.188 87.9929C226.932 95.3783 231.48 102.114 238.387 106.491C245.328 110.867 253.363 112.03 260.783 110.423" stroke="#413D45" stroke-width="2.50846" stroke-miterlimit="10" stroke-linecap="round" stroke-linejoin="round"/>
<path d="M244.473 91.412C245.841 88.0613 244.678 84.1292 241.499 82.1119C238.319 80.0946 234.25 80.7442 231.822 83.4454" stroke="#413D45" stroke-width="2.50846" stroke-miterlimit="10" stroke-linecap="round" stroke-linejoin="round"/>
<path d="M262.048 102.49C263.416 99.1392 262.253 95.2072 259.073 93.1899C255.893 91.2067 251.824 91.8222 249.397 94.5233" stroke="#413D45" stroke-width="2.50846" stroke-miterlimit="10" stroke-linecap="round" stroke-linejoin="round"/>
<path d="M170.72 245.891C203.559 245.891 230.181 219.27 230.181 186.431C230.181 153.593 203.559 126.972 170.72 126.972C137.88 126.972 111.259 153.593 111.259 186.431C111.259 219.27 137.88 245.891 170.72 245.891Z" fill="#FF7E1D"/>
<path d="M170.515 179.935C165.317 179.935 160.77 176.824 158.855 172.003C158.376 170.806 158.957 169.472 160.154 169.028C161.351 168.549 162.684 169.13 163.129 170.327C164.326 173.37 167.232 175.353 170.515 175.353C173.797 175.353 176.703 173.37 177.9 170.327C178.379 169.13 179.712 168.549 180.875 169.028C182.072 169.507 182.653 170.84 182.174 172.003C180.259 176.824 175.678 179.935 170.515 179.935Z" fill="#413D45"/>
<path d="M187.747 165.027C181.182 165.027 175.37 161.095 172.976 154.975C172.498 153.778 173.079 152.445 174.276 152C175.472 151.521 176.806 152.103 177.25 153.299C178.96 157.642 183.097 160.446 187.747 160.446C192.398 160.446 196.535 157.642 198.245 153.299C198.723 152.103 200.057 151.521 201.219 152C202.416 152.479 202.997 153.812 202.519 154.975C200.125 161.095 194.312 165.027 187.747 165.027Z" fill="#413D45"/>
<path d="M153.247 165.028C146.682 165.028 140.869 161.096 138.476 154.975C137.997 153.779 138.578 152.445 139.775 152.001C140.972 151.522 142.305 152.103 142.75 153.3C144.46 157.642 148.597 160.446 153.247 160.446C157.897 160.446 162.035 157.642 163.744 153.3C164.223 152.103 165.556 151.522 166.719 152.001C167.916 152.479 168.497 153.813 168.018 154.975C165.625 161.096 159.812 165.028 153.247 165.028Z" fill="#413D45"/>
<path d="M236.78 148.547L199.133 119.484C193.868 115.415 192.876 107.824 196.945 102.524L226.009 64.8792C230.078 59.6137 237.669 58.6221 242.968 62.7251L280.614 91.7882C285.88 95.857 286.872 103.448 282.803 108.747L253.739 146.393C249.636 151.658 242.079 152.65 236.78 148.547Z" fill="#FFCE00"/>
<path d="M254.355 112.816C248.439 112.816 242.627 111.141 237.532 107.927C230.454 103.482 225.496 96.5407 223.581 88.403C223.376 87.514 223.923 86.6251 224.812 86.3857C225.701 86.1806 226.59 86.7276 226.83 87.6166C228.539 94.8995 232.984 101.122 239.31 105.089C245.636 109.089 253.158 110.388 260.475 108.816C261.364 108.61 262.253 109.192 262.458 110.081C262.664 110.97 262.082 111.859 261.193 112.064C258.902 112.577 256.612 112.816 254.355 112.816Z" fill="#FFB700"/>
<path d="M244.473 93.0873C244.268 93.0873 244.063 93.0531 243.824 92.9506C242.969 92.6086 242.559 91.6171 242.935 90.7623C244.029 88.0953 243.071 85.0522 240.61 83.5136C238.182 81.975 235.002 82.4195 233.087 84.5394C232.472 85.2232 231.412 85.2916 230.728 84.6761C230.044 84.0607 229.976 83.0007 230.591 82.3169C233.6 78.9661 238.558 78.2823 242.388 80.6757C246.217 83.0691 247.722 87.856 246.012 92.0274C245.738 92.7112 245.123 93.0873 244.473 93.0873Z" fill="#FFB700"/>
<path d="M262.048 104.165C261.843 104.165 261.638 104.131 261.399 104.029C260.544 103.687 260.133 102.695 260.51 101.84C261.604 99.1734 260.646 96.1304 258.184 94.5917C255.757 93.0531 252.577 93.4976 250.662 95.6175C250.047 96.3013 248.987 96.3697 248.303 95.7542C247.619 95.1388 247.551 94.0788 248.166 93.395C251.175 90.0442 256.133 89.3604 259.962 91.7538C263.792 94.1472 265.296 98.9341 263.587 103.105C263.313 103.755 262.698 104.165 262.048 104.165Z" fill="#FFB700"/>
<path d="M71.8687 171.489C93.2077 171.489 110.506 154.191 110.506 132.853C110.506 111.514 93.2077 94.2158 71.8687 94.2158C50.5296 94.2158 33.231 111.514 33.231 132.853C33.231 154.191 50.5296 171.489 71.8687 171.489Z" fill="#66C9FF"/>
<path opacity="0.25" d="M33.6414 138.665C33.8123 139.794 34.0175 140.922 34.3252 142.05C39.3857 162.771 60.3116 175.49 81.0665 170.395C88.8624 168.481 95.4957 164.343 100.488 158.838C64.3805 166.771 43.8307 151.145 33.6414 138.665Z" fill="#0C93F4"/>
<path d="M71.3559 138.494C69.4753 138.494 67.663 137.844 66.0218 136.579C65.3037 135.998 65.167 134.972 65.714 134.254C66.2953 133.536 67.3211 133.399 68.0392 133.947C69.3727 134.972 70.9114 135.383 72.3475 135.041C73.8861 134.699 75.1855 133.605 76.0403 131.929C76.4506 131.109 77.4422 130.767 78.2628 131.177C79.0835 131.587 79.4254 132.579 79.0151 133.399C77.7157 135.964 75.63 137.673 73.0997 138.255C72.5526 138.46 71.9371 138.494 71.3559 138.494Z" fill="#0C93F4"/>
<path d="M57.5417 134.665C55.6611 134.665 53.8147 134.152 52.1735 133.16C49.8142 131.724 48.1388 129.434 47.4891 126.767C47.284 125.878 47.831 124.989 48.72 124.749C49.6091 124.544 50.4981 125.091 50.7374 125.98C51.1819 127.792 52.3103 129.365 53.9173 130.323C55.5244 131.314 57.405 131.588 59.2514 131.143C63.0125 130.22 65.3376 126.39 64.4144 122.629C64.2093 121.74 64.7564 120.851 65.6454 120.612C66.5344 120.407 67.4234 120.954 67.6627 121.843C68.3124 124.544 67.9021 127.314 66.466 129.707C65.0299 132.066 62.739 133.742 60.072 134.391C59.183 134.562 58.3624 134.665 57.5417 134.665Z" fill="#0C93F4"/>
<path d="M81.0322 128.886C79.1516 128.886 77.3052 128.373 75.664 127.382C73.3047 125.946 71.6292 123.655 70.9796 120.988C70.7744 120.099 71.3215 119.21 72.2105 118.971C73.0995 118.766 73.9885 119.313 74.2279 120.202C74.6724 122.014 75.8007 123.587 77.4078 124.544C79.0148 125.536 80.8954 125.809 82.7418 125.365C86.503 124.441 88.8281 120.612 87.9049 116.851C87.6998 115.962 88.2468 115.073 89.1359 114.833C90.0249 114.628 90.9139 115.175 91.1532 116.064C92.5209 121.638 89.1017 127.245 83.5283 128.613C82.7076 128.784 81.887 128.886 81.0322 128.886Z" fill="#0C93F4"/>
<path d="M184.225 262.44C180.088 265.551 179.746 271.774 183.644 275.398C203.271 293.759 233.429 296.187 255.209 279.775C276.99 263.397 283.008 233.718 270.801 209.784C268.373 205.066 262.321 203.63 258.184 206.775L184.225 262.44Z" fill="#66C9FF"/>
<path opacity="0.25" d="M261.193 205.373C273.024 244.728 258.15 275.09 240.848 287.57C245.875 285.758 250.696 283.194 255.175 279.809C276.956 263.431 282.974 233.753 270.767 209.818C268.886 206.16 264.852 204.484 261.193 205.373Z" fill="#0C93F4"/>
<path d="M219.341 259.568C216.64 259.568 214.007 258.268 212.4 255.875C211.99 255.259 212.161 254.439 212.776 254.029C213.392 253.618 214.212 253.789 214.623 254.405C216.366 257.003 219.923 257.721 222.521 255.978C223.786 255.123 224.641 253.858 224.949 252.353C225.257 250.849 224.949 249.344 224.094 248.079C223.684 247.464 223.855 246.643 224.47 246.233C225.086 245.823 225.906 245.994 226.317 246.609C227.547 248.455 227.992 250.678 227.582 252.866C227.171 255.054 225.906 256.935 224.026 258.2C222.555 259.123 220.948 259.568 219.341 259.568Z" fill="#0C93F4"/>
<path d="M236.711 247.942C234.01 247.942 231.377 246.643 229.77 244.25C229.359 243.634 229.53 242.814 230.146 242.403C230.761 241.993 231.582 242.164 231.992 242.78C233.736 245.378 237.292 246.096 239.891 244.352C242.49 242.609 243.208 239.053 241.464 236.454C241.053 235.839 241.224 235.018 241.84 234.608C242.455 234.197 243.276 234.368 243.686 234.984C246.251 238.813 245.225 244.01 241.395 246.575C239.925 247.464 238.318 247.942 236.711 247.942Z" fill="#0C93F4"/>
<path d="M221.598 270.475C214.315 270.475 207.203 268.218 201.356 263.773C200.775 263.329 200.672 262.508 201.117 261.893C201.561 261.311 202.382 261.209 202.997 261.653C213.255 269.449 227.65 269.859 239.72 262.713C245.738 259.157 249.91 254.61 252.064 249.207C254.423 243.395 254.56 236.42 252.542 228.419C252.371 227.701 252.782 226.983 253.5 226.812C254.218 226.641 254.936 227.051 255.107 227.769C259.313 244.455 254.594 256.969 241.054 265.038C234.899 268.663 228.163 270.475 221.598 270.475Z" fill="#0C93F4"/>
<path d="M65.3037 269.654L48.4468 248.352C37.6419 234.676 39.967 214.639 53.644 203.835C67.3211 193.03 87.358 195.355 98.1628 209.032L115.02 230.333C125.825 244.01 123.5 264.046 109.823 274.851C96.1455 285.656 76.1086 283.296 65.3037 269.654Z" fill="#FFCE00"/>
<path d="M57.8839 201.031C56.4136 201.852 55.0117 202.775 53.6782 203.835C40.0012 214.639 37.6761 234.676 48.4809 248.352L65.3379 269.654C69.4752 274.851 74.9118 278.441 80.8613 280.253C51.7634 249.002 54.704 215.494 57.8839 201.031Z" fill="#FFB700"/>
<path d="M91.2559 229.786C89.0333 229.786 86.8792 228.863 85.3063 227.188C83.0154 224.692 82.5367 220.999 84.1438 217.99C84.5883 217.17 85.5799 216.862 86.4005 217.306C87.2211 217.751 87.5289 218.742 87.0844 219.563C86.1612 221.307 86.4347 223.461 87.7682 224.931C89.1017 226.401 91.2217 226.846 93.0681 226.094C93.9229 225.752 94.8803 226.128 95.2564 226.983C95.5983 227.838 95.2222 228.795 94.3674 229.171C93.3758 229.581 92.3158 229.786 91.2559 229.786Z" fill="#FFB700"/>
<path d="M103.428 243.087C101.206 243.087 99.0517 242.164 97.4788 240.488C95.1879 237.992 94.7092 234.3 96.3163 231.291C96.7608 230.47 97.7524 230.162 98.573 230.607C99.3936 231.051 99.7013 232.043 99.2568 232.864C98.3336 234.607 98.6072 236.761 99.9407 238.232C101.274 239.702 103.394 240.146 105.241 239.394C106.095 239.052 107.053 239.428 107.429 240.283C107.771 241.138 107.395 242.095 106.54 242.471C105.514 242.848 104.454 243.087 103.428 243.087Z" fill="#FFB700"/>
<path d="M110.882 255.123C110.848 255.123 110.78 255.123 110.746 255.123C100.112 254.199 90.2985 249.344 83.0839 241.48C75.8693 233.616 71.9371 223.393 71.9371 212.725C71.9371 211.802 72.6894 211.049 73.6126 211.049C74.5358 211.049 75.288 211.802 75.288 212.725C75.2538 222.538 78.9124 231.975 85.5458 239.223C92.1791 246.472 101.24 250.951 111.019 251.806C111.942 251.874 112.626 252.695 112.524 253.618C112.455 254.473 111.737 255.123 110.882 255.123Z" fill="#FFB700"/>
<path d="M168.531 81.8724L129.175 65.6997C124.559 63.8192 119.636 67.6145 120.319 72.5381L125.995 114.697C126.645 119.62 132.424 121.979 136.356 118.936L170.036 92.9506C173.968 89.9417 173.147 83.7872 168.531 81.8724Z" fill="#FF83C7"/>
<path opacity="0.44" d="M129.175 65.6997C124.559 63.8192 119.636 67.6145 120.319 72.5381L125.995 114.697C126.235 116.44 127.09 117.876 128.321 118.834L134.167 67.717L129.175 65.6997Z" fill="#FD66B0"/>
<path d="M217.837 75.4788L196.945 102.524C192.876 107.79 193.834 115.381 199.134 119.484L221.735 136.956C209.699 117.706 212.435 93.9081 217.837 75.4788Z" fill="#FFB700"/>
<path d="M263.792 148.683C254.081 155.59 251.79 169.164 258.697 178.841C265.604 188.551 279.179 190.842 288.855 183.935L304.173 173.028C306.909 171.079 307.558 167.284 305.609 164.548L287.59 139.212C285.641 136.477 281.846 135.827 279.11 137.776L263.792 148.683Z" fill="#FEACD5"/>
<path opacity="0.44" d="M261.433 181.986C268.784 188.927 280.307 189.987 288.855 183.935L304.173 173.028C306.909 171.079 307.558 167.284 305.61 164.549L305.507 164.412C291.043 174.977 274.597 184.311 261.433 181.986Z" fill="#FD66B0"/>
</svg>
