<svg xmlns="http://www.w3.org/2000/svg" viewBox="0 0 70.37 69.92"><defs><style>.cls-1{fill:#e74228;}.cls-2{fill:#f3d03c;}.cls-3{fill:#dc8137;}</style></defs><title>火焰</title><g id="图层_2" data-name="图层 2"><g id="图层_1-2" data-name="图层 1"><path class="cls-1" d="M4.45,21.66A2.53,2.53,0,0,0,.78,23.94c0,13.27-8.67,46,31.81,46,41.31,0,38.8-14.68,36.92-48.26a2,2,0,0,0-3.08-1.37L48.64,29.53a.44.44,0,0,1-.65-.2L35.84,1.09a1.79,1.79,0,0,0-3.29,0L19.61,28a.44.44,0,0,1-.61.22Z"/><path class="cls-2" d="M15,36.34a1.6,1.6,0,0,0-2.32,1.44c0,8.38-5.47,29,20.08,29,26.07,0,24.49-9.26,23.3-30.46a1.25,1.25,0,0,0-1.94-.86L42.93,41.31a.28.28,0,0,1-.41-.12L34.85,23.36a1.13,1.13,0,0,0-2.07,0l-8.17,17a.28.28,0,0,1-.38.14Z"/><path class="cls-3" d="M26.14,51.61a.68.68,0,0,0-1,.61c0,3.6,2.3,12.48,8.63,12.48s10.52-4,10-13.09a.54.54,0,0,0-.83-.38l-4.83,2.51a.13.13,0,0,1-.18-.05L34.66,46a.48.48,0,0,0-.89,0l-3.52,7.3a.12.12,0,0,1-.16.06Z"/></g></g></svg>