<svg id="e0f19d9f-6ed1-472f-a94b-4f9f3961dc9e" xmlns="http://www.w3.org/2000/svg" viewBox="0 0 707.22 539.37"><defs><style>.cls-1{fill:#ff8600;}.cls-2{fill:#2f2e41;}.cls-3{fill:#3f3d56;}.cls-4{fill:#e6e6e6;}.cls-5{opacity:0.1;isolation:isolate;}.cls-6{fill:#ccc;}</style></defs><title>听音乐</title><path class="cls-1" d="M176.68,308.88a7,7,0,0,0-2.38-4.8l-11.13-9.7a7,7,0,0,0-9.39.17,4.56,4.56,0,0,0-.48.5l-29.06,33.32L121.06,332,72.44,387.76a7,7,0,0,0,.68,9.88l11.12,9.7a7,7,0,0,0,9.88-.67l26.94-30.89,24.28-27.85L175,314A7,7,0,0,0,176.68,308.88Z" transform="translate(0.03 0)"/><path class="cls-1" d="M352.94,246l-6.76-13.12a7,7,0,0,0-9.43-3l-55.07,28.39-34.62,17.85-19.65,10.13a6.54,6.54,0,0,0-1.42,1,6.86,6.86,0,0,0-2,3.11,6.94,6.94,0,0,0,.45,5.34l2.64,5.13,4.12,8a7,7,0,0,0,4.09,3.46,7.47,7.47,0,0,0,2.15.33,6.93,6.93,0,0,0,3.19-.78l23.34-12,30.52-15.74,55.48-28.6a7,7,0,0,0,3-9.43Z" transform="translate(0.03 0)"/><path class="cls-2" d="M294.75,284.69l-.3-.63-11.82-24.35a7,7,0,0,0-4.05-3.5,6.91,6.91,0,0,0-5.38.41L244.36,274.1l-19.2,11.64a1.6,1.6,0,0,0-.4.28c-1.1,1-1.69,3.53-2.17,5.61-.17.72-.31,1.35-.45,1.76,0,.17-.11.35-.15.53a7,7,0,0,0,.54,4.81l2.36,4.71,4.26,8.48a7,7,0,0,0,6.28,3.87,6.85,6.85,0,0,0,3.08-.74l26.86-10.6,26.26-10.37a7,7,0,0,0,3.12-9.39Z" transform="translate(0.03 0)"/><circle class="cls-1" cx="199.51" cy="193.52" r="53.52"/><path class="cls-1" d="M201,407.07a7,7,0,0,0-4.45-6.23,6.81,6.81,0,0,0-2.53-.48H179.29a7,7,0,0,0-7,7v125a7,7,0,0,0,7,7h14.76a7,7,0,0,0,7-7v-125A1.37,1.37,0,0,0,201,407.07Z" transform="translate(0.03 0)"/><path class="cls-1" d="M268.09,462.89a6.88,6.88,0,0,0-.76-1.35l-25.16-35.2-20.73-29H186.08l2.5,3.49,4.45,6.23,13.79,19.28,29.55,41.33,7.57,10.58a7,7,0,0,0,9.76,1.63l12-8.59A7,7,0,0,0,268.09,462.89Zm-72.3-101.42a7,7,0,0,0-9.77-1.62l-12,8.58a7,7,0,0,0-1.62,9.77l4.4,6.15h35.36Z" transform="translate(0.03 0)"/><path class="cls-1" d="M268.32,463.23a4,4,0,0,0-.23-.34,9.63,9.63,0,0,0-3.56-3l-13.21-6.57c-3.46-1.72-7.18-1.3-8.29.94l-6.66,13.38L209,522.7c-1.12,2.24.79,5.46,4.24,7.18l13.21,6.58a9.73,9.73,0,0,0,4.23,1.06c1.86,0,3.41-.69,4.06-2l34-68.4A3.94,3.94,0,0,0,268.32,463.23Z" transform="translate(0.03 0)"/><path class="cls-2" d="M189.21,292.43,187,290.25,185.76,289l-7.06-6.95a7,7,0,0,0-4.41-2l-.56,0c-.42,0-1.06-.05-1.81-.11-2.37-.2-5.33-.46-6.36.6l-13.67,11.82-28.89,25a6.91,6.91,0,0,0-1.94,3.9,6.35,6.35,0,0,0-.08,1.07,6.09,6.09,0,0,0,.08.95,7,7,0,0,0,2,4l1.17,1.13,18.86,18.08a7,7,0,0,0,5,2,6.85,6.85,0,0,0,2.37-.43,7.07,7.07,0,0,0,2.59-1.68l32.87-39.91,2.15-2.61,1.24-1.5A7,7,0,0,0,189.21,292.43Z" transform="translate(0.03 0)"/><path class="cls-2" d="M192.36,213.36l-.06-2c3.72-.1,7-.34,9.47-2.14a6.16,6.16,0,0,0,2.38-4.53A3.51,3.51,0,0,0,203,201.8c-1.64-1.38-4.27-.93-6.19-.05l-1.66.75,3.18-23.19,2,.28-2.7,19.72c2.61-.76,5-.43,6.68,1a5.5,5.5,0,0,1,1.86,4.5,8.14,8.14,0,0,1-3.2,6.07C199.78,213.15,195.67,213.27,192.36,213.36Z" transform="translate(0.03 0)"/><rect class="cls-2" x="210.14" y="181.29" width="10.77" height="2"/><rect class="cls-2" x="176.14" y="181.29" width="10.77" height="2"/><path class="cls-2" d="M194.53,113.35c-5.94-23.79-28.94-42.06-53.59-41.6a56.8,56.8,0,0,0-33.56,12.16A54.64,54.64,0,0,0,95.07,97.38c-3.71,5.8-6,12.34-7.87,19-3.68,13.35-5.41,28.45-14.75,39.35a41,41,0,0,1-31,14A38.33,38.33,0,0,1,11.12,154c-7-9.37-10.49-22.33-6.43-33.65,2-5.55,6.28-10.79,12.41-11.71a14.46,14.46,0,0,1,14.32,6.85c2.76,4.84,1.87,11.29-1.58,15.55-3.64,4.5-9.71,5.74-15.07,3.94a13.71,13.71,0,0,1-6.38-4.53c-1.2-1.51-3.32.61-2.14,2.11a17.33,17.33,0,0,0,15.84,6.05A16.17,16.17,0,0,0,35,127.83a16.41,16.41,0,0,0-3-16.61,17.58,17.58,0,0,0-16.34-5.36c-6.32,1.34-10.92,6.55-13.3,12.32A34.34,34.34,0,0,0,.56,137a44.17,44.17,0,0,0,20.21,29.79c10.67,6.55,24,7.45,35.69,3.24a43.76,43.76,0,0,0,15.67-9.65,46.84,46.84,0,0,0,10.79-17.22c5.28-13.82,6-29.28,13.52-42.27a53.18,53.18,0,0,1,28.93-23.39,49.69,49.69,0,0,1,36.91,1.77,54.29,54.29,0,0,1,26.29,26.11,48,48,0,0,1,3.06,8.72c.47,1.88,3.36,1.1,2.9-.77Z" transform="translate(0.03 0)"/><path class="cls-2" d="M252.37,306.45q-.62-2.37-1.44-4.65a53.37,53.37,0,0,0-16.87-23.66q-1.31-1.06-2.7-2a53,53,0,0,0-15.12-7.41,8.6,8.6,0,0,0,0-4.72,9.42,9.42,0,0,0-9.13-6.62h-13A9.45,9.45,0,0,0,184.9,264a8.57,8.57,0,0,0,0,4.71,53.54,53.54,0,0,0-37.82,51.16V423.52c0,7.08,2.69,12.83,6,12.83h95s27.07,0,27.11,0c3.26-.11,5.89-5.82,5.89-12.81h0c0-23.93-5.29-57.57-15.49-79.23l-11.51-24.44A54.08,54.08,0,0,0,252.37,306.45Z" transform="translate(0.03 0)"/><path class="cls-3" d="M145.56,205.85c-6.62,0-12-8.08-12-18s5.38-18,12-18,12,8.07,12,18S152.18,205.85,145.56,205.85Z" transform="translate(0.03 0)"/><path class="cls-3" d="M252.56,205.85c-6.62,0-12-8.08-12-18s5.38-18,12-18,12,8.07,12,18S259.18,205.85,252.56,205.85Z" transform="translate(0.03 0)"/><path class="cls-3" d="M255.93,203a1.5,1.5,0,0,1-1.5-1.5,1.34,1.34,0,0,1,.08-.48,58.5,58.5,0,1,0-112.69-6.57,1.49,1.49,0,0,1-1.16,1.77,1.51,1.51,0,0,1-1.78-1.15A61.51,61.51,0,1,1,257.35,202,1.51,1.51,0,0,1,255.93,203Z" transform="translate(0.03 0)"/><path class="cls-2" d="M176.6,151.85c-2.12,2.89-1.08,6.79,1.16,9.28,2.9,3.25,7.53,3.45,11.56,2.85,4.51-.67,9.3-2.79,13.87-1.36,3.9,1.21,6.67,4.74,10.72,5.63,3.59.79,7.88-.25,9.14-4.08.61-1.84-2.29-2.62-2.89-.8-.82,2.48-4.33,2.43-6.34,1.74-3.23-1.09-5.72-3.77-8.89-5-3.74-1.51-7.8-.83-11.6,0-3.59.81-7.72,2-11.3.5-2.64-1.12-4.74-4.64-2.84-7.24C180.33,151.8,177.73,150.31,176.6,151.85Z" transform="translate(0.03 0)"/><path class="cls-3" d="M320.54,539.35h-216a1,1,0,1,1,0-2h216a1,1,0,1,1,0,2Z" transform="translate(0.03 0)"/><path class="cls-4" d="M705.35,232.44H468a1.84,1.84,0,1,1,0-3.67H705.35a1.84,1.84,0,1,1,0,3.67Z" transform="translate(0.03 0)"/><path class="cls-1" d="M604.46,131.19H512.17a19.47,19.47,0,0,1-19.45-19.45V19.45A19.47,19.47,0,0,1,512.17,0h92.29a19.47,19.47,0,0,1,19.45,19.45v92.29A19.47,19.47,0,0,1,604.46,131.19Z" transform="translate(0.03 0)"/><path class="cls-5" d="M661.2,174H568.91a19.47,19.47,0,0,1-19.45-19.45V62.25A19.47,19.47,0,0,1,568.91,42.8H661.2a19.47,19.47,0,0,1,19.45,19.45v92.29A19.47,19.47,0,0,1,661.2,174Z" transform="translate(0.03 0)"/><path class="cls-6" d="M502.06,285.35a1,1,0,0,1-1-1v-18a1,1,0,0,1,2,0v18A1,1,0,0,1,502.06,285.35Z" transform="translate(0.03 0)"/><path class="cls-3" d="M583.56,285.35a1,1,0,0,1-1-1v-18a1,1,0,0,1,2,0v18A1,1,0,0,1,583.56,285.35Z" transform="translate(0.03 0)"/><path class="cls-3" d="M590.56,285.35a1,1,0,0,1-1-1v-18a1,1,0,0,1,2,0v18A1,1,0,0,1,590.56,285.35Z" transform="translate(0.03 0)"/><path class="cls-6" d="M516.74,285.67a2.34,2.34,0,0,1-1.16-.31l-11.89-8-.07,0a2.25,2.25,0,0,1-1.06-1.94,2.31,2.31,0,0,1,1.16-2l11.8-8a2.32,2.32,0,0,1,3.54,2v16A2.32,2.32,0,0,1,516.74,285.67Zm-.1-2a.3.3,0,0,0,.26,0,.33.33,0,0,0,.16-.28v-16a.32.32,0,0,0-.32-.32.29.29,0,0,0-.16,0l-11.8,8a.37.37,0,0,0-.22.32.3.3,0,0,0,.16.27l.06,0Z" transform="translate(0.03 0)"/><path class="cls-6" d="M670.06,285.35a1,1,0,0,1-1-1v-18a1,1,0,0,1,2,0v18A1,1,0,0,1,670.06,285.35Z" transform="translate(0.03 0)"/><path class="cls-6" d="M655.36,285.67a2.32,2.32,0,0,1-2.3-2.32v-16a2.32,2.32,0,0,1,2.32-2.32,2.24,2.24,0,0,1,1.16.31l11.92,8a2.26,2.26,0,0,1,1.1,2,2.29,2.29,0,0,1-1.13,2l-11.83,8A2.54,2.54,0,0,1,655.36,285.67Zm-.3-2.32a.32.32,0,0,0,.32.32.42.42,0,0,0,.16,0l11.85-8a.33.33,0,0,0,.17-.28h0a.32.32,0,0,0-.16-.28l-11.92-8a.3.3,0,0,0-.26,0,.31.31,0,0,0-.16.28Z" transform="translate(0.03 0)"/><circle class="cls-3" cx="534.09" cy="230.61" r="12"/></svg>