<?xml version="1.0" encoding="utf-8"?>
<!-- Generator: Adobe Illustrator 23.1.1, SVG Export Plug-In . SVG Version: 6.00 Build 0)  -->
<svg version="1.1" id="图层_1" xmlns="http://www.w3.org/2000/svg" xmlns:xlink="http://www.w3.org/1999/xlink" x="0px" y="0px"
	 viewBox="0 0 750 1125" style="enable-background:new 0 0 750 1125;" xml:space="preserve">
<style type="text/css">
	.st0{fill:none;}
	.st1{fill:#FFDEC5;}
	.st2{fill:url(#SVGID_1_);}
	.st3{fill:url(#SVGID_2_);}
	.st4{fill:url(#SVGID_3_);}
	.st5{fill:url(#SVGID_4_);}
	.st6{fill:url(#SVGID_5_);}
	.st7{fill:url(#SVGID_6_);}
	.st8{fill:#FFFFFF;}
	.st9{fill:url(#SVGID_7_);}
	.st10{fill:url(#SVGID_8_);}
	.st11{fill:#FFB144;}
	.st12{fill:url(#SVGID_9_);}
	.st13{fill:url(#SVGID_10_);}
	.st14{fill:url(#SVGID_11_);}
	.st15{fill:url(#SVGID_12_);}
	.st16{opacity:0.6;fill:#FFDFC8;enable-background:new    ;}
	.st17{fill:url(#SVGID_13_);}
	.st18{fill:url(#SVGID_14_);}
	.st19{fill:url(#SVGID_15_);}
	.st20{fill:#FFFFFF;stroke:#FBA76A;stroke-width:1.5294;stroke-miterlimit:10;}
	.st21{fill:#FBA76A;}
	.st22{fill:#202D2F;}
	.st23{fill:url(#SVGID_16_);}
	.st24{fill:url(#SVGID_17_);}
	.st25{fill:#95B09A;}
	.st26{fill:#303B40;}
	.st27{fill:url(#SVGID_18_);}
</style>
<g>
	<polygon class="st0" points="460.8,387.3 473.5,395.9 476.4,368.9 	"/>
	<polygon class="st1" points="516.6,356.3 535.2,339.9 509.4,322.5 496.9,338.1 	"/>
	
		<linearGradient id="SVGID_1_" gradientUnits="userSpaceOnUse" x1="496.8374" y1="-34.6514" x2="535.1721" y2="-34.6514" gradientTransform="matrix(1 0 0 1 0 374.02)">
		<stop  offset="2.000000e-02" style="stop-color:#FFDFC8"/>
		<stop  offset="0.22" style="stop-color:#FFC6A1"/>
		<stop  offset="0.45" style="stop-color:#FFAC7A"/>
		<stop  offset="0.67" style="stop-color:#FF9A5D"/>
		<stop  offset="0.86" style="stop-color:#FF8F4C"/>
		<stop  offset="1" style="stop-color:#FF8B46"/>
	</linearGradient>
	<polygon class="st2" points="516.6,356.3 535.2,339.9 509.4,322.5 496.9,338.1 	"/>
	
		<linearGradient id="SVGID_2_" gradientUnits="userSpaceOnUse" x1="494.0622" y1="-57.7346" x2="530.022" y2="-57.7346" gradientTransform="matrix(1 0 0 1 0 374.02)">
		<stop  offset="2.000000e-02" style="stop-color:#FFDFC8"/>
		<stop  offset="0.26" style="stop-color:#FFDDC5"/>
		<stop  offset="0.43" style="stop-color:#FFD7BC"/>
		<stop  offset="0.58" style="stop-color:#FFCEAD"/>
		<stop  offset="0.71" style="stop-color:#FFC097"/>
		<stop  offset="0.83" style="stop-color:#FFAE7B"/>
		<stop  offset="0.94" style="stop-color:#FF985A"/>
		<stop  offset="1" style="stop-color:#FF8B46"/>
	</linearGradient>
	<path class="st3" d="M529.8,298l-27.9,41.8c-0.4,0.6-1.2,0.8-1.9,0.4l0,0l-5.4-3.7c-0.6-0.4-0.8-1.2-0.4-2l27.8-41.9
		c0.4-0.6,1.2-0.8,1.9-0.4l0,0l5.4,3.7C530.1,296.6,530.2,297.4,529.8,298z"/>
	
		<linearGradient id="SVGID_3_" gradientUnits="userSpaceOnUse" x1="507.3274" y1="-56.5105" x2="532.1789" y2="-56.5105" gradientTransform="matrix(1 0 0 1 0 374.02)">
		<stop  offset="2.000000e-02" style="stop-color:#FFDFC8"/>
		<stop  offset="0.26" style="stop-color:#FFDDC5"/>
		<stop  offset="0.43" style="stop-color:#FFD7BC"/>
		<stop  offset="0.58" style="stop-color:#FFCEAD"/>
		<stop  offset="0.71" style="stop-color:#FFC097"/>
		<stop  offset="0.83" style="stop-color:#FFAE7B"/>
		<stop  offset="0.94" style="stop-color:#FF985A"/>
		<stop  offset="1" style="stop-color:#FF8B46"/>
	</linearGradient>
	<path class="st4" d="M512.9,333.4l-5-3.5c-0.5-0.3-0.6-1-0.3-1.5L525,302c0.3-0.5,1-0.6,1.5-0.3l0,0l5,3.5c0.5,0.3,0.6,1,0.3,1.5
		l-17.5,26.4C514.1,333.5,513.4,333.7,512.9,333.4L512.9,333.4z"/>
	
		<linearGradient id="SVGID_4_" gradientUnits="userSpaceOnUse" x1="514.3768" y1="-51.735" x2="539.2353" y2="-51.735" gradientTransform="matrix(1 0 0 1 0 374.02)">
		<stop  offset="2.000000e-02" style="stop-color:#FFDFC8"/>
		<stop  offset="0.26" style="stop-color:#FFDDC5"/>
		<stop  offset="0.43" style="stop-color:#FFD7BC"/>
		<stop  offset="0.58" style="stop-color:#FFCEAD"/>
		<stop  offset="0.71" style="stop-color:#FFC097"/>
		<stop  offset="0.83" style="stop-color:#FFAE7B"/>
		<stop  offset="0.94" style="stop-color:#FF985A"/>
		<stop  offset="1" style="stop-color:#FF8B46"/>
	</linearGradient>
	<path class="st5" d="M520,338.1l-5-3.5c-0.5-0.3-0.6-1-0.3-1.5l17.5-26.4c0.3-0.5,1-0.6,1.5-0.3l0,0l5,3.5c0.5,0.3,0.6,1,0.3,1.5
		l-17.5,26.4C521.1,338.3,520.5,338.5,520,338.1L520,338.1z"/>
	
		<linearGradient id="SVGID_5_" gradientUnits="userSpaceOnUse" x1="521.3423" y1="-46.9947" x2="546.1921" y2="-46.9947" gradientTransform="matrix(1 0 0 1 0 374.02)">
		<stop  offset="2.000000e-02" style="stop-color:#FFDFC8"/>
		<stop  offset="0.26" style="stop-color:#FFDDC5"/>
		<stop  offset="0.43" style="stop-color:#FFD7BC"/>
		<stop  offset="0.58" style="stop-color:#FFCEAD"/>
		<stop  offset="0.71" style="stop-color:#FFC097"/>
		<stop  offset="0.83" style="stop-color:#FFAE7B"/>
		<stop  offset="0.94" style="stop-color:#FF985A"/>
		<stop  offset="1" style="stop-color:#FF8B46"/>
	</linearGradient>
	<path class="st6" d="M526.9,342.9l-5-3.5c-0.5-0.3-0.6-1-0.3-1.5l17.5-26.4c0.3-0.5,1-0.6,1.5-0.3l0,0l5,3.5c0.5,0.3,0.6,1,0.3,1.5
		l-17.5,26.4C528.1,343.1,527.4,343.3,526.9,342.9L526.9,342.9z"/>
	
		<linearGradient id="SVGID_6_" gradientUnits="userSpaceOnUse" x1="528.2466" y1="-42.7923" x2="553.0978" y2="-42.7923" gradientTransform="matrix(1 0 0 1 0 374.02)">
		<stop  offset="2.000000e-02" style="stop-color:#FFDFC8"/>
		<stop  offset="0.26" style="stop-color:#FFDDC5"/>
		<stop  offset="0.43" style="stop-color:#FFD7BC"/>
		<stop  offset="0.58" style="stop-color:#FFCEAD"/>
		<stop  offset="0.71" style="stop-color:#FFC097"/>
		<stop  offset="0.83" style="stop-color:#FFAE7B"/>
		<stop  offset="0.94" style="stop-color:#FF985A"/>
		<stop  offset="1" style="stop-color:#FF8B46"/>
	</linearGradient>
	<path class="st7" d="M533.8,347.1l-5-3.5c-0.5-0.3-0.6-1-0.3-1.5l17.5-26.4c0.3-0.5,1-0.6,1.5-0.3l0,0l5,3.5c0.5,0.3,0.6,1,0.3,1.5
		l-17.5,26.4C535,347.3,534.3,347.4,533.8,347.1L533.8,347.1z"/>
	<path class="st8" d="M352.9,327.6l82.3,51.6l62.2-48.8l19.8,25.2l-9.5,9.1l-20.4,19.6c-6.5,6.3-13,12.5-19.5,18.8
		c-7.7,7.4-14.8,16.6-26.7,15.1c-3.7-0.4-6.8-2-10.1-3.6c-8.8-4.6-18.1-8.3-27.2-12.5L377.2,390l-25.6-11.6l-16.7-7.6
		c-0.1-0.1-2.7-1.2-2.7-1.2L352.9,327.6z"/>
	<path class="st8" d="M512.8,331.5l-3.5-2.1c-0.3-0.2-0.4-0.6-0.3-1l3.5-6.2c0.2-0.3,0.6-0.4,0.9-0.3l0,0l3.5,2.1
		c0.3,0.2,0.4,0.6,0.3,1l-3.5,6.2C513.6,331.5,513.1,331.6,512.8,331.5L512.8,331.5z"/>
	<path class="st8" d="M520.5,336l-3.5-2.1c-0.3-0.2-0.4-0.6-0.3-1l3.5-6.2c0.2-0.3,0.6-0.4,0.9-0.3l0,0l3.5,2.1
		c0.3,0.2,0.4,0.6,0.3,1l-3.5,6.2C521.3,336.1,520.8,336.2,520.5,336C520.5,336.1,520.5,336,520.5,336z"/>
	<path class="st8" d="M527.4,340.9l-3.5-2.1c-0.3-0.2-0.4-0.6-0.3-1l3.5-6.2c0.2-0.3,0.6-0.4,0.9-0.3l0,0l3.5,2.1
		c0.3,0.2,0.4,0.6,0.3,1l-3.5,6.2C528.1,341,527.7,341.1,527.4,340.9L527.4,340.9z"/>
	<path class="st8" d="M534.3,344.9l-3.5-2.1c-0.3-0.2-0.4-0.6-0.3-1l3.5-6.2c0.2-0.3,0.6-0.4,0.9-0.3l0,0l3.5,2.1
		c0.3,0.2,0.4,0.6,0.3,1l-3.5,6.2C535.1,345,534.7,345.1,534.3,344.9L534.3,344.9z"/>
	
		<linearGradient id="SVGID_7_" gradientUnits="userSpaceOnUse" x1="349.0103" y1="-7.6022" x2="404.039" y2="-7.6022" gradientTransform="matrix(1 0 0 1 0 374.02)">
		<stop  offset="2.000000e-02" style="stop-color:#FFDFC8"/>
		<stop  offset="0.11" style="stop-color:#FFDFC8;stop-opacity:0.94"/>
		<stop  offset="0.3" style="stop-color:#FDDFC9;stop-opacity:0.77"/>
		<stop  offset="0.56" style="stop-color:#FCDFCB;stop-opacity:0.51"/>
		<stop  offset="0.88" style="stop-color:#F9E0CD;stop-opacity:0.15"/>
		<stop  offset="1" style="stop-color:#F8E0CE;stop-opacity:0"/>
	</linearGradient>
	<path class="st9" d="M357.8,330.7c-0.7,0.2,3.7,22.2,14.2,39.9c9.2,15.3,21.6,25.1,32,31.5l-55-24.7l0.8-12
		c1.1-0.5,9.7-4.5,12.4-14.4S358.3,330.5,357.8,330.7z"/>
	<path class="st8" d="M521.8,303l-3.5-2.1c-0.3-0.2-0.4-0.6-0.3-1l3.5-6.2c0.2-0.3,0.6-0.4,0.9-0.3l0,0l3.5,2.1
		c0.3,0.2,0.4,0.6,0.3,1l-3.5,6.2C522.5,303.1,522.1,303.2,521.8,303L521.8,303z"/>
	<path class="st8" d="M77.3,745.9v132.8c0,0,90-3.9,57-113.1L123,743.4H77.3V745.9z"/>
	
		<linearGradient id="SVGID_8_" gradientUnits="userSpaceOnUse" x1="81.5952" y1="418.5115" x2="132.2959" y2="418.5115" gradientTransform="matrix(1 0 0 1 0 374.02)">
		<stop  offset="2.000000e-02" style="stop-color:#FFDFC8"/>
		<stop  offset="0.11" style="stop-color:#FFDFC8;stop-opacity:0.94"/>
		<stop  offset="0.29" style="stop-color:#FEDFC9;stop-opacity:0.77"/>
		<stop  offset="0.54" style="stop-color:#FEDFC9;stop-opacity:0.51"/>
		<stop  offset="0.85" style="stop-color:#FCDFCB;stop-opacity:0.15"/>
		<stop  offset="0.97" style="stop-color:#FCDFCB;stop-opacity:0"/>
	</linearGradient>
	<path class="st10" d="M132.3,767c0,0-46.7,11.5-50.1,74.7l-0.6-98.4h41.3L132.3,767z"/>
	<path class="st8" d="M545.8,884.1l-36-74.4l44.3-13.6c0,0,84.1-47.2,116.8,20.5L545.8,884.1z"/>
	<path class="st11" d="M332.6,552.5l-19,57.7c0,0-7.3,19.5-28.1,32.4L132.3,767c0,0-21.2-9.6-14-24.6c0,0,122.3-155.2,131.4-150.1
		l11-90.9L332.6,552.5z"/>
	
		<linearGradient id="SVGID_9_" gradientUnits="userSpaceOnUse" x1="512.5508" y1="466.1207" x2="592.0024" y2="466.1207" gradientTransform="matrix(1 0 0 1 0 374.02)">
		<stop  offset="3.000000e-02" style="stop-color:#FCDFCB;stop-opacity:0"/>
		<stop  offset="0.15" style="stop-color:#FCDFCB;stop-opacity:0.15"/>
		<stop  offset="0.46" style="stop-color:#FEDFC9;stop-opacity:0.51"/>
		<stop  offset="0.71" style="stop-color:#FEDFC9;stop-opacity:0.77"/>
		<stop  offset="0.89" style="stop-color:#FFDFC8;stop-opacity:0.94"/>
		<stop  offset="0.98" style="stop-color:#FFDFC8"/>
	</linearGradient>
	<path class="st12" d="M554.2,796.1c0,0-4.2,68,37.8,61.5l-46.2,26.6l-33.3-68.9L554.2,796.1z"/>
	
		<linearGradient id="SVGID_10_" gradientUnits="userSpaceOnUse" x1="116.7857" y1="260.175" x2="332.6253" y2="260.175" gradientTransform="matrix(1 0 0 1 0 374.02)">
		<stop  offset="0" style="stop-color:#FF8944"/>
		<stop  offset="0.94" style="stop-color:#FFB144"/>
	</linearGradient>
	<path class="st13" d="M332.6,552.5l-19,57.7c0,0-7.3,19.5-28.1,32.4L132.3,767c0,0-21.2-9.6-14-24.6c0,0,122.3-155.2,131.4-150.1
		l11-90.9L332.6,552.5z"/>
	<path class="st11" d="M271.4,457.8c0,0-43.1,43.4,3.8,79.3l153.3,98.8c0.5,0.3-0.2,7.6-0.2,8.3c0.1,7.3,0.7,14.5,1.8,21.7
		c2,13.9,5.6,27.7,11.1,40.6c7.5,17.5,19.1,32.7,29.6,48.4c9.2,18.7,24.2,36,35.8,53.2c0.9,1.3,1.9,2.7,2.8,3.8
		c4.7,5.7,10.4,9.4,18.5,8.5c8.3-0.9,15.1-6.3,19.9-13c2.5-3.5,4.5-7.3,6.2-11.3L474.7,608c0,0-6.6-25.5-44.1-60.2l-78-84.6
		L271.4,457.8z"/>
	
		<linearGradient id="SVGID_11_" gradientUnits="userSpaceOnUse" x1="219.0384" y1="263.9989" x2="519.9415" y2="266.001" gradientTransform="matrix(1 0 0 1 0 374.02)">
		<stop  offset="0" style="stop-color:#FF8944"/>
		<stop  offset="0.94" style="stop-color:#FFB144"/>
	</linearGradient>
	<path class="st14" d="M271.4,457.8c0,0-43.1,43.4,3.8,79.3l153.3,98.8c0.5,0.3-0.2,7.6-0.2,8.3c0.1,7.3,0.7,14.5,1.8,21.7
		c2,13.9,5.6,27.7,11.1,40.6c7.5,17.5,19.1,32.7,29.6,48.4c9.2,18.7,24.2,36,35.8,53.2c0.9,1.3,1.9,2.7,2.8,3.8
		c4.7,5.7,10.4,9.4,18.5,8.5c8.3-0.9,15.1-6.3,19.9-13c2.5-3.5,4.5-7.3,6.2-11.3L474.7,608c0,0-6.6-25.5-44.1-60.2l-78-84.6
		L271.4,457.8z"/>
	
		<linearGradient id="SVGID_12_" gradientUnits="userSpaceOnUse" x1="326.8415" y1="-71.3039" x2="345.9126" y2="-71.3039" gradientTransform="matrix(1 0 0 1 0 374.02)">
		<stop  offset="0" style="stop-color:#FF8B46"/>
		<stop  offset="9.000000e-02" style="stop-color:#FF995C"/>
		<stop  offset="0.28" style="stop-color:#FFB283"/>
		<stop  offset="0.47" style="stop-color:#FFC6A1"/>
		<stop  offset="0.65" style="stop-color:#FFD4B7"/>
		<stop  offset="0.82" style="stop-color:#FFDCC4"/>
		<stop  offset="0.98" style="stop-color:#FFDFC8"/>
	</linearGradient>
	<path class="st15" d="M343.4,294c0,0-3.7,12.9,2.3,18.4c2.2,2-19.5,0.6-18.9-8l6.1-1.8l0.1-8.6l3.3-2L343.4,294z"/>
	<path class="st16" d="M335.6,294c0,0,4.8,0.8,7.8-0.1c-0.7,1.5-3,6.3-8.2,8.7c-1.8,0.8-3.7,1.3-5.8,1.4c0.4-1.3,0.8-3,1.5-4.9
		c0.8-2.5,1.9-5,2.7-5.3C335.3,293.6,335.6,294,335.6,294z"/>
	
		<linearGradient id="SVGID_13_" gradientUnits="userSpaceOnUse" x1="318.4547" y1="-100.9126" x2="362.882" y2="-100.9126" gradientTransform="matrix(1 0 0 1 0 374.02)">
		<stop  offset="0" style="stop-color:#FF8B46"/>
		<stop  offset="0.17" style="stop-color:#FF9556"/>
		<stop  offset="0.5" style="stop-color:#FFB180"/>
		<stop  offset="0.95" style="stop-color:#FFDCC3"/>
		<stop  offset="0.98" style="stop-color:#FFDFC8"/>
	</linearGradient>
	<path class="st17" d="M360.3,273.8L360.3,273.8c0-0.2,0-0.4,0-0.7c0-11.7-9.4-21.2-20.9-21.2s-20.9,9.5-20.9,21.2
		s9.4,21.2,20.9,21.2c9.5,0,17.7-6.4,20.2-15.6c1.3,0.4,2.8-0.3,3.2-1.6c0.4-1.3-0.3-2.8-1.6-3.2
		C360.9,273.9,360.7,273.8,360.3,273.8L360.3,273.8z"/>
	<path class="st16" d="M358.3,264.5c1.3,0-5.9,13.3-9.9,13.3c0,0-0.5,11.2-7.6,13.3c-0.9,0.3-1.9,0.5-2.7,0.6
		c-5,0.9-6.7-0.6-6.7-2.1C331.2,287.8,358.3,264.5,358.3,264.5z"/>
	
		<linearGradient id="SVGID_14_" gradientUnits="userSpaceOnUse" x1="181.7112" y1="18.9701" x2="359.2278" y2="18.9701" gradientTransform="matrix(1 0 0 1 0 374.02)">
		<stop  offset="0" style="stop-color:#FBA76A"/>
		<stop  offset="0.45" style="stop-color:#FBA768"/>
		<stop  offset="0.94" style="stop-color:#FFB144"/>
	</linearGradient>
	<path class="st18" d="M295.2,255.3c3.9-5.7,8.5-10.9,14.5-14.4c9.8-5.7,22.5-8,32.7-2.1c7.3,4.2,17.5,14.2,16.8,23.5
		c-0.5,6.3-5.3,10.8-10.5,13.5c-14.9,7.7-9.1,7.7-9.1,7.7s2.5,7.8-4.8,11c-0.9,0.4-1.9,7.5-1.9,8.6c-13.9,4.5-26.2,8.2-40.1,12.6
		l-13.1,62.6c4.4,56.4-9.3,86.6-23.4,103.9c-8.6,10.5-26.1,27-21.4,40.1c2.6,7.2,10.4,10.4,5.4,23.2c-2.2,5.6-10.7-2.4-15.9-0.3
		c-4,1.6-7.9,3.9-12.2,5c-8.6,2.3-14.1-2.5-18.5-9.4c-3.2-5-4.8-11.1-5.2-17.1c-0.4-8.9,1.5-18.2,4.3-26.5c2.6-7.6,5.7-15,6.1-23.3
		c0.5-9.7-6.2-11.9-10.8-19.1c-3.2-5.2-5.3-10.8-6.1-16.8c-1.6-11.4,0.2-24.3,4.1-35.1c3.1-8.6,7.8-16.4,14.1-22.9
		c6.7-6.8,14-13.9,18.7-22.4c4.6-8.6,5.3-18.4,8.1-27.6c3.1-9.5,8.6-17.9,15.9-24.5c7.7-7,17.1-11.9,25.5-18.1
		c6.8-5,12.7-11.1,17.5-18.1C289.2,264.8,292.1,259.8,295.2,255.3z"/>
	
		<linearGradient id="SVGID_15_" gradientUnits="userSpaceOnUse" x1="359.0829" y1="-115.051" x2="371.5588" y2="-115.051" gradientTransform="matrix(1 0 0 1 0 374.02)">
		<stop  offset="0" style="stop-color:#FBA76A"/>
		<stop  offset="0.45" style="stop-color:#FBA768"/>
		<stop  offset="0.94" style="stop-color:#FFB144"/>
	</linearGradient>
	<path class="st19" d="M359.4,261.1c0.3-0.2,0.6-0.3,1-0.3c1-0.1,2.2-0.1,3.2-0.3c1.2-0.3,2.7-0.9,2.9-2.4c0.1-0.5-0.2-1.1-0.7-1.2
		c-0.4-0.1-2,0.4-2-0.3c0-0.2,0-0.4,0.1-0.5c0.3-0.8,0.7-1.6,1.4-2.1c0.5-0.3,1.1-0.5,1.8-0.5c1.3-0.1,2.7,0.3,3.6,1.3
		c0.7,0.9,1,2.2,0.9,3.3c-0.1,2.2-1.2,4.1-3,5.3c-1.2,0.7-2.6,1.1-4,1.1c-1.6,0.1-3.4,0.1-5,0c-0.1,0-0.1,0-0.2-0.1l-0.1-0.1
		c-0.1-0.7-0.2-1.3-0.1-2.1C359,261.8,359.1,261.4,359.4,261.1L359.4,261.1z"/>
	<ellipse class="st8" cx="336.1" cy="276.9" rx="13.6" ry="13.8"/>
	<ellipse class="st20" cx="336.1" cy="276.9" rx="9.7" ry="9.8"/>
	<path class="st21" d="M341.4,272.9l-9.8,1.8c-0.1,0-0.2,0-0.2-0.1l-0.1-0.8c0-0.1,0-0.2,0.1-0.2l9.8-1.8c0.1,0,0.2,0,0.2,0.1
		l0.1,0.8C341.5,272.8,341.5,272.9,341.4,272.9L341.4,272.9z"/>
	<path class="st21" d="M331.4,273.4h0.8c0.1,0,0.2,0.1,0.2,0.2v8.5c0,0.1-0.1,0.2-0.2,0.2h-0.8c-0.1,0-0.2-0.1-0.2-0.2v-8.5
		C331.3,273.4,331.4,273.4,331.4,273.4z"/>
	<path class="st21" d="M340.6,271.9h0.8c0.1,0,0.2,0.1,0.2,0.2v8.5c0,0.1-0.1,0.2-0.2,0.2h-0.8c-0.1,0-0.2-0.1-0.2-0.2v-8.5
		C340.4,271.9,340.5,271.9,340.6,271.9z"/>
	<ellipse class="st21" cx="330.8" cy="281" rx="1.5" ry="1.5"/>
	<ellipse class="st21" cx="339.9" cy="280.3" rx="1.5" ry="1.5"/>
	<path class="st8" d="M352.9,506.4l7,7.2l17.5,18.1l22.9,23.7l23.1,24l18.2,18.9c2.8,2.9,7.3,6.4,8.9,10.1c3.7,9.1,7.4,18,11.1,27.1
		l11.5,28l13.5,32.9l14.1,34.4l13.4,32.6l11.3,27.5l7.9,19.2l3.1,7.6l5.2-3.4l-2.8-6.7l-7.5-17.9l-11-26.2l-13.2-31.3l-14.1-33.4
		l-13.6-32.4c-3.9-9.5-7.8-18.9-11.9-28.3c-3.7-8.9-7.4-17.9-11.5-26.7c-2.3-4.8-4.8-8.9-8.7-12.7l-7.4-7.5l-20.5-20.9l-24-24.5
		l-22.7-23.2l-16.5-17l-5.6-5.7L352.9,506.4z"/>
	<path class="st8" d="M350.8,245.2c0,0-11.9,3.4-13,18l3.6,1c0,0,3.3-14.5,12.3-15.8L350.8,245.2z"/>
	<ellipse class="st22" cx="355.2" cy="275.4" rx="1" ry="2.2"/>
	<path class="st8" d="M361.5,337.1l-16-25.5c-0.1-0.2-3.3,0.3-3.7,0.3c-1,0-2.2,0-3.2-0.1c-1.5-0.2-3.1-0.6-4.5-1.4
		c-2.5-1.3-4.1-3.8-4.5-6.6c0.1,0.4-12.7,3.9-13.8,4.3c-4.5,1.3-9.1,2.6-13.6,3.9c-3.5,1.1-7.3,2.2-10.5,4.1
		c-1.1,0.7-2.3,1.4-3.3,2.3c-5.8,4.5-10.4,10.5-15.4,16c-5.2,5.8-10.4,11.5-15.6,17.2l-19.6,21.7l-16,17.6l-6.6,7.3
		c-16,15-3.6,32.8-3.6,32.8l94.8,56.1l17.9-31.5l15.6,18.7l4.3-25.5l5.5-83.5C368.6,355.8,361.5,337.1,361.5,337.1z M272.9,420.8
		l-14.6-10l17.9-21.3L272.9,420.8z"/>
	<path class="st1" d="M324.7,455.3h41.2c0.7,0,1.3,0.6,1.3,1.3v6.7c0,0.7-0.6,1.3-1.3,1.3h-41.2c-0.7,0-1.3-0.6-1.3-1.3v-6.7
		C323.5,455.9,324,455.3,324.7,455.3z"/>
	<path class="st1" d="M324.7,455.3h41.2c0.7,0,1.3,0.6,1.3,1.3v6.7c0,0.7-0.6,1.3-1.3,1.3h-41.2c-0.7,0-1.3-0.6-1.3-1.3v-6.7
		C323.5,455.9,324,455.3,324.7,455.3z"/>
	<polygon class="st21" points="306.5,324 226.3,410.8 314.8,472.3 316.4,469.4 231.1,410.8 309.1,326.6 	"/>
	
		<linearGradient id="SVGID_16_" gradientUnits="userSpaceOnUse" x1="321.3431" y1="89.1246" x2="384.532" y2="89.1246" gradientTransform="matrix(1 0 0 1 0 374.02)">
		<stop  offset="2.000000e-02" style="stop-color:#303B40"/>
		<stop  offset="0.47" style="stop-color:#323D40"/>
		<stop  offset="0.63" style="stop-color:#394341"/>
		<stop  offset="0.75" style="stop-color:#444E41"/>
		<stop  offset="0.84" style="stop-color:#555D43"/>
		<stop  offset="0.92" style="stop-color:#6B7144"/>
		<stop  offset="0.99" style="stop-color:#868A46"/>
		<stop  offset="1" style="stop-color:#898D46"/>
	</linearGradient>
	<path class="st23" d="M350.9,500.4l-28.8-16.8c-0.7-0.4-1-1.3-0.5-2.1l31.4-55.1c0.4-0.7,1.3-1,2.1-0.6l0,0l28.8,16.8
		c0.7,0.4,1,1.3,0.5,2.2l-31.4,55.1C352.5,500.6,351.6,500.8,350.9,500.4L350.9,500.4z"/>
	
		<linearGradient id="SVGID_17_" gradientUnits="userSpaceOnUse" x1="306.4506" y1="112.6574" x2="375.6132" y2="112.6574" gradientTransform="matrix(1 0 0 1 0 374.02)">
		<stop  offset="2.000000e-02" style="stop-color:#FFDFC8"/>
		<stop  offset="0.26" style="stop-color:#FFDDC5"/>
		<stop  offset="0.43" style="stop-color:#FFD7BC"/>
		<stop  offset="0.58" style="stop-color:#FFCEAD"/>
		<stop  offset="0.71" style="stop-color:#FFC097"/>
		<stop  offset="0.83" style="stop-color:#FFAE7B"/>
		<stop  offset="0.94" style="stop-color:#FF985A"/>
		<stop  offset="1" style="stop-color:#FF8B46"/>
	</linearGradient>
	<path class="st24" d="M306.5,488.1l43.2,29.8c2,0,3.9-0.8,5.2-2.3c1.6-2,2.1-4.7,1.1-7.2c2.5,0.3,4.9-0.7,6.3-2.8
		c1.9-2.8,0.6-5.9,0.5-6.2c2.7,0.3,5.3-1.1,6.2-3.3c0.9-2.4-0.2-4.5-0.4-4.8c5.6-0.4,8.5-3,6.3-9.6c0,0-48.9-26.5-49.8-26.2
		C324.4,455.6,306.5,488.1,306.5,488.1z"/>
	<path class="st25" d="M358.5,444.9l-8.2-4.3c-0.4-0.2-0.5-0.7-0.3-1.1l4.3-8.3c0.2-0.4,0.7-0.5,1-0.3l0,0l8.2,4.3
		c0.4,0.2,0.5,0.7,0.3,1.1l-4.3,8.3C359.4,445,358.9,445.1,358.5,444.9L358.5,444.9z"/>
	<ellipse class="st26" cx="356" cy="434.7" rx="2" ry="2"/>
	<ellipse class="st26" cx="353.9" cy="438.7" rx="2" ry="2"/>
	<ellipse class="st26" cx="360.1" cy="437.1" rx="2" ry="2"/>
	<path class="st11" d="M567.2,822.6l-4.2-0.4c-0.5,0-0.8-0.5-0.8-1l3.5-40.5c0-0.5,0.5-0.8,0.9-0.8l4.2,0.4c0.5,0,0.8,0.5,0.8,1
		l-3.5,40.5C568.1,822.3,567.7,822.6,567.2,822.6L567.2,822.6z"/>
	<path class="st11" d="M580.6,817.9l-4.2-0.4c-0.5,0-0.8-0.5-0.8-1l3.3-37.8c0-0.5,0.5-0.8,0.9-0.8l0,0l4.2,0.4c0.5,0,0.8,0.5,0.8,1
		l-3.3,37.8C581.5,817.6,581.1,818,580.6,817.9z"/>
	<path class="st11" d="M594.7,814.1l-4.2-0.4c-0.5,0-0.8-0.5-0.8-1l2.9-33.1c0-0.5,0.5-0.8,0.9-0.8l4.2,0.4c0.5,0,0.8,0.5,0.8,1
		l-2.9,33.1C595.6,813.8,595.2,814.1,594.7,814.1z"/>
	<path class="st11" d="M107.2,775.3l0.8-4.2c0.1-0.5,0.6-0.8,1-0.7l39.3,8.1c0.5,0.1,0.8,0.6,0.7,1l-0.8,4.2c-0.1,0.5-0.5,0.8-1,0.7
		l0,0l-39.3-8C107.4,776.2,107,775.8,107.2,775.3z"/>
	<path class="st11" d="M110.1,789.3l0.8-4.2c0.1-0.5,0.6-0.8,1-0.7l36.7,7.5c0.5,0.1,0.8,0.6,0.7,1l-0.8,4.2c-0.1,0.5-0.6,0.8-1,0.7
		l0,0l-36.7-7.5C110.3,790.2,110,789.8,110.1,789.3L110.1,789.3z"/>
	<path class="st11" d="M112.3,803.9l0.8-4.2c0.1-0.5,0.6-0.8,1-0.7l32,6.6c0.5,0.1,0.8,0.6,0.7,1l-0.8,4.2c-0.1,0.5-0.6,0.8-1,0.7
		l0,0l-32-6.6C112.5,804.9,112.2,804.4,112.3,803.9z"/>
	<path class="st11" d="M76,741.7h5.2c0.5,0,1,0.4,1,1v136.5c0,0.5-0.4,1-1,1H76c-0.5,0-1-0.4-1-1V742.7
		C75,742.1,75.4,741.7,76,741.7z"/>
	<path class="st11" d="M546.7,889.1l-2.4-4.5c-0.3-0.5-0.1-1.1,0.4-1.4L671,814.8c0.5-0.3,1.1-0.1,1.4,0.4l2.4,4.5
		c0.3,0.5,0.1,1.1-0.4,1.4L548,889.6C547.6,889.9,547,889.7,546.7,889.1z"/>
	
		<linearGradient id="SVGID_18_" gradientUnits="userSpaceOnUse" x1="272.8562" y1="16.9767" x2="311.345" y2="16.9767" gradientTransform="matrix(1 0 0 1 0 374.02)">
		<stop  offset="3.000000e-02" style="stop-color:#FCDFCB;stop-opacity:0"/>
		<stop  offset="0.15" style="stop-color:#FCDFCB;stop-opacity:0.15"/>
		<stop  offset="0.46" style="stop-color:#FEDFC9;stop-opacity:0.51"/>
		<stop  offset="0.71" style="stop-color:#FEDFC9;stop-opacity:0.77"/>
		<stop  offset="0.89" style="stop-color:#FFDFC8;stop-opacity:0.94"/>
		<stop  offset="0.98" style="stop-color:#FFDFC8"/>
	</linearGradient>
	<path class="st27" d="M311.4,352.2l-35.2,37.2l-3.3,31.3l14.7,9c0.2-8,1-16.1,2.6-24C293.8,386.8,301,368.6,311.4,352.2z"/>
</g>
</svg>
