<svg width="145" height="128" viewBox="0 0 145 128" fill="none" xmlns="http://www.w3.org/2000/svg">
<path d="M132.2 15.3C132.2 15.3 131.8 26.5999 137.6 29.1999C143.5 31.8999 154.4 54.0999 123.5 67.9999C106.5 75.5999 100.4 72 94.4 63.9C86.8 53.6 88.4 39.7999 93.4 33.5999C107.8 15.4999 102.9 10.1999 102.9 10.1999C102.9 10.1999 124.1 4.79999 132.2 15.3Z" fill="#2815AD"/>
<path d="M110.4 34.2C110.4 34.2 75.7 56.3 74.7 67.8C74.6 67.8 104.5 83.6 110.4 34.2Z" fill="#FBD1AB"/>
<path d="M84.6001 70.4H42.8001C41.6001 70.4 40.4001 69.5 40.1001 68.3L33.7 44.6C33.4 43.4 34.1 42.5 35.2 42.5H77.0001C78.2001 42.5 79.4 43.4 79.7 44.6L86.1001 68.3C86.5001 69.4 85.8001 70.4 84.6001 70.4Z" fill="#2310AB"/>
<path d="M111 113.8C111 113.8 76.8 51.3 48.5 63.5C20.2 75.7 12.2 116.2 12.2 116.2L19.3 117.3L55.2 78.8001C55.1 78.8001 94.3 159.6 111 113.8Z" fill="#4D8BEA"/>
<path d="M108.9 36C108.9 36 93.3 36.9 90.3 86.4L121.9 112.5C121.9 112.5 154.1 36.8 117.2 34.6L108.9 36Z" fill="#FAFCFD"/>
<path d="M113.6 38.4C111.5 38.4 109.9 36.7 109.9 34.7V31.1C109.9 29 111.6 27.4 113.6 27.4C115.7 27.4 117.3 29.1 117.3 31.1V34.7C117.3 36.7 115.7 38.4 113.6 38.4Z" fill="#F8C196"/>
<path d="M113.4 31.1C108.7 31.1 104.8 27.2 104.8 22.5V17.5C104.8 12.8 108.7 8.90002 113.4 8.90002C118.1 8.90002 122 12.8 122 17.5V22.5C122 27.3 118.1 31.1 113.4 31.1Z" fill="#FFD8AA"/>
<path d="M123.8 14.6C123.8 14.6 96.0999 22.7999 100.6 9.19995C105.7 -6.10005 123.8 2.40002 123.8 2.40002C123.8 2.40002 132.2 6.50002 132.2 16.4C132.3 26.3 123.8 14.6 123.8 14.6Z" fill="#2815AD"/>
<path d="M122 23.7C123.546 23.7 124.8 22.4464 124.8 20.9C124.8 19.3536 123.546 18.1 122 18.1C120.454 18.1 119.2 19.3536 119.2 20.9C119.2 22.4464 120.454 23.7 122 23.7Z" fill="#FFD8AA"/>
<path d="M134.5 65.5001C132.6 79.6001 129.7 91.1001 126 90.8001C122.3 90.5001 120.1 78.8 121.1 64.6C122.1 50.4 124.4 39.0001 128.1 39.3001C131.9 39.5001 136.6 50.7001 134.5 65.5001Z" fill="#FBD1AB"/>
<path d="M122 112.6C122 112.6 82.3 53.5 55.2 68.1C28.1 82.8 24.8 116 24.8 116H31.4L63.3 82.8C63.3 82.8 109.5 159.7 122 112.6Z" fill="#679CF6"/>
<path d="M13.5 116C13.5 116 0.899951 117.2 0.199951 123.1H18.5L20.1 116H13.5Z" fill="#1F1476"/>
<path d="M25.4001 116C25.4001 116 12.8001 117.2 12.1001 123.1H30.4001L32.0001 116H25.4001Z" fill="#1F1476"/>
<path d="M95.5999 70.4H82.8999C82.0999 70.4 81.3999 69.7 81.3999 68.9C81.3999 68.1 82.0999 67.4 82.8999 67.4H95.5999C96.3999 67.4 97.0999 68.1 97.0999 68.9C97.0999 69.7 96.4999 70.4 95.5999 70.4Z" fill="#2310AB"/>
<path d="M121.5 81.9C118.7 80.6 91.6002 68.4 79.3002 67.4C78.5002 67.3 78.2002 68.3001 78.8002 68.8001C86.4002 74.1001 113.7 92.4 125.6 90.9C125.9 90.9 126.1 90.7 126.2 90.4C126.9 88.4 129.3 80.1 122 82C121.8 82 121.6 82 121.5 81.9Z" fill="#FBD1AB"/>
</svg>
