<svg id="图层_1" data-name="图层 1" xmlns="http://www.w3.org/2000/svg" xmlns:xlink="http://www.w3.org/1999/xlink" viewBox="0 0 600 600"><defs><style>.cls-1,.cls-2,.cls-3,.cls-4,.cls-8{stroke:#fff;stroke-miterlimit:10;stroke-width:5px;}.cls-1,.cls-5{fill:url(#未命名的渐变_66);}.cls-2,.cls-9{fill:url(#未命名的渐变_66-2);}.cls-12,.cls-3{fill:url(#未命名的渐变_79);}.cls-15,.cls-4{fill:url(#未命名的渐变_79-2);}.cls-6{clip-path:url(#clip-path);}.cls-7{fill:url(#未命名的渐变_54);}.cls-8{fill:none;}.cls-10{clip-path:url(#clip-path-2);}.cls-11{fill:url(#未命名的渐变_54-2);}.cls-13{clip-path:url(#clip-path-3);}.cls-14{fill:url(#未命名的渐变_74);}.cls-16{clip-path:url(#clip-path-4);}.cls-17{fill:url(#未命名的渐变_74-2);}</style><linearGradient id="未命名的渐变_66" x1="32.6" y1="310.65" x2="576.85" y2="310.65" gradientUnits="userSpaceOnUse"><stop offset="0" stop-color="#2549af"/><stop offset="1" stop-color="#3491cd"/></linearGradient><linearGradient id="未命名的渐变_66-2" x1="175.53" y1="289.74" x2="577.04" y2="289.74" xlink:href="#未命名的渐变_66"/><linearGradient id="未命名的渐变_79" x1="220.84" y1="198.65" x2="414.03" y2="198.65" gradientUnits="userSpaceOnUse"><stop offset="0" stop-color="#2549af"/><stop offset="1" stop-color="#3491d6"/></linearGradient><linearGradient id="未命名的渐变_79-2" x1="28.21" y1="338.73" x2="200.46" y2="191.2" xlink:href="#未命名的渐变_79"/><clipPath id="clip-path"><path class="cls-1" d="M196.32,299.43c-21.72-54.88,19.47-92.28,57-117.77-5.82.05-11.92-3.54-17.28-5.07-9.88-2.81-19.59-4.37-29.77-2.18-9.73,2.09-18.65,6.45-27.44,11-6.52,3.36-12.32-5.36-7.77-9.68a6.72,6.72,0,0,1-.74-2.88c-36-17.42-58.63,45.88-60.61,59.19-32.32-5.85-33.14,40-43.09,41.79C45.53,263,28.38,285.15,33.51,312.91c18,97.52,173.58,176.17,326.45,119.55,138.16-51.18,217.86-34.31,216.88-34.83C463.53,336.73,261.78,464.81,196.32,299.43Z"/></clipPath><linearGradient id="未命名的渐变_54" x1="104.18" y1="332.52" x2="615.66" y2="332.52" gradientUnits="userSpaceOnUse"><stop offset="0" stop-color="#63b4ea" stop-opacity="0.4"/><stop offset="1" stop-color="#b3e6ff"/></linearGradient><clipPath id="clip-path-2"><path class="cls-2" d="M576.84,397.63c-97.56-75.51-134.23-25.62-249.19-31C223.25,337.63,256.81,223,291,204.83c36.66-18.21,80.78,22.24,81.4,24.26s7.46-39.77-28.58-59.32a118.27,118.27,0,0,0-83.49-5.83,12,12,0,0,1,2.22,4.54c1.47,5.79-.9,12-7.26,13s-13.25-3.23-19.21-4.93c-1-.29-2-.56-3.07-.83-36.58,21.33-61.3,60.58-57,103.89,16.16,223.81,223.09,116,294.56,107.86C533.88,380.35,580.49,400.45,576.84,397.63Z"/></clipPath><linearGradient id="未命名的渐变_54-2" x1="195.68" y1="311.84" x2="588.15" y2="311.84" xlink:href="#未命名的渐变_54"/><clipPath id="clip-path-3"><path class="cls-3" d="M387.31,181.68c2.27-55.05-61.59-43-87.62-40-15.5,1.77-31.87,9.25-46.31,18.06a11.56,11.56,0,0,1,9.16,8.74,13.23,13.23,0,0,1,.37,4.45c39.21-7.09,65.13-1.81,69.35,12.78,4.15,20.45,38.47,3.84,41,37.33,1.3,18.86-12.37,32.68,1.4,35.49,17.1,3.49,6.39-25.88,8.49-25.62,7,.9,18.85,2.7,15.12-12.58-1.75-7.18,14.92-5.17,15.75-24.94C410.51,173.82,392.07,186.18,387.31,181.68Z"/></clipPath><linearGradient id="未命名的渐变_74" x1="292.62" y1="198.66" x2="417.51" y2="198.66" gradientUnits="userSpaceOnUse"><stop offset="0" stop-color="#3491bc"/><stop offset="1" stop-color="#a1d9f6"/></linearGradient><clipPath id="clip-path-4"><path class="cls-4" d="M263.58,140.46c19.62,6.88,26,31.57,12.95,47.75-8.47,10.5-21.88,20.23-38.38,8.82-18-12.4-34-12.29-50.79,11.22-8.26,11.55-34.23-5.82-45.81,13.42-9.66,16.06,26.77,61.41-39.08,58.84a9.37,9.37,0,0,0-9.35,6.32c-3.47,10.75-13.08,13.4-20,13.53a9.64,9.64,0,0,0-9.42,10.5c1,11.8-3.72,17.71-12.17,23C38,340.61,64.77,375.89,71.92,382S36.75,351.61,29.5,336.11,10.73,266.17,60.75,262.8c3.73-7.08,8.08-49.55,45.05-38.09,3.11-18.2,21.08-88.31,69.73-57.64,6.09-10.44,38.09-37.75,66.36-25.61C247.84,137.66,255.91,137.76,263.58,140.46Z"/></clipPath><linearGradient id="未命名的渐变_74-2" x1="35.22" y1="253.42" x2="297.08" y2="253.42" xlink:href="#未命名的渐变_74"/></defs><title>未标题-1</title><path class="cls-5" d="M196.32,299.43c-21.72-54.88,19.47-92.28,57-117.77-5.82.05-11.92-3.54-17.28-5.07-9.88-2.81-19.59-4.37-29.77-2.18-9.73,2.09-18.65,6.45-27.44,11-6.52,3.36-12.32-5.36-7.77-9.68a6.72,6.72,0,0,1-.74-2.88c-36-17.42-58.63,45.88-60.61,59.19-32.32-5.85-33.14,40-43.09,41.79C45.53,263,28.38,285.15,33.51,312.91c18,97.52,173.58,176.17,326.45,119.55,138.16-51.18,217.86-34.31,216.88-34.83C463.53,336.73,261.78,464.81,196.32,299.43Z"/><g class="cls-6"><path class="cls-7" d="M615.35,433.13c-13.44-30.58-47.79-39.93-78.18-44.46-41.72-6.23-82.93-3.77-124.27,3.86-20.84,3.85-41.67,8.28-62.88,9.49-22.47,1.28-43.89-2.35-65.24-9.24-35-11.31-72.9-24.92-96.84-54.44a121.55,121.55,0,0,1-22.22-109.62c.43-1.51-1.77-2.05-2.31-.64-11.36,30.1-8.8,64.06,4.26,93.25,14.82,33.1,44.57,53.22,77.05,66.78,19.16,8,39,15.52,59.32,20.11a158,158,0,0,0,23.47,3.45,259.31,259.31,0,0,1-49-.89C244.65,406.65,211,394,184,372.84c-30.54-24-51-59.74-51.12-99.07a1.76,1.76,0,0,0-3.52,0c-.65,66.91,53.8,117.52,113.85,136.77,40.14,12.85,80.43,10.55,120.81,5.22-26.9,6.55-54,11.2-82,9.89a248.91,248.91,0,0,1-93.5-23.46,227.86,227.86,0,0,1-46-28.51c-15-12.06-32.61-26.47-35.25-46.77-.25-1.92-3.29-2-3.1,0,2.84,30.17,33.6,52.43,56.84,67.84a244.07,244.07,0,0,0,86.56,36.06c33,6.65,66.52,5.9,99.44-.81,37.69-7.68,74.08-21.34,112.29-26.46,3.38-.22,6.75-.4,10.12-.52,19.48-.68,39,.48,58.07,4.86,2.94.68,5.84,1.45,8.72,2.29A123.36,123.36,0,0,1,573.31,431a2.73,2.73,0,0,0,4.36-3.1c1.26.69,2.53,1.37,3.78,2.07,2.65,1.47,5.68-2.14,3.33-4.31-10.62-9.76-23.41-16.6-37.08-21.37a110.53,110.53,0,0,0-16.32-6.45c30.7,3.74,63,13.15,78.63,38.45C612.15,439.72,616.92,436.7,615.35,433.13Z"/></g><path class="cls-8" d="M196.32,299.43c-21.72-54.88,19.47-92.28,57-117.77-5.82.05-11.92-3.54-17.28-5.07-9.88-2.81-19.59-4.37-29.77-2.18-9.73,2.09-18.65,6.45-27.44,11-6.52,3.36-12.32-5.36-7.77-9.68a6.72,6.72,0,0,1-.74-2.88c-36-17.42-58.63,45.88-60.61,59.19-32.32-5.85-33.14,40-43.09,41.79C45.53,263,28.38,285.15,33.51,312.91c18,97.52,173.58,176.17,326.45,119.55,138.16-51.18,217.86-34.31,216.88-34.83C463.53,336.73,261.78,464.81,196.32,299.43Z"/><path class="cls-9" d="M576.84,397.63c-97.56-75.51-134.23-25.62-249.19-31C223.25,337.63,256.81,223,291,204.83c36.66-18.21,80.78,22.24,81.4,24.26s7.46-39.77-28.58-59.32a118.27,118.27,0,0,0-83.49-5.83,12,12,0,0,1,2.22,4.54c1.47,5.79-.9,12-7.26,13s-13.25-3.23-19.21-4.93c-1-.29-2-.56-3.07-.83-36.58,21.33-61.3,60.58-57,103.89,16.16,223.81,223.09,116,294.56,107.86C533.88,380.35,580.49,400.45,576.84,397.63Z"/><g class="cls-10"><path class="cls-11" d="M587.79,411.93c-7.65-14.2-21.78-23.25-36.6-28.68-2.67-1-5.39-1.81-8.12-2.54-12.35-6-26.29-8.48-39.94-9.16-20.08-1-40.31,1.32-60.25,3.46-20.57,2.2-41.14,4.69-61.83,5.49-35.83,1.39-73.88-2.55-104.93-21.94-26.34-16.45-46.54-44-51.45-75-4.7-29.66,6.12-62.43,29.64-81.64a76.74,76.74,0,0,1,9.56-6.62.65.65,0,0,0-.65-1.12c-27,15-42.94,44.73-44.76,75-1.93,32.32,14.74,63.49,38.7,84.29,27.81,24.16,64.39,33.33,100.49,34.74,34.81,1.37,69.26-4.23,103.85-7.31q-11.75,1.68-23.41,3.8c-18.92,3.44-37.64,7.94-56.56,11.42-18.53,3.42-37.37,5.89-56.25,5.14A131.68,131.68,0,0,1,212.76,331,125,125,0,0,1,199.16,284c-1.41-16.4,1.14-33.16,6.35-48.73a115.27,115.27,0,0,1,4.69-11.82c.52-1.11-1.09-2.1-1.67-1A118.9,118.9,0,0,0,195.91,270a136.68,136.68,0,0,0,6,49.51c9.63,29.84,31.16,55,58.09,70.79a136.32,136.32,0,0,0,43.11,16.33c18.92,3.62,38.35,3.38,57.41,1C380,405.23,399.07,401,418.21,397s38.61-7.51,58.17-9.71c19-2.14,38.65-3.85,57.6-.28,2.64.5,5.25,1.12,7.81,1.83A58.32,58.32,0,0,1,568,417a64.1,64.1,0,0,1,3.73,10.74c.65,2.8,4.71,2,4.84-.65a37.83,37.83,0,0,0-6-22.29c-.65-1.05-1.35-2.06-2.07-3.06a73.68,73.68,0,0,1,6.6,5.57,81.28,81.28,0,0,1,7.78,8.39C585.15,418.61,589.41,414.94,587.79,411.93Z"/></g><path class="cls-8" d="M576.84,397.63c-97.56-75.51-134.23-25.62-249.19-31C223.25,337.63,256.81,223,291,204.83c36.66-18.21,80.78,22.24,81.4,24.26s7.46-39.77-28.58-59.32a118.27,118.27,0,0,0-83.49-5.83,12,12,0,0,1,2.22,4.54c1.47,5.79-.9,12-7.26,13s-13.25-3.23-19.21-4.93c-1-.29-2-.56-3.07-.83-36.58,21.33-61.3,60.58-57,103.89,16.16,223.81,223.09,116,294.56,107.86C533.88,380.35,580.49,400.45,576.84,397.63Z"/><path class="cls-12" d="M387.31,181.68c2.27-55.05-61.59-43-87.62-40-15.5,1.77-31.87,9.25-46.31,18.06a11.56,11.56,0,0,1,9.16,8.74,13.23,13.23,0,0,1,.37,4.45c39.21-7.09,65.13-1.81,69.35,12.78,4.15,20.45,38.47,3.84,41,37.33,1.3,18.86-12.37,32.68,1.4,35.49,17.1,3.49,6.39-25.88,8.49-25.62,7,.9,18.85,2.7,15.12-12.58-1.75-7.18,14.92-5.17,15.75-24.94C410.51,173.82,392.07,186.18,387.31,181.68Z"/><g class="cls-13"><path class="cls-14" d="M415.82,186.72a43.6,43.6,0,0,0-8.94-16.35,37.06,37.06,0,0,0-7.33-6.52c-1.65-1.14-4.34-1.92-5.66-3.28,1.11,1.14-1.11-4.21-1.61-5.51a60.61,60.61,0,0,0-9.82-16.9A65.65,65.65,0,0,0,322.68,115a54.07,54.07,0,0,0-15.18,4.27c-5.35,2.55-8.58,6.82-13,10.51-4.15,3.45-.75,10.77,4.37,10.57,4.95-.2,9.83,1.48,14.81,1.7a112.46,112.46,0,0,1,14,1c8.13,1.35,15.63,3.63,22.15,8.87a32.89,32.89,0,0,1,10.92,16.29c1.56,4.82,3.22,9.42,6.25,13.5,3.46,4.66,7.86,6.81,12.54,9.94a9.77,9.77,0,0,1,1.85,1.61,16.88,16.88,0,0,1,1.86,2c6.72,8.52,3.46,19.52-1.76,27.8l-.17.27c-3.89,4.21-4.87,9.83-6.24,15.76s-4,8.15-8.84,11.91c-6.17,4.76-9.4,16.88,0,20.87a28.31,28.31,0,0,0,4.81,1.56,18.84,18.84,0,0,0,9.31,7l.52.39c7.44,5.59,15.2-.52,17.35-7.82,2.19-4.87,1.11-10.19.45-15.57a37.12,37.12,0,0,0,2.78-12.75,18.9,18.9,0,0,0-.23-3.48c3.18-6.23,8.2-12.09,10.89-18.2C417.1,211.62,419.3,198.94,415.82,186.72Z"/></g><path class="cls-8" d="M387.31,181.68c2.27-55.05-61.59-43-87.62-40-15.5,1.77-31.87,9.25-46.31,18.06a11.56,11.56,0,0,1,9.16,8.74,13.23,13.23,0,0,1,.37,4.45c39.21-7.09,65.13-1.81,69.35,12.78,4.15,20.45,38.47,3.84,41,37.33,1.3,18.86-12.37,32.68,1.4,35.49,17.1,3.49,6.39-25.88,8.49-25.62,7,.9,18.85,2.7,15.12-12.58-1.75-7.18,14.92-5.17,15.75-24.94C410.51,173.82,392.07,186.18,387.31,181.68Z"/><path class="cls-15" d="M263.58,140.46c19.62,6.88,26,31.57,12.95,47.75-8.47,10.5-21.88,20.23-38.38,8.82-18-12.4-34-12.29-50.79,11.22-8.26,11.55-34.23-5.82-45.81,13.42-9.66,16.06,26.77,61.41-39.08,58.84a9.37,9.37,0,0,0-9.35,6.32c-3.47,10.75-13.08,13.4-20,13.53a9.64,9.64,0,0,0-9.42,10.5c1,11.8-3.72,17.71-12.17,23C38,340.61,64.77,375.89,71.92,382S36.75,351.61,29.5,336.11,10.73,266.17,60.75,262.8c3.73-7.08,8.08-49.55,45.05-38.09,3.11-18.2,21.08-88.31,69.73-57.64,6.09-10.44,38.09-37.75,66.36-25.61C247.84,137.66,255.91,137.76,263.58,140.46Z"/><g class="cls-16"><path class="cls-17" d="M273.34,133.51a39.66,39.66,0,0,0-23.74-6,36.12,36.12,0,0,0-14.33,3.83l-.36.2-.91-.4a42.56,42.56,0,0,0-9.92-2.89c-8.09-1.34-16.43-1.13-24.23,1.63a45.51,45.51,0,0,0-17.76,11c-5.32,5.55-6.79,11.34-9.08,18.33-1.09,3.33-.37,6,1.29,7.77,7.42-4.57,14.92-9.54,23.51-11.55,9-2.1,17.7-.39,26.47,1.77,5.05,1.24,10.44,3.09,15.67,3.25,3.38.1,6.59-1,10-1,6-.08,11.11,3.06,12.63,9.11,1.47,5.79-.9,12-7.26,13h-.12a14.16,14.16,0,0,1-5.74-.14,31.45,31.45,0,0,1-5.11-1.75c-2.84-1.07-5.63-2.3-8.24-3-8.12-2.31-16.13-3.77-24.37-3a47.13,47.13,0,0,0-23.45,12.11,45.67,45.67,0,0,0-7.14,8.89c-.25.42-.48.83-.7,1.24l-.95-.2a39.57,39.57,0,0,0-17.19-.23c-16,3.33-33.3,14.7-37.69,31.06-2.87,10.67-.7,23.36-8,29.87a19.35,19.35,0,0,0-1.72,1.08c-.1.06-6.35,2.78-6,2.64a40.11,40.11,0,0,0-5.68,3.12,55.16,55.16,0,0,0-14.48,9.12,45.74,45.74,0,0,0-11.37,15.77c0-.08-.22.74-.54,1.68a51.61,51.61,0,0,0-8.57,2.38,34,34,0,0,0-17,15.05,40.31,40.31,0,0,0-4,10.83,37.3,37.3,0,0,0-.52,6.23l-.72.46a23.61,23.61,0,0,0-6.54,6.78c-3.76,5.9-4.59,12.84-3.76,19.64,1.49,12.14,5.16,21.61,16.37,27.31,8.36,4.25,14.94-5.47,9.54-12.37,1.61,2.06.3.38.1-1.9-.14-1.67-.13-3.4-.12-5.07,0-.82.33-6.09.32-8.53,1-.2,2-.42,2.31-.51a19.79,19.79,0,0,0,11.15-9.15c2.65-4.61,2.19-9,3.39-13.93.1-.4.78-3.41.71-3.33s4.71-.33,6.2-.53a28.39,28.39,0,0,0,7-1.86,41.11,41.11,0,0,0,15.81,17.17,8.81,8.81,0,0,0,13.12-7.53c.14-6.14-.46-12.34-.2-18.47.21-4.83.87-13.83,1.5-16.63a19.12,19.12,0,0,1,.66-1.82,46.06,46.06,0,0,1,14.17,1c9.46,2.05,18.22,3.69,27.94,3.27a12.47,12.47,0,0,0,8.71-21A57,57,0,0,0,153.65,263a88.27,88.27,0,0,0,4.86-22.83c.49-5,.07-4.25,4.62-6.73,1.88-1,4-2.54,6.2-2.89,2.41-.39,5.83,1.24,8.45,1.77,7.33,1.47,15.12,1,21.7-2.83,7.37-4.32,10-13,13.06-17.63-.54.82,1.41-1.12,2.08-1.58,1.85-1.26,1.08-1,3.87-1.61,0,0,2.06-.25,3.14-.22.26.1,1.71.46,1.89.53,1.44.55,2.84,1.38,4.26,2.05,14.87,7,31,9.19,46.18,1.56a42.32,42.32,0,0,0,23.09-36.08C297.61,159.33,287.68,142.54,273.34,133.51Z"/></g><path class="cls-8" d="M263.58,140.46c19.62,6.88,26,31.57,12.95,47.75-8.47,10.5-21.88,20.23-38.38,8.82-18-12.4-34-12.29-50.79,11.22-8.26,11.55-34.23-5.82-45.81,13.42-9.66,16.06,26.77,61.41-39.08,58.84a9.37,9.37,0,0,0-9.35,6.32c-3.47,10.75-13.08,13.4-20,13.53a9.64,9.64,0,0,0-9.42,10.5c1,11.8-3.72,17.71-12.17,23C38,340.61,64.77,375.89,71.92,382S36.75,351.61,29.5,336.11,10.73,266.17,60.75,262.8c3.73-7.08,8.08-49.55,45.05-38.09,3.11-18.2,21.08-88.31,69.73-57.64,6.09-10.44,38.09-37.75,66.36-25.61C247.84,137.66,255.91,137.76,263.58,140.46Z"/></svg>