<?xml version="1.0" encoding="utf-8"?>
<!-- Generator: Adobe Illustrator 21.0.0, SVG Export Plug-In . SVG Version: 6.00 Build 0)  -->
<svg version="1.1" id="图层_1" xmlns="http://www.w3.org/2000/svg" xmlns:xlink="http://www.w3.org/1999/xlink" x="0px" y="0px"
	 viewBox="0 0 1024 1024" style="enable-background:new 0 0 1024 1024;" xml:space="preserve">
<style type="text/css">
	.st0{fill:#572F2F;}
	.st1{clip-path:url(#SVGID_2_);}
	.st2{fill:#7C5252;}
	.st3{fill:#FFE2CC;}
	.st4{opacity:0.49;}
	.st5{fill:#EFCDB6;}
	.st6{opacity:0.75;clip-path:url(#SVGID_4_);}
	.st7{opacity:0.5;clip-path:url(#SVGID_6_);}
	.st8{fill:#7CA9F2;}
	.st9{opacity:0.33;}
	.st10{fill:#0E5B96;}
	.st11{opacity:0.5;}
	.st12{clip-path:url(#SVGID_8_);}
	.st13{fill:#F7D2C6;}
	.st14{fill:#173B66;}
	.st15{opacity:0.61;clip-path:url(#SVGID_10_);}
	.st16{fill:#DCCEDD;}
	.st17{opacity:0.61;clip-path:url(#SVGID_12_);}
	.st18{fill:#77251E;}
	.st19{fill:#845E5B;}
	.st20{fill:#F9DCCD;}
	.st21{fill:#C45C5A;}
	.st22{fill:none;}
	.st23{fill:#7C3939;}
	.st24{fill:#F4BDA4;}
	.st25{fill:#FFA08A;}
	.st26{fill:#FF7D7D;}
	.st27{fill:#A86362;}
	.st28{fill:none;stroke:#572F2F;stroke-width:1.2715;stroke-miterlimit:10;}
	.st29{fill:#FFFFFF;}
	.st30{fill:#BD9896;}
	.st31{fill:#4994B2;}
	.st32{clip-path:url(#SVGID_14_);}
	.st33{fill:#FBEFD7;}
	.st34{clip-path:url(#SVGID_16_);}
	.st35{fill:#119BA3;}
	.st36{fill:#28AFBD;}
	.st37{fill:#78E0EB;}
	.st38{fill:#0AA7BF;}
	.st39{fill:#EDEDED;}
	.st40{fill:#FCD6C5;}
	.st41{fill:#214A85;}
	.st42{fill:#DB9883;}
	.st43{fill:#194E9C;}
	.st44{fill:#4BA4D6;}
	.st45{opacity:0.29;}
	.st46{clip-path:url(#SVGID_18_);}
	.st47{fill:#F9F9F9;}
	.st48{clip-path:url(#SVGID_22_);}
	.st49{fill:#703D3B;}
	.st50{clip-path:url(#SVGID_26_);}
	.st51{fill:#FFEFD7;}
	.st52{fill:#FFEDD4;}
</style>
<g>
	<g>
		<g>
			<path class="st0" d="M598.1,184.9c-2.7-6.7-4.2-14-4.2-21.7c0-5.3,0.7-10.3,2-15.2l-15.1,30c0,0,0,30.8-12.1,44.2
				c0,0-46.2,51-19.9,73.7c5.4-1.5,9.4-1.5,12-1.1c-8.5-11.1-12.2-30.4,28-53.8c0,0-34.8,45.5,26.8,56.2c0,0,2.7-6.7,6.7-5.4
				c0,0,14.7,2.7,14.7-5.4c0,0,9.4-4,13.4-1.3l10.7-4v-16.7c-2.5,0.5-4,0.6-4,0.6C595.5,268.8,597.4,196.4,598.1,184.9z"/>
		</g>
	</g>
	<g>
		<defs>
			<path id="SVGID_1_" d="M598.1,184.9c-2.7-6.7-4.2-14-4.2-21.7c0-5.3,0.7-10.3,2-15.2l-15.1,30c0,0,0,30.8-12.1,44.2
				c0,0-46.2,51-19.9,73.7c5.4-1.5,9.4-1.5,12-1.1c-8.5-11.1-12.2-30.4,28-53.8c0,0-34.8,45.5,26.8,56.2c0,0,2.7-6.7,6.7-5.4
				c0,0,14.7,2.7,14.7-5.4c0,0,9.4-4,13.4-1.3l10.7-4v-16.7c-2.5,0.5-4,0.6-4,0.6C595.5,268.8,597.4,196.4,598.1,184.9z"/>
		</defs>
		<clipPath id="SVGID_2_">
			<use xlink:href="#SVGID_1_"  style="overflow:visible;"/>
		</clipPath>
		<g class="st1">
			<path class="st2" d="M603.9,152.6c0,0-16.9,68.8-33.7,82.9c0,0-27.6,32.6-11,59.1c16.6,26.5-17.1,4.1-17.1,4.1l-8.4-35.1
				l22.5-43.5l22.5-56.2l12.6-14L603.9,152.6z"/>
		</g>
	</g>
	<g>
		<path class="st3" d="M381.7,748.9l3.4-11.4c0,0,0.1,0.3,0.3,0.9c6.6-23.7,14.6-73.2,17.7-93c0-1.6-0.1-3.3-0.2-4.9
			c-0.2-3.4-1.6-6.1,1.1-8.1c3.1-2.3,9.7-3.2,13.4-4c4.7-1,10-2,14.7-0.7c10,2.7,12.2-92.3,12.2-92.3s-98.8-9.6-111.7,42.4
			c0,0-5.7,36.9-4.3,42.4l-20,180.5l-4.3,69.7c14,0,27.9,0.2,41.9,0l35.3-119.4C381.1,750.3,381.3,749.7,381.7,748.9z"/>
	</g>
	<g class="st4">
		<path class="st5" d="M390.8,544.2c0,0-27.5,15.1-24.7,50.8l32.9,76.9c0,0,6.9-41.2,8.2-41.2C408.6,630.7,390.8,544.2,390.8,544.2z
			"/>
	</g>
	<g>
		<defs>
			<path id="SVGID_3_" d="M477.7,635.7c0,0-1.5-9.1,3.9-8.7c0,0,27.2,0.7,51.8-0.4c0,0,0,0,0,0.1l2.9,0.3c0,0-0.4-1-0.4-1
				c-4.1-19.2-40.8-87.3-40.8-87.3l-2.1-9.5l-2.3-0.4c0,0-104.7,3.2-108,38.4c-0.9,9.7,0.4,19.6,1.8,29.2c1.6,10.7,3.8,21.6,7.3,32
				c3.6,10.6,9.1,20.4,12.2,31.2c1.7,5.7,3.4,11.4,5,17.2c4.6,16,9.1,31.9,13.4,48c5,18.3,9.7,36.6,14.1,55
				c3.9,16.1,7.5,32.3,10.2,48.7c0.5,3.3,1,6.5,1.4,9.8c0,0.5,0,1,0.2,1.4c0.2,1.4,0.3,2.7,0.4,4h0.7c3.6,14.1,10.8,53.2,10.8,53.2
				h8.9h34l0-71.3C503.3,780.7,500.1,695,477.7,635.7z"/>
		</defs>
		<use xlink:href="#SVGID_3_"  style="overflow:visible;fill:#FFE2CC;"/>
		<clipPath id="SVGID_4_">
			<use xlink:href="#SVGID_3_"  style="overflow:visible;"/>
		</clipPath>
		<g class="st6">
			<path class="st3" d="M474.5,519.5c0,0,24.7,94.7,11,118c-13.7,23.3,46.7,2.7,46.7,2.7l15.1-13.7c0,0-22-68.6-22-70
				s-30.2-39.8-30.2-39.8L474.5,519.5z"/>
		</g>
	</g>
	<g>
		<defs>
			<path id="SVGID_5_" d="M755.1,571.5c0,0,5.2,29.7-34.7,57.8H537.2c0,0-32.5-77.9-51.7-107.5l73.8-16.2l156.6,16.2L755.1,571.5z"
				/>
		</defs>
		<use xlink:href="#SVGID_5_"  style="overflow:visible;fill:#7CA9F2;"/>
		<clipPath id="SVGID_6_">
			<use xlink:href="#SVGID_5_"  style="overflow:visible;"/>
		</clipPath>
		<g class="st7">
			<path class="st8" d="M745.6,547.3c0,0,1.5,75.5-236.4,60.8l23.6,36.6l216.8-7.8l21.1-45.7L745.6,547.3z"/>
		</g>
	</g>
	<g class="st9">
		
			<rect x="536.7" y="573" transform="matrix(0.9787 -0.2055 0.2055 0.9787 -104.914 137.4229)" class="st10" width="144.6" height="1.4"/>
	</g>
	<g class="st9">
		
			<rect x="510.6" y="549.7" transform="matrix(0.9848 -0.1735 0.1735 0.9848 -86.6705 109.5199)" class="st10" width="144.6" height="1.4"/>
	</g>
	<g class="st9">
		
			<rect x="488.7" y="523.6" transform="matrix(0.9813 -0.1926 0.1926 0.9813 -90.4936 117.8885)" class="st10" width="144.6" height="1.4"/>
	</g>
	<g class="st11">
		<path class="st8" d="M612.5,527.6c0,0,81.4,49.7,78,67c0,0,22.1-6.7,25.3-12.6C719,576.2,612.5,527.6,612.5,527.6z"/>
	</g>
	<g>
		<defs>
			<path id="SVGID_7_" d="M685.4,247.7c0,0,2.7,32.1,25.4,40.2l-39.1,60.8l-24.7-51.3c0,0,19.6-22.9,10.2-37.6L685.4,247.7z"/>
		</defs>
		<use xlink:href="#SVGID_7_"  style="overflow:visible;fill:#F7D2C6;"/>
		<clipPath id="SVGID_8_">
			<use xlink:href="#SVGID_7_"  style="overflow:visible;"/>
		</clipPath>
		<g class="st12">
			<path class="st13" d="M687.7,253.3c0,0-39,33.2-43.4,54.9c-4.3,21.7-4.3-40.5-4.3-40.5l21.7-27.5h31.8L687.7,253.3z"/>
		</g>
	</g>
	<g class="st9">
		
			<rect x="557.3" y="603.2" transform="matrix(0.9868 -0.1618 0.1618 0.9868 -89.423 109.8382)" class="st10" width="144.6" height="1.4"/>
	</g>
	<g>
		<path class="st14" d="M604.2,309.1c0,0-32.9,35.5-25.6,112.3l-54.7-10.3l5.9,22.1l69.4,17.7l19.2-3l10.3-28.1v-59.1l4.4-39.9
			L604.2,309.1z"/>
	</g>
	<g>
		<defs>
			<polyline id="SVGID_9_" points="444.2,826.1 509.2,820.2 507.7,888.1 460.4,894 444.2,826.1 			"/>
		</defs>
		<use xlink:href="#SVGID_9_"  style="overflow:visible;fill:#FFFCFA;"/>
		<clipPath id="SVGID_10_">
			<use xlink:href="#SVGID_9_"  style="overflow:visible;"/>
		</clipPath>
		<g class="st15">
			<path class="st16" d="M491,813.2l-2.7,86.5l28.8-15.1c0,0,12.4-53.5,11-54.9c-1.4-1.4-11-20.6-11-20.6L491,813.2z"/>
		</g>
	</g>
	<g>
		<defs>
			<polyline id="SVGID_11_" points="299.4,807.3 364.1,815.8 347.8,881.8 300.4,877.2 299.4,807.3 			"/>
		</defs>
		<use xlink:href="#SVGID_11_"  style="overflow:visible;fill:#FFFCFA;"/>
		<clipPath id="SVGID_12_">
			<use xlink:href="#SVGID_11_"  style="overflow:visible;"/>
		</clipPath>
		<g class="st17">
			<path class="st16" d="M347.9,805.1l-21.6,83.8l31.4-8.4c0,0,23.8-49.5,22.7-51.2c-1-1.6-6.2-22.5-6.2-22.5L347.9,805.1z"/>
		</g>
	</g>
	<g>
		<path class="st18" d="M605.2,281.1"/>
	</g>
	<g>
		<path class="st19" d="M597.9,247.2c-1.5,4.1-1.8,8.2-1.5,12.2c0.4,3.9,1.6,7.7,3.4,11.3c1.6,3.7,4.1,7,6.4,10.4
			c1.3,1.6,2.6,3.3,3.9,5c1.4,1.6,2.8,3.3,4,5.2l-0.2,0.2l-4.9-4.2c-1.6-1.5-3-3.1-4.6-4.6c-1.4-1.7-2.8-3.3-4-5.1
			c-1.2-1.8-2.4-3.6-3.3-5.6c-1.9-3.9-3.1-8.2-3.1-12.6c0-4.3,1.1-8.7,3.6-12.4L597.9,247.2z"/>
	</g>
	<g>
		<path class="st19" d="M608.9,256.7c0.2,1.6,0.6,3.1,1.2,4.6c0.5,1.5,1.2,2.9,1.9,4.2c1.5,2.7,3.4,5.1,5.6,7.4
			c2.1,2.3,4.6,4.2,7,6.2c1.3,0.9,2.6,1.9,3.9,2.8c1.3,0.9,2.7,1.7,4,2.7l-0.1,0.1l-4.3-2.2c-1.4-0.8-2.8-1.7-4.1-2.5
			c-2.6-1.9-5.2-3.8-7.4-6.2c-2.2-2.3-4.2-5-5.6-7.9c-1.4-2.9-2.3-6.1-2.2-9.4L608.9,256.7z"/>
	</g>
	<g>
		<path class="st19" d="M637.2,248.9c-0.4,1.6-0.6,3.1-0.6,4.7c-0.1,1.6,0,3.1,0.2,4.7c0.4,3.1,1.3,6.1,2.4,8.9
			c1.1,2.9,2.7,5.6,4.2,8.4c0.8,1.4,1.7,2.7,2.6,4c0.9,1.3,1.8,2.6,2.7,4l-0.1,0.1l-3.2-3.6c-1-1.3-2-2.6-2.9-3.9
			c-1.7-2.7-3.5-5.5-4.6-8.5c-1.2-3-2-6.2-2.2-9.4c-0.2-3.2,0.1-6.5,1.4-9.5L637.2,248.9z"/>
	</g>
	<g>
		<path class="st20" d="M709.1,179.9c0-0.1,0-0.2,0-0.4c0.2-0.7,0.6-1.2,0.7-1.9c0.5-2.1,0.7-4.3,1-6.4c0.4-2.6,0.5-5.3,0.5-8
			c0-32.4-26.3-58.7-58.7-58.7c-32.4,0-58.7,26.3-58.7,58.7c0,7.7,1.5,15,4.2,21.7c-0.7,11.5-2.6,83.9,59,80.2
			c0,0,41.5-2.7,44.2-57.6c0,0,10.7-1.3,13.4-17.4c-0.5-1.2-1.1-2.4-1.7-3.6c-0.6-1.2-1.2-2.3-1.9-3.4c-0.4-0.6-0.8-1.2-1.2-1.8
			C709.8,180.9,709.2,180.4,709.1,179.9z"/>
	</g>
	<g>
		<path class="st18" d="M715.9,266.3c0.1,0,0.1,0,0.2-0.1C715.7,266.2,715.7,266.3,715.9,266.3z"/>
	</g>
	<g>
		<g>
			<path class="st21" d="M709.5,184.8c-0.2-1.9-0.5-3.7-0.9-5.4c-1.3-4.5-3.7-7.7-5.6-9.7c-2-0.2-4-0.2-5.6-0.3
				c-3.9-0.1-6.5,0.1-6.5,0.1c-82.9,12.6-60.4-29.5-60.4-29.5c-3.1-13.3-34.4-9.5-51.2-6.4c-0.3,0.9-0.6,1.8-0.9,2.8
				c0,0-22.8,25.4,1.3,50.9c0,0,8,9.4,25.4,6.7c0,0-17.3-9.3-13.4-18.6c3,6.8,9.4,13.3,9.4,13.3c2.7,2.7,10.7,1.3,10.7,1.3
				c-12.5-10.7-12.5-27.2-11.1-37.2c0.5-0.6,1.1-1.1,1.8-1.7c0,0,16.1,64.3,83,29.5c0,0,18.7-6.7,21.4,1.3c0,0,2.3,2.8,2.4,7.7
				C709.5,188.1,709.5,186.4,709.5,184.8z"/>
		</g>
		<g>
			<path class="st22" d="M711.6,266.4c2.2-1.6,4.5-3.8,5.6-6.6c0.1-0.7,0.2-1.2,0.2-1.2C716.7,261.9,714,264.5,711.6,266.4z"/>
		</g>
		<g>
			<path class="st22" d="M704.5,203.8c-0.8,1.2-1.8,2.4-2.8,3.7l0,0c0.1,0,0.4-0.1,0.7-0.2C703.1,206.1,703.8,204.9,704.5,203.8z"/>
		</g>
		<g>
			<path class="st22" d="M635.6,87.2c69.6-20.1,123.2,83,123.2,83c62.4,19.1,86.2,9.5,94.2,3.5c-8.2,6-32.2,15.2-93.9-3.7
				c0,0-53.6-103.1-123.2-83c0,0-17.8-0.5-34.4,12.7C618,86.6,635.6,87.2,635.6,87.2z"/>
		</g>
		<g>
			<path class="st22" d="M728.2,268.9c1.9-1.3,4-6.6,4.9-9.7c0-0.5,0.1-0.9,0.1-1.2C732.7,260.3,730.3,267,728.2,268.9z"/>
		</g>
		<g>
			<path class="st22" d="M776.5,267.8C776.5,267.8,776.5,267.8,776.5,267.8c0.7-0.5,1.4-0.9,2-1.4
				C777.9,266.8,777.2,267.3,776.5,267.8z"/>
		</g>
		<g>
			<path class="st22" d="M856.4,170.6c-1.5,4.2-4.3,7.6-7.9,10.4c3.9-2.9,6.8-6.5,8.3-11C856.8,170,856.7,170.2,856.4,170.6z"/>
		</g>
		<g>
			<path class="st22" d="M787.3,267.8c1.6-0.1,34.8-55.1-5-76.2c-0.5,0-0.7-0.1-0.7-0.1C820.8,211.9,790.7,264.3,787.3,267.8z"/>
		</g>
		<g>
			<path class="st22" d="M764.3,266.2c6.6-4.7,23.4-20,16.5-50.9c-0.3-0.6-0.5-0.9-0.5-0.9C787.8,245.6,771.1,261.2,764.3,266.2z"/>
		</g>
		<g>
			<path class="st22" d="M741.6,270.4L741.6,270.4c0.1,0,12.4-11.6,17.7-20.4c0.1-0.2,0.1-0.4,0.2-0.6
				C754.9,257.8,743.2,268.9,741.6,270.4z"/>
		</g>
		<g>
			<path class="st23" d="M856.4,170.6c0-0.1,0.1-0.2,0.1-0.4c0,0-0.9,1.6-3.5,3.5C854.9,172.4,855.9,171.2,856.4,170.6z"/>
		</g>
		<g>
			<path class="st23" d="M781.8,191.4c0.2,0.1,0.3,0.2,0.5,0.3c6,0.5,47.5,3.6,66.2-10.7C828.2,196.2,781.8,191.4,781.8,191.4z"/>
		</g>
		<g>
			<path class="st23" d="M751,267.8l1.3-1.3c1.8-1.8,5.2-11,7.4-17.2c-0.1,0.3-0.3,0.5-0.5,0.8c-2.2,6.1-5.5,14.9-7.2,16.6l-1.3,1.3
				h10.7c0,0,1.1-0.6,2.8-1.8c-1.5,1.1-2.5,1.6-2.5,1.6H751z"/>
		</g>
		<g>
			<path class="st23" d="M733.5,257.8c-0.1,0.4-0.2,0.8-0.4,1.4c-0.4,3.8-1.1,11.5-1.1,11.5h9.4c0,0,0.1-0.1,0.2-0.2h-9.3
				C732.3,270.4,733.2,260.7,733.5,257.8z"/>
		</g>
		<g>
			<path class="st23" d="M726.9,269.1c-2.3-1.1-10.4-0.3-11.9-0.1c1.3-0.8,2.5-10.6,2.5-10.6c-0.1,0.5-0.2,1-0.4,1.4
				c-0.4,2.7-1.3,8.8-2.3,9.4c1.5-0.3,9.6-1.1,11.9,0.1c0.5,0.2,1,0.1,1.5-0.4C727.8,269.2,727.3,269.3,726.9,269.1z"/>
		</g>
		<g>
			<path class="st23" d="M776.5,267.8c-0.1,0.1-0.2,0.1-0.3,0.2c0,0,10.7-2.7,10.7,0c0,0.1,0.1,0.1,0.3-0.1c0,0-0.1,0-0.1-0.1
				C787.2,265.1,776.7,267.7,776.5,267.8z"/>
		</g>
		<g>
			<path class="st23" d="M597.8,102.9c-7.4,6.9-14.2,16.7-18.8,30.9c0.1,0,0.1,0,0.2,0C583.7,119.6,590.5,109.7,597.8,102.9z"/>
		</g>
		<g>
			<path class="st23" d="M704.5,203.8c3.9-5.6,4.9-10.4,4.8-13.9C708.8,193.9,707.3,198.5,704.5,203.8z"/>
		</g>
		<g>
			<path class="st23" d="M780.5,214.2c0.1,0.4,0.2,0.7,0.2,1.1c3,5.6,17.5,35.8-2.2,51C800.7,249.6,780.5,214.2,780.5,214.2z"/>
		</g>
		<g>
			<path class="st23" d="M853,173.7c-8,6-31.8,15.6-94.2-3.5c0,0-53.6-103.1-123.2-83c0,0-17.6-0.5-34.1,12.5
				c-0.1,0.1-0.1,0.1-0.2,0.2c-0.5,0.4-1.1,0.9-1.6,1.3c-0.4,0.3-0.8,0.7-1.2,1c-0.2,0.2-0.5,0.4-0.7,0.6
				c-7.3,6.9-14.1,16.7-18.6,30.9c16.8-3.1,48.2-6.9,51.2,6.4c0,0-22.5,42.1,60.4,29.5c0,0,2.6-0.2,6.5-0.1c1.7,0,3.6,0.1,5.6,0.3
				c1.8,2,4.2,5.2,5.6,9.7c0.4,1.6,0.7,3.4,0.9,5.4c0.1,1.6,0,3.2-0.2,5c0.1,3.6-0.9,8.3-4.8,13.9c-0.6,1.2-1.3,2.3-2.1,3.6
				c-0.3,0.1-0.6,0.1-0.7,0.2c-0.1,0-0.1,0-0.1,0c-1.1,23.6-9.5,37.5-18.6,45.7c2.8,6.1,7.6,14.7,10.5,19.4
				c4.2-0.5,8.5-1.6,11.7-3.5l1.4-16c2.4,6.3,3.5,12.7,0.1,16.1c0,0,2.4-1,5-2.9c2.5-1.8,5.1-4.5,5.8-7.8c0,0-0.1,0.5-0.2,1.2
				c0.2-0.5,0.3-0.9,0.4-1.4c0,0-1.2,9.8-2.5,10.6c1.5-0.3,9.6-1.1,11.9,0.1c0.4,0.2,0.8,0.1,1.2-0.2c2.2-1.9,4.5-8.6,5.1-10.9
				c0,0.3-0.1,0.7-0.1,1.2c0.2-0.5,0.3-1,0.4-1.4c-0.3,2.9-1.2,12.7-1.2,12.7h9.3c1.6-1.5,13.3-12.7,17.9-21
				c-0.1,0.2-0.1,0.4-0.2,0.6c0.2-0.3,0.3-0.5,0.5-0.8c-2.2,6.2-5.7,15.4-7.4,17.2l-1.3,1.3h10.7c0,0,1-0.5,2.5-1.6
				c6.8-4.9,23.5-20.6,16-51.8c0,0,0.2,0.3,0.5,0.9c-0.1-0.4-0.1-0.7-0.2-1.1c0,0,20.2,35.4-2,52.1c-0.6,0.5-1.3,1-2,1.4
				c0.2-0.1,10.7-2.6,10.7,0c0,0.1,0,0.1,0.1,0.1c3.5-3.5,33.5-56-5.7-76.2c0,0,0.3,0,0.7,0.1c-0.2-0.1-0.3-0.2-0.5-0.3
				c0,0,46.3,4.7,66.7-10.5c3.6-2.8,6.4-6.2,7.9-10.4C855.9,171.2,854.9,172.4,853,173.7z"/>
		</g>
	</g>
	<g>
		<path class="st0" d="M695.5,272.3c15.6-39.9,10.3-59.4,7.4-66c-0.3,0.5-0.6,1-0.9,1.5c-0.5,0.1-0.9,0.2-0.9,0.2
			c-1.1,23.6-9,37.1-18.1,45.3c2.8,6.1,7.6,14.6,10.4,19.3C694.1,272.5,694.8,272.4,695.5,272.3z"/>
	</g>
	<g>
		
			<ellipse transform="matrix(0.945 -0.3272 0.3272 0.945 -30.5494 226.0774)" class="st0" cx="656.7" cy="203.8" rx="3.5" ry="4.9"/>
	</g>
	<g>
		<ellipse transform="matrix(0.945 -0.3272 0.3272 0.945 -35.2268 212.1931)" class="st0" cx="613.1" cy="210.8" rx="3.5" ry="5"/>
	</g>
	<g>
		<path class="st24" d="M627.9,211.8c1.8,1.6,3.5,3.4,4.9,5.3c0.7,1,1.4,2.1,1.8,3.3c0.2,0.6,0.4,1.3,0.1,2.1
			c-0.2,0.8-0.7,1.3-1.1,1.8c-0.8,0.9-1.7,1.8-2.4,2.6c-0.7,0.9-1.4,1.8-0.9,2.5c0.5,0.8,1.7,1.2,2.8,1.6c1.1,0.4,2.3,0.6,3.5,0.9
			c-1.2,0-2.4-0.1-3.6-0.3c-1.2-0.3-2.5-0.5-3.5-1.7c-0.5-0.6-0.5-1.6-0.2-2.2c0.3-0.7,0.6-1.2,1-1.7c0.8-1,1.7-1.8,2.4-2.7
			c0.4-0.4,0.7-0.9,0.8-1.3c0.1-0.4,0-0.9-0.1-1.4c-0.3-1-0.9-2.1-1.4-3.1C630.7,215.7,629.3,213.7,627.9,211.8z"/>
	</g>
	<g>
		
			<ellipse transform="matrix(0.9805 -0.1965 0.1965 0.9805 -30.1911 135.6482)" class="st25" cx="668.6" cy="220" rx="12.6" ry="9.8"/>
	</g>
	<g>
		<path class="st26" d="M643.7,244.5c-2.1,0-3.9-0.6-4.1-0.6l0.4-1.3c0,0,5,1.6,7.6-0.7c1.7-1.5,2.1-4.3,1.3-8.3l1.4-0.3
			c0.9,4.6,0.3,7.8-1.7,9.7C647.2,244.1,645.3,244.5,643.7,244.5z"/>
	</g>
	<g>
		<polygon class="st27" points="703.7,204.5 703.7,204.6 704.3,204 		"/>
	</g>
	<g>
		<path class="st0" d="M646.2,193.7c0.8-1.7,2.1-3.2,3.6-4.3c1.5-1.2,3.5-2,5.5-2.1c2-0.1,4.1,0.3,5.8,1.4c0.9,0.4,1.6,1.2,2.3,1.8
			c0.6,0.7,1.2,1.5,1.7,2.3l-0.1,0.1c-0.7-0.6-1.3-1.2-2-1.8c-0.8-0.5-1.5-1.1-2.3-1.4c-1.6-0.8-3.4-1.1-5.2-1
			c-1.8,0.1-3.5,0.8-5,1.7c-1.5,0.9-2.9,2.1-4.1,3.5L646.2,193.7z"/>
	</g>
	<g>
		<path class="st0" d="M603.2,197.9c0.3-1.6,1-3.2,2.1-4.4c1.1-1.3,2.6-2.3,4.4-2.7c1.7-0.4,3.6-0.3,5.2,0.4
			c0.8,0.3,1.5,0.8,2.2,1.2c0.6,0.6,1.2,1.1,1.8,1.7l-0.1,0.1l-2-1.1c-0.7-0.3-1.4-0.6-2.2-0.8c-1.5-0.5-3-0.5-4.5-0.1
			c-1.5,0.3-2.8,1.1-4,2.2c-1.1,1.1-2,2.3-2.7,3.7L603.2,197.9z"/>
	</g>
	<g>
		<path class="st28" d="M609.6,207.4"/>
	</g>
	<g>
		<path class="st0" d="M610.8,207.9c-0.8-0.1-1.4-0.3-2.1-0.5c-0.7-0.3-1.4-0.6-1.7-1.3c0.5,0.5,1.2,0.6,1.8,0.7c0.7,0,1.3,0,2-0.1
			L610.8,207.9z"/>
	</g>
	<g>
		<path class="st0" d="M611.2,208.1c-0.7,0.3-1.4,0.5-2.1,0.7c-0.7,0.1-1.5,0.2-2.1-0.2c0.7,0.2,1.3-0.1,1.9-0.4
			c0.6-0.3,1.1-0.7,1.6-1.2L611.2,208.1z"/>
	</g>
	<g>
		<path class="st0" d="M654.4,201.2c-0.7-0.3-1.4-0.6-2-1c-0.6-0.4-1.3-0.9-1.4-1.7c0.3,0.7,1,1,1.6,1.2c0.7,0.2,1.4,0.4,2,0.5
			L654.4,201.2z"/>
	</g>
	<g>
		<path class="st0" d="M654.6,201.5c-0.8,0.2-1.5,0.2-2.3,0.2c-0.7,0-1.6-0.1-2.1-0.7c0.6,0.4,1.4,0.3,2,0.2c0.7-0.2,1.4-0.4,2-0.7
			L654.6,201.5z"/>
	</g>
	<g>
		<g>
			<path class="st29" d="M601.6,234.4c-10.8,0-19.7-9.3-19.7-20.7s8.8-20.7,19.7-20.7c10.8,0,19.7,9.3,19.7,20.7
				S612.4,234.4,601.6,234.4z M601.6,195.1c-9.7,0-17.6,8.4-17.6,18.6c0,10.3,7.9,18.6,17.6,18.6c9.7,0,17.6-8.4,17.6-18.6
				C619.1,203.4,611.2,195.1,601.6,195.1z"/>
		</g>
		<g>
			<path class="st29" d="M652.5,224.6c-11.4,0-20.7-9.6-20.7-21.4s9.3-21.4,20.7-21.4c11.4,0,20.7,9.6,20.7,21.4
				S663.9,224.6,652.5,224.6z M652.5,183.8c-10.3,0-18.6,8.7-18.6,19.3s8.3,19.3,18.6,19.3c10.3,0,18.6-8.7,18.6-19.3
				S662.7,183.8,652.5,183.8z"/>
		</g>
		<g>
			<path class="st29" d="M620.6,211.1l-1.5-1.5c0.1-0.1,6.5-6.2,14.8-2.1l-0.9,1.9C626,205.9,620.7,211.1,620.6,211.1z"/>
		</g>
	</g>
	<g>
		<path class="st29" d="M671.4,199c-0.2,0-0.4,0-0.5-0.1c-0.5-0.3-0.7-0.9-0.4-1.4c0.6-1,14.6-25.5,31.4-20.1
			c0.6,0.2,0.9,0.8,0.7,1.3c-0.2,0.6-0.8,0.9-1.3,0.7c-15.2-4.8-28.8,18.9-28.9,19.2C672.2,198.8,671.8,199,671.4,199z"/>
	</g>
	<g>
		<path class="st29" d="M667.5,190l-9.9-5.9l3.7-1.7c1.5-0.5,4.3-1.7,5.2-2.6c0.7-0.7,1.4-0.4,1.6-0.3c0.6,0.3,1.4,0.8-0.2,9
			L667.5,190z M662.1,184.4l3.9,2.3c0.3-1.6,0.5-3.2,0.6-4.3C665,183.4,662.9,184.2,662.1,184.4z"/>
	</g>
	<g>
		<path class="st29" d="M584.6,204.4l-0.6-4c-0.1-1.6-0.4-4.6-1-5.7c-0.5-0.9,0-1.4,0.1-1.6c0.5-0.5,1.1-1.2,8.6,2.7l1.3,0.7
			L584.6,204.4z M585.3,195.2c0.5,1.8,0.7,4.1,0.7,4.9l3.3-3.1C587.9,196.3,586.4,195.6,585.3,195.2z"/>
	</g>
	<g>
		<path class="st24" d="M697.4,200.4c-2.7,0-3.7-1.2-4.1-2c-0.8-1.6-0.2-3.7,1.4-5.3c1.7-1.8,4.9-3,8.7-1.1c0,0,0,0,0,0
			c-0.1-4.8-2.3-10.3-2.4-10.4c-0.1-0.4,0-0.8,0.4-0.9c0.4-0.1,0.8,0,0.9,0.4c0.2,0.4,4.4,10.8,1.4,16.2c-1,1.7-2.6,2.7-4.7,3
			C698.4,200.4,697.8,200.4,697.4,200.4z M699.6,192.4c-2.1,0-3.5,1.2-4,1.6c-1.2,1.2-1.7,2.7-1.1,3.7c0.5,1,2,1.4,4.2,1.1
			c1.7-0.2,3-1,3.7-2.4c0.5-1,0.8-2.1,0.9-3.4c-0.2,0.1-0.4,0.1-0.6,0C701.6,192.6,700.5,192.4,699.6,192.4z"/>
	</g>
	<g>
		<path class="st30" d="M602.6,134.3c0.5-4.9,2-9.8,4-14.3c2-4.6,4.7-8.9,7.9-12.8c0.8-1,1.6-1.9,2.5-2.8c0.9-0.9,1.7-1.8,2.7-2.7
			c2-1.6,3.8-3.3,6-4.6c4.1-2.9,8.8-4.9,13.5-6.4c-4.3,2.6-8.5,5-12.2,8.1c-3.8,3-7.2,6.4-10.3,10.1c-3.1,3.7-5.8,7.7-8.1,11.9
			C606.2,125.2,604.2,129.7,602.6,134.3z"/>
	</g>
	<g>
		<path class="st30" d="M737.5,166.5c2.7,1.9,4.9,4.4,7.1,6.8c2.1,2.5,4.1,5.2,5.7,8c3.4,5.6,6.1,11.7,7.9,18.1
			c1.6,6.4,2.9,12.9,2.8,19.5c0.2,3.3-0.3,6.6-0.5,9.8c-0.1,1.6-0.6,3.2-0.8,4.8c-0.3,1.6-0.6,3.2-1,4.8l-0.3,0
			c0.2-3.2,0.6-6.4,0.7-9.6c-0.1-3.2,0.1-6.4-0.2-9.6l-0.4-4.8l-0.7-4.7c-0.2-1.6-0.6-3.1-1-4.7c-0.4-1.6-0.7-3.1-1.2-4.7
			c-1.7-6.2-4.1-12.1-7.1-17.8c-3-5.6-6.6-11-11.1-15.6L737.5,166.5z"/>
	</g>
	<g>
		<path class="st30" d="M725.6,158.9c2,7.5,3.2,15.2,4,22.9c0.8,7.7,1,15.5,0.8,23.3c-0.4,7.8-1.1,15.5-2.7,23.2
			c-1.6,7.6-4.1,15.1-7.7,22l-0.3-0.1c2.7-7.2,4.5-14.7,5.8-22.3c1.2-7.6,1.8-15.3,2-22.9c0.3-7.7,0.2-15.4-0.2-23.1
			c-0.4-7.7-1-15.4-2-23L725.6,158.9z"/>
	</g>
	<g>
		<g>
			<path class="st31" d="M355.1,375.7l-22.5,9.6l13.6,7l15.1-1.2c0,0,7.4-4.5,7.1-4.2C368.2,387.1,355.1,375.7,355.1,375.7z"/>
		</g>
		<g>
			<g>
				<defs>
					<polygon id="SVGID_13_" points="355.1,375.7 295.9,356 284.8,364.1 333.9,385.3 					"/>
				</defs>
				<use xlink:href="#SVGID_13_"  style="overflow:visible;fill:#FBEFD7;"/>
				<clipPath id="SVGID_14_">
					<use xlink:href="#SVGID_13_"  style="overflow:visible;"/>
				</clipPath>
				<g class="st32">
					<path class="st33" d="M289,360l57.4,22.7c0,0-8.3,8.1-11.1,8.1c-2.7,0-27.3-8.6-30.1-10s-15-7-16.4-8.4c-1.4-1.4-4-8.3-4-8.3
						L289,360"/>
				</g>
			</g>
			<g>
				<defs>
					<polygon id="SVGID_15_" points="354.7,375.9 455.3,340.1 488.1,348.7 365.4,391.2 					"/>
				</defs>
				<use xlink:href="#SVGID_15_"  style="overflow:visible;fill:#FBEFD7;"/>
				<clipPath id="SVGID_16_">
					<use xlink:href="#SVGID_15_"  style="overflow:visible;"/>
				</clipPath>
				<g class="st34">
					<path class="st33" d="M484.1,341.8l-126.8,43.7c0,0,5.3,19.3,6.6,19.3c1.4,0,75.6-11.4,75.6-10c0,1.4,47.1-31,47.1-31l7-13.6
						L484.1,341.8z"/>
				</g>
			</g>
			<g>
				<path class="st35" d="M353.3,391c-9.4,0-14.3-3.8-15.3-4.8l-56.4-25.6l1.2-2.7l56.9,25.8l0.2,0.2c0.3,0.3,7.3,7,23.8,2.7
					l123.1-43.4l1,2.8l-123.2,43.4C360.3,390.6,356.5,391,353.3,391z"/>
			</g>
			<g>
				<polyline class="st36" points="338.1,385.3 282.1,359.9 363.3,536 411.5,556.5 				"/>
			</g>
			<g>
				<path class="st37" d="M445.8,555.2l-78.9-166.8l-2.2-0.2c-14.9,4.2-23.2-0.6-27.1-3.1l-1.8-0.8l4.9,12.1l70.8,160.1
					c0,0,13.6,12.5,34.3-0.9l-0.4-0.3L445.8,555.2z"/>
			</g>
			<g>
				<polyline class="st38" points="364.1,388.4 488.2,344.6 567.6,512.9 441.2,556.6 				"/>
			</g>
			<g>
				<polygon class="st39" points="391.4,401.1 401.7,421.8 493.1,388.6 484.1,369.3 				"/>
			</g>
			<g>
				
					<rect x="425.9" y="415" transform="matrix(0.9413 -0.3374 0.3374 0.9413 -114.2623 180.9012)" class="st39" width="74.7" height="8.2"/>
			</g>
		</g>
	</g>
	<g>
		<path class="st40" d="M513.9,397.2c6.3,4.6,17.7,15.2,20.5,33.8l60,18.3l-18.3,32.6l-50.9-19.6c0,0-40.4,18.3-54.8-11.7l-5.9-8.5
			c0,0-5.2-7.8-1.3-10.4c0,0-6.5-7.8,1.3-10.4c0,0,40.8,7.5,53.9,2.3c0,0-7.5-14.5-9.6-23.3C508.5,398.8,512.8,396.4,513.9,397.2z"
			/>
	</g>
	<g>
		<rect x="584.5" y="480.5" class="st41" width="5.9" height="8.9"/>
	</g>
	<g>
		<path class="st42" d="M465,433c1.8,0.8,3.7,1.5,5.6,2.1c1.8,0.7,3.7,1.3,5.6,1.8c3.8,1.1,7.6,2,11.5,2.4c1.9,0.3,3.9,0.5,5.8,0.6
			c1,0.1,1.9,0,2.9,0c1,0,1.9,0,2.9,0l2.9-0.1l2.9-0.4c2-0.1,3.9-0.7,5.9-1l0,0c0,0,0.1,0,0.1,0.1c0,0,0,0.1,0,0.1
			c-3.8,1.2-7.7,2.2-11.7,2.5c-4,0.3-8,0.3-11.9-0.3c-3.9-0.6-7.8-1.5-11.6-2.8c-3.8-1.3-7.4-2.9-10.9-4.9
			C464.8,433.1,464.8,433,465,433C464.9,433,464.9,433,465,433L465,433z"/>
	</g>
	<g>
		<path class="st42" d="M469.3,446c1.8,0.4,3.5,0.8,5.3,1.1c1.7,0.4,3.5,0.7,5.2,0.9c3.5,0.5,7,1,10.5,1.2c3.5,0.4,7,0.4,10.6,0.3
			l2.7-0.1l2.6-0.2c1.8,0,3.5-0.4,5.3-0.5l0,0c0,0,0.1,0,0.1,0.1c0,0,0,0.1-0.1,0.1c-3.5,0.8-7,1.5-10.6,1.7
			c-3.6,0.3-7.2,0.3-10.8,0c-3.6-0.3-7.1-0.8-10.6-1.5c-3.5-0.8-7-1.7-10.3-2.9C469.2,446.1,469.2,446.1,469.3,446
			C469.2,446,469.3,446,469.3,446L469.3,446z"/>
	</g>
	<g>
		<path class="st42" d="M474.3,455.6c1.2,0.5,2.4,0.9,3.6,1.2c1.2,0.4,2.4,0.6,3.6,0.8c2.4,0.4,4.9,0.7,7.4,0.8
			c2.5,0.3,5,0.1,7.5,0.1c2.5,0,5.1-0.2,7.7-0.2h0c0,0,0.1,0,0.1,0.1c0,0,0,0.1-0.1,0.1l-3.8,0.7l-3.8,0.5c-2.6,0.2-5.1,0.3-7.7,0.2
			c-2.6-0.1-5.1-0.5-7.6-1.1c-2.5-0.7-4.9-1.5-7.1-3c0,0,0-0.1,0-0.1C474.2,455.6,474.2,455.6,474.3,455.6L474.3,455.6z"/>
	</g>
	<g>
		<g>
			<path class="st41" d="M798,359c-0.3-2.6-0.6-4.1-0.6-4.1c-0.1-9.1-2.3-16.5-5.7-22.4c-0.3-0.8-0.4-1.2-0.4-1.2l-0.1,0.4
				c-1.2-2-2.5-3.8-4-5.5c-3-3.5-6.5-6.3-9.9-8.6c-11.1-7.2-22.6-8.7-22.6-8.7l-33.9-17.5l-51.3,47l-28-44l-21.8,6.6l-9.1,44
				c-27.5,34.2-19.4,74.8-14,92L545,427l-14.8,42.8l46.6,13.3l-18.5,11.6l8.2,17.8c16,5.3,33,10.1,48.5,16.6
				c18.5,7.8,36.7,16.3,54.3,25.9c15.4,8.3,30.8,17.3,44.2,28.8c2.5,2.2,26.1,24.1,28.7,22.1c39.8-30.5,41.9-106.7,43-121.5
				C805.7,435.5,802.9,387.8,798,359z"/>
		</g>
		<g>
			<path class="st29" d="M643.6,307.7c0,0,26.6,8.9,60.6,0l-30.8,41l-3.8,0.9L643.6,307.7z"/>
		</g>
		<g>
			<path class="st43" d="M674.1,320.6c-15.9,0-29.3-2.5-29.5-2.6l0.3-1.5c0.4,0.1,39.1,7.4,63-3.1l0.6,1.4
				C698.4,319.3,685.6,320.6,674.1,320.6z"/>
		</g>
		<g>
			<path class="st43" d="M673,325.1c-15.9,0-29.3-2.5-29.5-2.6l0.3-1.5c0.4,0.1,39.1,7.4,63-3.1l0.6,1.4
				C697.2,323.8,684.4,325.1,673,325.1z"/>
		</g>
		<g>
			<path class="st44" d="M739.8,375.6c2.3,5.9,3.2,12.2,3.1,18.6c0,3.2-0.4,6.4-1,9.5c-0.6,3.2-1.6,6.3-2.8,9.3
				c-2.6,6-6.3,11.7-11.5,15.9c-5,4.3-11.3,6.8-17.5,7.5l-0.2-0.4c5.6-2.1,11-5.3,15.3-9.6c4.3-4.2,7.6-9.5,9.8-15
				c2.3-5.6,3.7-11.5,4.4-17.6c0.6-6,0.7-12.1,0-18.2L739.8,375.6z"/>
		</g>
		<g>
			<path class="st44" d="M718.1,431.2c-3.9,0.9-7.7,1.1-11.2,1.3c-1.7,0.1-3.5,0.2-4.9,0.4c-0.3,0.1-0.6,0.1-0.7,0.2
				c-0.1,0,0,0,0.1,0c0.1-0.1,0.4-0.2,0.8-0.6c0.4-0.4,0.8-1.4,0.7-2c0-0.3-0.1-0.5-0.1-0.7c0-0.2,0,0,0,0l0.1,0.2
				c0.2,0.6,0.3,1.2,0.4,1.7c0.7,4,0.9,7.7,0.7,11.5c-0.2,3.8-0.6,7.5-1.8,11.3l-0.4,0l-1.2-11c-0.4-3.7-0.8-7.3-1.6-10.9
				c-0.1-0.5-0.2-0.9-0.3-1.3c0-0.2-0.2-0.5-0.2-0.8c0-0.3,0.1-0.7,0.3-0.9c0.9-0.9,1.9-0.9,2.9-1c1.9-0.1,3.8,0,5.6,0.2
				c3.7,0.4,7.3,1.1,11,1.9L718.1,431.2z"/>
		</g>
		<g>
			<path class="st44" d="M697.8,511.6c-11.5,0-23.9-1-37-3.1c-43.3-6.8-80.4-22.7-82.6-23.7l-49.8-14l15.3-44.5l53,11.3
				c62.5,10.2,105.4,4.5,105.8,4.4l0.4,2.9c-0.4,0.1-43.8,5.8-106.8-4.4l-50.5-10.8l-13.5,39l47.1,13.3c0.4,0.2,38,16.6,82,23.5
				c43,6.8,100.1,5.5,127.4-39.2l2.5,1.5C773.4,496.8,741.5,511.6,697.8,511.6z"/>
		</g>
		<g>
			<circle class="st44" cx="656.9" cy="362.3" r="4.4"/>
		</g>
		<g>
			<circle class="st44" cx="643.6" cy="412.5" r="4.4"/>
		</g>
		<g>
			<path class="st44" d="M651.6,443.9l-1.3-0.8c18.9-30.5,19.8-92.8,19.8-93.4l1.5,0C671.6,350.4,670.7,413.1,651.6,443.9z"/>
		</g>
		<g>
			<path class="st44" d="M605.8,526.4l-0.5-1.4c21.3-7.1,20.5-23.8,20.5-24.5l1.5-0.1C627.3,500.5,628.3,518.9,605.8,526.4z"/>
		</g>
		<g class="st45">
			<g>
				<path class="st41" d="M650.6,505.4c0,0-57.9-15.6-73.8-22.3l-18.5,11.6l8.2,17.8c16,5.3,33,10.1,48.5,16.6
					c18.5,7.8,36.7,16.3,54.3,25.9c15.4,8.3,30.8,17.3,44.2,28.8c2.5,2.2,26.1,24.1,28.7,22.1c39.8-30.5,41.9-106.7,43-121.5
					c1.9-4.6,3.6-9.2,5.2-13.7C777.3,487.9,738.4,523.9,650.6,505.4z"/>
			</g>
		</g>
	</g>
	<g>
		<defs>
			<path id="SVGID_17_" d="M670.3,350.4l17.5-6.8l81.3-31.5c-1.5-7.4-59.6-27.3-59.6-27.3L671,349h-1.5l-23-56.1
				c-41.4,5.9-50.2,25.1-50.2,25.1l73.8,32.5l-0.1-0.1l0.1,0.1l0,0.1L670.3,350.4L670.3,350.4L670.3,350.4z"/>
		</defs>
		<use xlink:href="#SVGID_17_"  style="overflow:visible;fill:#2681BD;"/>
		<clipPath id="SVGID_18_">
			<use xlink:href="#SVGID_17_"  style="overflow:visible;"/>
		</clipPath>
		<g class="st46">
			
				<rect x="635.5" y="285.2" transform="matrix(0.5931 -0.8051 0.8051 0.5931 -3.701 644.9254)" class="st29" width="1.5" height="81.9"/>
		</g>
		<g class="st46">
			
				<rect x="673" y="325.4" transform="matrix(0.8795 -0.4759 0.4759 0.8795 -68.5768 381.3944)" class="st47" width="91.8" height="1.5"/>
		</g>
		<g class="st46">
			
				<rect x="638.4" y="289.1" transform="matrix(0.5236 -0.8519 0.8519 0.5236 19.073 704.0823)" class="st47" width="1.5" height="91.8"/>
		</g>
		<g class="st46">
			
				<rect x="659.4" y="323.2" transform="matrix(0.8562 -0.5167 0.5167 0.8562 -64.9204 414.5895)" class="st29" width="105.7" height="1.5"/>
		</g>
	</g>
	<g>
		<defs>
			<path id="SVGID_19_" d="M525.3,914.3c-1.5-13.3-7.1-26.1-16.6-35.7c-2.2-2.2-3,0.5-4.3,2c-0.7,0.9-1.6,1.8-2.4,2.6
				c-1,1-2.2,1.9-3.4,2.7c-1.4,0.9-2.9,1.8-4.4,2.5c-1.3,0.6-2.6,1-3.9,1.4c-22-11.3-31.9-0.8-31.9-0.8
				c-11.1,8.4-20.9,18.2-31.5,27.2c-6.2,5.3-12.4,10.5-18.6,15.8c-5.6,4.8-12,9.3-17,14.7c-6.2,6.8-14,20.3-4.2,27.4
				c8.8,6.3,19.3,0.6,27.9-3c23-9.7,46.1-20.6,69.8-28.5c0.7-0.3,11.5-4,11.4-4.4l0.6,4.9l0,0.2c0,0,22.7-4.4,27.2-8.6
				c0.1,0,0.1,0.1,0.2,0.1c0.3,0.2,0.4-0.3,0.5-1c0.6-3.4,0.9-6.8,1-10.2C525.8,920.4,525.7,917.4,525.3,914.3z"/>
		</defs>
		<use xlink:href="#SVGID_19_"  style="overflow:visible;fill:#8F5754;"/>
		<clipPath id="SVGID_20_">
			<use xlink:href="#SVGID_19_"  style="overflow:visible;"/>
		</clipPath>
	</g>
	<g>
		<defs>
			<path id="SVGID_21_" d="M525.3,914.3c-1.5-13.3-7.1-26.1-16.6-35.7c-2.2-2.2-3,0.5-4.3,2c-0.7,0.9-1.6,1.8-2.4,2.6
				c-1,1-2.2,1.9-3.4,2.7c-1.4,0.9-2.9,1.8-4.4,2.5c-1.3,0.6-2.6,1-3.9,1.4c-22-11.3-31.9-0.8-31.9-0.8
				c-11.1,8.4-20.9,18.2-31.5,27.2c-6.2,5.3-12.4,10.5-18.6,15.8c-5.6,4.8-12,9.3-17,14.7c-6.2,6.8-14,20.3-4.2,27.4
				c8.8,6.3,19.3,0.6,27.9-3c23-9.7,46.1-20.6,69.8-28.5c0.7-0.3,11.5-4,11.4-4.4l0.6,4.9l0,0.2c0,0,22.7-4.4,27.2-8.6
				c0.1,0,0.1,0.1,0.2,0.1c0.3,0.2,0.4-0.3,0.5-1c0.6-3.4,0.9-6.8,1-10.2C525.8,920.4,525.7,917.4,525.3,914.3z"/>
		</defs>
		<clipPath id="SVGID_22_">
			<use xlink:href="#SVGID_21_"  style="overflow:visible;"/>
		</clipPath>
		<g class="st48">
			<path class="st49" d="M520.2,887.5c0,0,2.1,22.9-8.3,31.6c0,0-142.5,70.6-126.2,39l-10.7,7.1c0,0-20.4,33.3,12.7,36
				s114.2-15.4,116.2-17.1c2-1.8,29.8-28.2,31.1-31.7c1.3-3.4,8.2-30.1,8.2-30.1L520.2,887.5z"/>
		</g>
	</g>
	<g>
		<defs>
			<path id="SVGID_23_" d="M354.4,915c2.7-13.1,1.4-27-4.7-39.1c-1.4-2.8-3.1-0.5-4.7,0.6c-1,0.6-2,1.2-3.1,1.7
				c-1.3,0.6-2.6,1.1-4,1.5c-1.6,0.5-3.3,0.8-4.9,1c-1.4,0.2-2.8,0.2-4.2,0.1c-17.4-17.7-30.1-10.7-30.1-10.7
				c-13.1,4.5-25.6,10.7-38.4,16c-7.5,3.1-15.1,6.1-22.6,9.2c-6.8,2.8-14.3,5.1-20.8,8.7c-8,4.5-19.7,14.9-12.5,24.8
				c6.3,8.8,18.2,6.6,27.4,5.8c24.9-2.1,50.2-5.2,75.2-5.3c0.7,0,12.1-0.2,12.2-0.7l-1,4.8l0,0.2c0,0,23,2.9,28.5,0.3
				c0.1,0.1,0.1,0.1,0.2,0.2c0.2,0.3,0.5-0.1,0.8-0.8c1.6-3,3-6.2,4.2-9.4C352.9,921,353.8,918,354.4,915z"/>
		</defs>
		<use xlink:href="#SVGID_23_"  style="overflow:visible;fill:#8F5754;"/>
		<clipPath id="SVGID_24_">
			<use xlink:href="#SVGID_23_"  style="overflow:visible;"/>
		</clipPath>
	</g>
	<g>
		<defs>
			<path id="SVGID_25_" d="M354.4,915c2.7-13.1,1.4-27-4.7-39.1c-1.4-2.8-3.1-0.5-4.7,0.6c-1,0.6-2,1.2-3.1,1.7
				c-1.3,0.6-2.6,1.1-4,1.5c-1.6,0.5-3.3,0.8-4.9,1c-1.4,0.2-2.8,0.2-4.2,0.1c-17.4-17.7-30.1-10.7-30.1-10.7
				c-13.1,4.5-25.6,10.7-38.4,16c-7.5,3.1-15.1,6.1-22.6,9.2c-6.8,2.8-14.3,5.1-20.8,8.7c-8,4.5-19.7,14.9-12.5,24.8
				c6.3,8.8,18.2,6.6,27.4,5.8c24.9-2.1,50.2-5.2,75.2-5.3c0.7,0,12.1-0.2,12.2-0.7l-1,4.8l0,0.2c0,0,23,2.9,28.5,0.3
				c0.1,0.1,0.1,0.1,0.2,0.2c0.2,0.3,0.5-0.1,0.8-0.8c1.6-3,3-6.2,4.2-9.4C352.9,921,353.8,918,354.4,915z"/>
		</defs>
		<clipPath id="SVGID_26_">
			<use xlink:href="#SVGID_25_"  style="overflow:visible;"/>
		</clipPath>
		<g class="st50">
			<path class="st49" d="M357.8,887.9c0,0-5.2,22.4-17.8,27.4c0,0-157.5,22.6-132.1-2.4l-12.4,3.4c0,0-29.8,25.3,0.8,38.2
				c30.6,12.9,113.3,21.1,115.7,20c2.4-1.1,37.1-17.5,39.4-20.4c2.3-2.9,17.2-26.1,17.2-26.1L357.8,887.9z"/>
		</g>
	</g>
	<g>
		<path class="st51" d="M583.5,187.2c-24.1-25.4-1.3-50.9-1.3-50.9c14.7-50.9,57.6-49.5,57.6-49.5c5.4-1.6,10.8-2.4,16-2.5
			c-6.6-0.2-13.4,0.5-20.3,2.5c0,0-42.9-1.3-57.6,49.5c0,0-22.8,25.4,1.3,50.9c0,0,6.8,7.9,21.5,7.1
			C589,193.6,583.5,187.2,583.5,187.2z"/>
	</g>
	<g>
		<g>
			<g>
				<path class="st52" d="M598.6,291.6c-17.2-8.2-18.7-21.2-16.1-32l0.9-9c-6,12.9-10.7,35.4,23.2,44.8
					C603.6,294.2,600.9,292.9,598.6,291.6z"/>
			</g>
		</g>
	</g>
	<g>
		<path class="st51" d="M580.4,188.6c-1.1,10.2-3.9,25.4-11.4,33.8c0,0-35,38.6-26.7,63.6c-1.7-23.4,30.3-63.7,30.6-64
			c8.7-18.2,8.9-28.6,8.5-32.2L580.4,188.6z"/>
	</g>
</g>
</svg>
