<svg id="be23df8e-c438-4ff3-b7f5-fc55aef8b210" xmlns="http://www.w3.org/2000/svg" viewBox="0 0 807.65 701.91"><defs><style>.cls-1{fill:#ff8600;}.cls-2{fill:#ccc;}.cls-3{fill:#3f3d56;}.cls-4{opacity:0.1;isolation:isolate;}.cls-5{fill:#2f2e41;}</style></defs><title>下雨</title><path class="cls-1" d="M480.62,700.91H465.86a7,7,0,0,1-7-7v-123a7,7,0,0,1,7-7h14.76a7,7,0,0,1,7,7v123A7,7,0,0,1,480.62,700.91Z" transform="translate(0)"/><path class="cls-1" d="M449.43,700.91H434.67a7,7,0,0,1-7-7v-123a7,7,0,0,1,7-7h14.76a7,7,0,0,1,7,7v123A7,7,0,0,1,449.43,700.91Z" transform="translate(0)"/><path class="cls-2" d="M60.7,302.84c-3,12.51-6.76,15.49-10.33,14.64s-5.6-5.22-2.61-17.73,13.43-27.58,13.43-27.58S63.69,290.33,60.7,302.84Z" transform="translate(0)"/><path class="cls-2" d="M52.7,520.84c-3,12.51-6.76,15.49-10.33,14.64s-5.6-5.22-2.61-17.73,13.43-27.58,13.43-27.58S55.69,508.33,52.7,520.84Z" transform="translate(0)"/><path class="cls-3" d="M490.53,131.22s6.85-14.49-4.22-18.25S476,124.37,476,124.37l13.46,8" transform="translate(0)"/><path class="cls-1" d="M258,173.85l-22.94,18.6S579.15,308.09,618.39,331l-3.87-32.41L582,259l-63-40.18L417.38,187.23,306.6,147.39Z" transform="translate(0)"/><path class="cls-3" d="M433.23,220.09l-77.84,194.3s-12.45,32.17,15.05,38.34c16.53,3.7,25.27-6.33,29.61-14.91,4.64-9.18-7.95-17.24-14.24-9.11l-.31.4c-.15.21-16.64,13-16.63-4.51a30.56,30.56,0,0,1,2.46-11.74l76.51-183.75Z" transform="translate(0)"/><path class="cls-4" d="M341.28,186.87" transform="translate(0)"/><path class="cls-4" d="M545,258.79" transform="translate(0)"/><path class="cls-3" d="M482.63,123s-21.91-3.2-34.23-10.16c0,0-135.2-28.78-213.26,78.57,0,0,367.49,85.07,383.34,138.58,0,0,23.06-99-99.12-190.44C519.36,139.53,489.47,129.14,482.63,123Z" transform="translate(0)"/><path class="cls-2" d="M65.78,431.72c-1.82,7.63-4.12,9.45-6.31,8.93s-3.41-3.18-1.59-10.82S66.08,413,66.08,413,67.61,424.08,65.78,431.72Z" transform="translate(0)"/><path class="cls-2" d="M8.78,468.72c-1.82,7.63-4.12,9.45-6.31,8.93S-.94,474.47.88,466.83,9.08,450,9.08,450,10.61,461.08,8.78,468.72Z" transform="translate(0)"/><path class="cls-2" d="M427.7,107.84c-3,12.51-6.76,15.49-10.33,14.64s-5.6-5.22-2.61-17.73,13.43-27.58,13.43-27.58S430.69,95.33,427.7,107.84Z" transform="translate(0)"/><path class="cls-2" d="M440.78,18.72c-1.82,7.63-4.12,9.45-6.31,8.93s-3.41-3.18-1.59-10.82S441.08,0,441.08,0,442.61,11.08,440.78,18.72Z" transform="translate(0)"/><path class="cls-2" d="M383.78,55.72c-1.82,7.63-4.12,9.45-6.31,8.93s-3.41-3.18-1.59-10.82S384.08,37,384.08,37,385.61,48.08,383.78,55.72Z" transform="translate(0)"/><path class="cls-2" d="M269.7,499.84c-3,12.51-6.76,15.49-10.33,14.64s-5.6-5.22-2.61-17.73,13.43-27.58,13.43-27.58S272.69,487.33,269.7,499.84Z" transform="translate(0)"/><path class="cls-2" d="M282.78,410.72c-1.82,7.63-4.12,9.45-6.31,8.93s-3.41-3.18-1.59-10.82,8.2-16.83,8.2-16.83S284.61,403.08,282.78,410.72Z" transform="translate(0)"/><path class="cls-2" d="M225.78,447.72c-1.82,7.63-4.12,9.45-6.31,8.93s-3.41-3.18-1.59-10.82,8.2-16.83,8.2-16.83S227.61,440.08,225.78,447.72Z" transform="translate(0)"/><path class="cls-2" d="M210.7,126.84c-3,12.51-6.76,15.49-10.33,14.64s-5.6-5.22-2.61-17.73,13.43-27.58,13.43-27.58S213.69,114.33,210.7,126.84Z" transform="translate(0)"/><path class="cls-2" d="M202.7,344.84c-3,12.51-6.76,15.49-10.33,14.64s-5.6-5.22-2.61-17.73,13.43-27.58,13.43-27.58S205.69,332.33,202.7,344.84Z" transform="translate(0)"/><path class="cls-2" d="M215.78,255.72c-1.82,7.63-4.12,9.45-6.31,8.93s-3.41-3.18-1.59-10.82,8.2-16.83,8.2-16.83S217.61,248.08,215.78,255.72Z" transform="translate(0)"/><path class="cls-2" d="M158.78,292.72c-1.82,7.63-4.12,9.45-6.31,8.93s-3.41-3.18-1.59-10.82,8.2-16.83,8.2-16.83S160.61,285.08,158.78,292.72Z" transform="translate(0)"/><path class="cls-2" d="M363.7,135.84c-3,12.51-6.76,15.49-10.33,14.64s-5.6-5.22-2.61-17.73,13.43-27.58,13.43-27.58S366.69,123.33,363.7,135.84Z" transform="translate(0)"/><path class="cls-2" d="M355.7,353.84c-3,12.51-6.76,15.49-10.33,14.64s-5.6-5.22-2.61-17.73,13.43-27.58,13.43-27.58S358.69,341.33,355.7,353.84Z" transform="translate(0)"/><path class="cls-2" d="M368.78,264.72c-1.82,7.63-4.12,9.45-6.31,8.93s-3.41-3.18-1.59-10.82,8.2-16.83,8.2-16.83S370.61,257.08,368.78,264.72Z" transform="translate(0)"/><path class="cls-2" d="M505.7,177.84c-3,12.51-6.76,15.49-10.33,14.64s-5.6-5.22-2.61-17.73,13.43-27.58,13.43-27.58S508.69,165.33,505.7,177.84Z" transform="translate(0)"/><path class="cls-2" d="M461.78,125.72c-1.82,7.63-4.12,9.45-6.31,8.93s-3.41-3.18-1.59-10.82,8.2-16.83,8.2-16.83S463.61,118.08,461.78,125.72Z" transform="translate(0)"/><path class="cls-2" d="M576.7,118.84c-3,12.51-6.76,15.49-10.33,14.64s-5.6-5.22-2.61-17.73,13.43-27.58,13.43-27.58S579.69,106.33,576.7,118.84Z" transform="translate(0)"/><path class="cls-2" d="M568.7,336.84c-3,12.51-6.76,15.49-10.33,14.64s-5.6-5.22-2.61-17.73,13.43-27.58,13.43-27.58S571.69,324.33,568.7,336.84Z" transform="translate(0)"/><path class="cls-2" d="M581.78,247.72c-1.82,7.63-4.12,9.45-6.31,8.93s-3.41-3.18-1.59-10.82,8.2-16.83,8.2-16.83S583.61,240.08,581.78,247.72Z" transform="translate(0)"/><path class="cls-2" d="M718.7,160.84c-3,12.51-6.76,15.49-10.33,14.64s-5.6-5.22-2.61-17.73,13.43-27.58,13.43-27.58S721.69,148.33,718.7,160.84Z" transform="translate(0)"/><path class="cls-2" d="M674.78,108.72c-1.82,7.63-4.12,9.45-6.31,8.93s-3.41-3.18-1.59-10.82S675.08,90,675.08,90,676.61,101.08,674.78,108.72Z" transform="translate(0)"/><path class="cls-2" d="M659.7,261.84c-3,12.51-6.76,15.49-10.33,14.64s-5.6-5.22-2.61-17.73,13.43-27.58,13.43-27.58S662.69,249.33,659.7,261.84Z" transform="translate(0)"/><path class="cls-2" d="M651.7,479.84c-3,12.51-6.76,15.49-10.33,14.64s-5.6-5.22-2.61-17.73,13.43-27.58,13.43-27.58S654.69,467.33,651.7,479.84Z" transform="translate(0)"/><path class="cls-2" d="M664.78,390.72c-1.82,7.63-4.12,9.45-6.31,8.93s-3.41-3.18-1.59-10.82,8.2-16.83,8.2-16.83S666.61,383.08,664.78,390.72Z" transform="translate(0)"/><path class="cls-2" d="M801.7,303.84c-3,12.51-6.76,15.49-10.33,14.64s-5.6-5.22-2.61-17.73,13.43-27.58,13.43-27.58S804.69,291.33,801.7,303.84Z" transform="translate(0)"/><path class="cls-2" d="M757.78,251.72c-1.82,7.63-4.12,9.45-6.31,8.93s-3.41-3.18-1.59-10.82,8.2-16.83,8.2-16.83S759.61,244.08,757.78,251.72Z" transform="translate(0)"/><circle class="cls-1" cx="467.9" cy="378.15" r="51" transform="translate(19.68 779.44) rotate(-80.78)"/><path class="cls-5" d="M426.86,399.56c-3.3-.09-7.42-.21-10.59-2.52a8.14,8.14,0,0,1-3.2-6.07,5.53,5.53,0,0,1,1.86-4.5c1.66-1.4,4.08-1.72,6.68-1l-2.7-19.72,2-.28,3.18,23.19-1.66-.75c-1.92-.88-4.55-1.33-6.19.05a3.51,3.51,0,0,0-1.15,2.89,6.16,6.16,0,0,0,2.38,4.53c2.47,1.8,5.75,2,9.47,2.14Z" transform="translate(0)"/><rect class="cls-5" x="432.34" y="367.49" width="10.77" height="2"/><path class="cls-5" d="M471.47,327A42.11,42.11,0,0,1,488,296.12a41,41,0,0,1,35-6.68,40.44,40.44,0,0,1,26.88,22.94,42.05,42.05,0,0,1,3.61,17.69,47.75,47.75,0,0,1-4.83,19.07c-3,6.55-6.8,12.69-10.09,19.1a153.22,153.22,0,0,0-16.7,61.93c-1.22,22.77.95,56,26.66,64.75,6.54,2.23,13.59,2.64,20.44,2.62A83.57,83.57,0,0,0,590.36,495c12.14-3.24,23.66-10.85,28.83-22.67a31.46,31.46,0,0,0,2.37-8.57c.11-.81-.77-1.49-1.5-1.5a1.54,1.54,0,0,0-1.5,1.5c-1.67,12.6-12.17,22.26-23.57,26.6a67.35,67.35,0,0,1-20.73,4c-7,.36-14.37.31-21.27-1.32a30.69,30.69,0,0,1-16-9.1,41.4,41.4,0,0,1-8.36-15.12c-4.06-12.39-4.48-26-3.77-38.91a151.26,151.26,0,0,1,8.5-42.19,147.3,147.3,0,0,1,8.8-20c3.35-6.29,7.06-12.4,9.87-18.95a49.54,49.54,0,0,0,4.45-19.15,45.32,45.32,0,0,0-3.58-17.8,43.35,43.35,0,0,0-25.81-24.36,44.68,44.68,0,0,0-36,2.95,45.39,45.39,0,0,0-21.26,27.74,43.36,43.36,0,0,0-1.34,8.77c-.1,1.93,2.9,1.93,3,0Z" transform="translate(0)"/><path class="cls-5" d="M481.44,328.05a23.5,23.5,0,0,1,7.86-14.33,23.12,23.12,0,0,1,16.19-5.37c1.93.09,1.93-2.91,0-3a26.1,26.1,0,0,0-26.94,21.91c-.29,1.89,2.6,2.7,2.89.79Z" transform="translate(0)"/><path class="cls-5" d="M481,331.25l-14.25-4.7a5,5,0,0,1-3.18-6.32h0a5,5,0,0,1,6.32-3.18l14.24,4.71a5,5,0,0,1,3.18,6.31h0A5,5,0,0,1,481,331.25Z" transform="translate(0)"/><path class="cls-2" d="M504,615.34H410.25a6.51,6.51,0,0,1-6.5-6.5V594.08a6.52,6.52,0,0,1,6.5-6.5H504a6.51,6.51,0,0,1,6.5,6.5v14.76A6.5,6.5,0,0,1,504,615.34Z" transform="translate(0)"/><path class="cls-5" d="M524,593h-.14l-131.15-2.76a6.5,6.5,0,0,1-6.2-7.94l31.93-139.8a6.47,6.47,0,0,1,6.34-5.06h21.37a65.9,65.9,0,0,1,64.23,52.18l20,95.55a6.5,6.5,0,0,1-5,7.7A6.59,6.59,0,0,1,524,593Z" transform="translate(0)"/><path class="cls-1" d="M439.76,513.91a6.47,6.47,0,0,1-4.57-1.87L347.67,425.6a6.49,6.49,0,0,1-.06-9.19h0L358,405.91a6.49,6.49,0,0,1,9.19-.06l87.53,86.44a6.5,6.5,0,0,1,.06,9.19L444.39,512A6.45,6.45,0,0,1,439.76,513.91Z" transform="translate(0)"/><path class="cls-5" d="M435.72,516.53,397.23,479a6.53,6.53,0,0,1-.33-9l16.2-18.26a6.53,6.53,0,0,1,9.22-.55,6.92,6.92,0,0,1,.86.93l41.18,42a6.54,6.54,0,0,1-.48,9.21L444.94,517A6.53,6.53,0,0,1,435.72,516.53Z" transform="translate(0)"/><path class="cls-3" d="M806.45,701.91H68.16a1.19,1.19,0,1,1,0-2.38h738.3a1.19,1.19,0,1,1,0,2.38Z" transform="translate(0)"/></svg>