<?xml version="1.0" encoding="utf-8"?>
<!-- Generator: Adobe Illustrator 25.2.3, SVG Export Plug-In . SVG Version: 6.00 Build 0)  -->
<svg version="1.1" id="_3" xmlns="http://www.w3.org/2000/svg" xmlns:xlink="http://www.w3.org/1999/xlink" x="0px" y="0px"
	 viewBox="0 0 1024 1024" style="enable-background:new 0 0 1024 1024;" xml:space="preserve">
<style type="text/css">
	.st0{fill:#AFAFAF;}
	.st1{fill:#E3E3E3;}
	.st2{fill:#D7D7D7;}
	.st3{fill:#E2E2E2;}
	.st4{fill:#FBFBFB;}
	.st5{fill:#FAFAFA;}
</style>
<g>
	<path class="st0" d="M192.2,432.1c0-4.9,0-9.8,0-14.8c0.6-0.4,1.8-0.9,1.7-1.1c-1.3-6.8,4.9-12.1,3.9-18.8c-0.1-0.8,0.2-2,0.7-2.7
		c3-4.2,4.7-9.1,7.1-13.6c4.2-7.9,10.4-14.5,16.8-19.8c5.7-4.8,12.4-10,20.3-12.1c5.8-1.5,10.5-5.7,16.9-5.7
		c9.4,0.1,15.5-6.8,22.6-11.4c0.4-0.3,0.6-1,0.7-1.5c0.4-5.8,2.3-11,4.4-16.5c3.4-9.3,7.1-18.2,13.1-26.2c7-9.4,14.8-17.2,24.5-24.2
		c10-7.1,20.7-10,31.6-12.7c7.5-1.8,15.7-4.7,24.1-1.7c5,1.8,11.8-0.8,15.4,1.8c5.6,4.1,12.1,2.8,17.9,6.5c7.9,5,16.5,9.2,24.3,14.7
		c5.1,3.6,11.5,1.7,12.8-4.6c0.9-4.4,4.2-7.6,7.5-8.6c8.1-2.5,14.3-8.7,22.4-10.8c2.5-0.6,0.7-3.8,3.9-3.9c11.3-0.5,21-7.1,31.8-10
		c8.1-2.1,16.2-3.8,24.3-5.4c6.8-1.4,13.7-3.7,21-2.7c1.1,0.1,2.5-1.5,3.7-2.4c10.2,2,20.5,2.5,30.9,2.8c5.9,0.1,12.5-0.4,17.6,2.9
		c5.4,3.4,11.6,3.1,17.1,5.8c3.8,1.8,8.5,3,12,5.2c5.3,3.3,10.4,7.3,15.5,11c4.1,3,7.6,7.2,12.5,9.2c0.4,0.4,0.8,0.8,1.1,1.1
		c0.4,2.8,2.3,4.6,3.9,6.7c3.2,4.1,7.8,7.4,9.5,12.5c1.8,5.4,5.5,9.7,7.9,14.7c0.9,1.9,0.2,5.3,3.6,5.8c0.1,1,0.3,2.1,0.4,3.1
		c-0.1,1.1-0.5,2.3-0.4,3.3c1.2,7.5,3.1,14.9,3.8,22.6c0.3,3.4,3.7,7,8.3,5.8c7-1.9,13.4-5.6,19.2-9.5c4.9-3.3,10.6-4.5,15.4-5.2
		c7.5-1.1,15.7,0.5,23.3,2.5c6.8,1.7,14.2,3.5,18.7,10c1.8,2.6,4.8,2.8,7.4,3.9c0,0.7,0,1.4,0.1,2.1c-1.7,1.8,0.2,2.8,1,3.7
		c8.3,9.7,10.4,21.8,12.9,33.7c0.5,2.5,1.8,4,4.2,4.8c0,1.4,0.1,2.8,0.1,4.1c-2.5,0.8-2.6,3.4-1.8,4.6c3.5,5.4,0.7,10.9,0.9,16.3
		c0.3,8.9,0.1,8.9,9.3,8.5c0,0,0.1,0.1,0.1,0.1c-0.2,1.5,0.4,3.2,1.7,3.1c4.7-0.5,7.6,2.8,10.9,4.9c9.2,6,19.6,10.3,26.8,19.5
		c6.1,7.7,11.8,15.5,14.4,24.8c3.3,11.8,0.6,23.9,0.3,35.8c0,0.7-0.4,1.5-0.9,2c-3.5,3.2-4.7,8-6,11.8c-1.4,4.2-5.1,8-4.3,12.9
		c-3.5,2.2-5.7,5.2-6.8,9.2c-2.2-0.2-3.2,1.7-4.6,2.8c-4,3.1-7,8-11.1,10.1c-8.4,4.3-13.8,12.1-21.9,16.4c-1.6,1.3-3.5,1.5-5.4,1.6
		c-1.6-0.3-2.2,0.5-2.2,2c-0.4,0.4-0.8,0.8-1.2,1.2c-6,0.5-11.5,6.4-18.1,1.6c-0.4-0.3-1.5,0.2-2.1,0.6c-3.4,2.3-7.7,4.2-9.5,7.8
		c-4.4,8.7-12.8,11.4-20.6,14.9c-5.3,2.4-10.6,4.9-16.9,5.5c-3.4,0.4-7.1,2.8-11.3,1.9c-0.3-0.1-0.8,1.1-1.2,1.6
		c-0.4,0.4-0.8,0.7-1.1,1.1c-8.3,0-16.8-4.6-24.9,1.2c-0.9,0.6-2.7,0.4-3.9,0c-5.2-1.6-11.5,0.6-15.7-4.8c-0.6-0.8-2.5-0.8-3.7-0.7
		c-6.6,0.4-13.1-1.3-19.7-1.5c-0.7-0.4-1.4-0.8-2.1-1.2c-1.3-2.4-2.9-2.5-4.8-0.7c-2.7,0.1-4.4-1.4-5.8-3.5
		c-2.6-4.4-6.8-1.3-10.1-2.3c-3.7-2.9-7.2-6.2-12.4-5.8c-4.1-6.3-11.5-8.1-17.2-12.3l0,0c0-2.5-1.7-2.4-3.4-2
		c-0.5-0.8-1-1.6-1.6-2.4c0.4-3.1-1.1-4.5-4.1-4.3c-0.6-0.2-1.3-0.4-1.9-0.6c0-0.3-0.1-0.6-0.1-1c-2.4-4.2-4-3.9-7,1
		c-3.5,1.3-5.5,5.6-9.9,5.2c-6.9,2.9-14,0.9-20.8,0.2c-6.8-0.7-14.3,0.9-20.4-4.2c-3.3-2.7-7.5-4.5-11.2-6.7c-1.2-1.5-2.4-3-3.6-4.5
		c0.3-1.6-0.5-2.3-2-2.3c-1.1-1-1-2.3-1.2-3.5c1.7-1.7,0.6-2.1-1.1-2.2c-0.3-0.1-0.6-0.2-0.9-0.2c-0.4-0.7-0.8-1.4-1.3-2.1
		c-0.2-1.1-0.6-2.1-2-1.9c-1.1,0.1-1.3,1-1.5,1.9l0,0c-3,1.1-7.8-2.4-8.8,3.6c-1.6,1.5-3.1,3-4.7,4.6c-3.3,0.9-3.3,4.6-5.8,6.4
		c-10.4,7.5-19.1,16.5-31.9,21.3c-10.3,3.8-21.1,5-31.4,7.8c-5.9,1.6-15,1.1-21.1-4.6c-1-1-2.3-1.3-3.6-1.3
		c-6.2,0.2-11.3-3.3-16.8-5.4c-6.8-2.6-10.8-9.3-17.4-12.3c-1.6-0.7-1.4-2.5-1.5-4c-0.5-5.5-4.4-7.5-9.2-4.7c-1.3,0.7-2.1,2.6-3.8,2
		c-5.3-1.7-9.6,2.1-14.7,2.6c-7.4,0.7-14.5,4.2-22.3,3.6c-2.2-0.2-4.6-0.7-6.6,0.8c-2.6,1.9-5.2,1.3-8.1,0.9c-6-0.8-12-1.7-17.9-1.6
		c-8.1,0.1-15-4-22.5-5.7c-3.1-0.7-7.1-1.5-10.2-3.7c-4.3-3-8.6-5.8-13.9-6.8c-0.8-0.4-1.5-0.8-2.3-1.3c-2.3-2.7-3.9-6.2-7-8.1
		c-10.8-6.6-15.4-18.2-22.4-27.8c-0.4-0.5-0.3-1.5-0.3-2.2c-0.2-7.4-6.9-13.5-4-21.4c0-0.1-0.1-0.4-0.2-0.5c-4.3-4.5-2.5-9.9-1.9-15
		c0.3-2.3,1.3-5.1,0-6.6c-3.4-4-4.1-8.7-5.4-13.5c-1.8-6.4-5.5-12.3-4.3-19.4C194.6,433.8,194.2,432.3,192.2,432.1z M413.2,382.1
		c1.9-3.5-1.6-6.3-2.3-9.7c-1.7-7.5-7.7-12.4-13.5-15.6c-6.8-3.8-14.8-6.3-23.2-6.2c-2.7,0-5.3,0.4-5.7,3.3c-0.5,3.7-1.3,8,0.2,11.1
		c2.2,4.7,1.9,9,0.9,13.7c-0.4,1.7-0.4,3.3,0.1,5c2.7,8.1,2.5,16.7,3.9,25.1c0.5,2.8-0.6,5.9-0.9,8.9c-0.3,3.1,1.1,4.2,4.2,5.4
		c5.2,1.9,8.6-1.5,12.8-2.6c7.5-2,14.2-6.3,17.8-12.8C411.7,400.3,413.8,391.6,413.2,382.1z M518.8,368.3
		c0.7-10.8-4.8-17.8-11.4-23.6c-2.4-2-5.1-5.1-8.9-5.5c-5.4-0.5-10.9-0.8-16.3-1.1c-1.7-0.1-4-0.4-4.4,1.6
		c-1.1,5.5-3.4,11.3-1.1,16.6c1.8,4,1.6,7.7,1.4,11.5c-0.3,6.9,3.3,13.5,1.4,20.5c-0.1,0.3,0.1,0.8,0.3,1.1c2.9,3.7,2,7.8,1.4,11.9
		c-0.7,5.4,4.4,9.9,9.8,9.1c11.6-1.6,16.9-11.3,22.6-19.2C518.2,384.9,519.2,375.8,518.8,368.3z"/>
	<path class="st1" d="M192.2,402.6c1.3,0,3.2,0.1,3.2-1.5c-0.2-4.3,2.1-7.7,3.4-11.5c2.8-8.2,6.5-15.6,13.4-21.1
		c2.1-1.7,4.5-3.5,5.2-6.5c0.5-2.1,2.3-3.9,4-4.6c9.4-4.1,17.2-11.5,27.6-13.9c4.6-1,8.6-4.5,13.8-2.2c1.6,0.7,3-1.3,4.2-2.5
		c3.4-3.3,6.8-6.5,11.4-8c2.1-0.7,2.8-2.6,3.1-4.4c0.7-4.4,1.5-8.7,2.5-13c1.2-5,3.1-9.6,5.7-13.8c1.7-2.7,4.2-4.8,3.8-8.4
		c-0.1-0.5,0.3-1.2,0.7-1.4c6.8-3.3,7.5-11.2,12.2-15.9c4.3-4.2,7.9-9.5,14.6-10.8c1.6-0.3,3.1-1.3,4.4-2.3
		c7.5-5.9,15.8-9.4,25.3-11.5c15.1-3.4,30.2-4.5,45.2-1.5c5,1,10.6,3,15.1,5.4c4,2,8.5,2.2,12.5,5c5.1,3.7,10.5,7.1,15.7,10.8
		c4.8,3.5,7.3,3,8.6-2.5c0.7-3.3,3.2-5.2,5.6-6.8c5.9-4,11.7-8.4,18.5-10.9c7.9-2.9,14.8-8.1,22.7-10.7c6.1-2,12-4.7,18.5-6
		c7.9-1.6,16.5-2,23.7-6.9c1.9-1.3,4.5-0.9,6.6-0.2c2.7,0.8,4,0.1,4.2-2.7c6.1,0,12.1,0,18.2,0c0,0.6-0.1,1.3-0.1,1.9
		c-1.2,0.8-2.6,2.5-3.7,2.4c-7.3-1-14.1,1.3-21,2.7c-8.1,1.6-16.3,3.2-24.3,5.4c-10.8,2.9-20.5,9.4-31.8,10
		c-3.2,0.2-1.4,3.3-3.9,3.9c-8.1,2-14.3,8.3-22.4,10.8c-3.3,1-6.6,4.2-7.5,8.6c-1.3,6.3-7.7,8.2-12.8,4.6
		c-7.7-5.5-16.4-9.6-24.3-14.7c-5.8-3.7-12.4-2.5-17.9-6.5c-3.6-2.6-10.4-0.1-15.4-1.8c-8.4-2.9-16.6-0.1-24.1,1.7
		c-10.9,2.7-21.6,5.6-31.6,12.7c-9.8,7-17.6,14.8-24.5,24.2c-6,8-9.7,16.9-13.1,26.2c-2,5.5-4,10.7-4.4,16.5c0,0.5-0.3,1.2-0.7,1.5
		c-7.1,4.7-13.1,11.5-22.6,11.4c-6.3-0.1-11.1,4.2-16.9,5.7c-7.9,2.1-14.6,7.3-20.3,12.1c-6.3,5.3-12.6,11.9-16.8,19.8
		c-2.4,4.5-4,9.4-7.1,13.6c-0.5,0.7-0.8,1.8-0.7,2.7c1,6.8-5.2,12-3.9,18.8c0,0.3-1.1,0.7-1.7,1.1
		C192.2,412.5,192.2,407.5,192.2,402.6z"/>
	<path class="st2" d="M880,484.3c-4.2,3.2-3.1,8.2-3.2,12.1c-0.1,13.1-6.6,23.5-12.7,34.2c-0.1,0.2-0.7,0.2-1,0.3
		c-0.8-4.9,2.9-8.7,4.3-12.9c1.2-3.8,2.5-8.6,6-11.8c0.5-0.5,0.9-1.3,0.9-2c0.3-12,2.9-24.1-0.3-35.8c-2.6-9.4-8.3-17.1-14.4-24.8
		c-7.3-9.2-17.6-13.4-26.8-19.5c-3.3-2.2-6.2-5.4-10.9-4.9c-1.3,0.1-1.9-1.6-1.7-3.1c6.3,1.4,12.4,3.1,17.4,7.6
		c0.8,0.7,2.5,0.4,3.8,0.5c0.6,4.7,5.6,4.3,8.1,6.8c7.3,2.9,10.4,10.2,15.4,15.5c2.3,2.4,5.7,4.4,6.2,8.4c-0.1,1.7,0.8,2.8,2.2,3.5
		c-0.9,5,5.1,8.3,3.4,13.5c0.1,2.2,1.2,3.4,3.4,3.4C880,478.3,880,481.3,880,484.3z"/>
	<path class="st3" d="M239.9,549.9c-0.4,0.7-1.3,1.4-1.8,0.8c-6-6.5-13.7-10.9-19.4-18.1c-4.2-5.3-8-11.4-9.4-16.9
		c-2-8-6.8-14.9-7.4-23.6c-0.4-6.3-0.7-12.3,0.4-18.5c0.2-1.1,0.5-2.8-0.1-3.3c-5.7-5.4-5.2-13.6-9-19.8c-0.1-0.2-0.7-0.2-1.1-0.3
		c0-6.1,0-12.1,0-18.2c2,0.2,2.5,1.7,2.2,3.3c-1.2,7.1,2.5,13,4.3,19.4c1.3,4.7,2,9.5,5.4,13.5c1.3,1.5,0.3,4.4,0,6.6
		c-0.6,5.1-2.5,10.5,1.9,15c0.1,0.1,0.3,0.4,0.2,0.5c-2.9,7.9,3.8,14.1,4,21.4c0,0.7-0.1,1.7,0.3,2.2c7,9.6,11.6,21.2,22.4,27.8
		C236,543.7,237.6,547.2,239.9,549.9z"/>
	<path class="st2" d="M565.5,224.1c0-0.6,0.1-1.3,0.1-1.9c9.1,0,18.2,0,27.2,0c0.5,3.2,3,2.2,4.9,2.3c6.4,0.1,12.7,0.8,18.9,2.4
		c1.7,4,5.3,1.4,8,2.2c1.1,0.7,2.3,1.5,3.4,2.2c0.5,0.6,0.9,1.6,1.4,1.6c8.2,1,14.8,6.1,22.4,8.6c1.5,2.9,4.5,3.8,6.9,5.6
		c0.4,0.4,0.8,0.8,1.1,1.2c0.6,1.5,1.7,2.3,3.4,2.3c3.4,2.8,6.8,5.6,7.9,10.2c-4.9-2-8.4-6.1-12.5-9.2c-5.1-3.7-10.2-7.7-15.5-11
		c-3.5-2.2-8.2-3.3-12-5.2c-5.5-2.7-11.7-2.4-17.1-5.8c-5.1-3.2-11.7-2.7-17.6-2.9C586,226.6,575.7,226.1,565.5,224.1z"/>
	<path class="st1" d="M729,609c-0.1,2.4-1.9,2.4-3.6,2.4c-4-0.2-8.1,0.4-12.2-0.8c-2.6-0.8-5.3-0.7-5.8,3.1c-3,0-6.1,0-9.1,0
		c-0.2-0.5-0.4-1.5-0.6-1.5c-6.7,0.3-12.6-3.3-19-4.1c-4.6-0.6-9.3-0.8-14-1.3c-1.8-0.2-3.8-0.8-3.7-3.4c6.6,0.2,13.1,1.8,19.7,1.5
		c1.3-0.1,3.2-0.1,3.7,0.7c4.1,5.4,10.5,3.2,15.7,4.8c1.2,0.4,3,0.6,3.9,0C712.2,604.4,720.7,609,729,609z"/>
	<path class="st4" d="M616.6,226.9c-6.2-1.7-12.5-2.3-18.9-2.4c-1.9,0-4.4,0.9-4.9-2.3c7.9,0,15.9,0,23.8,0
		C616.6,223.8,616.6,225.3,616.6,226.9z"/>
	<path class="st4" d="M880,475.2c-2.2,0-3.3-1.2-3.4-3.4c1.1,0,2.3,0,3.4,0C880,473,880,474.1,880,475.2z"/>
	<path class="st4" d="M413.2,382.1c0.5,9.5-1.5,18.2-5.7,25.7c-3.6,6.4-10.3,10.8-17.8,12.8c-4.2,1.1-7.6,4.6-12.8,2.6
		c-3.1-1.2-4.5-2.2-4.2-5.4c0.3-3,1.4-6.1,0.9-8.9c-1.4-8.3-1.2-16.9-3.9-25.1c-0.6-1.7-0.5-3.4-0.1-5c1-4.6,1.3-8.9-0.9-13.7
		c-1.4-3.1-0.7-7.4-0.2-11.1c0.4-2.9,3-3.3,5.7-3.3c8.3-0.1,16.4,2.4,23.2,6.2c5.8,3.2,11.8,8.1,13.5,15.6
		C411.7,375.9,415.1,378.7,413.2,382.1z"/>
	<path class="st5" d="M518.8,368.3c0.5,7.4-0.6,16.5-5.2,22.9c-5.6,7.8-11,17.6-22.6,19.2c-5.4,0.8-10.5-3.8-9.8-9.1
		c0.5-4.1,1.4-8.2-1.4-11.9c-0.2-0.3-0.4-0.8-0.3-1.1c1.9-7-1.7-13.6-1.4-20.5c0.2-3.8,0.3-7.5-1.4-11.5c-2.3-5.2-0.1-11.1,1.1-16.6
		c0.4-1.9,2.7-1.7,4.4-1.6c5.4,0.3,10.9,0.7,16.3,1.1c3.8,0.3,6.5,3.4,8.9,5.5C514,350.5,519.5,357.5,518.8,368.3z"/>
	<path class="st3" d="M501,555.9c-0.3,6.7-6.2,9.5-10,13.6c-9.9,10.9-23.9,14.4-36.5,20.7c-6.8,3.4-13.9,2.4-20.2,3.1
		c-7.7,0.8-16.6,1.4-25.1-2.7c-7.2-3.6-14.9-6.9-22.6-9.7c-6.6-2.4-10.3-8.4-16.3-11.4c-1.6-0.8-1.2-3.1-1.1-4.7
		c0.3-3.3-3.2-4.7-4.1-3.9c-3.7,3.5-9,0.9-12.7,4c-2.8,2.4-6.8,1.7-10.1,2.5c-6.6,1.7-13.5,5.3-20.7,2.2c-3.3-1.4-5.5,1.9-8.5,2
		c-10.6,0.3-21.4,1.1-31.3-2.6c-8.2-3-17.3-2.4-24.6-6.9c-5.3-3.2-11.6-5.4-15.1-11c5.3,1,9.7,3.8,13.9,6.8c3.1,2.2,7.1,3,10.2,3.7
		c7.5,1.7,14.4,5.9,22.5,5.7c6-0.1,12,0.8,17.9,1.6c2.9,0.4,5.5,1,8.1-0.9c2-1.5,4.4-0.9,6.6-0.8c7.8,0.6,14.9-2.9,22.3-3.6
		c5.1-0.5,9.4-4.3,14.7-2.6c1.7,0.6,2.6-1.3,3.8-2c4.8-2.8,8.7-0.8,9.2,4.7c0.1,1.5-0.1,3.3,1.5,4c6.6,3,10.5,9.7,17.4,12.3
		c5.5,2.1,10.5,5.5,16.8,5.4c1.4,0,2.6,0.3,3.6,1.3c6.1,5.8,15.2,6.2,21.1,4.6c10.4-2.8,21.1-4,31.4-7.8
		c12.8-4.7,21.5-13.8,31.9-21.3C497.7,560.5,497.7,556.8,501,555.9z"/>
	<path class="st2" d="M697.7,304.8c4.5,6.6,5.4,14.2,6.4,21.8c-2.1,3.2-0.5,5.2,2.2,6.9c4.5,1.1,7.6-1.5,11.1-3.6
		c6.2-3.7,11.6-9.2,19.6-8.9c1.8-0.1,3.3-0.9,4.6-2.2c7.9,1.4,15.8,1.1,23.8,1.1c5.1,0.4,8.8,4.3,13.7,5.4c1.1,0.1,2.2,0.2,3.3,0.2
		c0.3,2.2,1.7,3.5,3.5,4.5c1.5,2.2,3,4.3,6,4.7c2.1,0.2,2,1.8,1.8,3.4c-2.6-1.1-5.6-1.3-7.4-3.9c-4.5-6.5-11.9-8.3-18.7-10
		c-7.6-1.9-15.8-3.5-23.3-2.5c-4.9,0.7-10.6,1.9-15.4,5.2c-5.9,4-12.3,7.6-19.2,9.5c-4.6,1.3-8-2.4-8.3-5.8
		c-0.7-7.7-2.6-15.1-3.8-22.6C697.1,307.1,697.5,305.9,697.7,304.8z"/>
	<path class="st1" d="M809.7,574.1c-2.6,4.3-10,7.4-15.2,6.4c-4.9-1-10.6,1.5-13.1,5.9c-2.9,5.1-7.1,8.1-12.5,10.9
		c-5.8,3.1-11.6,6.4-17.9,8.2c-6.7,1.9-13.6,5.6-21,2.4c0.4-0.6,1-1.7,1.2-1.6c4.2,0.9,7.8-1.5,11.3-1.9c6.3-0.7,11.6-3.2,16.9-5.5
		c7.8-3.5,16.2-6.2,20.6-14.9c1.8-3.6,6-5.5,9.5-7.8c0.6-0.4,1.7-0.8,2.1-0.6C798.1,580.4,803.7,574.6,809.7,574.1z"/>
	<path class="st3" d="M580.5,573.4c-2,5.4-6.7,4.3-10.5,3.8c-8-1-15.9-2.4-23.9-2c-3.8,0.2-5.9-2.5-8.2-4c-3.5-2.3-9.5-2.4-9.9-8.5
		c3.8,2.2,7.9,4,11.2,6.7c6.2,5.1,13.6,3.5,20.4,4.2C566.5,574.3,573.7,576.3,580.5,573.4z"/>
	<path class="st1" d="M856.2,540.1c-0.6,3.1-3.2,4.5-5.3,6.3c-0.8,0.7-2.2,1.1-2.7,2c-4.4,8.7-14.4,11-20.5,17.8
		c-2.2,2.5-5.5,3.9-9.2,3c8.2-4.2,13.6-12.1,21.9-16.4c4.1-2.1,7.1-7,11.1-10.1C853,541.8,854,539.9,856.2,540.1z"/>
	<path class="st2" d="M811.8,380c-0.1,0.8-0.1,1.6-0.2,2.4c-2.3-0.8-3.6-2.2-4.2-4.8c-2.4-11.9-4.5-24-12.9-33.7c-0.8-1-2.7-2-1-3.7
		c8.3,7.1,12.9,16.3,14.9,26.9c0.2,1.3,0.8,2.5,1.1,3.7C810.2,373.9,808.1,377.6,811.8,380z"/>
	<path class="st2" d="M672.3,261.9c6.8,6.3,14.3,12.1,17.6,21.4c0.6,1.8,1.6,3.5,3.9,3.6c0.4,2.4-0.7,5.3,2.4,6.8
		c0.4,2.6,0.8,5.3,1.2,7.9c-3.4-0.5-2.7-3.9-3.6-5.8c-2.4-5-6.1-9.3-7.9-14.7c-1.7-5.1-6.3-8.4-9.5-12.5
		C674.5,266.6,672.6,264.7,672.3,261.9z"/>
	<path class="st2" d="M811.6,386.6c3.6,6.9,3.8,14.2,2.5,21.7c-1.9,3-1.6,5,2.3,5.6c1.5,0.1,3.2,0,3.5,2.1c-9.2,0.5-8.9,0.4-9.3-8.5
		c-0.2-5.4,2.6-11-0.9-16.3C809.1,390,809.1,387.4,811.6,386.6z"/>
	<path class="st3" d="M625.8,589.8c-6-3.7-13.8-4.9-17.2-12.3C614.3,581.7,621.7,583.4,625.8,589.8z"/>
	<path class="st3" d="M648.3,597.8c-3.4-0.6-7.5,1.7-10.1-2.3C641.5,596.6,645.8,593.4,648.3,597.8z"/>
	<path class="st3" d="M513.4,550.1c-2.7-0.3-5.2,0.4-7.7,1.2c1-5.9,5.8-2.5,8.8-3.6C514.1,548.6,513.7,549.4,513.4,550.1z"/>
	<path class="st3" d="M594,568.2c-1.2,0-2.3,0-3.5,0c3-5,4.6-5.2,7-1C596,566.6,594.3,565.2,594,568.2z"/>
	<path class="st3" d="M603.6,573c-2.1-0.7-3.6-2.1-4.1-4.3C602.5,568.5,604,569.9,603.6,573z"/>
	<path class="st3" d="M658.9,602c-1.7,0.2-3.4,0.8-4.8-0.7C656.1,599.5,657.7,599.6,658.9,602z"/>
	<path class="st1" d="M513.4,550.1c0.4-0.8,0.7-1.6,1.1-2.3c0,0,0,0,0,0c1.2,0,2.3,0,3.5,0c0.4,0.7,0.8,1.4,1.3,2.1
		C517.3,550,515.3,550.1,513.4,550.1z"/>
	<path class="st3" d="M518,547.8c-1.2,0-2.3,0-3.5,0c0.2-0.9,0.4-1.8,1.5-1.9C517.4,545.8,517.8,546.7,518,547.8z"/>
	<path class="st3" d="M608.6,577.4c-1.5,0-3.1,0-3.4-2C606.9,575,608.6,574.9,608.6,577.4z"/>
	<path class="st1" d="M594,568.2c0.4-3,2.1-1.6,3.5-1c0.1,0.3,0.1,0.6,0.1,1C596.4,568.1,595.2,568.2,594,568.2z"/>
	<path class="st3" d="M521.2,552.4c-0.9-0.5-1.1-1.3-1.1-2.2C521.8,550.3,522.9,550.7,521.2,552.4z"/>
	<path class="st3" d="M524.4,558.2c-1.3-0.2-2-0.9-2-2.3C523.9,555.9,524.7,556.6,524.4,558.2z"/>
	<path class="st1" d="M813.1,570.9c-0.2,1.3-1,1.9-2.2,2C810.9,571.4,811.5,570.5,813.1,570.9z"/>
	<path class="st4" d="M779,325.3c-4.8-1.1-8.5-5.1-13.7-5.4C771.2,317.5,775.9,319.4,779,325.3z"/>
	<path class="st4" d="M811.8,380c-3.7-2.3-1.6-6.1-2.2-9.1C815.1,372.8,813.4,376.4,811.8,380z"/>
	<path class="st4" d="M849.4,431c-2.5-2.5-7.4-2-8.1-6.8C844.8,425.5,849.3,425.5,849.4,431z"/>
	<path class="st4" d="M696.1,293.7c-3-1.5-2-4.4-2.4-6.8C698.3,287.9,698.1,290.5,696.1,293.7z"/>
	<path class="st4" d="M706.3,333.5c-2.8-1.6-4.3-3.6-2.2-6.9C708.2,327.8,705.6,331.2,706.3,333.5z"/>
	<path class="st4" d="M658.7,247.1c-2.4-1.8-5.4-2.7-6.9-5.6C655.4,241.7,658.7,242.4,658.7,247.1z"/>
	<path class="st4" d="M816.4,413.9c-3.9-0.6-4.2-2.7-2.3-5.6C816.8,409.4,816.4,411.7,816.4,413.9z"/>
	<path class="st4" d="M741.6,318.7c-1.2,1.3-2.8,2.1-4.6,2.2C737.6,318.3,738.4,316.2,741.6,318.7z"/>
	<path class="st4" d="M785.8,330c-1.8-1-3.2-2.3-3.5-4.5C785.3,325.6,785.9,327.5,785.8,330z"/>
	<path class="st4" d="M628,231.3c-1.1-0.7-2.3-1.5-3.4-2.2C627.8,226.5,627.9,228.9,628,231.3z"/>
	<path class="st4" d="M663.2,250.6c-1.6,0-2.8-0.8-3.4-2.3C661.5,248.3,663.1,248.3,663.2,250.6z"/>
	<path class="st4" d="M873.1,458.3c-1.5-0.7-2.3-1.8-2.2-3.5C873.3,454.9,873.2,456.6,873.1,458.3z"/>
</g>
<g>
	<path d="M711.2,619.4c-14.2,2.8-28.4-1.1-42.2-4.3c-25.2-5.8-48.7-15.9-68-33.8c-3.2-3-5.7-3.3-9.4-0.9
		c-25.1,16.6-58.1,6.3-72.5-17.5c-3.4-5.6-3.8-5.6-7.7-0.6c-15.6,19.9-35.8,33.2-60.5,38.3c-31.6,6.5-58.9-3.1-81.5-25.8
		c-3.4-3.4-6.1-4.4-10.8-2.9c-22.5,7.4-45.6,10.8-69.2,6.6c-32.4-5.7-60.4-19.2-78.4-48.3c-9.5-15.3-15.3-31.8-13.1-50.3
		c0.5-4.3-0.4-8-2.3-11.9c-8.9-18.4-11.4-37.7-7.8-57.9c6.6-37.4,28.5-61.4,63.8-73.9c6.6-2.3,13.4-3.9,20.4-4.1
		c3.6-0.1,4.9-2.1,5.4-5.4c4-28.9,18.7-51.3,42.1-68.1c13.5-9.7,28.5-15.5,45.3-17.6c9.3-1.1,18.4-1.7,27.5-0.2
		c16.1,2.8,31.4,8,44.7,17.9c4.4,3.3,7.4,4,12.6,0.3c21.4-14.8,44.8-25.5,69.8-33.1c12.7-3.8,25.6-6.8,38.4-7.9
		c17-1.4,34.1-3.1,51.2,1.8c10.5,3,21.1,5.4,31.2,9.6c21.9,9.2,39.3,23.8,52.4,43.5c8.5,12.8,14,27.1,18,42c0.6,2.2,0.3,4.5,0.8,6.7
		c0.7,3.9,3,5.5,6.4,2.9c8-6.1,17.2-9.8,26.8-11.7c10.8-2.2,22-1.5,32.3,3c25.6,11.3,37.1,33,43,58.9c2.3,10.1,4.8,20.1,3.7,30.6
		c-0.3,3.1,1.8,4,4.4,5c20,7.6,37.2,19,49,37.4c10.3,16.1,12.5,33.4,10,52.1c-2.5,18.9-12,34.1-24.1,47.8
		c-16.3,18.4-36.6,31.4-59.5,40.2c-0.7,0.3-1.4,0.9-2.1,0.8c-8.9-0.9-13.6,5.5-19.4,10.5c-9.9,8.6-21.7,13.4-34.4,16.5
		C735.6,618.8,723.8,621.4,711.2,619.4z M281.6,345.2c-9.6-1-18.8,0.6-27.8,3.7c-31.5,10.7-49.6,33-56.3,65
		c-2.9,14,0.2,27.7,3.7,41.3c1.8,6.9,7.3,12.5,6.2,20.3c-1.5,10.5,0.5,20.9,4.1,30.5c13.3,35.3,40.9,53.3,76.7,60.2
		c11.1,2.1,22.3,1.8,33.8,0.8c18.4-1.6,35.4-6.7,51.8-14.3c5-2.3,9.7-5.1,14.7-7.4c3-1.4,6.1-0.9,8,2.1c1.8,2.9,0.6,5.3-1.8,7.5
		c-2.9,2.8-6.7,4.2-10.1,6.2c-9.7,5.7-9.8,6-0.5,12.6c22.9,16.3,47.7,20.9,74.5,11.1c21-7.7,36.7-22.2,49.2-40.3
		c5-7.2,8.9-14.8,11.9-23c1.3-3.5,3.7-6.5,8-5.6c4.4,1,4.2,4.8,4,8.3c-0.1,3.5-0.8,6.8-2.9,9.6c-7.6,10.3-5.2,19.2,3.6,27.4
		c0.7,0.6,1.2,1.4,1.9,2.1c11.3,10.8,28.3,15.1,43.4,9.3c9.7-3.7,16-11.1,21.3-19.4c2.6-4.1,6.1-5.3,10.1-3c4,2.3,2.7,6.3,1.6,9.7
		c-1.2,3.6-5.8,6.4-4.1,10.7c1.6,4,6.2,5.3,9.2,8.2c1.2,1.2,2.7,2,4.2,2.9c12.9,7.8,26.1,15,40.9,18.8c13.1,3.4,26.2,6.7,39.8,8.2
		c5.3,0.6,10.5-1.5,15.8-1.1c14.5,1.1,28-3,41.2-8.2c9.2-3.6,17.8-8.8,23.4-17.3c5.6-8.3,9-17.4,5.9-27.8c-0.4-1.3,0.1-3,0.5-4.5
		c0.5-1.9,1.5-3.5,3.7-3.8c2.1-0.2,3.7,0.7,4.7,2.5c1.6,2.8,3,5.7,2.8,9.1c-0.3,4.5-0.3,9.1-0.8,13.6c-0.4,4.4,1.1,5.7,5.1,3.7
		c5.5-2.8,11.2-5.5,16.5-8.6c23.6-13.5,42.6-31.3,51.7-57.8c5.4-15.6,5.4-31.3-2-46.2c-9.7-19.5-25.7-32.3-45.8-40
		c-13.1-5-12.9-4.8-12.5-19c0.2-8.6-1.8-17.1-3.8-25.6c-3.1-12.6-7.5-24.7-15.6-34.9c-6.8-8.6-15.3-15-26.4-17.4
		c-18.4-4-33.7,2.9-48.4,12.7c-2.2,1.5-2.9,3.8-2.6,6.5c0.5,4.9-0.1,9.8-0.6,14.7c-0.4,4-2.2,7.5-6.3,7.4c-4.5-0.1-5.5-4.2-5.4-8
		c0.3-9.4,0.3-18.7-1-28.2c-2.4-17.8-7.8-34.2-17.4-49.2c-13.1-20.5-31.3-34.6-54-43.8c-19.3-7.8-39.3-9.9-59.4-9.3
		c-14.9,0.5-29.8,3-44.5,7.1c-22.9,6.5-44.3,16-64.8,27.9c-9.7,5.6-9.5,5.9-2.1,14.4c4.4,5,8.6,10.1,11.4,16.2c1,2.3,1.5,4.8-0.4,7
		c-1.7,1.9-4.1,1.9-6.3,1.4c-2.6-0.5-4-2.6-5.4-4.7c-12.3-17.7-28-31.6-48.2-39c-14.4-5.3-29.3-9-45.4-5.3
		c-10.4,2.4-20.4,4.8-29.9,9.6c-17.3,8.9-29.4,22.9-38.6,39.6c-4.1,7.6-7.9,15.4-9.1,24.1c-0.5,3.8,0.8,6.1,5,6.5
		c3.8,0.3,7.5,1,11.2,1.6c3.6,0.6,6.2,2.3,5.5,6.4c-0.7,4-2.9,6.3-7.5,5.8C294.5,346.1,288.1,345.7,281.6,345.2z"/>
	<path d="M193.1,836.4c-0.4-4.2,3.1-8.8,5.3-13.7c6.8-15.5,14.2-30.7,21.5-46c1.9-4,5.3-4.7,9-2.8c3,1.6,4.1,4.5,1.7,7.1
		c-7.1,7.6-8.8,17.8-13.3,26.5c-5,9.7-8.6,20.1-14.7,29.3c-0.9,1.4-2.1,2.7-3.1,4c-1.1,1.4-2.5,2.5-4.4,1.7
		C193.2,841.7,193,839.9,193.1,836.4z"/>
	<path d="M280.4,601.9c0.5,4-3,7.5-4.7,11.6c-7.5,17.3-15.7,34.2-26,50c-1.2,1.9-2.8,4.7-5.8,2.8c-2.4-1.6-3.5-4.1-2-6.9
		c9.8-19.1,18-38.9,28.9-57.4c0.9-1.6,2.3-3,3.6-4.3c1.3-1.3,3-1.6,4.7-0.6C280.6,598,280.8,599.4,280.4,601.9z"/>
	<path d="M362,831.2c0.4-7.3,3.2-13.9,6.1-20.5c4.4-10.2,9.2-20.1,13.7-30.2c1-2.2,2.2-3.9,4-5.3c1.8-1.4,3.9-1.4,5.8,0
		c1.7,1.3,1.8,3.1,1.2,5.1c-6,18.5-14.7,35.6-24.5,52.3c-0.9,1.6-2.1,3.5-4.4,2.8C361.9,834.8,361.8,832.9,362,831.2z"/>
	<path d="M339.6,770.7c-0.4-4.5,3.2-8.7,5.1-13.3c4.4-10.7,8.2-21.7,14.1-31.7c1.5-2.5,3.1-5.5,6.3-4.4c3.5,1.2,2.9,4.7,2.8,7.8
		c-0.1,4.8-3.1,8.4-4.6,12.7c-3.9,11.4-8.2,22.6-15.2,32.5c-1.5,2.1-3.3,3.9-6.1,3C339.3,776.3,339.4,773.9,339.6,770.7z"/>
	<path d="M420.9,677.6c-0.4-5,3.1-10.3,5.3-15.8c3.5-8.9,7.7-17.4,10.8-26.5c0.1-0.2,0.1-0.4,0.2-0.5c2.4-5.8,6.4-9,9.3-7
		c4.6,3.2,2,7.1,0.7,11.1c-3.7,11.7-8.7,22.8-13.3,34.1c-1.4,3.3-3,6.5-5.2,9.3c-1.3,1.7-3.2,3.6-5.8,2.5
		C420.1,683.6,420.8,681.1,420.9,677.6z"/>
	<path d="M268.2,817.2c-0.9-4.4,2.8-8.9,5.2-13.4c5.5-10.5,10.4-21.4,17.3-31.1c1.2-1.7,2.5-3.3,4.2-4.6c1.8-1.4,4-1.1,5.7,0.5
		c1.6,1.5,1.5,3.1,0.6,5.1c-6.3,13.7-13.8,26.8-21.5,39.8c-1.5,2.6-3.1,5.1-4.7,7.7c-1.1,1.7-2.5,3-4.7,2.1
		C268,822.5,268.2,820.5,268.2,817.2z"/>
	<path d="M602.8,692.4c-0.2,0.5-0.6,1.4-1,2.2c-6.3,13.2-12.5,26.5-19.8,39.2c-1.3,2.3-2.9,4.4-4.7,6.3c-1.4,1.5-3.3,2.9-5.4,1.1
		c-1.8-1.5-2.3-3.5-1.3-5.6c6.9-14.5,12.7-29.6,21.7-43c1-1.5,2.3-3,3.6-4.3c1.3-1.4,2.9-1.8,4.6-0.6
		C601.9,688.8,602.8,690.2,602.8,692.4z"/>
	<path d="M638.7,831.7c-1.1,5.1-4.4,10-7,15.1c-4.6,9.1-11.1,17-16.8,25.4c-0.8,1.2-2,2.3-3.1,3.3c-1.6,1.6-3.5,3.6-5.8,1.8
		c-2.3-1.8-1.7-4.6-0.7-6.8c1.8-3.9,4.1-7.6,6.4-11.2c6.1-9.9,12.2-19.9,18.4-29.8c1.3-2.1,3.3-3.9,6.1-3.2
		C638.4,826.9,638.6,829,638.7,831.7z"/>
	<path d="M351.3,633c-0.9,8.6-5.9,16.1-9.5,24.2c-2.4,5.5-5.6,10.6-8.5,15.9c-1.6,2.8-3.5,5.4-7.1,3.2c-3.4-2-3.3-5.4-1.9-8.5
		c3.9-8.6,7.9-17.1,11.9-25.6c1.9-4.1,3.9-8.1,5.8-12.2c1.4-3,3.8-3.6,6.6-2.9C351.6,627.7,351.2,630.3,351.3,633z"/>
	<path d="M483.1,779.9c0.3-1,0.5-2.7,1.2-4.2c5.9-11.9,11.9-23.9,18-35.7c1.3-2.4,3.4-4.5,5.4-6.5c1.4-1.4,3.3-2.1,5.2-0.9
		c2,1.2,1.9,3.3,1.1,5.1c-6.8,15.2-13.4,30.6-22.7,44.6c-1.3,1.9-3.1,3.5-5.7,2.9C483.3,784.6,483.2,782.5,483.1,779.9z"/>
	<path d="M432.2,785.7c-2.5-1.6-4.9-3.1-3.2-6.7c6.1-12.9,12.1-25.8,18.3-38.7c0.8-1.7,1.9-3.3,3-4.8c1.9-2.5,4.5-2.7,7.1-1.2
		c2.6,1.5,1.7,3.9,0.8,6c-5.4,12.8-10.7,25.6-18.1,37.5C438.1,781.1,436.2,784.4,432.2,785.7z"/>
	<path d="M296.3,891.3c0.3-0.7,0.5-1.8,1.1-2.7c8.5-12,14.2-25.6,21.4-38.3c1.2-2.1,2.5-4.2,4.2-6c1.7-1.9,4.1-2,6.2-0.5
		c1.8,1.3,1.8,3.2,0.8,5.1c-6.9,13.1-12.7,26.9-20.9,39.3c-1.9,2.9-4.5,5-7.2,7.2c-1.2,1-2.8,1.3-4.2,0.4
		C296.1,894.8,296.1,893.2,296.3,891.3z"/>
	<path d="M525.8,827.1c-1.2,6.4-5.2,12.4-8.6,18.6c-3.9,7.1-8.7,13.7-13.1,20.5c-1.4,2.2-3.1,3.6-5.6,2.2c-2.4-1.3-2.4-3.4-1.6-5.9
		c4.8-14.2,13.3-26.5,20.4-39.5c1.2-2.2,3.4-3.9,6.2-2.8C526.1,821.3,525.8,823.9,525.8,827.1z"/>
	<path d="M487.8,669.9c1.1-5,2.9-9.4,5.1-13.9c4.2-8.4,7.9-17,12-25.5c1.1-2.3,2.9-4.4,4.7-6.3c1.3-1.4,3.2-2.3,5.1-1
		c2,1.4,2.5,3.5,1.6,5.6c-6.5,15-12.4,30.2-22.1,43.5c-1,1.4-2.2,2.9-4.2,2.1C488.1,673.7,487.9,671.8,487.8,669.9z"/>
	<path d="M264.2,748.9c-3-0.6-4.1-2.5-3.2-5.7c1.3-4.9,3.2-9.6,5.5-14.2c4.9-9.7,9.7-19.5,14.6-29.1c1.2-2.3,2.8-5.1,6.1-3.3
		c3.1,1.7,2.5,4.4,1.4,7.4c-5.2,14.7-12.4,28.5-20.3,42C266.7,748.7,266.1,748.9,264.2,748.9z"/>
	<path d="M607.6,761.2c3.2,0.4,4.5,2,3.6,5.4c-1.8,7.3-6,13.4-9.5,19.7c-3.7,6.7-8.2,13.1-12.5,19.5c-0.9,1.3-2.3,2.5-3.7,3.3
		c-1.4,0.9-2.9,0.4-4.1-0.7c-1.2-1.1-1.5-2.6-0.8-4.1c4.8-9.9,9.2-20.1,15.2-29.4c2-3.2,3.8-6.5,5.9-9.7
		C603,763.1,604.7,761.4,607.6,761.2z"/>
	<path d="M709.7,792.5c-0.7,6.6-5.1,11.8-8.3,17.5c-4.2,7.6-10,14.1-15.5,20.8c-1.5,1.8-3.5,4.3-6.2,2.9c-3-1.6-2-4.7-1-7.1
		c3.3-7.7,8.8-13.9,12.9-21.1c3-5.2,6.3-10.3,9.8-15.2c1.3-1.8,3.2-3.4,5.8-2.6C709.5,788.3,709.8,790.2,709.7,792.5z"/>
	<path d="M672.4,636.1c-1.8,3.9-3.9,8.5-6.2,13c-4.4,8.3-9.2,16.4-15.6,23.4c-1.7,1.8-3.7,3.8-6.3,1.7c-2.3-1.8-1.8-4.3-0.5-6.7
		c5.9-10.5,11.7-21,17.6-31.5c0.9-1.6,2.2-3.1,3.6-4.3c1.6-1.2,3.5-1.2,5.4-0.2C671.9,632.3,672.4,633.6,672.4,636.1z"/>
	<path d="M708.5,686.1c0.7-6.8,5.2-12.9,8.4-19.4c3.2-6.3,6-13,10.6-18.6c1.4-1.7,2.9-3.4,5.2-1.9c2.2,1.5,4.4,3.6,3,6.6
		c-6.1,12.7-12.6,25.2-20.5,36.9c-1.1,1.6-2.3,3.3-4.5,2.5C708.1,691.3,708.5,688.9,708.5,686.1z"/>
	<path d="M753.5,659.9c0.1-2.9,2.3-6.3,4.1-9.8c4-8.1,8.6-15.9,13.8-23.3c2-2.8,4.6-4.2,7.7-2.1c3.2,2.2,1.6,4.9,0.2,7.5
		c-4.4,8.1-8.7,16.2-13,24.3c-1.7,3.2-3.9,6-6.8,8.2c-1.4,1.1-3,1.6-4.7,0.5C753.3,664.1,753.2,662.7,753.5,659.9z"/>
	<path d="M417.9,872c-0.2-4.1,2.5-7.1,4.1-10.3c4.3-8.7,9.5-17,14.5-25.4c1.5-2.5,3.6-5,6.8-2.9c2.9,1.9,2.4,5.1,1,7.7
		c-5.9,10.9-12,21.6-18.2,32.4c-1.1,1.9-3,3.6-5.6,3C418.4,875.9,417.9,874.1,417.9,872z"/>
	<path d="M579.5,616.7c0.4,3.4-2.9,5.9-4.2,9.2c-3.4,8.8-8.1,17-13.1,24.9c-1,1.6-2.1,3.2-3.9,4c-1.6,0.7-3.3,1.1-4.8-0.2
		c-1.6-1.3-1.6-3-0.9-4.7c5.5-12.2,11-24.4,18.8-35.4c1.3-1.8,3.1-3.5,5.7-2.6C579.1,612.7,579.5,614.4,579.5,616.7z"/>
	<path d="M703.1,750.7c0.1-2.7,3.1-5.4,4.8-8.7c3.3-6.3,7-12.4,10.6-18.6c0.6-1,1.2-1.9,2-2.7c2.2-2.4,4.5-5.3,8-2.4
		c3.1,2.5,1.1,4.9-0.3,7.9c-4.2,8.9-9.4,17.1-15.1,25c-1.2,1.7-2.6,3.2-4.1,4.6c-1.1,1.1-2.7,1.5-4.2,0.7
		C703.1,755.4,702.8,753.8,703.1,750.7z"/>
	<path d="M678.3,720.4c-0.7,4.3-3.9,8.9-6.6,13.5c-4,6.8-7.9,13.8-13.5,19.5c-1.4,1.4-2.9,2.7-4.8,0.9c-1.5-1.4-2.1-3.1-1.1-5.1
		c5.4-10.1,10.6-20.4,16.9-30c0.8-1.2,1.9-2.4,3-3.4c1.1-1.1,2.6-1.8,4.2-1.1C678.2,715.6,678.4,717.3,678.3,720.4z"/>
	<path d="M525.6,372.7c2.5,23.2-22,46.3-42.5,50.7c-15.6,3.3-28.4,0.4-39.9-9.7c-8.4-7.5-12.3-16.8-11.6-28.6
		c1.5-25.4,16.2-39.7,38.3-48c15.1-5.6,29.6-3.9,42.5,6.5C521.5,350.7,525.7,360.2,525.6,372.7z M484.5,382.8
		c0.7,6.7,1.1,13.5,2.1,20.2c0.6,4.1,2.7,6,7.1,3.4c8.8-4.9,14.7-12.1,19.1-21c5-9.9,4.9-19.6-1.3-28.9c-7.1-10.6-17.6-14.2-30-13.4
		c-1.8,0.1-4,1.1-2.7,3.1c2.3,3.4,1.6,7.3,2.6,10.9C483.6,365.6,482.8,374.3,484.5,382.8z"/>
	<path d="M422.9,386.3c-0.9,22.3-18,41.2-42.1,44.5c-14,1.9-25.7-1.4-36.6-9.2c-8.5-6.1-12.3-14.9-14.9-25c-3-11.6,1.7-21,7.2-29.6
		c5.6-8.7,14.2-14.7,24.3-18.6c19.8-7.6,44,0.9,53.4,13.8C419,368.5,423.2,379.6,422.9,386.3z M381.8,356.3
		c-8.1-0.6-9.5,0.7-8.9,6.2c0.3,3.2,2.1,6.3,2,9.4c-0.4,14.7,3.5,29.1,3.3,43.8c-0.1,4.3,2.3,5.9,6.3,4.5
		c7.6-2.6,14.7-6.5,19.5-13.1c6.8-9.5,9.6-20.1,4.8-31.4C403.2,362.8,392,358.2,381.8,356.3z"/>
	<path d="M436.8,343.4c-2.1-0.1-4.2,0.1-6.2-0.5c-7.9-2.3-15.9-3-24-2.9c-14.1,0.2-25.7-6.4-36.9-13.6c-3.1-2-6.7-3.5-9-6.7
		c-1.2-1.7-3-3.2-1.4-5.5c1.7-2.3,3.5-1.2,5.5-0.1c5.4,3.1,10.9,5.9,16.2,9c8.1,4.7,16.6,7.7,26.2,7.7c4.3,0,5.9-1,3.5-5.2
		c-4.6-8,5.1-22.9,14-21.3c9.8,1.7,15.9,12.5,11,21.3c-0.8,1.5-1.9,2.9-2.6,4.4c-0.8,1.6-3,3.1-1.6,5c1.6,2.2,4.3,1.3,6.3,0.7
		c6.6-2.1,13.4-4.2,19.1-8.1c7.5-5.1,16.1-8.6,22.1-15.7c0.7-0.8,1.7-1.6,2.7-2.1c1.6-0.8,3.4-1,4.6,0.6c1.1,1.5,0.2,2.9-0.8,4.1
		c-6.1,7-13.2,13.1-21.1,18c-5,3.2-10.6,5.8-16.2,8.1C444.5,342.4,440.7,343,436.8,343.4z M428.2,317.3c-0.2-2.6-1.2-6-4.9-5.6
		c-4.1,0.4-6.8,4.1-6.8,7.8c0,3.1,0.2,7.6,4.4,8.7C423.8,329,428.2,322.3,428.2,317.3z"/>
	<path d="M443,440.4c-0.9,3.5-2.8,8-5.9,11.4c-7.1,7.6-4.4,17.1-5.5,25.9c-0.2,1.9,1.7,2.8,2.8,4c4.5,4.9,8.4,10.2,11.4,16.1
		c1.2,2.3,1.4,4.3-0.8,6c-2.2,1.6-4.2,1.1-6.2-0.5c-3.5-2.7-6.2-6.1-9-9.4c-2.4-2.8-4.5-3.1-6.6,0.4c-2,3.2-4.3,6.2-6.6,9.2
		c-1.9,2.5-4.3,3.2-6.9,1.2c-2.4-1.9-2-4.2-0.5-6.6c3.4-5.5,6.6-11,10.2-16.4c1.5-2.3,2.1-4.7,2.6-7.4c1.8-9.7,0.7-18.3-7.6-25
		c-1.8-1.5-3.1-3.8-4.3-5.9c-1.4-2.5-1.4-5.3,0.6-7.4c2.2-2.3,5.6-1.9,7.2,0.1c6.3,7.9,11.6,8.2,17.3-0.6c1.1-1.7,3.9-1.3,5.9-0.6
		C442.8,435.7,443.1,437.4,443,440.4z"/>
</g>
</svg>
