<?xml version="1.0" encoding="utf-8"?>
<!-- Generator: Adobe Illustrator 23.0.2, SVG Export Plug-In . SVG Version: 6.00 Build 0)  -->
<svg version="1.1" id="图层_1" xmlns="http://www.w3.org/2000/svg" xmlns:xlink="http://www.w3.org/1999/xlink" x="0px" y="0px"
	 viewBox="0 0 515.91 728.5" style="enable-background:new 0 0 515.91 728.5;" xml:space="preserve">
<style type="text/css">
	.st0{fill:url(#SVGID_1_);}
	.st1{fill:url(#SVGID_2_);}
	.st2{fill:url(#SVGID_3_);}
	.st3{fill:url(#SVGID_4_);}
	.st4{fill:url(#SVGID_5_);}
	.st5{fill:url(#SVGID_6_);}
	.st6{fill:url(#SVGID_7_);}
	.st7{fill:url(#SVGID_8_);}
	.st8{fill:url(#SVGID_9_);}
	.st9{fill:url(#SVGID_10_);}
	.st10{fill:url(#SVGID_11_);}
	.st11{fill:url(#SVGID_12_);}
	.st12{fill:url(#SVGID_13_);}
	.st13{fill:url(#SVGID_14_);}
	.st14{fill:url(#SVGID_15_);}
	.st15{fill:url(#SVGID_16_);}
	.st16{fill:url(#SVGID_17_);}
	.st17{fill:url(#SVGID_18_);}
	.st18{fill:url(#SVGID_19_);}
	.st19{fill:url(#SVGID_20_);}
	.st20{fill:url(#SVGID_21_);}
	.st21{fill:url(#SVGID_22_);}
	.st22{fill:url(#SVGID_23_);}
	.st23{fill:url(#SVGID_24_);}
	.st24{fill:url(#SVGID_25_);}
	.st25{fill:url(#SVGID_26_);}
</style>
<g id="ARC_86_">
	<g id="XMLID_5_">
		<g>
			<linearGradient id="SVGID_1_" gradientUnits="userSpaceOnUse" x1="346.2953" y1="353.8672" x2="422.8353" y2="353.8672">
				<stop  offset="0" style="stop-color:#3D88C1"/>
				<stop  offset="0.9637" style="stop-color:#F2E6C4"/>
			</linearGradient>
			<path class="st0" d="M346.3,330c22.89,17.74,53.91,17.76,76.54,2.16c-9.77,31.31-41.38,50.42-73.66,44.49
				C352.98,361.23,352,344.95,346.3,330z"/>
			<linearGradient id="SVGID_2_" gradientUnits="userSpaceOnUse" x1="153.9847" y1="197.8683" x2="317.0553" y2="197.8683">
				<stop  offset="0" style="stop-color:#3D88C1"/>
				<stop  offset="0.9637" style="stop-color:#F2E6C4"/>
			</linearGradient>
			<path class="st1" d="M304.17,180.93c-24.06,10.66-39.3,34.8-38.57,61.1l-0.01,0.01c-0.13-0.2-0.26-0.39-0.4-0.59
				c-15.48-22.03-45.89-27.33-67.91-11.85c-6.96,4.89-12.52,11.51-16.12,19.22c-8.7-1.36-17.55-1.44-26.28-0.26
				c-0.22-1.17-0.41-2.34-0.54-3.53c-0.2-1.56-0.31-3.14-0.34-4.72c-0.55-26.42,20.44-48.29,46.86-48.83
				c4.67-14.15,14.06-26.26,26.6-34.3c30.15-19.34,70.26-10.57,89.6,19.58C312.71,177.68,308.39,179.06,304.17,180.93z"/>
			<linearGradient id="SVGID_3_" gradientUnits="userSpaceOnUse" x1="128.0803" y1="318.712" x2="450.9015" y2="318.712">
				<stop  offset="0" style="stop-color:#3D88C1"/>
				<stop  offset="0.9637" style="stop-color:#F2E6C4"/>
			</linearGradient>
			<path class="st2" d="M247.61,432.15h-0.01c-15.99,25.03-47.7,36.55-76.78,25.99c-33.67-12.23-51.05-49.44-38.82-83.12
				c-0.77-2.13-1.43-4.28-1.97-6.44c-5.74-22.98,1.5-47.51,19.29-63.69c-3.73-15.22,0.05-31.3,10.17-43.26
				c-2.17-4.12-3.71-8.53-4.61-13.07c8.73-1.18,17.58-1.1,26.28,0.26c3.6-7.71,9.16-14.33,16.12-19.22
				c22.02-15.48,52.43-10.18,67.91,11.85c0.14,0.2,0.27,0.39,0.4,0.59l0.01-0.01c-0.73-26.3,14.51-50.44,38.57-61.1
				c4.22-1.87,8.54-3.25,12.89-4.17c29.35-6.22,60.04,8.68,72.68,37.21c13.1,0.75,25.67,5.45,36.04,13.49
				c28.31,21.95,33.47,62.69,11.53,91.01c-4.21,5.42-9.1,10-14.47,13.69c-22.63,15.6-53.65,15.58-76.54-2.16
				c5.7,14.95,6.68,31.23,2.88,46.65c-0.55,2.25-1.2,4.49-1.96,6.7C333.18,424.33,288.59,446.18,247.61,432.15z"/>
			<linearGradient id="SVGID_4_" gradientUnits="userSpaceOnUse" x1="92.6455" y1="306.8094" x2="159.4853" y2="306.8094">
				<stop  offset="0" style="stop-color:#3D88C1"/>
				<stop  offset="0.9637" style="stop-color:#F2E6C4"/>
			</linearGradient>
			<path class="st3" d="M130.03,368.58c-21.76-10.18-36.12-31.57-37.3-55.57c-1.76-35.78,25.82-66.21,61.6-67.98h0.01
				c0.13,1.19,0.32,2.36,0.54,3.53c0.9,4.54,2.44,8.95,4.61,13.07c-10.12,11.96-13.9,28.04-10.17,43.26
				C131.53,321.07,124.29,345.6,130.03,368.58z"/>
		</g>
		<g>
		</g>
	</g>
</g>
<g id="ARC_98_">
	<g id="XMLID_6_">
		<g>
			<linearGradient id="SVGID_5_" gradientUnits="userSpaceOnUse" x1="346.2535" y1="356.1903" x2="422.7935" y2="356.1903">
				<stop  offset="0" style="stop-color:#3D88C1"/>
				<stop  offset="0.9637" style="stop-color:#F2E6C4"/>
			</linearGradient>
			<path class="st4" d="M346.25,332.33c22.89,17.74,53.91,17.76,76.54,2.16c-9.77,31.31-41.38,50.42-73.66,44.49
				C352.93,363.56,351.95,347.28,346.25,332.33z"/>
			<linearGradient id="SVGID_6_" gradientUnits="userSpaceOnUse" x1="153.9429" y1="200.1915" x2="317.0135" y2="200.1915">
				<stop  offset="0" style="stop-color:#3D88C1"/>
				<stop  offset="0.9637" style="stop-color:#F2E6C4"/>
			</linearGradient>
			<path class="st5" d="M265.14,243.78c-15.48-22.03-45.89-27.33-67.91-11.85c-6.96,4.89-12.52,11.51-16.12,19.22
				c-8.7-1.36-17.55-1.44-26.28-0.26c-0.22-1.17-0.41-2.34-0.54-3.53c-0.2-1.56-0.31-3.14-0.34-4.72
				c-0.55-26.42,20.44-48.29,46.86-48.83c4.67-14.15,14.06-26.26,26.6-34.3c30.15-19.34,70.26-10.57,89.6,19.58
				c-4.35,0.92-8.67,2.3-12.89,4.17c-24.06,10.66-39.3,34.8-38.57,61.1l-0.01,0.01C265.41,244.17,265.28,243.98,265.14,243.78z"/>
			<linearGradient id="SVGID_7_" gradientUnits="userSpaceOnUse" x1="128.0386" y1="321.0351" x2="450.8597" y2="321.0351">
				<stop  offset="0" style="stop-color:#3D88C1"/>
				<stop  offset="0.9637" style="stop-color:#F2E6C4"/>
			</linearGradient>
			<path class="st6" d="M347.17,385.68c-14.04,40.98-58.63,62.83-99.61,48.8h-0.01c-15.99,25.03-47.7,36.55-76.78,25.99
				c-33.67-12.23-51.05-49.44-38.82-83.12c-0.77-2.13-1.43-4.28-1.97-6.44c-5.74-22.98,1.5-47.51,19.29-63.69
				c-3.73-15.22,0.05-31.3,10.17-43.26c-2.17-4.12-3.71-8.53-4.61-13.07c8.73-1.18,17.58-1.1,26.28,0.26
				c3.6-7.71,9.16-14.33,16.12-19.22c22.02-15.48,52.43-10.18,67.91,11.85c0.14,0.2,0.27,0.39,0.4,0.59l0.01-0.01
				c-0.73-26.3,14.51-50.44,38.57-61.1c4.22-1.87,8.54-3.25,12.89-4.17c29.35-6.22,60.04,8.68,72.68,37.21
				c13.1,0.75,25.67,5.45,36.04,13.49c28.31,21.95,33.47,62.69,11.53,91.01c-4.21,5.42-9.1,10-14.47,13.69
				c-22.63,15.6-53.65,15.58-76.54-2.16c5.7,14.95,6.68,31.23,2.88,46.65C348.58,381.23,347.93,383.47,347.17,385.68z"/>
			<linearGradient id="SVGID_8_" gradientUnits="userSpaceOnUse" x1="92.6037" y1="309.1325" x2="159.4435" y2="309.1325">
				<stop  offset="0" style="stop-color:#3D88C1"/>
				<stop  offset="0.9637" style="stop-color:#F2E6C4"/>
			</linearGradient>
			<path class="st7" d="M149.27,307.22c-17.79,16.18-25.03,40.71-19.29,63.69c-21.76-10.18-36.12-31.57-37.3-55.57
				c-1.76-35.78,25.82-66.21,61.6-67.98h0.01c0.13,1.19,0.32,2.36,0.54,3.53c0.9,4.54,2.44,8.95,4.61,13.07
				C149.32,275.92,145.54,292,149.27,307.22z"/>
		</g>
		<g>
		</g>
	</g>
</g>
<g id="ARC_85_">
	<g>
		<linearGradient id="SVGID_9_" gradientUnits="userSpaceOnUse" x1="198.0101" y1="166.8774" x2="319.593" y2="166.8774">
			<stop  offset="0" style="stop-color:#0C1E3C"/>
			<stop  offset="0.1564" style="stop-color:#0D223F"/>
			<stop  offset="0.9637" style="stop-color:#3D88C1"/>
		</linearGradient>
		<path class="st8" d="M316.82,175.68c-3.5-4.95-7.58-9.46-12.24-13.26c-1.13-0.98-2.37-1.84-3.56-2.74
			c-1.25-0.83-2.46-1.7-3.76-2.45c-2.54-1.57-5.21-2.92-7.95-4.09c-5.45-2.38-11.23-3.95-17.09-4.71
			c-5.85-0.79-11.79-0.73-17.59,0.12c-2.9,0.45-5.76,1.11-8.55,1.96c-2.78,0.91-5.51,1.93-8.13,3.2c-2.62,1.26-5.19,2.6-7.65,4.15
			c-2.47,1.51-4.88,3.13-7.16,4.94c-4.59,3.56-8.79,7.68-12.45,12.31c-3.7,4.62-6.79,9.75-9.54,15.22l-0.57-0.19
			c1.13-6.07,3.39-12.01,6.63-17.41c1.58-2.73,3.44-5.3,5.45-7.75c2.03-2.43,4.27-4.7,6.67-6.81c4.81-4.19,10.35-7.54,16.26-9.91
			c2.96-1.19,6.01-2.09,9.09-2.87c3.09-0.71,6.21-1.26,9.35-1.59c6.29-0.64,12.64-0.41,18.81,0.7c6.17,1.14,12.17,3.13,17.74,5.93
			c11.13,5.61,20.55,14.37,26.75,24.93L316.82,175.68z"/>
	</g>
</g>
<g id="ARC_84_">
	<g>
		<linearGradient id="SVGID_10_" gradientUnits="userSpaceOnUse" x1="344.4569" y1="277.9489" x2="453.9012" y2="277.9489">
			<stop  offset="0" style="stop-color:#0C1E3C"/>
			<stop  offset="0.1564" style="stop-color:#0D223F"/>
			<stop  offset="0.9637" style="stop-color:#3D88C1"/>
		</linearGradient>
		<path class="st9" d="M346.48,328.51c4.06,2.99,8.45,5.5,13.05,7.47c2.29,1.01,4.66,1.83,7.05,2.58c2.41,0.67,4.83,1.29,7.29,1.69
			c9.83,1.73,20.01,1.05,29.47-1.82c4.73-1.43,9.29-3.4,13.56-5.85c4.25-2.48,8.21-5.46,11.76-8.84
			c7.14-6.74,12.57-15.21,15.89-24.36c1.61-4.6,2.68-9.37,3.21-14.19c0.53-4.82,0.4-9.7-0.22-14.49c-0.59-4.79-1.76-9.5-3.39-14.03
			c-1.62-4.53-3.7-8.91-6.29-12.98c-5.08-8.2-12.12-15.23-20.37-20.51c-8.26-5.27-17.77-8.74-27.77-10.17l0.03-0.6
			c10.21-0.29,20.61,2.23,29.85,7.12c4.66,2.39,8.93,5.5,12.9,8.96c3.92,3.52,7.39,7.56,10.38,11.92c1.49,2.19,2.8,4.5,4.03,6.84
			c1.17,2.38,2.24,4.81,3.12,7.31c1.78,5,2.94,10.21,3.41,15.48c0.97,10.54-0.59,21.24-4.4,31.02c-3.87,9.76-9.95,18.6-17.74,25.54
			c-3.88,3.47-8.16,6.5-12.73,8.98c-4.58,2.45-9.43,4.38-14.43,5.73c-10.01,2.62-20.6,2.91-30.64,0.74
			c-10.07-2.07-19.5-6.71-27.41-13.08L346.48,328.51z"/>
	</g>
</g>
<g id="ARC_83_">
	<g>
		<linearGradient id="SVGID_11_" gradientUnits="userSpaceOnUse" x1="125.0976" y1="338.6462" x2="151.3357" y2="338.6462">
			<stop  offset="0" style="stop-color:#0C1E3C"/>
			<stop  offset="0.1564" style="stop-color:#0D223F"/>
			<stop  offset="0.9637" style="stop-color:#3D88C1"/>
		</linearGradient>
		<path class="st10" d="M149.52,303.86c-4.37,4.63-8.14,9.76-10.98,15.33c-0.7,1.4-1.35,2.82-2.02,4.21l-1.7,4.33l-1.41,4.42
			l-1.08,4.49c-0.24,1.52-0.48,3.04-0.68,4.56l-0.29,4.58c0,1.53-0.05,3.05-0.11,4.56c0,0.76,0.02,1.52,0,2.28
			c-0.02,0.76-0.06,1.52-0.05,2.28c0.05,1.52,0.05,3.05,0.06,4.59c0.1,1.53,0.17,3.07,0.22,4.64c0.17,1.54,0.26,3.11,0.38,4.7
			c0.18,1.57,0.37,3.16,0.43,4.83l-0.56,0.2c-0.92-1.37-1.7-2.82-2.5-4.29c-0.67-1.5-1.29-3.04-1.88-4.6
			c-0.52-1.57-0.92-3.19-1.34-4.81c-0.32-1.63-0.55-3.29-0.8-4.94c-0.13-1.66-0.19-3.34-0.2-5.01c0.08-1.67,0.26-3.34,0.44-4.99
			l0.96-4.91l1.26-4.82l1.56-4.71l1.9-4.57c0.76-1.47,1.49-2.94,2.26-4.38c0.86-1.4,1.7-2.81,2.57-4.19
			c3.69-5.4,8.09-10.27,13.16-14.24L149.52,303.86z"/>
	</g>
</g>
<g id="ARC_82_">
	<g>
		<linearGradient id="SVGID_12_" gradientUnits="userSpaceOnUse" x1="125.0825" y1="417.9195" x2="260.8304" y2="417.9195">
			<stop  offset="0" style="stop-color:#0C1E3C"/>
			<stop  offset="0.1564" style="stop-color:#0D223F"/>
			<stop  offset="0.9637" style="stop-color:#3D88C1"/>
		</linearGradient>
		<path class="st11" d="M132.28,373.87c-3.3,9.84-4.27,20.4-2.69,30.55c1.55,10.16,5.6,19.87,11.64,28.07
			c5.98,8.23,13.96,14.97,23.04,19.41c9.06,4.5,19.19,6.71,29.21,6.49c5.01-0.15,10-0.87,14.82-2.19c4.81-1.36,9.46-3.25,13.8-5.69
			c8.72-4.81,16.21-11.65,21.97-19.73c5.74-8.11,9.6-17.61,11.2-27.57c1.61-9.97,0.86-20.37-2.01-30.37l0.56-0.21
			c4.52,9.48,6.51,20.34,5.64,31.07c-0.22,2.68-0.56,5.37-1.14,8c-0.53,2.65-1.28,5.26-2.14,7.83c-1.78,5.12-4.2,10.03-7.15,14.62
			c-3.02,4.54-6.61,8.71-10.67,12.36c-4.08,3.63-8.65,6.68-13.47,9.23c-9.72,4.93-20.56,7.51-31.38,7.43
			c-10.81-0.08-21.55-2.77-31.03-7.82c-9.51-4.99-17.71-12.35-23.72-21.15c-6-8.82-9.81-19.05-11.02-29.55
			c-0.59-5.25-0.62-10.56,0.08-15.78c0.69-5.22,2-10.34,3.88-15.22L132.28,373.87z"/>
	</g>
</g>
<g id="ARC_81_">
	<g>
		<linearGradient id="SVGID_13_" gradientUnits="userSpaceOnUse" x1="144.9093" y1="281.9457" x2="161.7804" y2="281.9457">
			<stop  offset="0" style="stop-color:#0C1E3C"/>
			<stop  offset="0.1564" style="stop-color:#0D223F"/>
			<stop  offset="0.9637" style="stop-color:#3D88C1"/>
		</linearGradient>
		<path class="st12" d="M159.72,260.57c-2.1,3.23-3.92,6.57-5.24,10.08l-0.96,2.63l-0.79,2.67l-0.67,2.68l-0.51,2.71
			c-0.11,0.91-0.22,1.82-0.29,2.73l-0.08,2.73c0.01,0.91-0.01,1.81-0.07,2.71c-0.01,0.9-0.09,1.8-0.19,2.7
			c-0.06,0.9-0.15,1.81-0.26,2.73c-0.06,0.91-0.15,1.84-0.27,2.78c-0.06,0.93-0.2,1.89-0.32,2.86c-0.11,0.97-0.21,1.95-0.45,3
			l-0.58,0.14c-2.54-3.37-3.71-7.41-4.11-11.48c-0.07-1.02-0.08-2.04-0.05-3.07c0.09-1.02,0.24-2.03,0.41-3.04l0.74-2.97
			c0.3-0.97,0.58-1.95,0.86-2.92l0.97-2.86l1.14-2.79l1.34-2.69l1.49-2.59c2.14-3.35,4.59-6.47,7.46-9.12L159.72,260.57z"/>
	</g>
</g>
<g id="ARC_80_">
	<g>
		<linearGradient id="SVGID_14_" gradientUnits="userSpaceOnUse" x1="150.9801" y1="225.2196" x2="200.921" y2="225.2196">
			<stop  offset="0" style="stop-color:#0C1E3C"/>
			<stop  offset="0.1564" style="stop-color:#0D223F"/>
			<stop  offset="0.9637" style="stop-color:#3D88C1"/>
		</linearGradient>
		<path class="st13" d="M200.87,190.53c-8.04,0.73-15.83,3.22-22.42,7.55c-1.6,1.14-3.27,2.18-4.71,3.52
			c-0.73,0.65-1.52,1.23-2.2,1.93l-2.04,2.1c-0.71,0.66-1.29,1.45-1.91,2.2c-0.6,0.76-1.26,1.48-1.8,2.28
			c-1.04,1.63-2.23,3.17-3.06,4.92c-0.44,0.86-0.93,1.69-1.32,2.57l-1.06,2.68c-0.17,0.45-0.38,0.88-0.5,1.34l-0.39,1.38
			c-0.25,0.92-0.53,1.83-0.77,2.75l-0.54,2.8l-0.3,1.39c-0.06,0.47-0.1,0.94-0.17,1.41c-0.13,0.94-0.25,1.88-0.4,2.82
			c-0.11,0.94-0.13,1.89-0.2,2.84c-0.2,1.9-0.23,3.81-0.18,5.73c0.02,1.93,0.22,3.85,0.43,5.79c0.48,3.87,1.34,7.75,2.45,11.71
			l-0.53,0.28c-2.66-3.22-4.66-7.01-6.03-11.03c-1.36-4.03-2.18-8.32-2.14-12.63c0.01-1.08-0.03-2.16,0.03-3.24
			c0.11-1.07,0.26-2.14,0.39-3.22c0.06-0.54,0.15-1.07,0.23-1.6l0.39-1.57l0.85-3.12c1.51-4.04,3.25-7.98,5.63-11.54
			c1.05-1.86,2.46-3.48,3.72-5.17c0.66-0.83,1.43-1.57,2.13-2.36c0.73-0.77,1.42-1.57,2.24-2.25l2.38-2.09
			c0.8-0.69,1.7-1.25,2.54-1.88c1.66-1.3,3.53-2.27,5.33-3.34c0.9-0.53,1.9-0.89,2.83-1.34c0.96-0.41,1.88-0.91,2.88-1.2l2.96-1
			l0.74-0.25l0.76-0.18l1.52-0.35c4.01-1.05,8.17-1.24,12.24-1.24L200.87,190.53z"/>
	</g>
</g>
<g id="ARC_79_">
	<g>
		<linearGradient id="SVGID_15_" gradientUnits="userSpaceOnUse" x1="89.6449" y1="305.5393" x2="154.4689" y2="305.5393">
			<stop  offset="0" style="stop-color:#0C1E3C"/>
			<stop  offset="0.1564" style="stop-color:#0D223F"/>
			<stop  offset="0.9637" style="stop-color:#3D88C1"/>
		</linearGradient>
		<path class="st14" d="M154.34,244.08c-14.24,1.18-27.95,7-38.25,16.56c-10.45,9.37-17.52,22.24-19.86,35.86
			c-1.16,6.81-1.18,13.8,0.01,20.55l0.45,2.53c0.14,0.84,0.4,1.66,0.58,2.5c0.21,0.83,0.36,1.67,0.62,2.49l0.75,2.45
			c0.12,0.41,0.23,0.82,0.37,1.23l0.44,1.2c0.29,0.8,0.6,1.6,0.87,2.41c0.31,0.8,0.67,1.57,1,2.36c0.35,0.78,0.64,1.59,1.06,2.34
			c0.77,1.53,1.47,3.1,2.38,4.56c0.43,0.74,0.85,1.49,1.3,2.23l1.43,2.15l0.7,1.09c0.24,0.35,0.51,0.69,0.77,1.04l1.56,2.07
			c0.52,0.69,1.12,1.32,1.67,1.99c0.57,0.65,1.09,1.36,1.7,1.97c4.72,5.11,10.21,9.58,16.29,13.42l-0.25,0.54
			c-6.88-2.31-13.35-6.1-18.98-10.93c-5.65-4.83-10.3-10.83-13.92-17.4c-3.6-6.6-5.79-13.95-6.66-21.4l-0.17-1.4l-0.08-1.4
			l-0.16-2.8c-0.02-1.87-0.04-3.74,0.09-5.6c0.2-3.73,0.65-7.44,1.48-11.07c3.14-14.56,11.27-27.87,22.61-37.21
			c11.31-9.38,25.76-14.67,40.19-14.89L154.34,244.08z"/>
	</g>
</g>
<g id="ARC_78_">
	<g>
		<linearGradient id="SVGID_16_" gradientUnits="userSpaceOnUse" x1="348.6356" y1="354.132" x2="425.6962" y2="354.132">
			<stop  offset="0" style="stop-color:#0C1E3C"/>
			<stop  offset="0.1564" style="stop-color:#0D223F"/>
			<stop  offset="0.9637" style="stop-color:#3D88C1"/>
		</linearGradient>
		<path class="st15" d="M349.23,375.1c7.76,0.93,15.6,0.6,23.07-1.17c1.86-0.46,3.69-1.03,5.53-1.53c1.8-0.63,3.57-1.35,5.35-2.01
			c1.73-0.79,3.43-1.63,5.14-2.44l4.89-2.88c1.53-1.12,3.06-2.21,4.55-3.36c1.4-1.27,2.81-2.5,4.18-3.78
			c1.28-1.37,2.61-2.68,3.91-4.01c0.62-0.7,1.22-1.41,1.85-2.09c0.62-0.69,1.3-1.35,1.89-2.07l3.55-4.37
			c1.07-1.54,2.2-3.06,3.32-4.62c0.97-1.63,2.05-3.22,3.1-4.87c0.94-1.69,1.89-3.39,2.99-5.09l0.57,0.18
			c-0.24,1.99-0.63,3.96-1.03,5.96c-0.56,1.93-1.21,3.86-1.89,5.78c-0.77,1.88-1.71,3.69-2.61,5.54c-1.01,1.77-2.16,3.47-3.28,5.2
			c-1.23,1.64-2.58,3.2-3.92,4.75c-1.44,1.46-3,2.81-4.52,4.17c-1.64,1.24-3.32,2.41-4.97,3.61l-5.22,3.18l-5.44,2.73
			c-1.89,0.74-3.76,1.51-5.65,2.22c-1.95,0.55-3.88,1.15-5.82,1.65c-1.98,0.37-3.95,0.8-5.93,1.11c-7.96,1.05-16.05,0.7-23.72-1.19
			L349.23,375.1z"/>
	</g>
</g>
<g id="ARC_77_">
	<g>
		<linearGradient id="SVGID_17_" gradientUnits="userSpaceOnUse" x1="262.5661" y1="206.3912" x2="392.4817" y2="206.3912">
			<stop  offset="0" style="stop-color:#0C1E3C"/>
			<stop  offset="0.1564" style="stop-color:#0D223F"/>
			<stop  offset="0.9637" style="stop-color:#3D88C1"/>
		</linearGradient>
		<path class="st16" d="M389.46,212.84c-3.25-6.65-7.52-12.78-12.72-17.95c-5.21-5.16-11.27-9.41-17.85-12.51
			c-6.57-3.11-13.64-5.09-20.82-5.84c-7.18-0.75-14.45-0.19-21.4,1.52c-6.96,1.73-13.54,4.75-19.44,8.7
			c-5.87,3.99-11.12,8.82-15.62,14.3c-4.55,5.45-8.16,11.71-10.78,18.42c-2.63,6.71-4.25,13.88-4.94,21.3l-0.6,0.02
			c-1.04-7.45-0.46-15.21,1.53-22.63c0.92-3.74,2.41-7.32,4-10.85c0.43-0.87,0.91-1.71,1.37-2.56c0.48-0.84,0.89-1.73,1.44-2.53
			c1.07-1.61,2.03-3.32,3.25-4.84c4.64-6.24,10.51-11.61,17.17-15.64c6.71-3.93,14-6.83,21.56-8.36c7.56-1.54,15.36-1.81,22.94-0.71
			c7.58,1.1,14.95,3.49,21.69,7.03c6.71,3.6,12.76,8.33,17.84,13.92c5.09,5.58,9.08,12.08,11.93,18.98L389.46,212.84z"/>
	</g>
</g>
<g id="ARC_76_">
	<g>
		<linearGradient id="SVGID_18_" gradientUnits="userSpaceOnUse" x1="246.6224" y1="382.4024" x2="354.4413" y2="382.4024">
			<stop  offset="0" style="stop-color:#0C1E3C"/>
			<stop  offset="0.1564" style="stop-color:#0D223F"/>
			<stop  offset="0.9637" style="stop-color:#3D88C1"/>
		</linearGradient>
		<path class="st17" d="M247.69,430.61c7.07,2.12,14.37,3.37,21.69,3.5c0.91,0.04,1.83,0.05,2.74,0.01
			c0.91-0.03,1.83-0.03,2.74-0.07c1.82-0.14,3.64-0.23,5.45-0.49c1.81-0.18,3.6-0.54,5.4-0.83c1.77-0.4,3.56-0.74,5.31-1.25
			c14.05-3.69,26.92-11.42,36.68-21.95c2.45-2.62,4.64-5.47,6.7-8.39c2.01-2.96,3.78-6.06,5.38-9.25
			c3.11-6.41,5.53-13.13,7.14-20.06c1.6-6.94,2.34-14.11,2.16-21.32c-0.14-7.22-1.27-14.45-3.05-21.65l0.56-0.21
			c3.41,6.65,5.7,13.98,6.69,21.53c0.54,3.77,0.74,7.6,0.66,11.42c-0.1,3.83-0.51,7.65-1.15,11.44c-1.38,7.57-4.05,14.9-7.76,21.62
			c-1.91,3.34-4.01,6.55-6.32,9.6c-2.35,3.02-4.82,5.94-7.56,8.61c-10.82,10.77-24.68,18.29-39.42,21.53
			c-14.75,3.19-30.31,2.06-44.22-3.21L247.69,430.61z"/>
	</g>
</g>
<g id="ARC_75_">
	<g>
		<linearGradient id="SVGID_19_" gradientUnits="userSpaceOnUse" x1="178.4364" y1="262.3773" x2="277.0584" y2="262.3773">
			<stop  offset="0" style="stop-color:#0C1E3C"/>
			<stop  offset="0.1564" style="stop-color:#0D223F"/>
			<stop  offset="0.9637" style="stop-color:#3D88C1"/>
		</linearGradient>
		<path class="st18" d="M253.17,307.86c11.8-8.91,19.27-23.13,19.3-37.63c0.14-7.2-1.31-14.41-4.34-20.88
			c-3.06-6.45-7.57-12.18-13.07-16.61c-2.71-2.27-5.79-4.04-8.92-5.63c-0.78-0.4-1.62-0.67-2.43-1.02c-0.82-0.31-1.61-0.7-2.45-0.94
			l-2.52-0.74l-1.26-0.37l-1.29-0.25c-6.83-1.44-13.9-1.57-20.76-0.25c-6.86,1.32-13.38,4.27-19.28,8.27
			c-5.82,4.13-10.81,9.54-14.72,15.86l-0.54-0.25c2.39-7.15,6.83-13.73,12.63-18.9c0.73-0.64,1.47-1.28,2.23-1.88
			c0.77-0.59,1.59-1.12,2.39-1.68c0.81-0.54,1.59-1.14,2.43-1.64l2.57-1.42c3.45-1.89,7.2-3.16,11-4.22
			c7.68-1.87,15.85-1.69,23.46,0.34c7.63,2.02,14.7,5.88,20.55,11.04c5.88,5.14,10.52,11.59,13.55,18.71
			c3,7.14,4.23,14.95,3.77,22.59c-0.02,1.92-0.45,3.8-0.7,5.69c-0.1,0.95-0.41,1.86-0.62,2.79c-0.24,0.92-0.45,1.85-0.71,2.77
			c-1.21,3.61-2.61,7.16-4.58,10.41c-3.79,6.56-9.1,12.18-15.34,16.32L253.17,307.86z"/>
	</g>
</g>
<g id="ARC_97_">
	<g>
		<linearGradient id="SVGID_20_" gradientUnits="userSpaceOnUse" x1="284.0761" y1="204.9939" x2="356.682" y2="204.9939">
			<stop  offset="0" style="stop-color:#0C1E3C"/>
			<stop  offset="0.1564" style="stop-color:#0D223F"/>
			<stop  offset="0.9637" style="stop-color:#3D88C1"/>
		</linearGradient>
		<path class="st19" d="M353.9,210.6l-1.66-2.03c-0.28-0.33-0.54-0.68-0.83-1l-0.92-0.92c-0.62-0.61-1.19-1.26-1.84-1.83l-1.99-1.65
			c-2.74-2.06-5.66-3.9-8.85-5.08c-3.14-1.25-6.41-2.17-9.74-2.46l-1.24-0.16l-1.25-0.04c-0.83-0.01-1.66-0.08-2.49-0.05l-2.48,0.16
			l-0.62,0.04l-0.61,0.1l-1.22,0.2c-1.64,0.19-3.21,0.74-4.78,1.17l-2.28,0.91c-0.38,0.16-0.76,0.28-1.13,0.47l-1.08,0.57
			c-0.72,0.38-1.46,0.7-2.16,1.12c-0.7,0.42-1.38,0.85-2.08,1.24c-0.72,0.37-1.37,0.85-2.05,1.29c-0.67,0.45-1.34,0.91-1.98,1.4
			c-2.61,1.93-5.04,4.15-7.27,6.65c-2.24,2.5-4.2,5.3-6.13,8.34l-0.57-0.19c0.31-3.64,1.45-7.24,3.22-10.53
			c1.73-3.32,4.12-6.34,6.94-8.9c1.42-1.26,2.94-2.44,4.59-3.39c0.82-0.48,1.67-0.92,2.5-1.38c0.85-0.44,1.76-0.73,2.63-1.1
			l1.33-0.5c0.45-0.16,0.91-0.26,1.37-0.39l2.74-0.73c1.87-0.29,3.7-0.73,5.59-0.81l1.4-0.12l0.7-0.06l0.7,0.01l2.8,0.03
			c0.93,0.04,1.86,0.18,2.78,0.27l1.38,0.16l1.37,0.28c3.65,0.67,7.14,2.01,10.39,3.68c3.28,1.65,6.17,3.94,8.8,6.41
			c2.64,2.48,4.72,5.45,6.53,8.5L353.9,210.6z"/>
	</g>
</g>
<g id="ARC_96_">
	<g>
		<linearGradient id="SVGID_21_" gradientUnits="userSpaceOnUse" x1="369.2278" y1="269.8276" x2="434.5848" y2="269.8276">
			<stop  offset="0" style="stop-color:#0C1E3C"/>
			<stop  offset="0.1564" style="stop-color:#0D223F"/>
			<stop  offset="0.9637" style="stop-color:#3D88C1"/>
		</linearGradient>
		<path class="st20" d="M371.25,298.85c4.75,3.35,10.22,5.57,15.85,6.48c5.63,0.96,11.44,0.42,16.79-1.29
			c2.7-0.78,5.23-2.05,7.66-3.4l1.74-1.16c0.57-0.4,1.18-0.74,1.7-1.21c1.06-0.91,2.19-1.71,3.13-2.74
			c3.97-3.87,7.02-8.63,8.85-13.79c1.77-5.19,2.18-10.77,1.42-16.1c-0.04-0.67-0.24-1.33-0.35-1.99c-0.14-0.66-0.26-1.32-0.41-1.97
			l-0.56-1.93l-0.28-0.97c-0.1-0.32-0.24-0.63-0.35-0.94l-0.71-1.88c-0.21-0.64-0.58-1.21-0.84-1.82c-0.3-0.6-0.55-1.23-0.88-1.81
			l-1.03-1.73c-2.76-4.61-6.57-8.68-11.15-11.8c-4.57-3.13-9.88-5.33-15.62-6.53l0.03-0.6c11.94-1.09,24.67,5.14,31.76,15.65
			c3.57,5.21,5.86,11.38,6.31,17.68c0.46,6.3-0.56,12.64-2.83,18.44c-2.35,5.78-6.04,10.94-10.64,15.03
			c-1.1,1.08-2.41,1.92-3.63,2.84c-0.6,0.48-1.29,0.83-1.94,1.23l-1.98,1.16c-2.75,1.34-5.58,2.54-8.55,3.23
			c-5.9,1.46-12.11,1.61-17.95,0.22c-5.85-1.33-11.33-4.04-15.87-7.82L371.25,298.85z"/>
	</g>
</g>
<g id="ARC_91_">
	<g>
		<linearGradient id="SVGID_22_" gradientUnits="userSpaceOnUse" x1="227.772" y1="168.8675" x2="247.6776" y2="202.2071">
			<stop  offset="0" style="stop-color:#0C1E3C"/>
			<stop  offset="0.1564" style="stop-color:#0D223F"/>
			<stop  offset="0.9637" style="stop-color:#3D88C1"/>
		</linearGradient>
		<path class="st21" d="M278.02,183.93c-5.03-6.51-11.91-11.52-19.68-13.54c-3.84-1.08-7.82-1.53-11.75-1.34
			c-3.93,0.13-7.8,1.03-11.4,2.47l-1.35,0.53l-1.29,0.67c-0.85,0.46-1.74,0.85-2.52,1.43c-0.8,0.55-1.61,1.06-2.39,1.62
			c-0.74,0.62-1.53,1.16-2.21,1.84c-2.84,2.56-5.41,5.37-7.58,8.52c-2.16,3.15-3.99,6.59-5.28,10.31
			c-1.28,3.73-2.11,7.67-2.57,11.85l-0.6,0.06c-2.51-8.19-1.11-17.67,3.37-25.43c2.22-3.9,5.34-7.29,8.94-9.96
			c0.88-0.69,1.86-1.25,2.79-1.87c0.96-0.56,1.96-1.06,2.94-1.59c0.95-0.57,2.02-0.92,3.03-1.37l1.53-0.65l1.58-0.5
			c4.19-1.37,8.6-2.08,12.98-1.95c4.37,0.13,8.69,0.98,12.73,2.48c0.99,0.42,2.02,0.77,2.98,1.26l2.85,1.49l2.69,1.75
			c0.9,0.58,1.69,1.31,2.53,1.96c3.26,2.73,6.02,6,8.19,9.59L278.02,183.93z"/>
	</g>
</g>
<g id="ARC_90_">
	<g>
		<linearGradient id="SVGID_23_" gradientUnits="userSpaceOnUse" x1="218.3078" y1="373.7921" x2="166.5486" y2="341.9899">
			<stop  offset="0" style="stop-color:#0C1E3C"/>
			<stop  offset="0.1564" style="stop-color:#0D223F"/>
			<stop  offset="0.9637" style="stop-color:#3D88C1"/>
		</linearGradient>
		<path class="st22" d="M226.25,359.72c-4.83-3.69-10.18-6.6-15.86-8.36c-1.42-0.43-2.86-0.78-4.28-1.18
			c-1.45-0.29-2.9-0.52-4.34-0.78c-1.46-0.17-2.92-0.28-4.37-0.43l-4.37-0.03c-1.45,0.13-2.9,0.25-4.34,0.42
			c-1.42,0.29-2.84,0.56-4.25,0.87c-1.39,0.4-2.78,0.74-4.16,1.08c-0.69,0.21-1.36,0.43-2.06,0.62c-0.69,0.19-1.4,0.34-2.07,0.57
			c-1.35,0.48-2.74,0.89-4.11,1.36c-1.33,0.55-2.71,1.05-4.09,1.59c-1.32,0.63-2.72,1.19-4.1,1.8c-1.35,0.67-2.71,1.36-4.19,1.96
			l-0.39-0.45c3.55-5.3,8.89-9.3,14.81-11.89c1.5-0.6,3.04-1.11,4.59-1.6c1.57-0.38,3.18-0.64,4.77-0.91
			c1.61-0.13,3.23-0.21,4.83-0.31l4.81,0.07l4.77,0.46c1.57,0.29,3.14,0.56,4.69,0.88c1.53,0.45,3.06,0.86,4.56,1.34
			c1.47,0.58,2.95,1.12,4.4,1.74c5.71,2.64,10.92,6.25,15.17,10.71L226.25,359.72z"/>
	</g>
</g>
<g id="ARC_89_">
	<g>
		<linearGradient id="SVGID_24_" gradientUnits="userSpaceOnUse" x1="321.3609" y1="227.857" x2="398.9428" y2="227.857">
			<stop  offset="0" style="stop-color:#0C1E3C"/>
			<stop  offset="0.1564" style="stop-color:#0D223F"/>
			<stop  offset="0.9637" style="stop-color:#3D88C1"/>
		</linearGradient>
		<path class="st23" d="M395.93,232.08c-1.98-3.79-4.54-7.23-7.56-10.14c-3.03-2.91-6.53-5.27-10.3-6.97
			c-7.56-3.38-16.12-4.07-23.92-2.07l-2.88,0.9c-0.94,0.36-1.84,0.8-2.76,1.19c-0.46,0.19-0.91,0.41-1.34,0.66l-1.31,0.73
			c-0.87,0.49-1.67,1.08-2.51,1.61c-3.23,2.3-6.14,4.98-8.71,7.99c-2.58,3.01-4.75,6.42-6.39,10.15c-1.65,3.73-2.81,7.75-3.58,12.04
			l-0.6,0.02c-0.97-4.32-0.85-8.93,0.16-13.37c0.45-2.25,1.29-4.39,2.17-6.52c0.51-1.03,1.01-2.08,1.59-3.08
			c0.62-0.97,1.18-2,1.89-2.92c2.72-3.77,6.24-6.99,10.26-9.33c1.04-0.53,2.04-1.11,3.09-1.59c1.07-0.44,2.1-0.98,3.21-1.31
			c1.1-0.36,2.18-0.75,3.28-1.08l3.35-0.79c4.5-0.86,9.12-0.94,13.6-0.26c4.47,0.71,8.8,2.19,12.73,4.32
			c7.82,4.38,13.94,11.43,17.06,19.55L395.93,232.08z"/>
	</g>
</g>
<g id="ARC_88_">
	<g>
		<linearGradient id="SVGID_25_" gradientUnits="userSpaceOnUse" x1="313.8099" y1="356.801" x2="236.4247" y2="322.0739">
			<stop  offset="0" style="stop-color:#0C1E3C"/>
			<stop  offset="0.1564" style="stop-color:#0D223F"/>
			<stop  offset="0.9637" style="stop-color:#3D88C1"/>
		</linearGradient>
		<path class="st24" d="M328.13,322.28c-4.37-3.71-9.18-6.88-14.34-9.27c-2.57-1.2-5.22-2.23-7.93-3.02
			c-1.34-0.44-2.72-0.74-4.09-1.09c-1.38-0.27-2.76-0.59-4.15-0.77c-2.77-0.46-5.58-0.67-8.38-0.71c-2.8-0.07-5.6,0.13-8.36,0.47
			c-5.54,0.66-10.95,2.14-16.05,4.31c-2.55,1.07-4.99,2.4-7.34,3.84c-2.33,1.47-4.55,3.11-6.65,4.87
			c-4.18,3.56-7.98,7.51-11.33,11.85c-3.32,4.36-6.2,9.11-8.43,14.22c-2.28,5.1-3.89,10.53-5.11,16.2l-0.6-0.03
			c-0.49-5.83,0.11-11.83,1.73-17.58c1.58-5.77,4.16-11.3,7.54-16.32c3.4-5.01,7.68-9.42,12.54-13.02c2.46-1.76,5.01-3.38,7.67-4.8
			c2.68-1.38,5.39-2.67,8.21-3.69c5.61-2.09,11.5-3.39,17.44-3.82c2.97-0.2,5.95-0.23,8.9,0.01c2.96,0.21,5.9,0.61,8.78,1.25
			c11.54,2.54,22.23,8.38,30.37,16.65L328.13,322.28z"/>
	</g>
</g>
<g id="ARC_87_">
	<g>
		<linearGradient id="SVGID_26_" gradientUnits="userSpaceOnUse" x1="197.3394" y1="263.6248" x2="258.1554" y2="263.6248">
			<stop  offset="0" style="stop-color:#0C1E3C"/>
			<stop  offset="0.1564" style="stop-color:#0D223F"/>
			<stop  offset="0.9637" style="stop-color:#3D88C1"/>
		</linearGradient>
		<path class="st25" d="M242.69,291.09c6.85-5.42,11.06-13.82,10.9-22.24c0-4.18-0.91-8.33-2.73-12.02
			c-1.81-3.69-4.44-6.95-7.61-9.44c-3.17-2.51-6.95-4.18-10.85-4.88c-3.89-0.73-7.86-0.8-11.76-0.13c-3.89,0.7-7.66,2.21-11.16,4.38
			c-3.45,2.24-6.53,5.21-9.16,8.79l-0.54-0.25c1.11-4.41,3.63-8.55,7.06-11.83c3.47-3.22,7.77-5.72,12.5-6.95
			c4.72-1.22,9.79-1.11,14.46,0.22c4.69,1.31,8.97,3.79,12.53,6.97c3.57,3.18,6.37,7.15,8.18,11.5c1.76,4.38,2.43,9.14,2.08,13.76
			c-0.68,9.28-5.99,17.87-13.56,22.6L242.69,291.09z"/>
	</g>
</g>
</svg>
