<?xml version="1.0" encoding="utf-8"?>
<!-- Generator: Adobe Illustrator 23.0.2, SVG Export Plug-In . SVG Version: 6.00 Build 0)  -->
<svg version="1.1" id="图层_1" xmlns="http://www.w3.org/2000/svg" xmlns:xlink="http://www.w3.org/1999/xlink" x="0px" y="0px"
	 viewBox="0 0 515.91 728.5" style="enable-background:new 0 0 515.91 728.5;" xml:space="preserve">
<style type="text/css">
	.st0{fill:url(#SVGID_1_);}
	.st1{fill:none;stroke:#000000;stroke-width:0.5;stroke-linecap:round;stroke-linejoin:round;}
	.st2{fill:url(#SVGID_2_);}
	.st3{fill:url(#SVGID_3_);}
	.st4{fill:url(#SVGID_4_);}
	.st5{fill:url(#SVGID_5_);}
	.st6{fill:url(#SVGID_6_);}
	.st7{fill:url(#SVGID_7_);}
	.st8{fill:url(#SVGID_8_);}
	.st9{fill:url(#SVGID_9_);}
	.st10{fill:url(#SVGID_10_);}
	.st11{fill:url(#SVGID_11_);}
	.st12{fill:url(#SVGID_12_);}
	.st13{fill:url(#SVGID_13_);}
	.st14{fill:url(#SVGID_14_);}
	.st15{fill:url(#SVGID_15_);}
	.st16{fill:url(#SVGID_16_);}
	.st17{fill:url(#SVGID_17_);}
	.st18{fill:url(#SVGID_18_);}
	.st19{fill:url(#SVGID_19_);}
	.st20{fill:url(#SVGID_20_);}
	.st21{fill:url(#SVGID_21_);}
	.st22{fill:url(#SVGID_22_);}
	.st23{fill:url(#SVGID_23_);}
	.st24{fill:url(#SVGID_24_);}
	.st25{fill:url(#SVGID_25_);}
	.st26{fill:url(#SVGID_26_);}
	.st27{fill:url(#SVGID_27_);}
	.st28{fill:url(#SVGID_28_);}
	.st29{fill:url(#SVGID_29_);}
	.st30{fill:url(#SVGID_30_);}
	.st31{fill:url(#SVGID_31_);}
	.st32{fill:url(#SVGID_32_);}
	.st33{fill:url(#SVGID_33_);}
	.st34{fill:url(#SVGID_34_);}
	.st35{fill:url(#SVGID_35_);}
	.st36{fill:url(#SVGID_36_);}
	.st37{fill:url(#SVGID_37_);}
	.st38{fill:url(#SVGID_38_);}
	.st39{fill:url(#SVGID_39_);}
</style>
<g>
	<g>
		<g id="ARC_46_">
			<g id="XMLID_2_">
				<g>
					<linearGradient id="SVGID_1_" gradientUnits="userSpaceOnUse" x1="156.4253" y1="273.791" x2="474.4074" y2="273.791">
						<stop  offset="0" style="stop-color:#4B8DC2"/>
						<stop  offset="0.2402" style="stop-color:#3D88C1"/>
						<stop  offset="1" style="stop-color:#F2E6C4"/>
					</linearGradient>
					<path class="st0" d="M470.28,253.72c13.83,40.97-8.19,85.4-49.17,99.23c-1.13,9.69-5.64,18.67-12.75,25.36
						c-16.66,15.7-42.89,14.92-58.59-1.75c-10.97,15.07-31.89,18.78-47.37,8.39c-11.1,12.54-27.49,19.05-44.17,17.55
						c-29-2.6-50.39-28.22-47.79-57.22c-9.68,0.58-19.32-1.62-27.8-6.34c-24.61-13.69-33.46-44.73-19.77-69.34
						c13.68-24.61,44.73-33.47,69.34-19.78c8.22-16.77,27.6-24.84,45.29-18.87c-6.39-39.78,20.11-77.41,59.72-84.8
						c40.34-7.53,79.14,19.06,86.67,59.4C445.77,213.86,462.79,231.53,470.28,253.72z"/>
				</g>
				<g>
					<path class="st1" d="M423.89,205.55c-7.53-40.34-46.33-66.93-86.67-59.4c-39.61,7.39-66.11,45.02-59.72,84.8"/>
					<path class="st1" d="M232.21,249.82c-24.61-13.69-55.66-4.83-69.34,19.78c-13.69,24.61-4.84,55.65,19.77,69.34
						c8.48,4.72,18.12,6.92,27.8,6.34"/>
					<path class="st1" d="M277.5,230.95c-17.69-5.97-37.07,2.1-45.29,18.87"/>
					<path class="st1" d="M210.44,345.28c-2.6,29,18.79,54.62,47.79,57.22c16.68,1.5,33.07-5.01,44.17-17.55"/>
					<path class="st1" d="M349.77,376.56c15.7,16.67,41.93,17.45,58.59,1.75c7.11-6.69,11.62-15.67,12.75-25.36"/>
					<path class="st1" d="M302.4,384.95c15.48,10.39,36.4,6.68,47.37-8.39"/>
					<path class="st1" d="M421.11,352.95c40.98-13.83,63-58.26,49.17-99.23c-7.49-22.19-24.51-39.86-46.39-48.17"/>
				</g>
			</g>
		</g>
	</g>
	<g>
		<g id="ARC_45_">
			<g>
				<linearGradient id="SVGID_2_" gradientUnits="userSpaceOnUse" x1="273.5476" y1="186.4467" x2="426.8304" y2="186.4467">
					<stop  offset="0" style="stop-color:#0C1E3C"/>
					<stop  offset="0.1564" style="stop-color:#0D223F"/>
					<stop  offset="0.9637" style="stop-color:#3D88C1"/>
				</linearGradient>
				<path class="st2" d="M423.88,205.54c-2.43-9.35-6.38-18.2-11.87-25.92c-5.43-7.75-12.32-14.37-20.1-19.54
					c-15.58-10.34-34.99-14.48-53.24-11.14c-9.13,1.57-17.94,4.89-25.85,9.74c-7.95,4.8-14.87,11.25-20.52,18.69
					c-5.6,7.48-9.86,16.04-12.35,25.17c-2.57,9.12-3.31,18.78-2.45,28.4c-2.19-9.43-2.28-19.41-0.42-29.08
					c0.95-4.83,2.4-9.58,4.3-14.15c1.9-4.58,4.32-8.94,7.11-13.06c5.56-8.27,12.92-15.32,21.31-20.78
					c8.42-5.44,17.97-9.12,27.85-10.84c9.88-1.68,20.11-1.46,29.87,0.81c9.74,2.32,19.04,6.49,27.05,12.4
					c8.06,5.84,14.85,13.33,19.9,21.78C419.48,186.5,422.76,195.93,423.88,205.54z"/>
			</g>
		</g>
		<g id="ARC_44_">
			<g>
				<linearGradient id="SVGID_3_" gradientUnits="userSpaceOnUse" x1="153.4859" y1="293.7854" x2="233.7289" y2="293.7854">
					<stop  offset="0" style="stop-color:#0C1E3C"/>
					<stop  offset="0.1564" style="stop-color:#0D223F"/>
					<stop  offset="0.9637" style="stop-color:#3D88C1"/>
				</linearGradient>
				<path class="st3" d="M232.21,249.82c-14.39-6.52-31.04-6.53-44.58,0.17c-13.66,6.39-23.7,19.27-26.97,33.73
					c-0.28,0.89-0.36,1.81-0.52,2.73l-0.45,2.74l-0.17,2.78c-0.04,0.93-0.16,1.85-0.09,2.78c0.08,1.85,0.02,3.72,0.34,5.55
					l0.34,2.77l0.6,2.72c0.31,1.84,0.98,3.59,1.51,5.37c0.24,0.91,0.66,1.74,1.02,2.6l1.1,2.58c1.75,3.29,3.61,6.57,6.01,9.46
					c4.7,5.85,10.72,10.74,17.6,14.1c6.88,3.39,14.6,5.17,22.49,5.38c-7.83,1.13-16.05,0.14-23.65-2.67
					c-3.81-1.41-7.39-3.41-10.79-5.66c-1.67-1.18-3.37-2.35-4.84-3.78l-2.29-2.06l-2.09-2.28c-1.46-1.47-2.62-3.18-3.87-4.83
					c-0.65-0.81-1.14-1.72-1.67-2.61l-1.58-2.67l-1.33-2.81c-0.43-0.94-0.92-1.86-1.23-2.85c-0.68-1.96-1.48-3.89-1.9-5.92
					c-2.04-8.04-2.33-16.62-0.37-24.75c1.95-8.11,5.73-15.76,11.05-22.15c5.32-6.39,12.24-11.41,19.87-14.51
					c0.96-0.37,1.88-0.84,2.87-1.12l2.95-0.9c0.49-0.14,0.98-0.31,1.47-0.43l1.51-0.31l3.01-0.59c1.01-0.16,2.04-0.21,3.05-0.32
					l1.52-0.14l0.76-0.07l0.76,0l3.05,0c0.51,0.01,1.01-0.02,1.52,0.02l1.52,0.16C217.8,242.79,225.62,245.43,232.21,249.82z"/>
			</g>
		</g>
		<g id="ARC_43_">
			<g>
				<linearGradient id="SVGID_4_" gradientUnits="userSpaceOnUse" x1="229.5134" y1="238.2191" x2="278.4574" y2="238.2191">
					<stop  offset="0" style="stop-color:#0C1E3C"/>
					<stop  offset="0.1564" style="stop-color:#0D223F"/>
					<stop  offset="0.9637" style="stop-color:#3D88C1"/>
				</linearGradient>
				<path class="st4" d="M277.5,230.95c-4.62-0.24-8.93-0.19-13.1,0.42c-4.16,0.59-8.15,1.68-11.95,3.25
					c-3.79,1.59-7.37,3.65-10.72,6.2c-3.36,2.54-6.43,5.55-9.53,9c0.85-4.57,3.15-8.86,6.3-12.44c3.15-3.58,7.19-6.45,11.64-8.3
					c4.45-1.85,9.33-2.7,14.09-2.42C268.99,226.96,273.66,228.34,277.5,230.95z"/>
			</g>
		</g>
		<g id="ARC_42_">
			<g>
				<linearGradient id="SVGID_5_" gradientUnits="userSpaceOnUse" x1="207.2216" y1="375.3622" x2="304.6461" y2="375.3622">
					<stop  offset="0" style="stop-color:#0C1E3C"/>
					<stop  offset="0.1564" style="stop-color:#0D223F"/>
					<stop  offset="0.9637" style="stop-color:#3D88C1"/>
				</linearGradient>
				<path class="st5" d="M210.44,345.28c0.26,5.55,1.01,10.94,2.54,16.08c1.52,5.15,3.88,9.96,6.73,14.37l1.1,1.64
					c0.36,0.55,0.72,1.1,1.16,1.59l2.47,3.05l2.73,2.81l0.68,0.71l0.74,0.64l1.48,1.27l1.48,1.27l1.59,1.13
					c1.07,0.73,2.07,1.58,3.23,2.18c1.13,0.64,2.23,1.33,3.36,1.96l3.53,1.64c0.58,0.3,1.19,0.52,1.8,0.73l1.83,0.66
					c0.61,0.21,1.22,0.46,1.83,0.65l1.89,0.47l1.89,0.49l0.94,0.25l0.96,0.15l3.86,0.61c5.17,0.57,10.45,0.44,15.63-0.51
					c10.4-1.8,20.25-6.82,28.51-14.18c-6.38,9.06-16.33,15.91-27.48,18.78c-0.69,0.21-1.39,0.35-2.1,0.5
					c-0.71,0.15-1.41,0.32-2.12,0.44c-1.43,0.2-2.85,0.46-4.29,0.55c-2.88,0.32-5.78,0.24-8.68,0.07
					c-5.78-0.49-11.48-1.92-16.85-4.16c-5.38-2.25-10.26-5.57-14.56-9.43l-1.59-1.49l-0.79-0.74l-0.72-0.81
					c-0.96-1.08-1.91-2.17-2.84-3.28l-2.51-3.53c-0.43-0.58-0.78-1.21-1.14-1.84l-1.07-1.88c-2.7-5.07-4.69-10.51-5.55-16.13
					C209.32,356.4,209.37,350.72,210.44,345.28z"/>
			</g>
		</g>
		<g id="ARC_41_">
			<g>
				<linearGradient id="SVGID_6_" gradientUnits="userSpaceOnUse" x1="347.5807" y1="372.6601" x2="424.0903" y2="372.6601">
					<stop  offset="0" style="stop-color:#0C1E3C"/>
					<stop  offset="0.1564" style="stop-color:#0D223F"/>
					<stop  offset="0.9637" style="stop-color:#3D88C1"/>
				</linearGradient>
				<path class="st6" d="M349.76,376.56c0.83,0.56,1.62,1.14,2.43,1.7c0.4,0.28,0.77,0.59,1.18,0.85l1.26,0.75
					c0.85,0.47,1.62,1.04,2.48,1.47l2.57,1.26l0.63,0.32l0.66,0.26l1.32,0.52c0.88,0.34,1.73,0.73,2.65,0.95l2.68,0.81l2.73,0.56
					c3.64,0.63,7.32,1,10.97,0.67c3.63-0.27,7.26-0.85,10.69-2.08l1.3-0.4l1.26-0.53c0.83-0.37,1.69-0.68,2.5-1.08
					c1.6-0.85,3.25-1.64,4.74-2.71c3.08-1.96,5.91-4.35,8.43-7.06c5.02-5.46,8.7-12.25,10.86-19.88c0.34,7.95-2.33,16.16-7.21,22.86
					c-2.45,3.35-5.46,6.31-8.85,8.76c-1.65,1.31-3.52,2.28-5.33,3.33c-0.93,0.48-1.92,0.86-2.87,1.29l-1.45,0.62l-1.5,0.49
					c-3.98,1.38-8.19,1.98-12.37,2.06c-4.19,0.13-8.36-0.61-12.32-1.79l-2.94-1l-2.81-1.3c-0.94-0.4-1.82-0.95-2.69-1.49l-1.31-0.8
					l-0.65-0.4l-0.61-0.47l-2.4-1.88c-0.78-0.64-1.48-1.38-2.2-2.08C352.11,379.8,350.97,378.1,349.76,376.56z"/>
			</g>
		</g>
		<g id="ARC_40_">
			<g>
				<linearGradient id="SVGID_7_" gradientUnits="userSpaceOnUse" x1="300.7285" y1="385.1396" x2="352.1906" y2="385.1396">
					<stop  offset="0" style="stop-color:#0C1E3C"/>
					<stop  offset="0.1564" style="stop-color:#0D223F"/>
					<stop  offset="0.9637" style="stop-color:#3D88C1"/>
				</linearGradient>
				<path class="st7" d="M302.4,384.95c4.37,1.42,8.51,2.43,12.65,2.84c4.13,0.42,8.21,0.27,12.2-0.44
					c3.99-0.72,7.87-1.98,11.6-3.79c3.75-1.8,7.29-4.17,10.91-7c-1.6,4.32-4.65,8.12-8.41,11c-3.78,2.89-8.32,4.86-13.05,5.69
					c-4.74,0.84-9.67,0.54-14.21-0.87C309.56,390.97,305.4,388.45,302.4,384.95z"/>
			</g>
		</g>
		<g id="ARC_39_">
			<g>
				<linearGradient id="SVGID_8_" gradientUnits="userSpaceOnUse" x1="420.1515" y1="279.2452" x2="477.4052" y2="279.2452">
					<stop  offset="0" style="stop-color:#0C1E3C"/>
					<stop  offset="0.1564" style="stop-color:#0D223F"/>
					<stop  offset="0.9637" style="stop-color:#3D88C1"/>
				</linearGradient>
				<path class="st8" d="M421.11,352.95c14.79-6.26,27.45-16.49,36.25-29.31c2.21-3.2,4.16-6.56,5.87-10.02
					c1.7-3.47,3.21-7.04,4.35-10.73c1.15-3.68,2.13-7.42,2.78-11.22c0.62-3.8,0.96-7.65,1.03-11.49
					c0.26-15.38-4.02-30.86-12.38-43.96c-8.35-13.12-20.61-23.8-35.12-30.67c15.43,4.52,29.42,14.62,39,28.05
					c9.64,13.4,14.84,30.06,14.5,46.69c-0.12,4.15-0.54,8.3-1.25,12.39c-0.77,4.08-1.79,8.11-3.18,12.02
					c-1.36,3.92-3.11,7.69-5.06,11.33c-0.96,1.83-2.05,3.59-3.14,5.34c-1.18,1.7-2.33,3.41-3.62,5.02
					c-5,6.56-11.15,12.18-17.91,16.74c-3.43,2.22-6.98,4.21-10.68,5.87C428.82,350.61,425,351.95,421.11,352.95z"/>
			</g>
		</g>
	</g>
</g>
<g id="ARC_4_">
	<g>
		<linearGradient id="SVGID_9_" gradientUnits="userSpaceOnUse" x1="275.0731" y1="225.5145" x2="398.1512" y2="225.5145">
			<stop  offset="0" style="stop-color:#0C1E3C"/>
			<stop  offset="0.1564" style="stop-color:#0D223F"/>
			<stop  offset="0.9637" style="stop-color:#3D88C1"/>
		</linearGradient>
		<path class="st9" d="M367.35,280.65c8.95-5.81,16.18-14.08,20.71-23.59c4.56-9.51,6.41-20.22,5.4-30.6
			c-1-10.39-4.93-20.43-11.21-28.68c-3.09-4.16-6.8-7.82-10.88-10.96c-4.12-3.09-8.63-5.66-13.42-7.53
			c-9.56-3.75-20.13-4.79-30.13-2.97c-2.5,0.45-4.98,1.03-7.39,1.8c-2.41,0.79-4.78,1.69-7.07,2.79c-1.17,0.5-2.27,1.13-3.4,1.7
			c-1.09,0.64-2.22,1.24-3.27,1.95l-3.17,2.11l-3,2.34c-3.92,3.23-7.4,7.01-10.35,11.18c-2.99,4.15-5.38,8.75-7.21,13.57
			c-3.56,9.71-4.56,20.41-2.98,30.98l-0.58,0.14c-3.3-10.29-3.46-21.74-0.45-32.43c1.5-5.35,3.87-10.46,6.82-15.21
			c2.99-4.73,6.67-9.04,10.86-12.8l3.27-2.68c1.14-0.83,2.31-1.61,3.46-2.42c2.34-1.56,4.82-2.92,7.38-4.1
			c5.12-2.37,10.6-3.93,16.15-4.79c11.15-1.55,22.64,0,32.89,4.39c5.14,2.17,9.94,5.08,14.28,8.54c4.3,3.51,8.17,7.56,11.35,12.09
			c6.45,8.99,10.31,19.77,11.05,30.73c0.68,10.97-1.68,22.04-6.73,31.68c-2.52,4.82-5.7,9.28-9.42,13.21
			c-3.73,3.92-8,7.31-12.63,10.06L367.35,280.65z"/>
	</g>
</g>
<g id="ARC_49_">
	<g>
		<linearGradient id="SVGID_10_" gradientUnits="userSpaceOnUse" x1="291.6058" y1="247.2405" x2="388.4376" y2="247.2405">
			<stop  offset="0" style="stop-color:#0C1E3C"/>
			<stop  offset="0.1564" style="stop-color:#0D223F"/>
			<stop  offset="0.9637" style="stop-color:#3D88C1"/>
		</linearGradient>
		<path class="st10" d="M363.83,290.24c6.9-4.54,12.45-10.97,15.92-18.34c3.48-7.36,4.87-15.63,4.04-23.62
			c-0.81-7.99-3.83-15.72-8.73-22c-0.55-0.83-1.22-1.56-1.89-2.3c-0.67-0.73-1.28-1.52-2.01-2.19c-1.47-1.33-2.86-2.74-4.5-3.86
			c-1.53-1.26-3.26-2.22-4.94-3.25c-0.85-0.5-1.77-0.87-2.65-1.32l-1.33-0.64c-0.45-0.19-0.92-0.35-1.38-0.52
			c-0.93-0.33-1.84-0.69-2.77-1l-2.85-0.74c-0.94-0.29-1.92-0.4-2.88-0.56l-1.45-0.23l-0.72-0.12l-0.73-0.05l-2.93-0.18
			c-0.97-0.05-1.95,0.05-2.92,0.07l-1.46,0.05c-0.48,0.04-0.97,0.12-1.45,0.18l-2.89,0.4c-1.88,0.47-3.81,0.76-5.62,1.46
			c-0.91,0.32-1.86,0.55-2.74,0.94c-0.89,0.39-1.77,0.79-2.66,1.16c-3.47,1.69-6.87,3.62-9.83,6.14c-3.01,2.45-5.69,5.32-7.97,8.49
			c-2.32,3.16-4.18,6.66-5.64,10.35c-2.82,7.43-3.73,15.64-2.7,23.87l-0.58,0.14c-2.75-7.95-3.01-16.91-0.73-25.32
			c1.13-4.21,2.96-8.23,5.25-11.98c2.33-3.73,5.2-7.13,8.48-10.11l2.56-2.11c0.89-0.65,1.81-1.28,2.72-1.91
			c0.44-0.33,0.93-0.61,1.41-0.87l1.45-0.81c0.98-0.52,1.91-1.13,2.95-1.53l3.07-1.29c1.02-0.43,2.11-0.68,3.16-1.03
			c2.1-0.73,4.32-0.99,6.48-1.44c1.1-0.12,2.21-0.2,3.31-0.29c0.55-0.04,1.1-0.11,1.65-0.12l1.66,0.02c1.1,0.03,2.21-0.01,3.3,0.09
			l3.28,0.36l0.82,0.09l0.81,0.16l1.61,0.33c1.07,0.23,2.16,0.4,3.2,0.76l3.14,0.96c1.02,0.38,2.03,0.83,3.04,1.24
			c0.5,0.21,1.02,0.4,1.51,0.64l1.45,0.76c0.96,0.53,1.95,0.98,2.87,1.57c1.82,1.2,3.68,2.34,5.32,3.79c1.75,1.3,3.24,2.9,4.79,4.42
			c0.76,0.77,1.4,1.66,2.11,2.48c0.69,0.83,1.4,1.66,1.97,2.58c5.07,7.02,8.02,15.49,8.57,24.05c0.49,8.57-1.4,17.21-5.38,24.7
			c-1.98,3.75-4.47,7.21-7.39,10.25c-2.92,3.04-6.26,5.65-9.87,7.76L363.83,290.24z"/>
	</g>
</g>
<g>
	<g>
		<g id="ARC_61_">
			<g id="XMLID_3_">
				<g>
					<linearGradient id="SVGID_11_" gradientUnits="userSpaceOnUse" x1="485.2628" y1="296.6311" x2="218.5771" y2="469.818">
						<stop  offset="0" style="stop-color:#4B8DC2"/>
						<stop  offset="0.2402" style="stop-color:#3D88C1"/>
						<stop  offset="1" style="stop-color:#F2E6C4"/>
					</linearGradient>
					<path class="st11" d="M232.97,484.41c-33.91-26.84-39.65-76.09-12.81-110.01c-4.33-8.74-5.43-18.74-3.12-28.21
						c5.42-22.24,27.86-35.87,50.09-30.44c0.99-18.61,16.52-33.12,35.16-32.84c2.48-16.55,12.69-30.95,27.49-38.78
						c25.74-13.61,57.64-3.78,71.24,21.96c7.81-5.75,17.1-9.16,26.77-9.82c28.1-1.92,52.44,19.29,54.36,47.39
						c1.92,28.1-19.3,52.43-47.39,54.35c2.24,18.54-9.61,35.87-27.71,40.49c27.03,29.89,25.29,75.87-3.89,103.65
						c-29.72,28.28-76.75,27.1-105.03-2.62C275.23,504.48,251.34,498.93,232.97,484.41z"/>
				</g>
				<g>
					<path class="st1" d="M298.12,499.54c28.28,29.72,75.31,30.9,105.03,2.62c29.19-27.78,30.93-73.76,3.89-103.65"/>
					<path class="st1" d="M434.76,358.01c28.1-1.92,49.32-26.26,47.39-54.35c-1.92-28.1-26.26-49.31-54.36-47.39
						c-9.67,0.66-18.96,4.07-26.77,9.82"/>
					<path class="st1" d="M407.05,398.5c18.09-4.62,29.95-21.95,27.71-40.49"/>
					<path class="st1" d="M401.02,266.09c-13.61-25.74-45.5-35.57-71.24-21.96c-14.8,7.82-25,22.22-27.49,38.78"/>
					<path class="st1" d="M267.13,315.74c-22.23-5.43-44.67,8.2-50.09,30.44c-2.31,9.48-1.21,19.47,3.12,28.21"/>
					<path class="st1" d="M302.29,282.91c-18.64-0.28-34.17,14.22-35.16,32.84"/>
					<path class="st1" d="M220.16,374.4c-26.84,33.92-21.1,83.17,12.81,110.01c18.36,14.52,42.26,20.07,65.15,15.13"/>
				</g>
			</g>
		</g>
	</g>
	<g>
		<g id="ARC_60_">
			<g>
				<linearGradient id="SVGID_12_" gradientUnits="userSpaceOnUse" x1="434.602" y1="433.6757" x2="306.048" y2="517.1592">
					<stop  offset="0" style="stop-color:#0C1E3C"/>
					<stop  offset="0.1564" style="stop-color:#0D223F"/>
					<stop  offset="0.9637" style="stop-color:#3D88C1"/>
				</linearGradient>
				<path class="st12" d="M298.12,499.54c7.13,6.52,15.27,11.79,24.07,15.27c8.77,3.55,18.16,5.35,27.5,5.44
					c18.7,0.18,37.23-6.91,50.72-19.66c6.8-6.29,12.38-13.88,16.37-22.25c4.05-8.36,6.34-17.54,7.03-26.85
					c0.62-9.32-0.46-18.82-3.35-27.83c-2.81-9.05-7.45-17.55-13.42-25.15c6.97,6.71,12.48,15.04,16.19,24.16
					c1.83,4.57,3.2,9.34,4.1,14.21c0.9,4.87,1.25,9.85,1.15,14.82c-0.16,9.96-2.49,19.88-6.55,29.03
					c-4.1,9.15-10.1,17.44-17.45,24.26c-7.37,6.79-16.07,12.18-25.5,15.59c-9.43,3.36-19.5,4.93-29.44,4.34
					c-9.94-0.51-19.72-3.09-28.55-7.42C312.18,513.11,304.3,506.98,298.12,499.54z"/>
			</g>
		</g>
		<g id="ARC_59_">
			<g>
				<linearGradient id="SVGID_13_" gradientUnits="userSpaceOnUse" x1="476.8336" y1="278.2637" x2="409.5361" y2="321.967">
					<stop  offset="0" style="stop-color:#0C1E3C"/>
					<stop  offset="0.1564" style="stop-color:#0D223F"/>
					<stop  offset="0.9637" style="stop-color:#3D88C1"/>
				</linearGradient>
				<path class="st13" d="M434.76,358.01c15.62-2.37,29.59-11.43,37.3-24.43c7.98-12.8,9.38-29.07,4.25-42.97
					c-0.25-0.9-0.68-1.72-1.04-2.57l-1.12-2.54l-1.37-2.42c-0.47-0.8-0.87-1.64-1.44-2.38c-1.08-1.51-2.04-3.11-3.3-4.47l-1.79-2.13
					l-1.98-1.96c-1.26-1.38-2.77-2.48-4.2-3.68c-0.69-0.63-1.5-1.1-2.27-1.63l-2.33-1.56c-3.26-1.81-6.61-3.54-10.2-4.66
					c-7.13-2.35-14.84-3.17-22.44-2.24c-7.62,0.9-15.06,3.62-21.79,7.74c5.96-5.21,13.38-8.86,21.29-10.64
					c3.96-0.89,8.05-1.16,12.14-1.13c2.04,0.09,4.1,0.13,6.12,0.53l3.05,0.48l2.99,0.77c2.02,0.44,3.93,1.24,5.88,1.94
					c0.99,0.32,1.89,0.82,2.82,1.27l2.78,1.38l2.64,1.63c0.87,0.56,1.79,1.06,2.59,1.72c1.64,1.27,3.35,2.46,4.82,3.93
					c6.09,5.63,11.01,12.67,13.79,20.55c2.79,7.86,3.78,16.33,2.79,24.59c-0.98,8.26-4.05,16.23-8.76,22.99
					c-0.6,0.83-1.12,1.73-1.8,2.51l-1.98,2.36c-0.33,0.39-0.65,0.8-1,1.17l-1.1,1.08l-2.21,2.13c-0.76,0.68-1.59,1.29-2.38,1.93
					l-1.2,0.95l-0.6,0.47l-0.64,0.42l-2.56,1.66c-0.43,0.27-0.84,0.57-1.29,0.81l-1.36,0.69
					C450.67,356.06,442.67,358.1,434.76,358.01z"/>
			</g>
		</g>
		<g id="ARC_58_">
			<g>
				<linearGradient id="SVGID_14_" gradientUnits="userSpaceOnUse" x1="443.3351" y1="366.2729" x2="402.2871" y2="392.9297">
					<stop  offset="0" style="stop-color:#0C1E3C"/>
					<stop  offset="0.1564" style="stop-color:#0D223F"/>
					<stop  offset="0.9637" style="stop-color:#3D88C1"/>
				</linearGradient>
				<path class="st14" d="M407.05,398.5c4.01-2.32,7.59-4.71,10.76-7.49c3.17-2.76,5.93-5.85,8.25-9.23
					c2.31-3.4,4.19-7.08,5.61-11.03c1.44-3.96,2.37-8.16,3.09-12.74c1.78,4.29,2.18,9.15,1.49,13.86c-0.7,4.72-2.52,9.32-5.25,13.3
					c-2.73,3.98-6.35,7.34-10.5,9.7C416.36,397.21,411.69,398.6,407.05,398.5z"/>
			</g>
		</g>
		<g id="ARC_57_">
			<g>
				<linearGradient id="SVGID_15_" gradientUnits="userSpaceOnUse" x1="387.3373" y1="239.114" x2="305.6301" y2="292.175">
					<stop  offset="0" style="stop-color:#0C1E3C"/>
					<stop  offset="0.1564" style="stop-color:#0D223F"/>
					<stop  offset="0.9637" style="stop-color:#3D88C1"/>
				</linearGradient>
				<path class="st15" d="M401.03,266.09c-3.24-4.51-6.8-8.62-10.89-12.1c-4.08-3.49-8.68-6.24-13.47-8.39l-1.81-0.77
					c-0.6-0.26-1.2-0.53-1.84-0.7l-3.74-1.21l-3.82-0.87l-0.95-0.22l-0.97-0.13l-1.94-0.26l-1.93-0.26l-1.95-0.09
					c-1.3-0.03-2.6-0.2-3.89-0.07c-1.3,0.08-2.6,0.09-3.89,0.19l-3.85,0.54c-0.65,0.06-1.28,0.21-1.91,0.37l-1.89,0.44
					c-0.63,0.15-1.27,0.28-1.89,0.45l-1.84,0.63l-1.85,0.61l-0.93,0.31l-0.89,0.4l-3.57,1.59c-4.65,2.34-9,5.33-12.83,8.94
					c-7.74,7.17-13.27,16.74-16.19,27.42c0.42-11.08,5.03-22.23,12.82-30.72c0.47-0.55,0.98-1.05,1.49-1.56
					c0.51-0.51,1.01-1.03,1.54-1.52c1.09-0.95,2.14-1.94,3.3-2.8c2.24-1.83,4.72-3.36,7.24-4.79c5.11-2.74,10.67-4.64,16.4-5.68
					c5.74-1.04,11.64-0.92,17.35-0.02l2.14,0.38l1.07,0.19l1.05,0.29c1.4,0.39,2.79,0.78,4.17,1.2l4.03,1.59
					c0.68,0.25,1.31,0.59,1.95,0.92l1.92,0.99c5.03,2.77,9.66,6.26,13.44,10.5C395.91,256.16,398.96,260.95,401.03,266.09z"/>
			</g>
		</g>
		<g id="ARC_56_">
			<g>
				<linearGradient id="SVGID_16_" gradientUnits="userSpaceOnUse" x1="271.0938" y1="317.8249" x2="206.9273" y2="359.4949">
					<stop  offset="0" style="stop-color:#0C1E3C"/>
					<stop  offset="0.1564" style="stop-color:#0D223F"/>
					<stop  offset="0.9637" style="stop-color:#3D88C1"/>
				</linearGradient>
				<path class="st16" d="M267.14,315.75c-1-0.02-1.99-0.07-2.96-0.11c-0.49-0.02-0.97-0.07-1.46-0.07l-1.46,0.06
					c-0.97,0.07-1.93,0.01-2.88,0.12l-2.84,0.34l-0.7,0.08l-0.7,0.14l-1.39,0.29c-0.92,0.19-1.85,0.33-2.74,0.64l-2.69,0.78
					l-2.6,1.01c-3.4,1.46-6.68,3.15-9.57,5.41c-2.9,2.21-5.63,4.67-7.83,7.56l-0.87,1.05l-0.77,1.13c-0.5,0.76-1.05,1.49-1.51,2.27
					c-0.88,1.59-1.83,3.15-2.5,4.85c-1.51,3.32-2.59,6.87-3.22,10.51c-1.24,7.31-0.63,15.02,1.72,22.59
					c-4.62-6.48-6.85-14.82-6.41-23.1c0.22-4.14,1.14-8.27,2.65-12.17c0.67-1.99,1.71-3.82,2.66-5.7c0.52-0.91,1.14-1.76,1.71-2.65
					l0.88-1.31l0.99-1.22c2.58-3.33,5.79-6.12,9.25-8.46c3.44-2.39,7.35-4.04,11.31-5.21l3.01-0.76l3.06-0.44
					c1.01-0.18,2.05-0.19,3.07-0.22l1.53-0.04l0.76-0.02l0.77,0.06l3.04,0.27c1,0.11,2,0.35,2.98,0.55
					C263.4,314.3,265.29,315.11,267.14,315.75z"/>
			</g>
		</g>
		<g id="ARC_55_">
			<g>
				<linearGradient id="SVGID_17_" gradientUnits="userSpaceOnUse" x1="303.5905" y1="281.8413" x2="260.4308" y2="309.8694">
					<stop  offset="0" style="stop-color:#0C1E3C"/>
					<stop  offset="0.1564" style="stop-color:#0D223F"/>
					<stop  offset="0.9637" style="stop-color:#3D88C1"/>
				</linearGradient>
				<path class="st17" d="M302.29,282.91c-4.44,1.19-8.46,2.6-12.16,4.51c-3.69,1.9-7.03,4.25-9.99,7.01
					c-2.95,2.77-5.52,5.94-7.67,9.5c-2.16,3.55-3.84,7.47-5.34,11.82c-1.01-4.5-0.52-9.34,1.06-13.81c1.6-4.48,4.33-8.6,7.85-11.88
					c3.52-3.28,7.82-5.72,12.39-7.01C293.01,281.76,297.87,281.6,302.29,282.91z"/>
			</g>
		</g>
		<g id="ARC_54_">
			<g>
				<linearGradient id="SVGID_18_" gradientUnits="userSpaceOnUse" x1="261.1079" y1="435.6941" x2="213.0908" y2="466.8766">
					<stop  offset="0" style="stop-color:#0C1E3C"/>
					<stop  offset="0.1564" style="stop-color:#0D223F"/>
					<stop  offset="0.9637" style="stop-color:#3D88C1"/>
				</linearGradient>
				<path class="st18" d="M220.16,374.4c-8.99,13.3-14.04,28.78-14.43,44.33c-0.11,3.88,0.08,7.76,0.53,11.61
					c0.47,3.84,1.14,7.66,2.2,11.37c1.04,3.71,2.26,7.38,3.78,10.92c1.55,3.53,3.36,6.93,5.4,10.2
					c8.16,13.04,20.18,23.69,34.33,30.12c14.15,6.46,30.24,8.73,46.16,6.59c-15.4,4.62-32.64,3.77-47.98-2.28
					c-15.38-5.99-28.81-17.13-37.59-31.26c-2.16-3.55-4.07-7.25-5.7-11.07c-1.58-3.84-2.91-7.78-3.88-11.81
					c-0.99-4.03-1.58-8.14-1.93-12.26c-0.19-2.06-0.24-4.13-0.27-6.19c0.06-2.07,0.1-4.13,0.3-6.18c0.63-8.23,2.72-16.28,5.91-23.79
					c1.67-3.73,3.56-7.33,5.76-10.74C214.97,380.56,217.45,377.36,220.16,374.4z"/>
			</g>
		</g>
	</g>
</g>
<g id="ARC_26_">
	<g>
		<linearGradient id="SVGID_19_" gradientUnits="userSpaceOnUse" x1="185.2234" y1="298.9627" x2="246.482" y2="298.9627">
			<stop  offset="0" style="stop-color:#0C1E3C"/>
			<stop  offset="0.1564" style="stop-color:#0D223F"/>
			<stop  offset="0.9637" style="stop-color:#3D88C1"/>
		</linearGradient>
		<path class="st19" d="M245.1,262.6c-5.71-2.34-11.88-3.35-17.93-2.98l-1.13,0.05c-0.38,0.02-0.75,0.1-1.13,0.15l-2.24,0.33
			c-0.75,0.08-1.47,0.34-2.21,0.49c-0.73,0.19-1.47,0.34-2.19,0.56c-2.85,0.96-5.66,2.05-8.22,3.62
			c-10.48,5.86-17.49,16.84-18.98,28.4c-0.15,0.72-0.14,1.45-0.19,2.18l-0.12,2.18l0.11,2.18c0.05,0.72,0.03,1.45,0.18,2.17
			c0.24,1.43,0.36,2.88,0.78,4.27l0.52,2.1l0.73,2.04c0.92,2.73,2.27,5.27,3.68,7.76c1.57,2.39,3.2,4.76,5.21,6.81
			c3.91,4.19,8.73,7.62,14.15,9.94c5.44,2.29,11.43,3.45,17.64,3.49l0.08,0.59c-6.09,1.69-12.78,1.63-19.09-0.09
			c-6.31-1.74-12.25-5.09-17.06-9.72c-1.25-1.11-2.29-2.43-3.38-3.69c-0.57-0.61-1.01-1.33-1.49-2.02l-1.41-2.08
			c-0.42-0.72-0.79-1.47-1.19-2.21c-0.38-0.74-0.81-1.46-1.1-2.25c-0.61-1.55-1.3-3.08-1.7-4.7c-1.84-6.4-2.29-13.17-1.11-19.65
			c1.14-6.49,3.77-12.64,7.6-17.91c3.82-5.29,8.98-9.51,14.71-12.42c11.48-5.93,25.56-5.8,36.72-0.12L245.1,262.6z"/>
	</g>
</g>
<g>
	<g>
		<g id="ARC_69_">
			<g id="XMLID_4_">
				<g>
					<linearGradient id="SVGID_20_" gradientUnits="userSpaceOnUse" x1="346.3781" y1="427.5551" x2="28.5725" y2="438.1812">
						<stop  offset="0" style="stop-color:#4B8DC2"/>
						<stop  offset="0.2402" style="stop-color:#3D88C1"/>
						<stop  offset="1" style="stop-color:#F2E6C4"/>
					</linearGradient>
					<path class="st20" d="M33.37,458.11c-15.19-40.49,5.32-85.64,45.82-100.82c0.81-9.73,5.02-18.86,11.9-25.78
						c16.14-16.25,42.38-16.34,58.63-0.21c10.45-15.43,31.23-19.83,47.05-9.97c10.68-12.89,26.85-19.95,43.57-19.02
						c29.06,1.64,51.31,26.53,49.67,55.59c9.67-0.89,19.37,0.98,28.01,5.41c25.05,12.86,34.94,43.6,22.08,68.65
						c-12.86,25.05-43.6,34.94-68.65,22.08c-7.65,17.03-26.74,25.76-44.63,20.37c7.72,39.55-17.5,78.04-56.85,86.76
						c-40.06,8.87-79.72-16.42-88.6-56.47C59.19,497.13,41.59,480.03,33.37,458.11z"/>
				</g>
				<g>
					<path class="st1" d="M81.35,504.7c8.87,40.06,48.54,65.34,88.6,56.47c39.35-8.72,64.57-47.2,56.85-86.76"/>
					<path class="st1" d="M271.43,454.04c25.05,12.86,55.79,2.98,68.65-22.08c12.86-25.05,2.98-55.79-22.08-68.65
						c-8.63-4.42-18.34-6.3-28.01-5.41"/>
					<path class="st1" d="M226.8,474.41c17.89,5.39,36.99-3.34,44.63-20.37"/>
					<path class="st1" d="M290,357.91c1.64-29.06-20.6-53.95-49.67-55.59c-16.72-0.93-32.89,6.12-43.57,19.02"/>
					<path class="st1" d="M149.71,331.3c-16.25-16.13-42.49-16.04-58.63,0.21c-6.87,6.92-11.09,16.05-11.9,25.78"/>
					<path class="st1" d="M196.76,321.33c-15.82-9.87-36.6-5.46-47.05,9.97"/>
					<path class="st1" d="M79.19,357.29c-40.5,15.18-61.01,60.32-45.82,100.82c8.22,21.92,25.82,39.02,47.97,46.59"/>
				</g>
			</g>
		</g>
	</g>
	<g>
		<g id="ARC_68_">
			<g>
				<linearGradient id="SVGID_21_" gradientUnits="userSpaceOnUse" x1="232.2355" y1="518.764" x2="79.0383" y2="523.8862">
					<stop  offset="0" style="stop-color:#0C1E3C"/>
					<stop  offset="0.1564" style="stop-color:#0D223F"/>
					<stop  offset="0.9637" style="stop-color:#3D88C1"/>
				</linearGradient>
				<path class="st21" d="M81.35,504.7c2.74,9.27,6.99,17.98,12.73,25.51c5.68,7.57,12.79,13.95,20.75,18.86
					c15.92,9.81,35.45,13.3,53.58,9.35c9.07-1.88,17.77-5.49,25.51-10.6c7.79-5.06,14.48-11.74,19.88-19.37
					c5.35-7.66,9.32-16.36,11.5-25.56c2.26-9.2,2.68-18.88,1.49-28.47c2.5,9.35,2.92,19.32,1.39,29.05
					c-0.79,4.86-2.08,9.65-3.82,14.29c-1.75,4.64-4.02,9.08-6.67,13.29c-5.28,8.45-12.4,15.74-20.6,21.48
					c-8.23,5.72-17.65,9.72-27.47,11.77c-9.82,2.01-20.05,2.13-29.89,0.18c-9.81-1.99-19.25-5.85-27.45-11.49
					c-8.25-5.57-15.29-12.82-20.62-21.1C86.39,523.58,82.79,514.27,81.35,504.7z"/>
			</g>
		</g>
		<g id="ARC_67_">
			<g>
				<linearGradient id="SVGID_22_" gradientUnits="userSpaceOnUse" x1="348.6431" y1="407.4731" x2="268.445" y2="410.1545">
					<stop  offset="0" style="stop-color:#0C1E3C"/>
					<stop  offset="0.1564" style="stop-color:#0D223F"/>
					<stop  offset="0.9637" style="stop-color:#3D88C1"/>
				</linearGradient>
				<path class="st22" d="M271.43,454.05c14.6,6.04,31.24,5.49,44.55-1.66c13.44-6.84,23.04-20.05,25.83-34.61
					c0.25-0.9,0.3-1.83,0.43-2.74l0.35-2.76l0.08-2.78c0.01-0.93,0.1-1.85,0-2.78c-0.14-1.85-0.14-3.71-0.52-5.54l-0.44-2.75
					l-0.69-2.7c-0.37-1.83-1.09-3.55-1.69-5.32c-0.27-0.9-0.72-1.72-1.1-2.57l-1.18-2.54c-1.86-3.23-3.83-6.44-6.32-9.26
					c-4.89-5.69-11.07-10.38-18.06-13.51c-6.99-3.16-14.76-4.68-22.66-4.62c7.79-1.39,16.03-0.68,23.73,1.88
					c3.85,1.28,7.5,3.16,10.98,5.3c1.71,1.13,3.45,2.23,4.97,3.61l2.36,1.99l2.16,2.21c1.51,1.42,2.72,3.09,4.03,4.7
					c0.68,0.78,1.2,1.68,1.76,2.55l1.67,2.62l1.42,2.76c0.46,0.93,0.98,1.83,1.33,2.81c0.74,1.93,1.61,3.84,2.1,5.86
					c2.31,7.97,2.88,16.53,1.2,24.72c-1.67,8.17-5.2,15.94-10.31,22.5c-5.11,6.56-11.85,11.81-19.37,15.16
					c-0.95,0.4-1.85,0.9-2.83,1.22l-2.92,1c-0.49,0.16-0.97,0.35-1.46,0.48l-1.5,0.36l-2.99,0.69c-1,0.19-2.03,0.28-3.04,0.42
					l-1.52,0.19l-0.76,0.1l-0.76,0.03l-3.05,0.1c-0.51,0.01-1.01,0.05-1.52,0.03l-1.52-0.11
					C286.07,460.59,278.16,458.21,271.43,454.05z"/>
			</g>
		</g>
		<g id="ARC_66_">
			<g>
				<linearGradient id="SVGID_23_" gradientUnits="userSpaceOnUse" x1="274.5151" y1="465.549" x2="225.5983" y2="467.1845">
					<stop  offset="0" style="stop-color:#0C1E3C"/>
					<stop  offset="0.1564" style="stop-color:#0D223F"/>
					<stop  offset="0.9637" style="stop-color:#3D88C1"/>
				</linearGradient>
				<path class="st23" d="M226.8,474.42c4.63,0.08,8.93-0.11,13.08-0.86c4.14-0.72,8.09-1.95,11.83-3.65
					c3.73-1.71,7.24-3.9,10.5-6.55c3.28-2.65,6.25-5.76,9.22-9.31c-0.69,4.59-2.86,8.96-5.88,12.64c-3.03,3.68-6.97,6.68-11.36,8.68
					c-4.39,2-9.23,3.01-14,2.88C235.44,478.12,230.73,476.89,226.8,474.42z"/>
			</g>
		</g>
		<g id="ARC_65_">
			<g>
				<linearGradient id="SVGID_24_" gradientUnits="userSpaceOnUse" x1="292.2114" y1="327.7375" x2="194.8413" y2="330.9932">
					<stop  offset="0" style="stop-color:#0C1E3C"/>
					<stop  offset="0.1564" style="stop-color:#0D223F"/>
					<stop  offset="0.9637" style="stop-color:#3D88C1"/>
				</linearGradient>
				<path class="st24" d="M290,357.91c-0.44-5.54-1.37-10.9-3.08-15.99c-1.69-5.09-4.21-9.82-7.2-14.14l-1.15-1.6
					c-0.38-0.53-0.76-1.07-1.21-1.55l-2.57-2.97l-2.82-2.72l-0.7-0.68l-0.76-0.61l-1.53-1.22l-1.52-1.22l-1.63-1.08
					c-1.1-0.69-2.12-1.51-3.3-2.07c-1.15-0.6-2.27-1.26-3.43-1.85l-3.58-1.52c-0.59-0.28-1.21-0.48-1.82-0.67l-1.85-0.6
					c-0.62-0.19-1.23-0.41-1.86-0.59l-1.9-0.41l-1.9-0.43l-0.95-0.22l-0.97-0.11l-3.88-0.48c-5.19-0.4-10.46-0.09-15.6,1.03
					c-10.33,2.15-20.01,7.49-28.02,15.12c6.08-9.27,15.79-16.44,26.84-19.69c0.68-0.23,1.38-0.4,2.08-0.57
					c0.7-0.17,1.4-0.36,2.1-0.51c1.42-0.25,2.83-0.56,4.27-0.69c2.87-0.41,5.77-0.44,8.67-0.36c5.8,0.29,11.54,1.53,16.98,3.6
					c5.45,2.07,10.44,5.22,14.87,8.94l1.64,1.43l0.81,0.72l0.75,0.79c1,1.05,1.99,2.11,2.95,3.18l2.63,3.44
					c0.45,0.56,0.82,1.18,1.2,1.8l1.13,1.84c2.87,4.97,5.04,10.35,6.08,15.93C290.75,346.76,290.89,352.44,290,357.91z"/>
			</g>
		</g>
		<g id="ARC_64_">
			<g>
				<linearGradient id="SVGID_25_" gradientUnits="userSpaceOnUse" x1="152.021" y1="335.1285" x2="75.5542" y2="337.6852">
					<stop  offset="0" style="stop-color:#0C1E3C"/>
					<stop  offset="0.1564" style="stop-color:#0D223F"/>
					<stop  offset="0.9637" style="stop-color:#3D88C1"/>
				</linearGradient>
				<path class="st25" d="M149.71,331.31c-0.85-0.53-1.66-1.09-2.48-1.62c-0.41-0.27-0.79-0.56-1.21-0.81l-1.28-0.7
					c-0.87-0.44-1.66-0.98-2.53-1.39l-2.61-1.17l-0.64-0.3l-0.67-0.24l-1.34-0.47c-0.89-0.31-1.75-0.67-2.68-0.87l-2.7-0.72
					l-2.75-0.47c-3.66-0.5-7.35-0.75-10.99-0.31c-3.62,0.39-7.23,1.09-10.61,2.43l-1.29,0.44l-1.24,0.57
					c-0.82,0.39-1.67,0.73-2.47,1.16c-1.57,0.91-3.19,1.75-4.65,2.86c-3.01,2.06-5.76,4.54-8.19,7.34
					c-4.84,5.62-8.29,12.54-10.19,20.23c-0.61-7.93,1.78-16.23,6.44-23.09c2.33-3.43,5.25-6.49,8.55-9.05
					c1.6-1.36,3.44-2.39,5.22-3.51c0.91-0.52,1.89-0.92,2.83-1.39l1.43-0.67l1.48-0.54c3.93-1.52,8.12-2.25,12.29-2.47
					c4.18-0.27,8.38,0.33,12.38,1.38l2.97,0.9l2.85,1.2c0.96,0.37,1.85,0.89,2.74,1.4l1.33,0.76l0.66,0.38l0.62,0.45l2.46,1.8
					c0.8,0.61,1.53,1.33,2.27,2.01C147.25,328.14,148.45,329.8,149.71,331.31z"/>
			</g>
		</g>
		<g id="ARC_63_">
			<g>
				<linearGradient id="SVGID_26_" gradientUnits="userSpaceOnUse" x1="198.43" y1="321.0903" x2="146.9967" y2="322.81">
					<stop  offset="0" style="stop-color:#0C1E3C"/>
					<stop  offset="0.1564" style="stop-color:#0D223F"/>
					<stop  offset="0.9637" style="stop-color:#3D88C1"/>
				</linearGradient>
				<path class="st26" d="M196.77,321.34c-4.42-1.28-8.59-2.15-12.74-2.41c-4.14-0.28-8.21,0.01-12.18,0.84
					c-3.96,0.85-7.8,2.24-11.47,4.17c-3.69,1.93-7.15,4.41-10.67,7.36c1.46-4.38,4.37-8.27,8.04-11.28
					c3.68-3.01,8.15-5.14,12.86-6.13c4.71-0.99,9.65-0.87,14.23,0.39C189.41,315.56,193.66,317.93,196.77,321.34z"/>
			</g>
		</g>
		<g id="ARC_62_">
			<g>
				<linearGradient id="SVGID_27_" gradientUnits="userSpaceOnUse" x1="82.6124" y1="430.9163" x2="25.3907" y2="432.8296">
					<stop  offset="0" style="stop-color:#0C1E3C"/>
					<stop  offset="0.1564" style="stop-color:#0D223F"/>
					<stop  offset="0.9637" style="stop-color:#3D88C1"/>
				</linearGradient>
				<path class="st27" d="M79.19,357.29c-14.57,6.75-26.88,17.4-35.25,30.51c-2.1,3.27-3.94,6.69-5.54,10.21
					c-1.58,3.53-2.98,7.15-3.99,10.87c-1.03,3.72-1.88,7.48-2.4,11.3c-0.49,3.82-0.7,7.67-0.64,11.52
					c0.25,15.38,5.05,30.71,13.84,43.52c8.78,12.83,21.39,23.1,36.12,29.48c-15.58-4-29.89-13.63-39.91-26.73
					c-10.08-13.07-15.83-29.55-16.05-46.18c-0.02-4.16,0.26-8.31,0.84-12.42c0.63-4.1,1.52-8.17,2.77-12.12
					c1.23-3.96,2.85-7.79,4.68-11.49c0.9-1.86,1.93-3.66,2.96-5.44c1.12-1.74,2.22-3.49,3.45-5.14
					c4.78-6.72,10.73-12.54,17.34-17.32c3.35-2.33,6.84-4.44,10.48-6.23C71.57,359.88,75.34,358.42,79.19,357.29z"/>
			</g>
		</g>
	</g>
</g>
<g id="ARC_22_">
	<g>
		<linearGradient id="SVGID_28_" gradientUnits="userSpaceOnUse" x1="242.4398" y1="252.5138" x2="280.426" y2="252.5138">
			<stop  offset="0" style="stop-color:#0C1E3C"/>
			<stop  offset="0.1564" style="stop-color:#0D223F"/>
			<stop  offset="0.9637" style="stop-color:#3D88C1"/>
		</linearGradient>
		<path class="st28" d="M279.61,245.1c-3.49-0.4-6.95-0.27-10.23,0.47c-0.82,0.19-1.62,0.42-2.42,0.63
			c-0.79,0.26-1.56,0.57-2.33,0.84l-2.25,1l-2.13,1.19c-0.67,0.47-1.33,0.92-1.97,1.41l-1.78,1.61c-0.55,0.57-1.12,1.12-1.71,1.63
			c-0.55,0.56-1.15,1.07-1.76,1.58c-2.42,2.09-4.68,4.38-7.51,6.98l-0.56-0.22c-0.22-3.93,1.32-7.7,3.64-10.8
			c0.6-0.76,1.28-1.47,1.97-2.15c0.73-0.64,1.54-1.19,2.34-1.75c0.85-0.48,1.71-0.93,2.55-1.39c0.88-0.39,1.76-0.79,2.62-1.19
			l2.67-0.99c0.92-0.25,1.82-0.51,2.74-0.74c0.93-0.15,1.86-0.32,2.78-0.44c0.94-0.06,1.86-0.15,2.79-0.19
			c3.71-0.04,7.38,0.6,10.71,1.93L279.61,245.1z"/>
	</g>
</g>
<g id="ARC_53_">
	<g>
		<linearGradient id="SVGID_29_" gradientUnits="userSpaceOnUse" x1="48.4488" y1="815.0334" x2="52.9345" y2="815.0334">
			<stop  offset="0" style="stop-color:#0C1E3C"/>
			<stop  offset="0.1564" style="stop-color:#0D223F"/>
			<stop  offset="0.9637" style="stop-color:#3D88C1"/>
		</linearGradient>
		<path class="st29" d="M50.75,814.61l0.91-0.79l0.38-0.32l0.32-0.25l0.43-0.37c0.15-0.13,0.17-0.13,0.06,0.01
			c-0.11,0.14-0.29,0.35-0.58,0.68l-1.22,1.34l-0.42,0.43l-1.29,1.27c-0.32,0.3-0.52,0.48-0.66,0.6c-0.14,0.12-0.14,0.09-0.02-0.06
			l0.36-0.45l0.24-0.33l0.3-0.39l0.76-0.94L50.75,814.61z"/>
	</g>
</g>
<g id="ARC_52_">
	<g>
		<linearGradient id="SVGID_30_" gradientUnits="userSpaceOnUse" x1="65.9616" y1="435.1071" x2="133.1297" y2="435.1071">
			<stop  offset="0" style="stop-color:#0C1E3C"/>
			<stop  offset="0.1564" style="stop-color:#0D223F"/>
			<stop  offset="0.9637" style="stop-color:#3D88C1"/>
		</linearGradient>
		<path class="st30" d="M131.38,400.84c-5.46-3.1-11.58-4.91-17.74-5.32l-1.15-0.09c-0.38-0.03-0.77,0.01-1.16,0.01l-2.31,0.04
			c-0.77-0.02-1.53,0.15-2.3,0.21c-0.76,0.1-1.53,0.15-2.28,0.29c-3.01,0.6-5.99,1.35-8.77,2.6c-5.62,2.34-10.71,5.91-14.59,10.52
			c-3.91,4.57-6.76,10.02-8.25,15.77c-1.54,5.76-1.45,11.85-0.17,17.56c0.58,2.88,1.62,5.62,2.73,8.32c1.28,2.62,2.63,5.23,4.4,7.56
			l1.28,1.79l1.46,1.65c0.92,1.16,2.06,2.1,3.12,3.13c2.19,1.98,4.6,3.78,7.19,5.29c5.21,3.01,11.12,4.94,17.4,5.75l0.01,0.6
			c-6.37,0.92-13.11-0.01-19.26-2.56c-3.11-1.23-5.96-3.02-8.69-4.98c-1.33-1.04-2.67-2.06-3.84-3.29l-1.81-1.78l-1.63-1.95
			c-1.12-1.28-2-2.74-2.94-4.16c-0.5-0.69-0.85-1.47-1.24-2.22l-1.15-2.28c-0.33-0.78-0.61-1.59-0.92-2.38
			c-0.29-0.8-0.63-1.58-0.82-2.41c-0.42-1.65-0.92-3.27-1.12-4.96l-0.37-2.51l-0.14-2.53c-0.16-1.68,0.01-3.37,0.05-5.05
			c0-0.84,0.16-1.67,0.26-2.51l0.34-2.5l0.58-2.45c0.21-0.81,0.35-1.64,0.66-2.42c1.99-6.4,5.44-12.27,9.98-17.09
			c4.51-4.86,10.25-8.48,16.4-10.7c12.35-4.53,26.55-2.6,37.11,4.54L131.38,400.84z"/>
	</g>
</g>
<g id="ARC_48_">
	<g>
		<linearGradient id="SVGID_31_" gradientUnits="userSpaceOnUse" x1="128.9173" y1="392.1399" x2="169.7003" y2="392.1399">
			<stop  offset="0" style="stop-color:#0C1E3C"/>
			<stop  offset="0.1564" style="stop-color:#0D223F"/>
			<stop  offset="0.9637" style="stop-color:#3D88C1"/>
		</linearGradient>
		<path class="st31" d="M168.49,387.57c-3.47-0.86-6.99-1.17-10.4-0.86c-0.85,0.09-1.69,0.22-2.53,0.32
			c-0.83,0.16-1.65,0.37-2.47,0.55l-2.4,0.72l-2.31,0.92c-0.74,0.39-1.47,0.76-2.18,1.17l-2.01,1.4c-0.64,0.51-1.28,0.99-1.95,1.43
			c-0.63,0.5-1.3,0.93-1.98,1.38c-2.71,1.81-5.28,3.85-8.45,6.13l-0.52-0.29c0.31-3.98,2.34-7.58,5.09-10.41
			c0.71-0.69,1.48-1.32,2.26-1.92c0.82-0.56,1.71-1.01,2.58-1.47c0.92-0.38,1.84-0.72,2.75-1.08c0.94-0.28,1.87-0.57,2.79-0.87
			l2.82-0.66c0.96-0.14,1.91-0.28,2.85-0.4c0.96-0.03,1.91-0.09,2.86-0.09c0.95,0.05,1.9,0.08,2.84,0.16
			c3.76,0.42,7.38,1.53,10.57,3.3L168.49,387.57z"/>
	</g>
</g>
<g id="ARC_47_">
	<g>
		<linearGradient id="SVGID_32_" gradientUnits="userSpaceOnUse" x1="318.5527" y1="361.1439" x2="359.6526" y2="313.5656">
			<stop  offset="0" style="stop-color:#0C1E3C"/>
			<stop  offset="0.1564" style="stop-color:#0D223F"/>
			<stop  offset="0.9637" style="stop-color:#3D88C1"/>
		</linearGradient>
		<path class="st32" d="M370.68,327.99c-2.69-2.9-5.94-5.2-9.48-6.74c-3.54-1.54-7.37-2.3-11.15-2.26
			c-7.57-0.01-14.9,3.3-19.78,8.77c-2.45,2.71-4.2,5.99-5.21,9.41c-1.03,3.42-1.51,6.96-1.44,10.53c0.08,3.56,0.75,7.18,2.15,10.62
			c1.4,3.44,3.39,6.74,6,9.82l-0.37,0.47c-7.47-3.58-12.87-11.72-13.77-20.49c-0.48-4.38,0.16-8.91,1.85-12.98
			c1.69-4.07,4.25-7.72,7.36-10.72c3.11-3,6.81-5.36,10.84-6.8c4.03-1.42,8.32-1.96,12.5-1.62c8.37,0.7,16.24,5.04,20.97,11.61
			L370.68,327.99z"/>
	</g>
</g>
<g id="ARC_32_">
	<g>
		<linearGradient id="SVGID_33_" gradientUnits="userSpaceOnUse" x1="165.2428" y1="376.7426" x2="290.4943" y2="376.7426">
			<stop  offset="0" style="stop-color:#0C1E3C"/>
			<stop  offset="0.1564" style="stop-color:#0D223F"/>
			<stop  offset="0.9637" style="stop-color:#3D88C1"/>
		</linearGradient>
		<path class="st33" d="M252.6,434.71c9.77-4.75,18.15-12.14,23.98-21.17c5.84-9.02,9.08-19.63,9.34-30.25
			c0.19-5.31-0.44-10.63-1.71-15.77c-1.33-5.12-3.28-10.09-5.93-14.66c-2.59-4.6-5.87-8.78-9.6-12.48c-3.77-3.66-8-6.83-12.61-9.33
			c-9.19-5.02-19.74-7.43-30.09-6.87c-2.59,0.14-5.16,0.41-7.71,0.88c-2.54,0.49-5.05,1.1-7.51,1.92c-1.24,0.35-2.44,0.85-3.66,1.28
			c-1.19,0.51-2.4,0.97-3.55,1.55l-3.48,1.73l-3.34,1.99c-4.38,2.77-8.38,6.15-11.9,9.99c-3.55,3.82-6.55,8.16-9.02,12.81
			c-4.83,9.37-7.2,20.06-6.94,30.95l-0.6,0.07c-2-10.82-0.7-22.4,3.71-32.81c2.2-5.21,5.25-10.07,8.84-14.48
			c3.63-4.39,7.9-8.27,12.6-11.53l3.64-2.29c1.26-0.69,2.54-1.34,3.8-2c2.57-1.28,5.24-2.33,7.98-3.2
			c5.47-1.74,11.2-2.61,16.92-2.78c11.46-0.15,22.86,2.89,32.65,8.63c4.91,2.84,9.38,6.4,13.33,10.45c3.9,4.1,7.29,8.67,9.92,13.66
			c2.69,4.95,4.62,10.28,5.87,15.75c1.19,5.48,1.7,11.12,1.35,16.7c-0.67,11.16-4.46,22.07-10.8,31.15
			c-3.19,4.53-6.94,8.65-11.22,12.13c-4.25,3.52-9.04,6.33-14.04,8.56L252.6,434.71z"/>
	</g>
</g>
<g id="ARC_70_">
	<g>
		<linearGradient id="SVGID_34_" gradientUnits="userSpaceOnUse" x1="437.7933" y1="300.9633" x2="453.0781" y2="273.5304">
			<stop  offset="0" style="stop-color:#0C1E3C"/>
			<stop  offset="0.1564" style="stop-color:#0D223F"/>
			<stop  offset="0.9637" style="stop-color:#3D88C1"/>
		</linearGradient>
		<path class="st34" d="M468.59,317.3c0.62-3.81,0.78-7.63,0.42-11.4c-0.46-3.76-1.47-7.4-2.97-10.8l-1.2-2.51l-1.44-2.37
			l-0.36-0.59l-0.42-0.55l-0.83-1.1l-0.83-1.1l-0.93-1.01c-1.17-1.41-2.57-2.6-3.92-3.81l-2.19-1.62c-0.35-0.28-0.74-0.52-1.14-0.74
			l-1.17-0.69c-3.14-1.77-6.55-3.07-10.08-3.63c-3.49-0.73-7.04-0.94-10.6-0.91c-3.57,0.1-7.16,0.58-10.73,1.52
			c-3.58,0.91-7.07,2.33-10.64,3.98l-0.37-0.47c2.57-3.05,5.82-5.61,9.48-7.44c3.64-1.91,7.69-3.07,11.84-3.57
			c4.15-0.43,8.43-0.14,12.43,1.12c4.04,1.11,7.78,3.08,11.22,5.33l1.27,0.88c0.43,0.29,0.85,0.58,1.23,0.93l2.35,2
			c1.44,1.47,2.89,2.91,4.1,4.58l0.93,1.21l0.82,1.3l0.81,1.29l0.4,0.65l0.34,0.68l1.34,2.72l1.07,2.83
			c1.26,3.83,1.93,7.81,2.02,11.78c0.01,3.98-0.6,7.9-1.69,11.65L468.59,317.3z"/>
	</g>
</g>
<g id="ARC_73_">
	<g>
		<linearGradient id="SVGID_35_" gradientUnits="userSpaceOnUse" x1="397.0568" y1="349.4951" x2="412.3416" y2="322.0623">
			<stop  offset="0" style="stop-color:#0C1E3C"/>
			<stop  offset="0.1564" style="stop-color:#0D223F"/>
			<stop  offset="0.9637" style="stop-color:#3D88C1"/>
		</linearGradient>
		<path class="st35" d="M427.85,365.84c0.62-3.81,0.78-7.63,0.42-11.4c-0.46-3.76-1.47-7.4-2.97-10.8l-1.2-2.51l-1.44-2.37
			l-0.36-0.59l-0.42-0.55l-0.83-1.1l-0.83-1.1l-0.93-1.01c-1.17-1.41-2.57-2.6-3.92-3.81l-2.19-1.62c-0.35-0.28-0.74-0.52-1.14-0.74
			l-1.17-0.69c-3.14-1.77-6.55-3.07-10.08-3.63c-3.49-0.73-7.04-0.94-10.6-0.91c-3.57,0.1-7.16,0.58-10.73,1.52
			c-3.58,0.91-7.07,2.33-10.64,3.98l-0.37-0.47c2.57-3.05,5.82-5.61,9.48-7.44c3.64-1.91,7.69-3.07,11.84-3.57
			c4.15-0.43,8.43-0.14,12.43,1.12c4.04,1.11,7.78,3.08,11.22,5.33l1.27,0.88c0.43,0.29,0.85,0.58,1.23,0.93l2.35,2
			c1.44,1.47,2.89,2.91,4.1,4.58l0.93,1.21l0.82,1.3l0.81,1.29l0.4,0.65l0.34,0.68l1.34,2.72l1.07,2.83
			c1.26,3.83,1.93,7.81,2.02,11.78c0.01,3.98-0.6,7.9-1.69,11.65L427.85,365.84z"/>
	</g>
</g>
<g id="ARC_71_">
	<g>
		<linearGradient id="SVGID_36_" gradientUnits="userSpaceOnUse" x1="351.7551" y1="290.1849" x2="334.787" y2="257.8857">
			<stop  offset="0" style="stop-color:#0C1E3C"/>
			<stop  offset="0.1564" style="stop-color:#0D223F"/>
			<stop  offset="0.9637" style="stop-color:#3D88C1"/>
		</linearGradient>
		<path class="st36" d="M388.01,270.33c-3.34-3.11-7.02-5.79-10.98-7.91c-4.02-2.02-8.3-3.42-12.66-4.17l-3.28-0.46l-3.3-0.14
			l-0.82-0.03l-0.82,0.05l-1.64,0.1l-1.64,0.1l-1.62,0.26c-2.18,0.24-4.28,0.85-6.38,1.39l-3.06,1.12c-0.52,0.16-1.01,0.4-1.49,0.64
			l-1.46,0.71c-3.84,1.97-7.41,4.49-10.32,7.64c-3.05,3-5.6,6.43-7.87,10.05c-2.2,3.67-4.05,7.61-5.34,11.81
			c-1.35,4.19-2.1,8.61-2.62,13.21l-0.6,0.05c-1.2-4.53-1.53-9.37-0.91-14.14c0.56-4.78,2.02-9.49,4.23-13.86
			c2.27-4.33,5.29-8.33,9.06-11.47c3.65-3.28,7.95-5.71,12.36-7.66l1.68-0.69c0.55-0.24,1.12-0.46,1.7-0.62l3.47-1.04
			c2.36-0.48,4.72-1,7.12-1.12l1.79-0.15l1.8,0.02l1.79,0.03l0.89,0.02l0.89,0.1l3.55,0.41l3.49,0.74c4.59,1.2,8.97,3.06,12.96,5.5
			c3.95,2.53,7.46,5.63,10.5,9.11L388.01,270.33z"/>
	</g>
</g>
<g id="ARC_72_">
	<g>
		<linearGradient id="SVGID_37_" gradientUnits="userSpaceOnUse" x1="351.3469" y1="296.4329" x2="339.7042" y2="274.2708">
			<stop  offset="0" style="stop-color:#0C1E3C"/>
			<stop  offset="0.1564" style="stop-color:#0D223F"/>
			<stop  offset="0.9637" style="stop-color:#3D88C1"/>
		</linearGradient>
		<path class="st37" d="M374.69,283.36c-2.22-1.96-4.64-3.62-7.22-4.93c-2.62-1.24-5.38-2.06-8.17-2.48
			c-2.79-0.47-5.63-0.35-8.35,0.09c-1.38,0.17-2.7,0.59-4.02,0.95l-1.92,0.74c-0.65,0.22-1.23,0.6-1.84,0.89
			c-2.4,1.28-4.58,2.94-6.35,4.96c-1.86,1.92-3.43,4.05-4.91,6.28c-2.93,4.52-4.8,9.75-5.98,15.74l-0.6,0.05
			c-2.17-5.88-1.53-12.81,1.34-18.71c1.47-2.93,3.52-5.64,6.09-7.7c2.5-2.15,5.43-3.72,8.39-4.98c5.97-2.57,12.71-2.86,18.76-1.25
			c3.02,0.86,5.88,2.15,8.47,3.81c2.56,1.72,4.82,3.81,6.74,6.13L374.69,283.36z"/>
	</g>
</g>
<g id="ARC_18_">
	<g>
		<linearGradient id="SVGID_38_" gradientUnits="userSpaceOnUse" x1="105.6374" y1="842.8521" x2="143.5931" y2="842.8521">
			<stop  offset="0" style="stop-color:#0C1E3C"/>
			<stop  offset="0.1564" style="stop-color:#0D223F"/>
			<stop  offset="0.9637" style="stop-color:#3D88C1"/>
		</linearGradient>
		<path class="st38" d="M140.02,862.33c0.13-4.81-0.66-9.56-2.46-13.84l-0.66-1.6c-0.24-0.52-0.54-1.02-0.8-1.53
			c-0.28-0.5-0.52-1.02-0.82-1.51l-0.95-1.43c-1.23-1.92-2.74-3.62-4.32-5.22c-0.83-0.76-1.7-1.47-2.58-2.16
			c-0.95-0.59-1.84-1.27-2.82-1.78l-1.44-0.81l-0.7-0.42c-0.25-0.12-0.5-0.23-0.74-0.36c-0.98-0.49-1.91-1.08-2.92-1.52l-1.48-0.76
			c-0.5-0.24-1.02-0.42-1.54-0.66l-1.55-0.69c-0.53-0.18-1.07-0.38-1.61-0.58c-2.15-0.9-4.42-1.51-6.85-2.28l-0.03-0.6
			c2.4-0.96,5-1.39,7.59-1.3c0.65,0.01,1.31,0.03,1.96,0.06c0.65,0.06,1.29,0.19,1.94,0.29c0.65,0.11,1.3,0.22,1.94,0.37l1.89,0.59
			c2.53,0.79,4.85,2.16,6.92,3.79c1.04,0.81,1.95,1.78,2.92,2.65c0.46,0.47,0.87,0.98,1.32,1.45c0.43,0.49,0.9,0.94,1.29,1.46
			c1.62,2.03,3.1,4.16,4.24,6.46l0.83,1.73c0.26,0.58,0.46,1.2,0.69,1.79c0.21,0.6,0.46,1.19,0.64,1.8l0.48,1.84
			c1.16,4.93,1.29,10.04,0.19,14.83L140.02,862.33z"/>
	</g>
</g>
<g>
	<linearGradient id="SVGID_39_" gradientUnits="userSpaceOnUse" x1="385.1711" y1="338.7617" x2="391.779" y2="378.0262">
		<stop  offset="0" style="stop-color:#0C1E3C"/>
		<stop  offset="0.1564" style="stop-color:#0D223F"/>
		<stop  offset="0.9637" style="stop-color:#3D88C1"/>
	</linearGradient>
	<path class="st39" d="M354.03,383.68c0.06-4.57,0.62-9.17,1.88-13.64c1.33-4.44,3.24-8.73,5.76-12.69
		c5.1-7.86,12.75-14.32,21.98-17.42c4.59-1.57,9.6-2.19,14.56-1.76c4.95,0.53,9.77,2.22,13.87,4.92c4.12,2.66,7.66,6.08,10.41,9.98
		c2.77,3.88,4.83,8.21,5.93,12.72l-0.55,0.24c-2.64-3.76-5.46-7.2-8.59-10.22c-3.11-3.04-6.6-5.56-10.27-7.56
		c-3.67-2.03-7.58-3.39-11.61-4.19c-4.03-0.71-8.3-0.67-12.38,0.47c-4.09,1.1-7.99,3.01-11.52,5.51c-3.53,2.49-6.77,5.5-9.39,9.04
		c-2.66,3.5-4.82,7.4-6.46,11.55c-1.54,4.19-2.51,8.59-3.03,13.08L354.03,383.68z"/>
</g>
</svg>
