<?xml version="1.0" encoding="UTF-8"?>
<svg width="500px" height="500px" viewBox="0 0 500 500" version="1.1" xmlns="http://www.w3.org/2000/svg" xmlns:xlink="http://www.w3.org/1999/xlink">
    <title>学习</title>
    <defs>
        <path d="M69.6385898,0.551731009 L69.4412236,0.551731009 L69.2151495,0.551731009 L69.0183813,0.551731009 L68.7773553,0.551731009 L68.5357311,0.559501868 L68.3383649,0.564881694 C50.1041152,1.10764633 33.0504746,8.88029888 20.3173608,22.4530012 L20.3173608,22.4530012 C7.55494102,36.054396 0.526310014,54.0014944 0.526310014,72.9880946 L0.526310014,72.9880946 C0.526310014,95.8230635 9.54295748,110.306152 16.7874952,121.94391 L16.7874952,121.94391 C17.6271989,123.293051 18.4884335,124.676264 19.3179698,126.046924 L19.3179698,126.046924 C19.5661728,127.275318 19.8771742,129.390785 19.9256187,131.210959 L19.9256187,131.210959 C20.0057613,136.327771 21.1678299,141.463711 23.3221125,146.3199 L23.3221125,146.3199 L23.3221125,157.599601 L23.3221125,157.64802 L23.3221125,157.696438 C23.3221125,169.010809 28.8148752,179.571407 38.7872538,187.433126 L38.7872538,187.433126 C42.5132894,190.370511 46.6029575,192.755567 50.9707325,194.540473 L50.9707325,194.540473 C53.8720165,196.37858 57.0872922,197.849066 60.5597421,198.923836 L60.5597421,198.923836 L64.4873306,200.139676 L69.3281866,201.638257 L74.1696406,200.139676 L78.0972291,198.923836 C81.5702771,197.849066 84.7849547,196.37858 87.6862387,194.540473 L87.6862387,194.540473 C92.0546118,192.755567 96.1436818,190.370511 99.8697174,187.433126 L99.8697174,187.433126 C109.842096,179.571407 115.334261,169.010809 115.334261,157.696438 L115.334261,157.696438 L115.334261,157.64802 L115.334261,157.599601 L115.334261,146.319303 C117.489739,141.463113 118.651808,136.327173 118.731353,131.210361 L118.731353,131.210361 C118.779797,129.390187 119.0902,127.275318 119.339001,126.047522 L119.339001,126.047522 C120.164949,124.682242 121.022595,123.304408 121.859309,121.960648 L121.859309,121.960648 L121.870074,121.943313 C129.114612,110.305554 138.130661,95.8230635 138.130661,72.9880946 L138.130661,72.9880946 C138.130661,54.0014944 131.102628,36.054396 118.33961,22.4530012 L118.33961,22.4530012 C105.606497,8.88029888 88.552856,1.10764633 70.3209986,0.564881694 L70.3209986,0.564881694 L70.1212401,0.559501868 L69.8796159,0.551731009 L69.6385898,0.551731009 Z" id="path-1"></path>
        <path d="M24.9393196,3.93982565 C21.5888779,5.95845579 17.8861674,10.9276214 17.8861674,10.9276214 L17.8861674,10.9276214 L13.9693443,20.5915816 L13.4639671,14.1997509 C13.4639671,14.1997509 10.0220192,15.055741 5.03403567,25.9737983 L5.03403567,25.9737983 C0.0454540466,36.8918555 0.549635117,65.5017684 0.549635117,65.5017684 L0.549635117,65.5017684 C0.549635117,65.5017684 17.9770754,56.1205479 26.1797366,38.0168369 L26.1797366,38.0168369 C33.2837257,22.3370361 30.7071989,2.90032379 30.5696406,1.15666252 L30.5696406,1.15666252 C30.5373443,0.744806974 30.3926091,0.570261519 30.1473964,0.570261519 L30.1473964,0.570261519 C29.3531468,0.570261519 27.4985021,2.39760897 24.9393196,3.93982565" id="path-3"></path>
        <path d="M0.420449931,12.4889664 C0.810397805,17.4282441 3.52627709,22.18401 3.52627709,22.18401 L3.52627709,22.18401 C3.52627709,22.18401 6.95327298,13.7281196 6.34143759,9.68368618 L6.34143759,9.68368618 C5.73020027,5.63865504 4.73499588,0.454894147 3.55020027,0.255840598 L3.55020027,0.255840598 C3.55020027,0.255840598 0.0305020576,7.54968867 0.420449931,12.4889664" id="path-5"></path>
        <path d="M0.686595336,14.6462765 L4.83308093,18.9967621 L0.938984911,17.8424907 C0.938984911,17.8424907 0.387555556,21.9783811 0.663270233,25.4645081 L0.663270233,25.4645081 C0.938386831,28.9512329 2.0394513,31.7881943 2.0394513,31.7881943 L2.0394513,31.7881943 L7.2804225,35.1750934 L3.45510562,34.8923537 L3.95210974,37.4836364 C4.44971193,40.0761146 20.2760933,58.9999502 20.2760933,58.9999502 L20.2760933,58.9999502 C20.2760933,58.9999502 21.01831,60.9874969 20.100856,38.256538 L20.100856,38.256538 C19.1834019,15.5261768 6.58485597,0.441145704 6.58485597,0.441145704 L6.58485597,0.441145704 C4.46586008,3.2392528 0.686595336,14.6462765 0.686595336,14.6462765" id="path-7"></path>
        <path d="M2.17521536,25.7771357 C-3.8743594,43.0152927 5.94730316,78.4916563 5.94730316,78.4916563 L5.94730316,78.4916563 C5.94730316,78.4916563 18.5039835,64.6374097 23.1038134,53.7504359 L23.1038134,53.7504359 C27.7048395,42.863462 26.7048505,35.146401 26.7048505,35.146401 L26.7048505,35.146401 L20.6869739,37.9594521 L25.6546228,31.7206476 C25.6546228,31.7206476 26.633679,29.3051059 26.4195665,26.593076 L26.4195665,26.593076 C26.2060521,23.8816438 24.4315501,16.2255542 24.4315501,16.2255542 L24.4315501,16.2255542 L20.085904,20.4660523 L23.4417284,13.5750934 C23.4417284,13.5750934 18.5566145,1.09688667 16.9447901,0.444732254 L16.9447901,0.444732254 C16.8891687,0.422017435 16.8263704,0.410660025 16.7575912,0.410660025 L16.7575912,0.410660025 C14.8401481,0.410660025 8.01366804,9.13793275 2.17521536,25.7771357" id="path-9"></path>
        <path d="M0.84508642,9.13733499 C1.43778326,14.7915318 2.32473525,16.767721 2.32473525,16.767721 L2.32473525,16.767721 L6.68533333,16.42401 L2.78764883,18.9238356 C2.78764883,18.9238356 6.52444993,25.4997758 8.38387929,26.8148443 L8.38387929,26.8148443 C10.2421125,28.1299128 11.2941344,28.4855791 11.2941344,28.4855791 L11.2941344,28.4855791 L16.0213553,27.2350685 L12.5489053,29.5555666 C12.5489053,29.5555666 19.7814815,34.1015193 26.1348807,34.9156663 L26.1348807,34.9156663 C32.4876818,35.730411 34.5684005,36.1512329 34.5684005,36.1512329 L34.5684005,36.1512329 C34.5684005,36.1512329 27.3782881,19.1772852 23.1749849,14.100523 L23.1749849,14.100523 C18.9716818,9.02316314 7.62671056,0.563088418 0,0.287521793 L0,0.287521793 C0,0.287521793 0.252389575,3.48313823 0.84508642,9.13733499" id="path-11"></path>
        <path d="M0.87259808,0.617484433 C0.321766804,1.05085928 0.132175583,11.2791034 2.78465844,17.4228643 L2.78465844,17.4228643 C6.36476269,25.7155666 22.9333608,35.5182067 22.9333608,35.5182067 L22.9333608,35.5182067 C22.9333608,35.5182067 23.5051248,22.9993524 22.0362414,19.217335 L22.0362414,19.217335 C20.5679561,15.4353176 19.5787325,12.7848568 19.5787325,12.7848568 L19.5787325,12.7848568 L16.4113032,17.1275716 L17.6660741,10.7913325 C17.6660741,10.7913325 13.4944691,4.88428394 10.0931907,3.78799502 L10.0931907,3.78799502 C6.95745953,2.77778331 2.2356214,0.567870486 1.08491632,0.567272727 L1.08491632,0.567272727 C0.987429355,0.567272727 0.915659808,0.583412204 0.87259808,0.617484433" id="path-13"></path>
        <path d="M0.47666941,0.142266501 L2.32652949,0.459676214 C1.87796982,0.132702366 1.42821399,0.0490161893 1.08431824,0.0490161893 L1.08431824,0.0490161893 C0.721283951,0.0490161893 0.47666941,0.142266501 0.47666941,0.142266501 M4.1405048,6.77140722 C4.1405048,14.7987049 3.45689986,17.8735741 3.45689986,17.8735741 L3.45689986,17.8735741 L8.58303978,16.5065006 L3.62735254,20.2646077 C3.62735254,20.2646077 6.02026886,24.3634371 10.9759561,29.1461021 L10.9759561,29.1461021 C15.9316433,33.9281694 26.7048505,34.577335 28.1498107,33.4158904 L28.1498107,33.4158904 C29.2395117,32.5401743 22.438749,22.8307846 21.4854102,17.4467746 L21.4854102,17.4467746 C20.2043237,10.2091158 22.2545405,9.33339975 19.1786173,6.43008717 L19.1786173,6.43008717 C16.1026941,3.52617684 13.5500905,2.38386052 13.5500905,2.38386052 L13.5500905,2.38386052 L2.32652949,0.459676214 C3.2362085,1.12199253 4.1405048,2.7837609 4.1405048,6.77140722" id="path-15"></path>
        <path d="M23.9788038,0.802789539 L21.2282359,3.50764633 L3.41024966,21.065604 L0.875588477,23.5630386 C0.315187929,24.1159651 -0.110644719,24.8691407 0.770924554,25.7627895 L0.770924554,25.7627895 C1.37020027,26.3701121 1.99638957,26.9917808 1.99638957,26.9917808 L1.99638957,26.9917808 C2.54961317,27.5524782 2.61540192,27.5112329 3.17580247,26.9589041 L3.17580247,26.9589041 L6.24275446,23.9366376 L24.0607407,6.37927771 L26.9668093,3.51721046 C27.527808,2.96488169 27.5020905,2.09514321 26.9500631,1.53444583 L26.9500631,1.53444583 L26.1193306,0.692204234 C25.8705295,0.440547945 25.5266337,0.325778331 25.1719726,0.325778331 L25.1719726,0.325778331 C24.7377668,0.325778331 24.2874129,0.498530511 23.9788038,0.802789539" id="path-17"></path>
        <path d="M21.3334979,1.4686924 L1.77390398,20.7434122 L0.110644719,22.4033873 C0.110644719,22.4033873 0.744010974,23.1099377 1.57893004,23.9563636 L1.57893004,23.9563636 L16.2049657,38.7831631 C17.0398848,39.6289913 18.40231,39.6385554 19.2491907,38.8040847 L19.2491907,38.8040847 L38.9828258,19.358406 C39.8285103,18.5239352 39.8386776,17.1622416 39.0037586,16.3164134 L39.0037586,16.3164134 L24.378321,1.48961395 C23.7575144,0.869738481 23.3705569,0.462665006 22.9016626,0.462665006 L22.9016626,0.462665006 C22.5027435,0.462665006 22.0446145,0.757957659 21.3334979,1.4686924" id="path-19"></path>
        <polygon id="path-21" points="15.1780631 8.37160648 20.6307545 8.38475716 5.48797805 0.304856787 0.252987654 0.261220423"></polygon>
        <polygon id="path-23" points="3.23321811 7.09419676 18.4352044 15.218929 20.8652016 10.6891158 0.483846365 0.0938480697"></polygon>
        <polygon id="path-25" points="0.147725652 7.75531756 15.0129931 16.0127522 18.1684609 8.37160648 3.24338546 0.261220423"></polygon>
        <path d="M0.481454047,2.66420922 C0.253585734,4.09225405 0.835517147,5.32184309 1.78586557,5.49459527 L1.78586557,5.49459527 L1.78347325,5.50535492 L1.81875995,5.50296389 C1.84268313,5.50655044 1.86361591,5.51790785 1.88753909,5.52029888 L1.88753909,5.52029888 C2.05500137,5.53643836 6.90124005,5.18495641 6.90124005,5.18495641 L6.90124005,5.18495641 C6.90124005,5.18495641 3.38692455,0.514072229 2.78525652,0.355068493 L2.78525652,0.355068493 L2.76791221,0.333549191 L2.76432373,0.347895392 C2.74219479,0.341917808 2.721262,0.329364882 2.6979369,0.324582814 L2.6979369,0.324582814 C2.62018656,0.310236613 2.54303429,0.303063243 2.46588203,0.303063243 L2.46588203,0.303063243 C1.55859534,0.302465753 0.698556927,1.29952677 0.481454047,2.66420922" id="path-27"></path>
        <path d="M4.51609877,5.84249066 C-1.32713855,13.3443587 -0.857646091,25.4890162 5.56453224,32.6788543 L5.56453224,32.6788543 C9.62369822,37.1411208 15.4741125,38.2690909 20.462096,36.7633375 L20.462096,36.7633375 C21.1098162,36.6647073 21.8173443,36.6144956 22.6080055,36.5702615 L22.6080055,36.5702615 C24.8926694,36.2337235 27.0607078,36.8524035 28.6504033,38.5291158 L28.6504033,38.5291158 C29.8369931,39.7742466 30.5618656,41.4270486 30.8178436,43.2908593 L30.8178436,43.2908593 C30.8339918,43.5544707 30.8603073,43.8168867 30.8973882,44.0781071 L30.8973882,44.0781071 C30.9015748,44.1444583 30.9069575,44.2102117 30.9099479,44.2765629 L30.9099479,44.2765629 C30.9213114,44.2789539 30.9063594,44.303462 30.9159287,44.3070486 L30.9159287,44.3070486 C30.9141344,44.2693898 30.9153306,44.2311333 30.9141344,44.1928767 L30.9141344,44.1928767 C31.0774102,45.2718306 31.4117366,46.3262765 31.9165158,47.2928518 L31.9165158,47.2928518 C32.316631,48.0579826 32.8220082,48.7681196 33.4332455,49.3933748 L33.4332455,49.3933748 C36.6443347,52.656538 41.5276543,52.3696139 44.3410206,48.8225156 L44.3410206,48.8225156 C47.1537888,45.313076 46.8314239,39.8692902 43.6209328,36.5929763 L43.6209328,36.5929763 C43.3464143,36.3102366 43.0581399,36.0555915 42.7620905,35.8230635 L42.7620905,35.8230635 C41.5719122,34.8887671 40.2220466,34.3543711 38.8650041,34.2198755 L38.8650041,34.2198755 C38.9194294,34.2162889 38.9750508,34.2109091 39.029476,34.2091158 L39.029476,34.2091158 C39.0169163,34.2085181 39.006749,34.2091158 38.9983759,34.2097136 L38.9983759,34.2097136 C38.9828258,34.2103113 38.9726584,34.2109091 38.9666776,34.2049315 L38.9666776,34.2049315 C38.8799561,34.2079203 38.7932346,34.2073225 38.706513,34.2079203 L38.706513,34.2079203 C38.5145295,34.1929763 38.3237421,34.1852055 38.1323567,34.1869988 L38.1323567,34.1869988 C36.4900302,34.0620672 34.9936351,33.3788294 33.8016626,32.12533 L33.8016626,32.12533 C32.6958134,30.9579078 32.0074239,29.4240598 31.714963,27.7066999 L31.714963,27.7066999 C31.4207078,25.3826152 31.6838628,21.3088917 31.6593416,21.2939477 L31.6593416,21.2939477 C32.1683073,15.8262516 30.5588752,10.1523288 26.7227929,5.9022665 L26.7227929,5.9022665 C23.4883786,2.25295143 19.3598354,0.402291407 15.3132291,0.401693649 L15.3132291,0.401693649 C11.3252346,0.401693649 7.41618656,2.19795766 4.51609877,5.84249066" id="path-29"></path>
        <polygon id="path-31" points="0.305020576 11.732802 141.811841 11.732802 140.091764 0.574445828 11.5429355 0.524234122"></polygon>
    </defs>
    <g id="学习" stroke="none" stroke-width="1" fill="none" fill-rule="evenodd">
        <g id="编组-2" transform="translate(32.000000, 10.000000)">
            <g id="编组">
                <g transform="translate(7.775034, 0.468643)">
                    <path d="M160.927301,20.1626899 C123.570653,45.8501619 101.194105,112.037559 69.5287824,128.164483 C9.35360549,158.810959 -18.5198925,165.796364 13.6107358,237.873474 C39.1014848,295.055641 85.4753778,304.441046 102.61275,346.309838 C119.750121,388.17863 83.5716905,409.113325 146.408322,422.434969 C209.244953,435.756613 203.532097,380.566177 287.31467,378.662914 C371.097243,376.760249 426.317331,344.407173 390.138302,275.894496 C353.959274,207.382416 339.690291,210.838057 338.48875,112.987995 C337.061134,-3.33459527 220.432031,-20.7544707 160.927301,20.1626899" id="Fill-1" fill="#FEF9E7"></path>
                    <path d="M153.969961,49.4902117 C114.698861,84.4584807 123.979261,120.857186 59.2532971,147.785006 C13.1515303,166.964085 7.87646859,200.873724 40.1972861,257.406127 C70.663459,310.6933 109.402268,291.620623 123.027717,381.10924 C129.692117,424.8801 173.539722,435.810112 217.282663,393.479253 C277.262866,335.433325 375.326384,393.479253 368.661385,308.790037 C361.997582,224.10142 281.165336,248.806775 307.730833,159.916513 C324.1535,104.966974 306.303218,52.1580075 254.787635,33.0745704 C226.026587,22.4201245 192.322411,15.3396762 153.969961,49.4902117" id="Fill-3" fill="#FCF3CF"></path>
                </g>
                <g transform="translate(154.304527, 65.624309)">
                    <mask id="mask-2" fill="white">
                        <use xlink:href="#path-1"></use>
                    </mask>
                    <g id="Clip-6"></g>
                    <path d="M69.6385898,0.551731009 L69.4412236,0.551731009 L69.2151495,0.551731009 L69.0183813,0.551731009 L68.7773553,0.551731009 L68.5357311,0.559501868 L68.3383649,0.564881694 C50.1041152,1.10764633 33.0504746,8.88029888 20.3173608,22.4530012 L20.3173608,22.4530012 C7.55494102,36.054396 0.526310014,54.0014944 0.526310014,72.9880946 L0.526310014,72.9880946 C0.526310014,95.8230635 9.54295748,110.306152 16.7874952,121.94391 L16.7874952,121.94391 C17.6271989,123.293051 18.4884335,124.676264 19.3179698,126.046924 L19.3179698,126.046924 C19.5661728,127.275318 19.8771742,129.390785 19.9256187,131.210959 L19.9256187,131.210959 C20.0057613,136.327771 21.1678299,141.463711 23.3221125,146.3199 L23.3221125,146.3199 L23.3221125,157.599601 L23.3221125,157.64802 L23.3221125,157.696438 C23.3221125,169.010809 28.8148752,179.571407 38.7872538,187.433126 L38.7872538,187.433126 C42.5132894,190.370511 46.6029575,192.755567 50.9707325,194.540473 L50.9707325,194.540473 C53.8720165,196.37858 57.0872922,197.849066 60.5597421,198.923836 L60.5597421,198.923836 L64.4873306,200.139676 L69.3281866,201.638257 L74.1696406,200.139676 L78.0972291,198.923836 C81.5702771,197.849066 84.7849547,196.37858 87.6862387,194.540473 L87.6862387,194.540473 C92.0546118,192.755567 96.1436818,190.370511 99.8697174,187.433126 L99.8697174,187.433126 C109.842096,179.571407 115.334261,169.010809 115.334261,157.696438 L115.334261,157.696438 L115.334261,157.64802 L115.334261,157.599601 L115.334261,146.319303 C117.489739,141.463113 118.651808,136.327173 118.731353,131.210361 L118.731353,131.210361 C118.779797,129.390187 119.0902,127.275318 119.339001,126.047522 L119.339001,126.047522 C120.164949,124.682242 121.022595,123.304408 121.859309,121.960648 L121.859309,121.960648 L121.870074,121.943313 C129.114612,110.305554 138.130661,95.8230635 138.130661,72.9880946 L138.130661,72.9880946 C138.130661,54.0014944 131.102628,36.054396 118.33961,22.4530012 L118.33961,22.4530012 C105.606497,8.88029888 88.552856,1.10764633 70.3209986,0.564881694 L70.3209986,0.564881694 L70.1212401,0.559501868 L69.8796159,0.551731009 L69.6385898,0.551731009 Z" id="Fill-5" mask="url(#mask-2)"></path>
                </g>
                <g transform="translate(180.620027, 106.271880)">
                    <path d="M60.3083095,114.618979 L25.71778,114.618979 L25.71778,136.303263 C25.71778,136.325978 25.7201723,136.348692 25.7213684,136.371407 C25.7207704,136.38396 25.71778,136.395915 25.71778,136.408468 C25.71778,138.609415 31.3714261,143.93604 38.9748115,145.441793 C39.128518,146.909888 43.0130447,148.068344 43.0130447,148.068344 C43.0130447,148.068344 46.8975715,146.909888 47.0512779,145.441793 C54.6546634,143.93604 60.3083095,138.609415 60.3083095,136.408468 C60.3083095,136.395915 60.3053191,136.38396 60.304721,136.371407 C60.3059171,136.348692 60.3083095,136.325978 60.3083095,136.303263 L60.3083095,114.618979 Z" id="Fill-7" fill="#F7DC6F"></path>
                    <path d="M43.1400768,0.260323786 L43.1400768,0.25135741 C43.0976132,0.252552927 43.0551495,0.25494396 43.013284,0.256139477 C42.9702222,0.25494396 42.9283567,0.252552927 42.885893,0.25135741 L42.885893,0.260323786 C19.0901015,0.942963885 0.00837311385,20.4334745 0.00837311385,44.3820672 C0.00837311385,61.9406227 8.51605487,71.566924 17.0775638,85.5275716 C21.6415089,92.9696638 21.8819369,107.014595 21.8819369,107.014595 C21.8819369,109.087621 23.5398134,111.819975 25.4255583,113.457833 L39.0438299,113.457833 L25.81431,54.3203985 L33.7203237,54.3203985 L33.7203237,55.046675 L34.2556049,54.6443836 L34.8794019,55.47467 L37.5821235,51.8725778 L40.2842469,55.4734745 L42.9857723,51.8725778 L45.6872977,55.4734745 L48.3906173,51.8725778 L51.0939369,55.4740722 L51.770963,54.5726526 L52.3247846,54.9886924 L52.3247846,54.3203985 L60.212856,54.3203985 L46.9133608,113.457833 L60.6004115,113.457833 C62.4861564,111.819975 64.144631,109.087621 64.144631,107.014595 C64.144631,107.014595 64.3844609,92.9696638 68.948406,85.5275716 C77.509915,71.566924 86.0175967,61.9406227 86.0175967,44.3820672 C86.0175967,20.4334745 66.9364664,0.942963885 43.1400768,0.260323786" id="Fill-9" fill="#FFFFFF"></path>
                    <polygon id="Fill-11" fill="#FFFFFF" points="52.7957723 55.9931656 51.0924417 58.2604633 48.3909163 54.6601644 45.6875967 58.261061 42.9854733 54.6607621 40.2839479 58.261061 37.5824225 54.6607621 34.8820933 58.2598655 33.1763704 55.9931656 27.9031029 55.9931656 40.758823 113.457474 45.1977695 113.457474 58.1210727 55.9931656"></polygon>
                    <path d="M25.1019374,118.968807 L60.9245108,118.968807 C61.632637,118.968807 62.2061953,118.395557 62.2061953,117.687811 C62.2061953,116.980065 61.632637,116.406814 60.9245108,116.406814 L25.1019374,116.406814 C24.3938112,116.406814 23.8202529,116.980065 23.8202529,117.687811 C23.8202529,118.395557 24.3938112,118.968807 25.1019374,118.968807" id="Fill-13" fill="#F7DC6F"></path>
                    <path d="M60.9245108,119.865146 L25.1019374,119.865146 C24.3938112,119.865146 23.8202529,120.438396 23.8202529,121.146142 C23.8202529,121.853888 24.3938112,122.427138 25.1019374,122.427138 L60.9245108,122.427138 C61.632637,122.427138 62.2061953,121.853888 62.2061953,121.146142 C62.2061953,120.438396 61.632637,119.865146 60.9245108,119.865146" id="Fill-15" fill="#F7DC6F"></path>
                    <path d="M60.9245108,123.323238 L25.1019374,123.323238 C24.3938112,123.323238 23.8202529,123.896488 23.8202529,124.604234 C23.8202529,125.31198 24.3938112,125.88523 25.1019374,125.88523 L60.9245108,125.88523 C61.632637,125.88523 62.2061953,125.31198 62.2061953,124.604234 C62.2061953,123.896488 61.632637,123.323238 60.9245108,123.323238" id="Fill-17" fill="#F7DC6F"></path>
                    <path d="M60.9245108,126.78139 L25.1019374,126.78139 C24.3938112,126.78139 23.8202529,127.35464 23.8202529,128.062386 C23.8202529,128.770132 24.3938112,129.343382 25.1019374,129.343382 L60.9245108,129.343382 C61.632637,129.343382 62.2061953,128.770132 62.2061953,128.062386 C62.2061953,127.35464 61.632637,126.78139 60.9245108,126.78139" id="Fill-19" fill="#F7DC6F"></path>
                    <path d="M60.9245108,130.238944 L25.1019374,130.238944 C24.3938112,130.238944 23.8202529,130.812194 23.8202529,131.51994 C23.8202529,132.227686 24.3938112,132.800936 25.1019374,132.800936 L60.9245108,132.800936 C61.632637,132.800936 62.2061953,132.227686 62.2061953,131.51994 C62.2061953,130.812194 61.632637,130.238944 60.9245108,130.238944" id="Fill-21" fill="#F7DC6F"></path>
                    <path d="M60.9245108,133.697335 L25.1019374,133.697335 C24.3938112,133.697335 23.8202529,134.270585 23.8202529,134.978331 C23.8202529,135.685479 24.3938112,136.259328 25.1019374,136.259328 L60.9245108,136.259328 C61.632637,136.259328 62.2061953,135.685479 62.2061953,134.978331 C62.2061953,134.270585 61.632637,133.697335 60.9245108,133.697335" id="Fill-23" fill="#F7DC6F"></path>
                </g>
                <g transform="translate(38.277092, 124.802391)">
                    <mask id="mask-4" fill="white">
                        <use xlink:href="#path-3"></use>
                    </mask>
                    <g id="Clip-26"></g>
                    <path d="M24.9393196,3.93982565 C21.5888779,5.95845579 17.8861674,10.9276214 17.8861674,10.9276214 L17.8861674,10.9276214 L13.9693443,20.5915816 L13.4639671,14.1997509 C13.4639671,14.1997509 10.0220192,15.055741 5.03403567,25.9737983 L5.03403567,25.9737983 C0.0454540466,36.8918555 0.549635117,65.5017684 0.549635117,65.5017684 L0.549635117,65.5017684 C0.549635117,65.5017684 17.9770754,56.1205479 26.1797366,38.0168369 L26.1797366,38.0168369 C33.2837257,22.3370361 30.7071989,2.90032379 30.5696406,1.15666252 L30.5696406,1.15666252 C30.5373443,0.744806974 30.3926091,0.570261519 30.1473964,0.570261519 L30.1473964,0.570261519 C29.3531468,0.570261519 27.4985021,2.39760897 24.9393196,3.93982565" id="Fill-25" mask="url(#mask-4)"></path>
                </g>
                <g transform="translate(26.913580, 103.880847)">
                    <mask id="mask-6" fill="white">
                        <use xlink:href="#path-5"></use>
                    </mask>
                    <g id="Clip-28"></g>
                    <path d="M0.420449931,12.4889664 C0.810397805,17.4282441 3.52627709,22.18401 3.52627709,22.18401 L3.52627709,22.18401 C3.52627709,22.18401 6.95327298,13.7281196 6.34143759,9.68368618 L6.34143759,9.68368618 C5.73020027,5.63865504 4.73499588,0.454894147 3.55020027,0.255840598 L3.55020027,0.255840598 C3.55020027,0.255840598 0.0305020576,7.54968867 0.420449931,12.4889664" id="Fill-27" fill="#FFEEA8" mask="url(#mask-6)"></path>
                </g>
                <g transform="translate(14.353909, 116.433773)">
                    <mask id="mask-8" fill="white">
                        <use xlink:href="#path-7"></use>
                    </mask>
                    <g id="Clip-30"></g>
                    <path d="M0.686595336,14.6462765 L4.83308093,18.9967621 L0.938984911,17.8424907 C0.938984911,17.8424907 0.387555556,21.9783811 0.663270233,25.4645081 L0.663270233,25.4645081 C0.938386831,28.9512329 2.0394513,31.7881943 2.0394513,31.7881943 L2.0394513,31.7881943 L7.2804225,35.1750934 L3.45510562,34.8923537 L3.95210974,37.4836364 C4.44971193,40.0761146 20.2760933,58.9999502 20.2760933,58.9999502 L20.2760933,58.9999502 C20.2760933,58.9999502 21.01831,60.9874969 20.100856,38.256538 L20.100856,38.256538 C19.1834019,15.5261768 6.58485597,0.441145704 6.58485597,0.441145704 L6.58485597,0.441145704 C4.46586008,3.2392528 0.686595336,14.6462765 0.686595336,14.6462765" id="Fill-29" fill="#FFEEA8" mask="url(#mask-8)"></path>
                </g>
                <g transform="translate(29.903978, 107.467397)">
                    <mask id="mask-10" fill="white">
                        <use xlink:href="#path-9"></use>
                    </mask>
                    <g id="Clip-32"></g>
                    <path d="M2.17521536,25.7771357 C-3.8743594,43.0152927 5.94730316,78.4916563 5.94730316,78.4916563 L5.94730316,78.4916563 C5.94730316,78.4916563 18.5039835,64.6374097 23.1038134,53.7504359 L23.1038134,53.7504359 C27.7048395,42.863462 26.7048505,35.146401 26.7048505,35.146401 L26.7048505,35.146401 L20.6869739,37.9594521 L25.6546228,31.7206476 C25.6546228,31.7206476 26.633679,29.3051059 26.4195665,26.593076 L26.4195665,26.593076 C26.2060521,23.8816438 24.4315501,16.2255542 24.4315501,16.2255542 L24.4315501,16.2255542 L20.085904,20.4660523 L23.4417284,13.5750934 C23.4417284,13.5750934 18.5566145,1.09688667 16.9447901,0.444732254 L16.9447901,0.444732254 C16.8891687,0.422017435 16.8263704,0.410660025 16.7575912,0.410660025 L16.7575912,0.410660025 C14.8401481,0.410660025 8.01366804,9.13793275 2.17521536,25.7771357" id="Fill-31" fill="#FFEEA8" mask="url(#mask-10)"></path>
                </g>
                <g transform="translate(0.000000, 158.874620)">
                    <mask id="mask-12" fill="white">
                        <use xlink:href="#path-11"></use>
                    </mask>
                    <g id="Clip-34"></g>
                    <path d="M0.84508642,9.13733499 C1.43778326,14.7915318 2.32473525,16.767721 2.32473525,16.767721 L2.32473525,16.767721 L6.68533333,16.42401 L2.78764883,18.9238356 C2.78764883,18.9238356 6.52444993,25.4997758 8.38387929,26.8148443 L8.38387929,26.8148443 C10.2421125,28.1299128 11.2941344,28.4855791 11.2941344,28.4855791 L11.2941344,28.4855791 L16.0213553,27.2350685 L12.5489053,29.5555666 C12.5489053,29.5555666 19.7814815,34.1015193 26.1348807,34.9156663 L26.1348807,34.9156663 C32.4876818,35.730411 34.5684005,36.1512329 34.5684005,36.1512329 L34.5684005,36.1512329 C34.5684005,36.1512329 27.3782881,19.1772852 23.1749849,14.100523 L23.1749849,14.100523 C18.9716818,9.02316314 7.62671056,0.563088418 0,0.287521793 L0,0.287521793 C0,0.287521793 0.252389575,3.48313823 0.84508642,9.13733499" id="Fill-33" fill="#FFEEA8" mask="url(#mask-12)"></path>
                </g>
                <g transform="translate(10.765432, 155.288070)">
                    <mask id="mask-14" fill="white">
                        <use xlink:href="#path-13"></use>
                    </mask>
                    <g id="Clip-36"></g>
                    <path d="M0.87259808,0.617484433 C0.321766804,1.05085928 0.132175583,11.2791034 2.78465844,17.4228643 L2.78465844,17.4228643 C6.36476269,25.7155666 22.9333608,35.5182067 22.9333608,35.5182067 L22.9333608,35.5182067 C22.9333608,35.5182067 23.5051248,22.9993524 22.0362414,19.217335 L22.0362414,19.217335 C20.5679561,15.4353176 19.5787325,12.7848568 19.5787325,12.7848568 L19.5787325,12.7848568 L16.4113032,17.1275716 L17.6660741,10.7913325 C17.6660741,10.7913325 13.4944691,4.88428394 10.0931907,3.78799502 L10.0931907,3.78799502 C6.95745953,2.77778331 2.2356214,0.567870486 1.08491632,0.567272727 L1.08491632,0.567272727 C0.987429355,0.567272727 0.915659808,0.583412204 0.87259808,0.617484433" id="Fill-35" fill="#FFEEA8" mask="url(#mask-14)"></path>
                </g>
                <g transform="translate(19.736626, 180.393923)">
                    <path d="M25.9280647,20.3407024 C25.9280647,16.761325 24.9807067,13.4575143 23.3802458,10.7962939 L2.81468203,10.7962939 C1.2148192,13.4575143 0.26746118,16.761325 0.26746118,20.3407024 C0.26746118,26.2232428 2.82903594,31.3591831 6.63940082,34.1262067 C6.60710453,34.2296189 6.58557366,34.3372154 6.58557366,34.4513873 L6.58557366,35.7144508 C6.58557366,36.3307397 7.08556818,36.8310635 7.70278628,36.8310635 L18.540586,36.8310635 C19.1584022,36.8310635 19.6583967,36.3307397 19.6583967,35.7144508 L19.6583967,34.4513873 C19.6583967,34.3264558 19.6338754,34.2092951 19.5961964,34.0975143 C23.3844324,31.3239153 25.9280647,26.2029191 25.9280647,20.3407024" id="Fill-37" fill="#F7DC6F"></path>
                    <path d="M12.5127813,10.1875367 C12.5127813,10.1875367 15.930806,-0.231392279 18.8356785,0.110525529 C21.741149,0.451845579 27.7219446,2.33060025 30.9689185,2.33060025 C34.2158925,2.33060025 28.747651,8.30878207 23.7913657,9.16297883 C18.8356785,10.0165778 12.5127813,10.1875367 12.5127813,10.1875367" id="Fill-39" fill="#FFE373"></path>
                </g>
                <g transform="translate(37.679012, 180.393923)">
                    <mask id="mask-16" fill="white">
                        <use xlink:href="#path-15"></use>
                    </mask>
                    <g id="Clip-42"></g>
                    <path d="M0.47666941,0.142266501 L2.32652949,0.459676214 C1.87796982,0.132702366 1.42821399,0.0490161893 1.08431824,0.0490161893 L1.08431824,0.0490161893 C0.721283951,0.0490161893 0.47666941,0.142266501 0.47666941,0.142266501 M4.1405048,6.77140722 C4.1405048,14.7987049 3.45689986,17.8735741 3.45689986,17.8735741 L3.45689986,17.8735741 L8.58303978,16.5065006 L3.62735254,20.2646077 C3.62735254,20.2646077 6.02026886,24.3634371 10.9759561,29.1461021 L10.9759561,29.1461021 C15.9316433,33.9281694 26.7048505,34.577335 28.1498107,33.4158904 L28.1498107,33.4158904 C29.2395117,32.5401743 22.438749,22.8307846 21.4854102,17.4467746 L21.4854102,17.4467746 C20.2043237,10.2091158 22.2545405,9.33339975 19.1786173,6.43008717 L19.1786173,6.43008717 C16.1026941,3.52617684 13.5500905,2.38386052 13.5500905,2.38386052 L13.5500905,2.38386052 L2.32652949,0.459676214 C3.2362085,1.12199253 4.1405048,2.7837609 4.1405048,6.77140722" id="Fill-41" fill="#FFEEA8" mask="url(#mask-16)"></path>
                </g>
                <path d="M300.877021,168.233843 L285.973477,153.125499 C285.21571,152.35738 285.224681,151.120618 285.993213,150.363258 L306.008544,130.639621 C306.777076,129.882262 308.014503,129.89063 308.772269,130.659347 L323.676412,145.767691 C324.434179,146.535811 324.139326,147.48266 323.370195,148.24002 L303.355463,167.963656 C302.308824,168.99479 301.635386,169.001963 300.877021,168.233843" id="Fill-43" fill="#F7DC6F"></path>
                <g transform="translate(283.489712, 125.400149)">
                    <mask id="mask-18" fill="white">
                        <use xlink:href="#path-17"></use>
                    </mask>
                    <g id="Clip-46"></g>
                    <path d="M23.9788038,0.802789539 L21.2282359,3.50764633 L3.41024966,21.065604 L0.875588477,23.5630386 C0.315187929,24.1159651 -0.110644719,24.8691407 0.770924554,25.7627895 L0.770924554,25.7627895 C1.37020027,26.3701121 1.99638957,26.9917808 1.99638957,26.9917808 L1.99638957,26.9917808 C2.54961317,27.5524782 2.61540192,27.5112329 3.17580247,26.9589041 L3.17580247,26.9589041 L6.24275446,23.9366376 L24.0607407,6.37927771 L26.9668093,3.51721046 C27.527808,2.96488169 27.5020905,2.09514321 26.9500631,1.53444583 L26.9500631,1.53444583 L26.1193306,0.692204234 C25.8705295,0.440547945 25.5266337,0.325778331 25.1719726,0.325778331 L25.1719726,0.325778331 C24.7377668,0.325778331 24.2874129,0.498530511 23.9788038,0.802789539" id="Fill-45" mask="url(#mask-18)"></path>
                </g>
                <path d="M309.40438,129.07457 L288.202459,149.967422 L287.460841,149.214844 C286.827474,148.57345 285.784424,148.565679 285.142684,149.198705 C283.992577,150.331457 284.49317,150.873624 285.125938,151.515019 L286.801159,153.21325 L286.801159,153.21325 L302.10123,168.723288 C302.10123,168.723288 302.260917,168.021519 302.995957,167.296438 C303.886498,166.418929 304.563524,166.296986 304.563524,166.296986 L325.638053,145.530262 L309.40438,129.07457 Z" id="Fill-47" fill="#FEF9E7"></path>
                <g transform="translate(287.078189, 126.595666)">
                    <mask id="mask-20" fill="white">
                        <use xlink:href="#path-19"></use>
                    </mask>
                    <g id="Clip-50"></g>
                    <path d="M21.3334979,1.4686924 L1.77390398,20.7434122 L0.110644719,22.4033873 C0.110644719,22.4033873 0.744010974,23.1099377 1.57893004,23.9563636 L1.57893004,23.9563636 L16.2049657,38.7831631 C17.0398848,39.6289913 18.40231,39.6385554 19.2491907,38.8040847 L19.2491907,38.8040847 L38.9828258,19.358406 C39.8285103,18.5239352 39.8386776,17.1622416 39.0037586,16.3164134 L39.0037586,16.3164134 L24.378321,1.48961395 C23.7575144,0.869738481 23.3705569,0.462665006 22.9016626,0.462665006 L22.9016626,0.462665006 C22.5027435,0.462665006 22.0446145,0.757957659 21.3334979,1.4686924" id="Fill-49" mask="url(#mask-20)"></path>
                </g>
                <g transform="translate(160.285322, 75.786202)">
                    <mask id="mask-22" fill="white">
                        <use xlink:href="#path-21"></use>
                    </mask>
                    <g id="Clip-52"></g>
                </g>
                <g transform="translate(156.696845, 82.959303)">
                    <mask id="mask-24" fill="white">
                        <use xlink:href="#path-23"></use>
                    </mask>
                    <g id="Clip-54"></g>
                </g>
                <g transform="translate(157.294925, 75.786202)">
                    <mask id="mask-26" fill="white">
                        <use xlink:href="#path-25"></use>
                    </mask>
                    <g id="Clip-56"></g>
                </g>
                <g transform="translate(178.227709, 88.936887)">
                    <mask id="mask-28" fill="white">
                        <use xlink:href="#path-27"></use>
                    </mask>
                    <g id="Clip-62"></g>
                    <path d="M0.481454047,2.66420922 C0.253585734,4.09225405 0.835517147,5.32184309 1.78586557,5.49459527 L1.78586557,5.49459527 L1.78347325,5.50535492 L1.81875995,5.50296389 C1.84268313,5.50655044 1.86361591,5.51790785 1.88753909,5.52029888 L1.88753909,5.52029888 C2.05500137,5.53643836 6.90124005,5.18495641 6.90124005,5.18495641 L6.90124005,5.18495641 C6.90124005,5.18495641 3.38692455,0.514072229 2.78525652,0.355068493 L2.78525652,0.355068493 L2.76791221,0.333549191 L2.76432373,0.347895392 C2.74219479,0.341917808 2.721262,0.329364882 2.6979369,0.324582814 L2.6979369,0.324582814 C2.62018656,0.310236613 2.54303429,0.303063243 2.46588203,0.303063243 L2.46588203,0.303063243 C1.55859534,0.302465753 0.698556927,1.29952677 0.481454047,2.66420922" id="Fill-61" mask="url(#mask-28)"></path>
                </g>
                <g transform="translate(252.696845, 56.657933)" fill="#F7DC6F" id="Fill-65">
                    <path d="M44.1589284,36.7119303 C43.8844099,36.4297883 43.5967336,36.1745455 43.3000861,35.9420174 C42.1099078,35.0071233 40.7606403,34.473325 39.4029997,34.3388294 C39.458023,34.3352428 39.5130464,34.329863 39.5674716,34.3280697 C39.5339791,34.3256787 39.5148406,34.3334496 39.5052713,34.3232877 C39.4179517,34.3268742 39.3312302,34.3268742 39.2445086,34.3268742 C39.0531232,34.3119303 38.8617377,34.3047572 38.6709503,34.3059527 C37.0286239,34.1816189 35.5316307,33.4983811 34.3396582,32.2442839 C33.2344071,31.0774595 32.5454195,29.5430137 32.2529586,27.8262516 C31.9593015,25.5021669 32.2218584,21.4278456 32.1973372,21.4129016 C32.706901,15.9452055 31.0968708,10.2718804 27.2613866,6.02062267 C20.8392082,-1.22361146 10.8967336,-1.38022416 5.05409438,5.96144458 C-0.788544856,13.4633126 -0.319052401,25.6085679 6.10252785,32.798406 C10.1616938,37.2600747 16.0121081,38.3886426 21.0000916,36.8822914 C21.6478118,36.7836613 22.3553399,36.7334496 23.1460011,36.6892154 C25.4312631,36.3526775 27.5993015,36.9719552 29.1883989,38.6486675 C30.3749888,39.8937983 31.0998612,41.5466002 31.3558392,43.4098132 C31.3725855,43.6734247 31.398901,43.9358406 31.4353838,44.197061 C31.4395704,44.2634122 31.4455512,44.3291656 31.4485416,44.3961146 C31.459307,44.3979078 31.4449531,44.4224159 31.4545224,44.4260025 C31.4527281,44.3883437 31.4533262,44.3500872 31.4527281,44.3118306 C31.6154058,45.3919801 31.9497322,46.4452304 32.4551095,47.4118057 C32.8552247,48.1769365 33.3606019,48.8870735 33.9718392,49.5129265 C37.1823303,52.7754919 42.0656499,52.4891656 44.8790162,48.9420672 C47.6923824,45.4320299 47.3700176,39.9876463 44.1589284,36.7119303"></path>
                </g>
                <g transform="translate(254.183813, 57.255691)">
                    <mask id="mask-30" fill="white">
                        <use xlink:href="#path-29"></use>
                    </mask>
                    <g id="Clip-68"></g>
                    <path d="M4.51609877,5.84249066 C-1.32713855,13.3443587 -0.857646091,25.4890162 5.56453224,32.6788543 L5.56453224,32.6788543 C9.62369822,37.1411208 15.4741125,38.2690909 20.462096,36.7633375 L20.462096,36.7633375 C21.1098162,36.6647073 21.8173443,36.6144956 22.6080055,36.5702615 L22.6080055,36.5702615 C24.8926694,36.2337235 27.0607078,36.8524035 28.6504033,38.5291158 L28.6504033,38.5291158 C29.8369931,39.7742466 30.5618656,41.4270486 30.8178436,43.2908593 L30.8178436,43.2908593 C30.8339918,43.5544707 30.8603073,43.8168867 30.8973882,44.0781071 L30.8973882,44.0781071 C30.9015748,44.1444583 30.9069575,44.2102117 30.9099479,44.2765629 L30.9099479,44.2765629 C30.9213114,44.2789539 30.9063594,44.303462 30.9159287,44.3070486 L30.9159287,44.3070486 C30.9141344,44.2693898 30.9153306,44.2311333 30.9141344,44.1928767 L30.9141344,44.1928767 C31.0774102,45.2718306 31.4117366,46.3262765 31.9165158,47.2928518 L31.9165158,47.2928518 C32.316631,48.0579826 32.8220082,48.7681196 33.4332455,49.3933748 L33.4332455,49.3933748 C36.6443347,52.656538 41.5276543,52.3696139 44.3410206,48.8225156 L44.3410206,48.8225156 C47.1537888,45.313076 46.8314239,39.8692902 43.6209328,36.5929763 L43.6209328,36.5929763 C43.3464143,36.3102366 43.0581399,36.0555915 42.7620905,35.8230635 L42.7620905,35.8230635 C41.5719122,34.8887671 40.2220466,34.3543711 38.8650041,34.2198755 L38.8650041,34.2198755 C38.9194294,34.2162889 38.9750508,34.2109091 39.029476,34.2091158 L39.029476,34.2091158 C39.0169163,34.2085181 39.006749,34.2091158 38.9983759,34.2097136 L38.9983759,34.2097136 C38.9828258,34.2103113 38.9726584,34.2109091 38.9666776,34.2049315 L38.9666776,34.2049315 C38.8799561,34.2079203 38.7932346,34.2073225 38.706513,34.2079203 L38.706513,34.2079203 C38.5145295,34.1929763 38.3237421,34.1852055 38.1323567,34.1869988 L38.1323567,34.1869988 C36.4900302,34.0620672 34.9936351,33.3788294 33.8016626,32.12533 L33.8016626,32.12533 C32.6958134,30.9579078 32.0074239,29.4240598 31.714963,27.7066999 L31.714963,27.7066999 C31.4207078,25.3826152 31.6838628,21.3088917 31.6593416,21.2939477 L31.6593416,21.2939477 C32.1683073,15.8262516 30.5588752,10.1523288 26.7227929,5.9022665 L26.7227929,5.9022665 C23.4883786,2.25295143 19.3598354,0.402291407 15.3132291,0.401693649 L15.3132291,0.401693649 C11.3252346,0.401693649 7.41618656,2.19795766 4.51609877,5.84249066" id="Fill-67" mask="url(#mask-30)"></path>
                </g>
                <g transform="translate(194.375857, 39.920697)">
                    <path d="M75.8303281,44.4982715 C71.9380263,44.0421818 69.0313597,39.8734147 69.3519303,35.2150834 C69.672501,30.5627298 73.0994968,27.2511482 76.9917986,27.8238007 C80.8846985,28.3910735 83.7907671,32.5353325 83.4701964,37.071721 C83.1502239,41.6134894 79.723228,44.9489813 75.8303281,44.4982715 M86.9001827,35.5049963 L85.0760401,35.0220075 C85.0012801,34.4003387 84.8834584,33.7906252 84.7165942,33.2018331 L86.1531813,32.1569514 C86.3577246,32.0093051 86.4318864,31.7044483 86.3272225,31.4426301 L85.6663446,29.7874371 C85.5598864,29.5184458 85.2997218,29.3785704 85.0628823,29.4622565 L83.3033322,30.084523 C82.9761827,29.5800149 82.6125503,29.1095791 82.2154255,28.676802 L82.9875462,26.9092304 C83.0975929,26.6587696 83.0294118,26.3437509 82.827859,26.170401 L81.557538,25.0711233 C81.3512005,24.8923935 81.0712993,24.9180971 80.9068274,25.1308991 L79.6927259,26.7030037 C79.2052911,26.4471631 78.6921388,26.2457186 78.1622403,26.0920946 L78.0605668,24.054934 C78.0456148,23.7650212 77.8536313,23.5223313 77.6096148,23.4846725 L76.0689619,23.2467646 C75.8195627,23.2085081 75.5940867,23.3973998 75.5462403,23.6861171 L75.1879907,25.8326675 C74.6580922,25.8948344 74.1401553,26.009604 73.641955,26.1835517 L72.6910085,24.4153823 C72.5558425,24.1643238 72.2914914,24.0609116 72.0702019,24.1738879 L70.67249,24.8864159 C70.4464159,25.0023811 70.3363693,25.3078356 70.4177081,25.5953574 L71.025955,27.7502765 C70.6108878,28.1184956 70.2269207,28.5315467 69.875848,28.9864408 L68.3184488,27.9774247 C68.0995517,27.8351582 67.8334063,27.9039004 67.6940538,28.1394172 L66.8136807,29.6278356 C66.6713377,29.86933 66.7060263,30.208259 66.8950195,30.4144857 L68.2921333,31.9393674 C68.0947671,32.5156065 67.9458453,33.1241245 67.8375929,33.7547597 L66.1139276,33.81334 C65.8699111,33.8211108 65.673741,34.045868 65.6534063,34.3393674 L65.5266134,36.1942117 C65.5056807,36.4948842 65.6761333,36.7722441 65.921944,36.8379975 L67.7466848,37.3269639 C67.8220428,37.9689564 67.9416587,38.596005 68.109121,39.199741 L66.6695435,40.3020075 C66.4650003,40.4592179 66.3908384,40.7760299 66.4955023,41.0456189 L67.1557822,42.7438506 C67.2628384,43.0182217 67.523003,43.1563039 67.7598425,43.0636513 L69.5337465,42.3738381 C69.8591018,42.8771507 70.2209399,43.344 70.6156724,43.7713973 L69.8345805,45.622655 C69.725132,45.88268 69.792715,46.2030785 69.9942678,46.3728418 L71.2651868,47.4440249 C71.4709262,47.6173748 71.7508274,47.5791183 71.9158974,47.3561544 L73.1371759,45.7063412 C73.6228165,45.9496289 74.1335764,46.1355318 74.6598864,46.2724184 L74.762158,48.322132 C74.7765119,48.6126426 74.9690936,48.8481594 75.2125119,48.8744608 L76.7531649,49.0418331 C77.0025641,49.0687323 77.2280401,48.8696787 77.2758864,48.5803636 L77.633538,46.4308244 C78.1664269,46.3519203 78.6867561,46.2210112 79.1867506,46.0327173 L80.1317163,47.7345355 C80.2662842,47.9766276 80.5306354,48.0674869 80.7519248,47.9473375 L82.1496368,47.1911731 C82.3763089,47.0692304 82.4857575,46.7661669 82.4050167,46.4882092 L81.8033487,44.4175741 C82.2214063,44.0421818 82.6083638,43.6231532 82.9612307,43.1640747 L84.5036779,44.1001644 C84.7231731,44.232269 84.9893185,44.1581469 85.1286711,43.9262167 L86.0084461,42.4658929 C86.1513871,42.2297783 86.1161004,41.9034022 85.9277053,41.7073375 L84.5335819,40.253589 C84.729752,39.6905006 84.8780757,39.0975243 84.985132,38.4854197 L86.7081992,38.4190685 C86.9528137,38.4095044 87.1489838,38.1925181 87.1687204,37.9103761 L87.2955133,36.1260672 C87.3164461,35.8373499 87.1459934,35.5695542 86.9001827,35.5049963" id="Fill-69" fill="#FEF9E7"></path>
                    <path d="M101.725917,60.4377983 C101.602115,62.1378232 100.278565,63.4253948 98.7743945,63.3070386 C97.2708225,63.1874869 96.1482272,61.6918954 96.2720296,59.9745355 C96.3958321,58.2577733 97.7193822,56.9737883 99.2229542,57.110675 C100.727124,57.2469639 101.84972,58.7389689 101.725917,60.4377983 M103.569796,59.7300523 L102.318016,59.4622565 C102.264189,59.1460423 102.176271,58.8429788 102.057253,58.5572503 L102.911909,57.4675367 C103.007004,57.3473873 103.008798,57.167462 102.916694,57.0449215 L102.334762,56.2726177 C102.240864,56.1476862 102.078186,56.1219826 101.957374,56.2140374 L100.89339,57.0234022 C100.663728,56.8476613 100.413133,56.7041993 100.145791,56.596005 L100.069237,55.1308991 C100.060864,54.9701021 99.9490228,54.8397908 99.8072779,54.8266401 L98.9107567,54.7411606 C98.7660214,54.7274122 98.635042,54.8397908 98.6069322,55.0023811 L98.3587292,56.4411856 C98.0830145,56.5027547 97.8186634,56.6013848 97.5698623,56.7352827 L96.5949926,55.7495791 C96.4885344,55.6419826 96.3288472,55.6395915 96.2199967,55.744797 L95.5339995,56.4095044 C95.4233547,56.5171009 95.4006277,56.7030037 95.4819665,56.8410859 L96.2032505,58.0652951 C96.048946,58.3247223 95.9221531,58.607462 95.8252642,58.9081345 L94.5244412,59.0043736 C94.3820982,59.0151333 94.267865,59.1436513 94.2565015,59.3062416 L94.1823396,60.3337883 C94.1703781,60.4999651 94.2696593,60.6494047 94.4126003,60.6798904 L95.6787347,60.9518705 C95.7307676,61.2674869 95.816293,61.5705504 95.9323204,61.8544857 L95.0704878,62.9746849 C94.9759912,63.0978232 94.9735989,63.2807372 95.0663012,63.4038755 L95.6476346,64.1791681 C95.7421311,64.3046974 95.9048088,64.3274122 96.0256209,64.2329664 L97.0908005,63.4002889 C97.3204631,63.5760299 97.5704604,63.7194919 97.8366058,63.8270884 L97.9131599,65.2921943 C97.9215331,65.4541868 98.0333739,65.5815093 98.1751188,65.5928667 L99.0716401,65.6598157 C99.2163753,65.6705753 99.3473547,65.5558057 99.3754645,65.3932154 L99.6206771,63.9693549 C99.9029706,63.9053948 100.173901,63.8025803 100.428084,63.6639004 L101.387404,64.612543 C101.493862,64.7177484 101.65355,64.7171507 101.7624,64.6113474 L102.448397,63.9436513 C102.55964,63.8360548 102.581769,63.6519452 102.50043,63.5168518 L101.791108,62.3350834 C101.950197,62.0708742 102.079382,61.7827547 102.176869,61.4767024 L103.457956,61.3774745 C103.600298,61.3667148 103.714532,61.2393923 103.726493,61.0797908 L103.800057,60.0707746 C103.812019,59.9069888 103.712737,59.760538 103.569796,59.7300523" id="Fill-71" fill="#FEF9E7"></path>
                    <path d="M28.6331786,25.902665 L25.5417053,9.57728518 C25.3868027,8.79960149 25.246254,8.16777086 25.230704,8.17075965 C25.2295078,8.17135741 25.2211347,8.1671731 25.2163501,8.16537983 L25.2253213,8.15402242 L25.2013981,8.15880448 C25.0889591,8.10261519 24.6637246,7.85932752 24.1691128,7.56821918 L24.1691128,7.56821918 C24.1673185,7.56702366 24.1655243,7.5664259 24.16373,7.56523039 L11.3331292,0.663511831 C10.7505997,0.378978829 9.95455583,0.548742217 9.56520604,1.03651308 L0.911592867,11.2420423 C0.550352812,11.6401494 0.250714952,11.9605479 0.242341838,11.9617435 C0.233370645,11.9623412 0.378703978,12.4919552 0.564108642,13.140523 L4.29014431,26.8124533 C4.46777394,27.4962889 5.06346118,28.072528 5.61489053,28.0904608 L27.8670387,27.4717808 C28.4340181,27.4227646 28.7797081,26.7156164 28.6331786,25.902665" id="Fill-73" fill="#F7DC6F"></path>
                </g>
                <g transform="translate(61.209877, 47.093798)">
                    <polygon id="Fill-77" fill="#F7DC6F" points="157.777015 1.337066 155.214842 1.8630934 155.678353 4.10588294"></polygon>
                    <polygon id="Fill-79" fill="#F7DC6F" points="132.80803 5.14430884 135.45214 6.66500623 134.97248 4.93330012"></polygon>
                    <path d="M135.488324,3.11898381 C134.906392,3.18772603 134.523621,3.57148692 134.636658,3.97377833 C134.749695,4.37606974 134.952444,5.10055293 135.087012,5.58413948 C135.148016,5.80351681 135.331627,6.46643088 135.331627,6.46643088 C135.331627,6.46643088 136.069657,6.89741469 136.386639,7.08511083 L146.532461,13.4871034 C147.103029,13.871462 147.884719,13.8164682 148.271078,13.3585853 L155.18428,4.76939477 C155.405569,4.48187298 155.906162,3.82971856 155.906162,3.82971856 C155.906162,3.82971856 155.7387,2.95579577 155.680686,2.6736538 C155.550903,2.04660523 155.366096,1.15355417 155.269207,0.690291407 C155.172916,0.227028643 154.605937,-0.0485379826 154.011446,0.0757957659 L135.488324,3.11898381 Z" id="Fill-81" fill="#FEF9E7"></path>
                    <path d="M234.604222,211.162521 C236.356595,213.829121 236.901445,223.616817 260.651783,225.046057 C267.691777,225.46927 271.927975,237.506929 271.927975,237.506929 C271.927975,237.506929 246.574186,241.933928 239.849978,236.117738 C233.125769,230.302147 234.604222,211.162521 234.604222,211.162521" id="Fill-83" fill="#152968"></path>
                    <path d="M230.006485,277.849644 C232.24091,278.487452 297.376559,268.586182 301.194101,273.382595 C304.917744,278.061848 321.943275,333.364663 321.943275,333.364663 L332.797223,329.855223 C332.797223,329.855223 318.112576,255.8348 312.366825,253.281773 C306.620477,250.729943 242.775484,253.601574 235.752235,256.791811 C228.729585,259.982047 228.729585,277.849644 228.729585,277.849644 L230.006485,277.849644 Z" id="Fill-85" fill="#1B425F"></path>
                    <path d="M257.866526,294.843138 C255.005314,292.462864 248.302038,288.542167 235.290817,288.697584 L231.897314,288.737036 C220.86155,288.869738 205.749873,289.051457 195.090301,288.384359 C191.492255,288.159601 190.562839,287.087821 190.25722,286.736339 C188.318246,284.501918 188.800298,278.440648 189.410938,270.76543 C189.961171,263.843387 190.64657,255.229091 190.098729,244.819128 C189.390005,231.361196 186.001286,222.356563 180.025873,218.055093 C176.940979,215.834421 173.921275,215.401644 171.89558,215.4399 C170.623464,215.463213 169.717972,216.680249 170.057083,217.906252 L170.749061,220.40787 C170.967958,221.196912 171.655152,221.779726 172.473325,221.828742 C173.442812,221.886725 174.842318,222.187397 176.293857,223.232877 C179.269303,225.374645 182.972611,230.915866 183.723201,245.154471 C184.249511,255.143014 183.582054,263.524782 183.046175,270.259128 C182.260897,280.136488 181.741764,286.662217 185.434307,290.917659 C187.445648,293.235168 190.473725,294.489265 194.692578,294.753474 C194.899514,294.766027 195.117813,294.776787 195.328337,294.788742 L185.041368,357.684882 L189.14539,357.932354 L202.277423,295.080448 C211.986049,295.356015 223.241308,295.22391 231.973868,295.117509 L234.327909,295.09061 L247.45755,357.932354 L251.560973,357.684882 L241.369698,295.370361 C248.060414,296.140274 251.76133,298.24259 253.418609,299.47995 C254.115371,300.000598 255.070504,299.988045 255.760688,299.459029 L257.809111,297.886924 C258.801325,297.124782 258.828238,295.643537 257.866526,294.843138" id="Fill-88" fill="#F7DC6F"></path>
                    <path d="M323.220175,332.939716 C323.220175,332.939716 325.774573,338.257375 325.135824,341.447611 C324.497673,344.637848 325.34874,348.041484 328.540691,347.828682 C331.732641,347.616478 338.756488,344.637848 345.353305,345.489056 C351.950721,346.339666 357.271237,346.339666 357.271237,346.339666 C357.271237,346.339666 343.864087,339.320787 338.756488,336.981161 C333.648888,334.641534 329.391758,330.38669 329.391758,330.38669" id="Fill-90" fill="#FFD6CB"></path>
                    <path d="M201.914568,265.087143 C201.914568,265.087143 194.89132,287.739796 225.537515,289.01601 C256.182514,290.292822 278.529158,284.018152 284.91306,289.123009 C291.297559,294.227866 303.701131,314.707666 308.748922,319.752149 C315.34574,326.345425 332.478327,337.831352 332.478327,337.831352 L343.012302,330.174665 C343.012302,330.174665 308.535408,290.611427 301.512758,275.934665 C294.490108,261.259098 235.113965,258.706072 235.113965,258.706072 L201.914568,265.087143 Z" id="Fill-92" fill="#1B425F"></path>
                    <path d="M217.875817,184.047422 C217.875817,184.047422 205.744969,196.809564 200.63737,207.019278 C195.52977,217.228991 192.97597,240.200847 189.78402,252.325181 C186.591471,264.448917 196.80667,275.297036 209.576267,268.915965 C222.345265,262.534894 229.208228,258.865853 232.879241,260.142067 C238.745803,262.181021 248.73433,263.438705 251.554275,260.460672 C254.847301,256.982914 258.969265,247.096588 262.460854,243.391681 C267.883641,237.637659 252.16312,228.830286 246.509474,227.678406 C234.369057,225.205479 235.930044,216.686227 235.752415,215.314969 C233.997051,201.754819 234.475515,191.704707 228.091016,188.514471 C221.706516,185.323636 217.875817,184.047422 217.875817,184.047422" id="Fill-94" fill="#152968"></path>
                    <path d="M237.402756,155.196194 C232.525417,156.121524 224.884352,160.12531 223.746805,169.603367 C222.60866,179.081425 230.195299,188.939059 233.609137,190.455572 C237.022975,191.971487 246.506723,182.873006 249.541378,173.015372 C252.575436,163.157738 245.228627,153.711362 237.402756,155.196194" id="Fill-96" fill="#FFD6CB"></path>
                    <path d="M341.948139,330.865674 C341.948139,330.865674 346.843421,335.91733 349.184304,337.831352 C351.525187,339.745973 362.592052,344.850829 366.209237,344.638027 C369.82702,344.425823 371.955585,347.828862 369.401785,348.892274 C366.847986,349.956284 354.717736,350.806296 348.119722,350.806296 C341.522905,350.806296 342.58629,346.339846 340.458921,343.787417 C338.330356,341.234989 333.435673,337.087143 333.435673,337.087143 L341.948139,330.865674 Z" id="Fill-98" fill="#FFD6CB"></path>
                    <path d="M324.741689,339.028244 C324.741689,339.028244 324.901377,340.224956 324.741689,342.537684 C324.582002,344.851009 324.582002,345.169614 325.778759,346.924633 C326.976115,348.679651 327.056257,349.237958 329.290683,348.759153 C331.525706,348.280946 339.186507,345.01061 344.693026,345.169614 C350.199544,345.329813 356.824471,345.01061 359.697047,343.734396 C362.570222,342.457584 364.485272,339.347447 363.527747,339.028244 C362.570222,338.709041 363.687434,337.352727 361.532554,338.150735 C359.377673,338.948144 352.434567,339.58655 349.800625,338.150735 C347.167281,336.714919 342.937662,334.481694 341.820449,335.438705 C340.702639,336.396314 340.782781,338.709041 338.787588,339.108344 C336.792395,339.507049 336.154244,341.660174 332.00417,340.304458 C327.854095,338.948144 324.741689,339.028244 324.741689,339.028244" id="Fill-100" fill="#152968"></path>
                    <path d="M339.222332,342.617724 C339.222332,342.617724 341.350299,346.552767 341.881992,348.679592 C342.414283,350.806416 341.350299,351.764025 344.222875,351.976229 C347.096049,352.189629 353.906381,350.806416 359.759188,351.764025 C365.611396,352.721036 372.31527,352.189629 373.804488,351.019816 C375.294305,349.849405 375.614277,346.020762 369.22918,344.95735 C366.142491,344.443278 362.206529,344.106142 359.971506,343.043328 C357.737081,341.979915 351.671358,339.53329 351.671358,339.53329 C351.671358,339.53329 350.500916,339.214685 350.607973,341.235108 C350.714431,343.255532 352.842398,344.319542 351.778414,344.425345 C350.714431,344.531746 349.650447,344.000339 345.925608,344.106142 C342.201366,344.213141 339.222332,342.617724 339.222332,342.617724" id="Fill-102" fill="#152968"></path>
                    <path d="M224.739139,175.113983 C224.739139,175.113983 220.748752,180.856648 218.194952,183.249474 C215.641152,185.642899 213.406727,189.152339 213.406727,189.152339 C213.406727,189.152339 222.345026,188.195328 224.579451,189.471542 C226.813877,190.747756 228.410151,191.385564 228.410151,191.385564 C228.410151,191.385564 229.527364,185.483298 229.687051,185.004493 C229.846738,184.526286 224.739139,175.113983 224.739139,175.113983" id="Fill-104" fill="#FFD6CB"></path>
                    <polygon id="Fill-106" fill="#F7DC6F" points="364.506923 248.6027 258.736553 248.6027 258.736553 256.260583 271.142517 256.260583 263.312459 361.760757 265.865661 361.760757 279.706418 256.260583 341.967098 256.260583 355.807856 361.760757 358.362253 361.760757 350.532196 256.260583 364.506923 256.260583"></polygon>
                    <polygon id="Fill-108" fill="#F7DC6F" points="277.262665 248.177395 277.241134 244.987158 323.621008 244.675726 336.373858 201.463173 339.435428 202.365788 326.012728 247.850421"></polygon>
                    <path d="M261.609787,239.775542 C269.146785,237.473574 270.049885,232.774595 275.655685,236.372503 C284.354154,241.955567 292.894132,241.078655 290.101101,243.790087 C286.190857,247.586451 276.08092,243.17858 271.399153,244.880399 C266.717386,246.582217 259.907054,246.582217 259.907054,246.582217 L261.609787,239.775542 Z" id="Fill-110" fill="#FFD6CB"></path>
                    <path d="M248.568677,167.819096 C245.907366,167.611613 244.08258,167.384492 243.09432,167.137733 C240.541118,166.499328 239.423308,167.61594 238.147006,170.487572 C236.869508,173.359203 236.231357,178.783263 233.118951,177.985255 C232.178172,177.744359 233.996932,173.678406 234.156021,171.125978 C234.315708,168.573549 231.443132,167.296737 230.644696,169.370959 C229.846858,171.444583 228.250583,173.997011 227.293058,174.795019 C226.904904,175.117808 225.377409,175.592428 224.739258,175.114222 C224.100509,174.635417 221.227933,169.690162 224.579571,164.266102 C227.931209,158.842042 227.611834,160.756663 230.804383,155.811407 C233.996932,150.865554 237.061225,149.273735 242.168824,149.114133 C244.212332,149.050278 248.996411,151.26371 254.573063,152.374427 C262.934846,154.039865 272.122255,155.261311 268.870929,158.897876 C267.679145,160.23087 266.401165,161.462928 265.036988,162.59405 C260.435168,166.409697 254.528545,168.283744 248.568677,167.819096 Z" id="Fill-112" fill="#C4570C"></path>
                    <path d="M96.9109959,167.187288 L26.2150014,167.187288 C25.2580741,167.187288 24.4823649,166.339666 24.4823649,165.294187 L24.4823649,164.298321 C24.4823649,163.252842 25.2580741,162.40522 26.2150014,162.40522 L96.9109959,162.40522 C97.8679232,162.40522 98.6442305,163.252842 98.6442305,164.298321 L98.6442305,165.294187 C98.6442305,166.339666 97.8679232,167.187288 96.9109959,167.187288" id="Fill-116" fill="#F7DC6F"></path>
                    <polygon id="Fill-118" fill="#F7DC6F" points="25.5707501 232.40279 39.2512219 166.924932 32.320676 165.792179 21.4667281 232.155318"></polygon>
                    <polygon id="Fill-120" fill="#F7DC6F" points="95.2543155 232.40279 81.5738436 166.924932 88.5043896 165.792179 99.3583374 232.155318"></polygon>
                    <path d="M86.0915572,165.692892 L34.183634,165.692892 C31.6346189,165.692892 29.4875133,163.788433 29.184885,161.25872 L22.6640236,106.764075 C22.3057739,103.769903 24.6448631,101.134984 27.6627726,101.134984 L92.4862239,101.134984 C95.4993487,101.134984 97.8372417,103.762132 97.486169,106.752717 L91.0915023,161.247362 C90.7942568,163.782456 88.6453569,165.692892 86.0915572,165.692892" id="Fill-122" fill="#F7DC6F"></path>
                    <path d="M69.8429317,231.147138 C69.8429317,231.147138 64.8591347,241.90679 64.4602156,243.899118 C64.0612966,245.892045 59.4764187,255.456179 59.6755791,257.448508 C59.8747396,259.440837 55.4890222,260.238247 55.8879413,253.264199 C56.2862623,246.290152 57.68218,241.707736 57.68218,241.707736 L61.4698178,227.759641 L69.8429317,231.147138 Z" id="Fill-124" fill="#FFD6CB"></path>
                    <path d="M25.532473,235.132095 C25.532473,235.132095 19.5516774,242.7039 18.7544373,244.696229 C17.9565992,246.688558 15.3651204,252.068384 15.3651204,252.068384 C15.3651204,252.068384 10.3813235,253.861659 9.98240439,251.670276 C9.5840834,249.478296 11.1785635,244.497176 13.9698008,239.914162 C16.7604401,235.331148 19.7508379,230.350027 19.7508379,230.350027 L25.532473,235.132095 Z" id="Fill-126" fill="#FFD6CB"></path>
                    <path d="M86.1379682,145.468334 C87.3341273,146.265146 99.2957185,161.806864 90.9226047,185.7172 C82.5494908,209.627537 75.8468132,224.316254 71.8301108,231.745196 C69.7828845,235.531397 68.1955813,238.31994 68.1955813,238.31994 L58.6263084,234.73339 C58.6263084,234.73339 74.176377,180.138321 73.3791369,172.96522 C72.5812988,165.79212 59.8224675,160.611347 60.2213866,155.032468 C60.6197075,149.453589 86.1379682,145.468334 86.1379682,145.468334" id="Fill-128" fill="#152968"></path>
                    <path d="M64.607104,149.851995 C64.607104,149.851995 65.607093,179.142755 58.5282233,191.396204 C54.4911863,198.384598 26.7289311,237.124722 26.7289311,237.124722 C26.7289311,237.124722 20.7481355,234.334984 19.1530573,232.342655 C17.5579791,230.350326 41.3830765,188.009305 41.3830765,180.836204 C41.3830765,173.663103 35.500366,149.055183 39.8866815,147.859666 C44.2723989,146.664149 61.0186266,148.656478 64.607104,149.851995" id="Fill-130" fill="#152968"></path>
                    <polygon id="Fill-134" fill="#F7DC6F" points="0.95923786 236.726017 3.3515561 236.726017 16.4345465 143.774585 8.36047243 143.774585"></polygon>
                    <polygon id="Fill-136" fill="#F7DC6F" points="109.834538 240.013689 107.44222 240.013689 94.3592296 147.062257 102.433304 147.062257"></polygon>
                </g>
                <g transform="translate(44.257888, 186.371507)">
                    <mask id="mask-32" fill="white">
                        <use xlink:href="#path-31"></use>
                    </mask>
                    <g id="Clip-139"></g>
                    <polygon id="Fill-138" fill="#EFCA33" mask="url(#mask-32)" points="0.305020576 11.732802 141.811841 11.732802 140.091764 0.574445828 11.5429355 0.524234122"></polygon>
                </g>
                <g transform="translate(43.000000, 95.468643)">
                    <polygon id="Fill-140" fill="#F7DC6F" points="136.616988 209.934974 134.22467 209.934974 121.14168 109.733928 129.215754 109.733928"></polygon>
                    <polygon id="Fill-142" fill="#F7DC6F" points="9.40038189 207.380513 11.7927001 207.380513 24.8756905 107.178869 16.8016165 107.178869"></polygon>
                    <polygon id="Fill-144" fill="#F7DC6F" points="1.66996433 109.73345 143.069728 109.73345 143.069728 102.560349 1.66996433 102.560349"></polygon>
                    <path d="M39.5709838,192.224648 C39.5709838,192.224648 35.3712691,202.174934 34.17511,205.910924 C32.9789509,209.646914 29.4401141,214.279542 27.7953953,213.980663 C26.1506765,213.681783 26.5238782,206.62943 26.7983967,203.619118 C27.2918123,198.214785 33.7265503,188.874809 34.17511,187.978172 C34.6236697,187.081534 32.5937877,194.28273 34.5489097,195.375432 C36.866468,196.670177 39.5709838,192.224648 39.5709838,192.224648" id="Fill-147" fill="#1B425F"></path>
                    <path d="M77.1662052,199.021519 C79.0358019,200.903861 80.2714343,201.651656 80.2714343,201.651656 C80.2714343,201.651656 79.4239556,209.273076 79.3976401,213.879402 C79.3719226,218.33868 79.397042,220.307098 77.8892834,220.507945 C76.0693273,220.750037 73.6477032,213.970859 74.0412395,210.319153 C74.4347759,206.668045 71.6004768,199.592379 72.4826442,197.834371 C73.1943588,196.414695 76.5956373,190.505853 76.5956373,190.505853 C76.5956373,190.505853 75.4126359,197.255741 77.1662052,199.021519" id="Fill-148" fill="#1B425F"></path>
                    <path d="M45.4334793,45.0885081 C30.4814903,52.8593674 18.2704999,45.3873873 7.15638738,58.8369514 C-6.21906392,75.0224558 0.328113032,92.012543 22.0587358,93.2080598 C36.5337276,94.0046293 47.524162,88.9536721 55.9480256,91.9658984 C56.7208763,92.2422563 59.5236634,96.3696733 61.0419562,97.0313823 C65.3507433,98.9092568 74.0168776,99.50934 90.1650258,100.405978 C106.313174,101.302615 97.3952565,88.8800952 121.938022,92.6103014 C152.606556,97.2715508 164.949512,96.3965031 170.332228,82.3491806 C175.714944,68.301858 169.468003,50.4767024 148.403043,50.0702267 C127.767504,49.6721196 132.156212,40.0075616 113.914785,34.627736 C95.6733586,29.2479103 72.6472955,36.122132 72.6472955,36.122132 C72.6472955,36.122132 60.3854683,37.3176488 45.4334793,45.0885081 Z" id="Fill-149" fill="#4F71ED"></path>
                    <path d="M121.937783,78.6631034 C121.937783,78.6631034 110.973191,81.4528418 109.178952,82.8474122 C107.384713,84.2419826 96.8184417,89.4227547 95.8214431,90.0205131 C94.8250425,90.6182715 95.2233635,92.8102516 101.004999,91.6147347 C106.786634,90.4192179 111.172351,86.4339626 112.36851,86.2349091 C113.564669,86.0352578 124.529262,83.4451706 124.529262,83.4451706 L121.937783,78.6631034 Z" id="Fill-151" fill="#FFD6CB"></path>
                    <path d="M46.6649849,87.8652951 C43.9778134,86.9895791 48.6177147,81.2002889 49.2002442,81.1476862 C51.2791687,80.9593923 59.7874486,79.9599402 62.8041619,81.0018331 C66.6821097,82.3414097 69.2688038,87.7672628 74.1270041,93.2403387 C76.960107,96.4323686 77.2089081,98.0995168 73.3309602,96.7599402 C69.4542085,95.4209614 62.9088258,91.6843736 60.8950919,88.8802889 C60.1134019,87.7905753 59.0745377,85.7002142 56.648727,85.7271133 C55.4717064,85.740264 53.8299781,86.0307746 52.3945871,86.5239253 C51.003454,87.002132 46.6649849,87.8652951 46.6649849,87.8652951" id="Fill-152" fill="#FFD6CB"></path>
                    <path d="M77.0832516,17.7909738 C77.0832516,17.7909738 76.485172,23.4696787 77.6813311,27.9528667 C78.8774903,32.4360548 80.3726892,38.4136389 85.7554052,38.7125181 C91.1381213,39.0113973 93.5304395,28.8495044 93.8294793,23.1707995 C94.1285191,17.4920946 91.7362008,5.08860772 84.708766,7.47964134 C77.6813311,9.87067497 77.3822914,14.9516214 77.2327715,17.1932154 C77.0832516,19.4348095 77.0832516,17.7909738 77.0832516,17.7909738" id="Fill-153" fill="#FFD6CB"></path>
                    <path d="M96.3634622,8.72674707 C96.1416501,6.83444352 91.8148371,2.00881694 88.97994,3.49066002 C89.0295806,2.70281445 84.7782407,-0.513583459 81.8176125,0.481342951 C76.6868978,2.20553226 73.3639721,8.21722301 73.3639721,11.1312367 C73.3639721,15.6334179 76.9337317,24.003677 76.9337317,24.003677 C76.9337317,24.003677 77.5605652,19.5111349 79.8530042,18.8135508 C81.4941345,18.3150203 83.3098246,18.3645689 86.1967658,17.173846 C89.0837069,15.983123 88.8415045,16.9353967 91.049749,14.9294593 C93.2579935,12.9235218 93.8141943,22.2523463 93.9308198,23.4717735 C93.9430508,22.7640414 94.9411841,22.1517497 95.5637111,18.5146716 C96.0979292,15.3935329 96.9246349,13.5141716 96.3634622,8.72674707 Z" id="Fill-154" fill="#1B425F"></path>
                    <path d="M93.6239193,18.6966974 C93.6227232,18.7803836 93.6239193,18.8455392 93.6299001,18.8867846 C93.6448521,18.9890012 93.643656,18.9059128 93.6239193,18.6966974" id="Fill-155" fill="#1B425F"></path>
                </g>
                <g transform="translate(106.000000, 262.468643)">
                    <polygon id="Fill-158" fill="#F7DC6F" points="54.1758738 210.742257 65.9628258 133.317001 59.9915995 131.976827 50.6400274 210.449953"></polygon>
                    <path d="M82.8670661,7.43284682 C82.8670661,7.43284682 75.4592527,17.7154869 78.7516807,24.2962092 C82.0441086,30.8775293 83.4842842,35.5047771 79.7803775,40.851726 C76.0764708,46.198675 91.097837,44.0395716 91.097837,44.0395716 C91.097837,44.0395716 88.2168878,38.2813649 93.1552307,33.7569315 C98.0935737,29.2324981 102.703571,20.6558605 101.79748,14.8366824 C100.357305,5.58158904 89.8634008,0.029011208 82.8670661,7.43284682" id="Fill-160" fill="#FFD6CB"></path>
                    <path d="M45.6234557,45.4789738 C45.6234557,45.4789738 60.4384845,39.926396 73.401859,41.7776538 C86.3652335,43.6277161 98.7113898,44.8620872 107.970858,49.7977783 C117.230325,54.7334695 128.341447,64.6048518 138.835351,69.540543 C149.329255,74.4768319 165.379319,89.9001943 151.798726,97.9209166 C138.218133,105.941639 121.550852,94.8358854 110.43973,93.6027098 C99.3280099,92.3683387 51.376383,88.8857983 29.035121,94.5471681 C-0.183457888,101.950406 -2.10628368,87.5617634 3.06231989,75.9389489 C9.49825405,61.4660224 33.2772993,52.8828095 45.6234557,45.4789738" id="Fill-162" fill="#FF9542"></path>
                    <path d="M114.143577,89.9004932 C114.143577,89.9004932 107.352982,112.111402 101.180202,121.365898 C95.0074233,130.620394 65.3767676,130.003507 58.5867704,123.834042 C51.796175,117.66398 30.8083671,78.1784508 40.6850529,75.0934197 C50.5617388,72.0083885 114.143577,87.4329465 114.143577,87.4329465 L114.143577,89.9004932 Z" id="Fill-164" fill="#FF9542"></path>
                    <path d="M77.8000165,21.2633026 C78.6229739,26.1989938 78.9578985,31.4945355 82.2497284,32.1114222 C85.5421564,32.7283088 86.4422661,33.6799402 88.2939204,33.0624558 C90.1461728,32.4455691 91.5863484,30.2864658 92.6156433,28.435208 C93.6443402,26.5845479 97.4762359,18.3324932 98.2991934,19.978122 C99.122749,21.6231532 95.1885816,25.2443736 96.9361701,24.9646227 C98.8655748,24.6561793 103.649613,19.7718954 105.501267,15.6593176 C107.35352,11.546142 112.137558,8.53238582 112.5,6.00152235 C112.862442,3.47065887 111.443148,2.36652693 107.122024,1.44059916 C103.294314,0.621072388 92.6909401,-0.335551117 87.5,1.44059916 C83.1851781,2.91697377 81.1218187,5.25846877 78.9177038,8.67300394 C76.4219489,12.5393373 77.3630043,18.6423203 77.8000165,21.2633026 Z" id="Fill-166" fill="#333333"></path>
                    <path d="M92.8650425,128.829509 C92.8650425,128.829509 102.33025,135.410232 110.972499,127.595736 C119.614749,119.780045 127.704971,113.122212 118.791791,108.674889 C111.678233,105.125998 103.337416,104.929335 90.9912593,111.0988 C78.645701,117.268264 92.8650425,128.829509 92.8650425,128.829509" id="Fill-168" fill="#6D6D6D"></path>
                    <path d="M123.711714,129.695183 C123.050238,142.260663 130.810918,178.743651 130.810918,178.743651 L119.699198,181.211796 C119.699198,181.211796 106.015736,155.401783 102.723308,141.417225 C99.4314776,127.432667 105.707126,120.132244 111.879906,116.430326 C118.053283,112.728408 119.192026,105.915158 122.210534,112.52278 C124.020921,116.48532 124.123192,121.88009 123.711714,129.695183" id="Fill-170" fill="#6D6D6D"></path>
                    <path d="M98.2100796,133.704946 C98.6215583,135.761235 79.4608834,170.049255 74.7528011,177.304249 C69.8144582,184.913116 69.5465185,187.29877 69.5465185,187.29877 L59.3755775,176.444075 C59.3755775,176.444075 63.0017339,173.321385 65.6990727,159.617773 C70.6374156,134.52806 83.8065295,125.067935 83.8065295,125.067935 L98.2100796,133.704946 Z" id="Fill-173" fill="#6D6D6D"></path>
                    <polygon id="Fill-176" fill="#F7DC6F" points="1.79546776 103.165828 174.021449 103.165828 174.021449 95.7619925 1.79546776 95.7619925"></polygon>
                    <path d="M61.3779479,178.743472 C60.7607298,179.6694 54.7045761,186.702625 51.6178875,187.011666 C48.531797,187.32011 53.6615254,188.615452 57.056823,192.625813 C60.4521207,196.636174 59.8343045,198.178391 61.995166,200.337494 C64.1560274,202.496598 66.0076818,202.188752 66.0076818,202.188752 C66.0076818,202.188752 63.8468203,194.475875 64.7732455,192.008329 C65.6990727,189.540184 67.8593361,185.530421 67.8593361,185.530421 L61.3779479,178.743472 Z" id="Fill-178" fill="#FFD6CB"></path>
                    <path d="M121.116108,180.972214 C122.724344,187.110595 124.328991,196.326834 124.328991,196.326834 C124.328991,196.326834 128.168662,196.179786 131.778072,196.027955 C137.236745,195.799014 134.766078,190.801753 134.205677,189.849524 C133.804366,189.166884 131.045425,183.292712 129.424629,179.090471 C129.228459,178.582376 121.046731,180.708603 121.116108,180.972214" id="Fill-179" fill="#FFD6CB"></path>
                    <path d="M133.616808,195.453868 C133.616808,195.453868 129.865653,194.81068 127.123458,195.109559 C123.963206,195.453868 123.733543,193.156682 123.402805,196.94408 C122.863936,203.121315 126.489494,206.507019 127.106712,208.049235 C127.72393,209.59205 129.267574,209.900493 132.353664,208.66672 C135.440353,207.432349 136.674789,202.805699 139.14426,199.103183 C141.613132,195.401863 148.385187,184.919572 145.00843,182.753893 C141.259069,180.349111 139.602987,180.916981 135.848243,187.001564 C134.708902,188.849235 133.689176,189.174416 134.018718,189.711203 C135.857812,192.697604 133.616808,195.453868 133.616808,195.453868" id="Fill-180" fill="#1B425F"></path>
                    <path d="M50.5751358,187.072996 C50.5751358,187.072996 43.1559588,187.437031 42.5387407,190.830506 C41.9215226,194.22398 44.1278381,187.441215 47.5913169,190.877131 C50.5548011,193.816907 50.7725021,194.36804 53.8591907,201.771875 C56.9452812,209.175113 65.6987737,216.995587 70.6371166,216.070257 C75.5754595,215.144927 71.729808,212.625973 70.0635583,210.730481 C66.9966063,207.243158 66.0073827,202.188513 66.0073827,202.188513 C66.0073827,202.188513 59.8346036,194.270605 56.747915,190.569285 C53.6618244,186.86677 50.5751358,187.072996 50.5751358,187.072996" id="Fill-181" fill="#1B425F"></path>
                    <path d="M44.5049871,196.429888 C44.5049871,196.429888 42.0618321,193.358605 42.241854,191.391382 C42.3955605,189.711083 44.5049871,187.381021 48.6203726,191.494197 C52.735758,195.607372 53.3529761,204.656239 59.9378321,209.180672 C66.52209,213.705106 64.3355111,214.855791 68.1961147,215.526476 C72.0531298,216.196563 73.5112477,211.822167 73.9131572,215.956862 C74.1135139,218.013748 60.3235934,218.225953 56.0999556,214.262814 C53.5497443,211.869988 49.6490694,201.776837 48.0031545,200.131806 C46.3572395,198.486177 44.5049871,196.429888 44.5049871,196.429888" id="Fill-182" fill="#C7CAD8"></path>
                    <path d="M145.798911,183.393614 C145.798911,183.393614 143.543553,191.003078 139.319916,197.679442 C135.995191,202.934336 134.70633,208.336877 131.002423,208.490501 C127.298516,208.64532 126.778785,206.940513 126.735723,207.715208 C126.673523,208.836603 127.174714,209.504299 128.718357,210.429629 C130.261402,211.354361 131.989254,213.398695 136.00177,209.697375 C140.014286,205.995457 142.385073,197.869529 144.391032,192.625395 C146.396991,187.38126 146.396991,185.530002 146.551894,185.067935 C146.706198,184.604672 145.798911,183.393614 145.798911,183.393614" id="Fill-183" fill="#C7CAD8"></path>
                    <polygon id="Fill-184" fill="#F7DC6F" points="160.390797 204.191422 157.927307 204.355208 137.59619 102.552169 145.911291 101.99745"></polygon>
                    <polygon id="Fill-185" fill="#F7DC6F" points="9.69609877 202.82662 12.1583923 203.013121 33.3722743 101.38941 25.0619588 100.762959"></polygon>
                    <path d="M93.7481668,136.582854 L58.0254727,136.007811 C52.3042436,135.916354 47.4932916,131.285519 46.6793053,125.086765 L40.5382244,78.3295044 C39.5298623,70.6536887 44.970592,63.7824558 52.0554425,63.7824558 L99.7917608,63.7824558 C106.840726,63.7824558 112.270691,70.5867397 111.322137,78.2308742 L105.448995,125.56258 C104.657138,131.94664 99.6338678,136.677898 93.7481668,136.582854" id="Fill-186" fill="#F7DC6F"></path>
                    <polygon id="Fill-187" fill="#F7DC6F" points="47.0506529 216.026321 58.8376049 138.600468 52.8663786 137.260294 43.5148066 215.734017"></polygon>
                    <polygon id="Fill-188" fill="#F7DC6F" points="103.685378 216.026321 91.8984263 138.600468 97.8696527 137.260294 107.221225 215.734017"></polygon>
                    <path d="M112.795027,210.449773 L104.375263,139.797719 C103.79393,140.367382 103.000876,140.721853 102.12768,140.721853 L98.5996088,140.721853 L109.259181,210.742077 L112.795027,210.449773 Z" id="Fill-189" fill="#F7DC6F"></path>
                    <path d="M105.423816,134.759811 C104.925616,134.468105 104.349067,134.289375 103.727663,134.289375 L99.0871632,134.289375 L51.1959424,134.289375 C49.373594,134.289375 47.8831797,135.737146 47.8831797,137.505913 C47.8831797,139.27468 49.373594,140.721853 51.1959424,140.721853 L100.095525,140.721853 L103.727663,140.721853 C104.626576,140.721853 105.443553,140.367382 106.041632,139.797719 C106.656458,139.212513 107.040425,138.401355 107.040425,137.505913 C107.040425,136.340284 106.386724,135.324095 105.423816,134.759811" id="Fill-190" fill="#F7DC6F"></path>
                </g>
            </g>
            <path d="M102.276767,163 L150.686426,163 C152.895565,163 154.686426,164.790861 154.686426,167 C154.686426,167.100546 154.682635,167.201057 154.675061,167.301318 L152.559826,195.301318 C152.402217,197.387627 150.663445,199 148.571191,199 L104.151452,199 C102.046036,199 100.301036,197.367927 100.160387,195.267214 L98.2857028,167.267214 C98.1381247,165.06301 99.8053495,163.156513 102.009554,163.008935 C102.0985,163.00298 102.187621,163 102.276767,163 Z" id="矩形" fill="#FFCB44"></path>
        </g>
    </g>
</svg>