<svg id="图层_1" data-name="图层 1" xmlns="http://www.w3.org/2000/svg" viewBox="0 0 491.17 738.93"><defs><style>.cls-1{fill:#7c4c22;}.cls-2{fill:none;stroke:#7c4c22;stroke-miterlimit:10;}.cls-3{fill:#ea5514;}.cls-4{fill:#006934;}.cls-5{fill:#3e4b24;}.cls-6{fill:#efe5e6;}</style></defs><title>元素7</title><path class="cls-1" d="M244.38,488.87s1.12-.73,3-1.78C254.9,484.65,244.38,488.87,244.38,488.87Z" transform="translate(-136.37 -141.1)"/><path class="cls-1" d="M264.31,472.45c11.13,3.89,35.33.41,58.41-4.55-.25-.73-.5-1.5-.75-2.34.39-3.06-41.17-10.12-61.51-23.49C246.51,432.91,194.68,395,194.68,395l61.74,40.4,1.72-2.84C245,415.82,218.34,381,218.34,381c13.81,10.87,36.74,42.56,46.14,56,16.13,12.06,53.89,17.69,57.07,23.33-4.78-23.74-36-56.36-56.17-92.7-9.69-9.95-51.43-68.3-57-76.11-23-9-55.88-24.16-55.88-24.16l68.43,23.27,2.12-4.33c-15.19-15.19-44.44-45.6-44.44-45.6,15.1,6.84,41,35.7,52,48.55,19.76,8.59,72.37,31.89,76.79,38.3L249.53,221.88c-12.52-8.16-65.11-63.23-65.11-63.23l67.72,60,.59-.63c-7.59-14.18-34.63-69.66-34.63-69.66,15.19,15.72,36,65.35,39.66,74.15,13.42,20.36,57.84,87.76,62,93.78,4.89,7.09,3.38,11,3.38,11l5.49,10,27.63,27.62c-6.38-27.27-13.32-54.4-18.67-66.59-6.56-8.82-44.71-61.08-52.88-93.29,0,0,41.5,66.43,51.24,83.72l.94-.73L313.55,148.34S340.3,261.66,341.42,285c11.69,28.53,18.16,62.67,25.55,90.68l11.21,11.21a29.34,29.34,0,0,1,3.92,2.1l31.64-30.47c6.35-17,11.84-33.88,13.18-46.1-5.57-22.62-17.94-77.41-15.4-107,0,0,11.9,62.83,17.2,93.62l5.43-1.93,21.36-128.69s-13,109.73-17.8,138.81c-1.76,10.77-5.11,23.65-9.06,36.89l8.78-8.45s-4.83-12.43,11-17c0,0,26.27-65.58,46.2-91.41,5.65-20,34.79-86.11,34.79-86.11l-28.7,81.29,3.09,3.29c14.27-16.53,42.68-48.18,42.68-48.18-7.68,17.69-34.35,45.37-46.16,57.11-9.76,23.2-36.09,84.88-41.82,89.38l92.05-55.72c8.32-14.28,59.7-71.13,59.7-71.13L552.73,272l.41.82c12.33-7.26,60.16-32.37,60.16-32.37-14.7,16.45-57,34.77-64.46,37.93-18.08,13.54-77.94,58.39-83.31,62.62-6.34,5-9.18,2.51-9.18,2.51l-8.72,5.29-32.89,38.09c-2.83,8.27-5.41,15.77-7.44,21.92l1.88,6.69C422.83,410,494.72,380.1,510.4,359c0,0,64.24-36.56,117.13-5.93,0,0-48.43-17.33-83.77.5,0,0,14.23-5,24.83,4.43,0,0-15.88-5.42-32.38.5-2.32.84-4,1.47-5.25,1.93-5.75.87-17.72,3.31-24.7,9.26-9.42,8-32.81,32.62-32.81,32.62s43,13.08,54.4,3.55c0,0-10.84,17.49-55.84,1.72l-29.35,3.22-25.76,13-.94,2.05c2.14.48,4.92,2.33,8.21,7.19.49,3,41.4-8.54,64.18-4.91,15.62,2.49,74.76,15.37,74.76,15.37L494,432.7l-.83,3.41c17,9.89,51.63,30.83,51.63,30.83-16-4.14-46.28-23.81-58.81-32.24-18.47-4.24-55.42,7-60,3.11,11.09,20.15,49.43,37.06,78.44,62.29C517.17,505.56,579.9,547,579.9,547L503,502.68l-.35.5c9.8,10.3,47.65,52.69,47.65,52.69-17.86-12.18-47.86-49.39-52.93-55.75-15.64-14.14-74-49.71-78.17-53.38-4.92-4.29-4.58-7.07-4.58-7.07l-1.32-3.49,12.41,74.38s13.37,22.69,5.14,113.64l2.68,19.95v17s5.76,16.75,0,40.14c0,0,1.95,136.87,22,166.32V880l-6.17-4.65-10.28-.86h-6.69l-11.82.86-15.43-.86-15.94.86L381,871.92l-9.25-2.6-5.14-6.93,5.14-6.61,14.74-68.14a74.4,74.4,0,0,0,1.39-21.19L381,677.55,384,608.06,382,561.14l-5-45.06a136.92,136.92,0,0,0-11.1,16.26s3.88,8.9-4,10c-1.94-1.31,1.33,43.29-1.64,64.33-2,14.42-12,67-12,67l8.91-63.91-2.14-2.89C348.3,618.22,334,641,334,641c3.1-13.79,16.47-32.92,22.2-40.65,3.23-16.28-2.83-60.64-.22-63-13.13-.74-25,28.21-41.86,42.69-3.84,9.7-32,48.83-32,48.83l30.41-51.87-.31-.66c-6.82,3.83-34.86,17.07-34.86,17.07,8.26-10.91,32.78-19.25,37-20.62,9.43-7.49,33.73-45.65,36.19-47.75,2.86-2.45,4.62-.44,4.62-.44l4-2.32c5.31-10.24,10.56-20.87,16.61-26.58l1.07-11.71-5.14-10.27-.85-7-27.2,5.67-26.39,16.42c-31.89,42.83-48.39,35-48.39,35,13.66.71,45-38.55,45-38.55s-30.17-5.71-41.56-6.43c-8.43-.52-19.67,5.21-24.93,8.22-1.24.4-3,1-5.28,1.78-16.55,5.71-27.86,20.7-27.86,20.7,5.13-15,19.36-20,19.36-20-37.58,7.86-71.73,54.26-71.73,54.26C194.29,483.16,264.31,472.45,264.31,472.45Zm-38.67-175a153.29,153.29,0,0,1-17.17-5.88l59,74.31.48-.32c-4.17-9.19-15.87-36.78-23.36-54.52A136.9,136.9,0,0,1,225.64,297.42ZM369.54,456l-1.44-11.83s1.55-5.24,3.16-12.72c-1.38-5.81-3.26-14.29-5.48-24.26l-46-55.24s-9.07,7.88-15.1-11.06c0,0-31.17-12.67-56.66-27.76,10.93,22.12,21.75,51.4,24,57.63,10.72,20.09,55.47,79,58.4,84.23,3.42,6.17,2.32,8.63,2.32,8.63l.14,2C348,462.05,361.7,458.23,369.54,456Z" transform="translate(-136.37 -141.1)"/><path class="cls-1" d="M531,360.47c2-.3,3.27-.41,3.27-.41S523.51,363.32,531,360.47Z" transform="translate(-136.37 -141.1)"/><path class="cls-2" d="M566.1,283.11s-16.52-12.51-23.43-7.33" transform="translate(-136.37 -141.1)"/><path class="cls-2" d="M516.24,234.11s-11.74-9.36-15.59-.29" transform="translate(-136.37 -141.1)"/><path class="cls-2" d="M543.39,392.41c-14.43-27.25,6.34-16-18.31-35.82" transform="translate(-136.37 -141.1)"/><path class="cls-2" d="M414.83,247.4s-12.43-10.86-19.36,0" transform="translate(-136.37 -141.1)"/><path class="cls-2" d="M228.51,291.54s-20,2.19-20,15.22" transform="translate(-136.37 -141.1)"/><path class="cls-2" d="M380.55,400.23s-13.94,27.95-4.13,37.45" transform="translate(-136.37 -141.1)"/><path class="cls-2" d="M479.38,432.41s5.55,20.29,0,21" transform="translate(-136.37 -141.1)"/><path class="cls-3" d="M544.89,379.11l7.13,4.38c2.63,1.61,4.14,5.18,3.68,8.81-.79,6.29-3.54,14.77-12.73,13.44,0,0-10.68,2.65-14.6-13.1-1-4.2.71-8.7,4-10.31l7.14-3.5A5.48,5.48,0,0,1,544.89,379.11Z" transform="translate(-136.37 -141.1)"/><path class="cls-4" d="M543.78,378.51a8.58,8.58,0,0,1,3.31,10.67s-5.16-.93-5.16-9.7Z" transform="translate(-136.37 -141.1)"/><path class="cls-4" d="M540.07,378.51a8.58,8.58,0,0,0-3.31,10.67s5.16-.93,5.16-9.7Z" transform="translate(-136.37 -141.1)"/><path class="cls-3" d="M483,450.42l8.68,5.34c3.21,2,5.05,6.32,4.49,10.74-1,7.66-4.32,18-15.52,16.37,0,0-13,3.23-17.78-15.95-1.27-5.13.86-10.61,4.84-12.57l8.71-4.27A6.7,6.7,0,0,1,483,450.42Z" transform="translate(-136.37 -141.1)"/><path class="cls-4" d="M481.64,449.69s7.26,4.18,4,13c0,0-6.29-1.14-6.29-11.83Z" transform="translate(-136.37 -141.1)"/><path class="cls-4" d="M477.12,449.69s-7.26,4.18-4,13c0,0,6.29-1.14,6.29-11.83Z" transform="translate(-136.37 -141.1)"/><path class="cls-3" d="M165.28,273.15l1.6,8.29c.59,3.06-1.36,6-4.83,7.3-6,2.2-15.4,3.68-21.18-5,0,0-10.33-8.19.3-18.88,2.83-2.86,8-3.39,11.88-1.24l8.4,4.68A7.35,7.35,0,0,1,165.28,273.15Z" transform="translate(-136.37 -141.1)"/><path class="cls-4" d="M165,271.9s1.53,6.82-6.71,7.82c0,0-3.09-5,4.48-9Z" transform="translate(-136.37 -141.1)"/><path class="cls-4" d="M162.17,268.63s-7.45-3.67-11.7,2c0,0,4.69,4.12,12.26.08Z" transform="translate(-136.37 -141.1)"/><path class="cls-3" d="M514.4,222l8-1.28c3-.47,5.81,1.5,7,4.89,2.13,5.87,3.57,15-4.8,20.26,0,0-7.86,9.7-18.17-.88-2.75-2.83-3.27-7.85-1.22-11.5l4.49-8A6.74,6.74,0,0,1,514.4,222Z" transform="translate(-136.37 -141.1)"/><path class="cls-4" d="M513.2,222.24s6.56-1.26,7.54,6.72c0,0-4.78,2.82-8.68-4.61Z" transform="translate(-136.37 -141.1)"/><path class="cls-4" d="M510.06,224.83s-3.52,7.07,1.94,11.34c0,0,4-4.39,0-11.81Z" transform="translate(-136.37 -141.1)"/><path class="cls-3" d="M279.46,519.31l6.84,4.21c2.53,1.55,4,5,3.54,8.47-.76,6-3.4,14.18-12.23,12.9,0,0-10.26,2.54-14-12.58-1-4,.68-8.36,3.82-9.9l6.86-3.37A5.31,5.31,0,0,1,279.46,519.31Z" transform="translate(-136.37 -141.1)"/><path class="cls-4" d="M278.39,518.74A8.25,8.25,0,0,1,281.57,529s-5-.9-5-9.32Z" transform="translate(-136.37 -141.1)"/><path class="cls-4" d="M274.83,518.74A8.25,8.25,0,0,0,271.65,529s5-.9,5-9.32Z" transform="translate(-136.37 -141.1)"/><path class="cls-3" d="M196.86,161l1.45,9.32c.54,3.44-.76,6.93-3.22,8.59-4.27,2.87-11,5.13-15.48-4.4,0,0-7.76-8.65-.47-21.45,2-3.42,5.68-4.35,8.54-2.15l6.24,4.79A8.23,8.23,0,0,1,196.86,161Z" transform="translate(-136.37 -141.1)"/><path class="cls-4" d="M196.59,159.63s1.35,7.65-4.57,9.3c0,0-2.41-5.45,2.91-10.51Z" transform="translate(-136.37 -141.1)"/><path class="cls-4" d="M194.45,156.09s-5.52-3.7-8.38,3c0,0,3.54,4.38,8.86-.68Z" transform="translate(-136.37 -141.1)"/><path class="cls-3" d="M257.13,211.67l1.45,9.32c.54,3.44-.76,6.93-3.22,8.59-4.27,2.87-11,5.13-15.48-4.4,0,0-7.76-8.65-.47-21.45,2-3.42,5.68-4.35,8.54-2.16l6.24,4.8A8.23,8.23,0,0,1,257.13,211.67Z" transform="translate(-136.37 -141.1)"/><path class="cls-4" d="M256.86,210.27s1.34,7.65-4.57,9.3c0,0-2.41-5.46,2.91-10.51Z" transform="translate(-136.37 -141.1)"/><path class="cls-4" d="M254.72,206.73s-5.52-3.7-8.38,3c0,0,3.54,4.38,8.86-.68Z" transform="translate(-136.37 -141.1)"/><path class="cls-3" d="M293.69,623.1l5.26,3.23a6.69,6.69,0,0,1,2.72,6.5c-.59,4.64-2.62,10.9-9.4,9.92,0,0-7.88,2-10.77-9.67-.77-3.1.52-6.42,2.93-7.6l5.28-2.59A4,4,0,0,1,293.69,623.1Z" transform="translate(-136.37 -141.1)"/><path class="cls-4" d="M292.87,622.65a6.35,6.35,0,0,1,2.44,7.88s-3.81-.69-3.81-7.16Z" transform="translate(-136.37 -141.1)"/><path class="cls-4" d="M290.13,622.65a6.35,6.35,0,0,0-2.44,7.88s3.81-.69,3.81-7.16Z" transform="translate(-136.37 -141.1)"/><path class="cls-3" d="M359.25,531.57l2.49,9.08a9.36,9.36,0,0,1-2.27,9.17c-4,3.63-10.45,7.07-16-1.69,0,0-8.74-7.32-2.86-21.42,1.57-3.77,5.21-5.35,8.32-3.65l6.78,3.71A7.67,7.67,0,0,1,359.25,531.57Z" transform="translate(-136.37 -141.1)"/><path class="cls-4" d="M358.82,530.21s2.2,7.44-3.54,10.12c0,0-3-5,1.75-11Z" transform="translate(-136.37 -141.1)"/><path class="cls-4" d="M356.28,527s-5.93-2.74-8.06,4.47c0,0,4,3.77,8.8-2.23Z" transform="translate(-136.37 -141.1)"/><path class="cls-3" d="M398.31,248.06l6.17,9.34a12.32,12.32,0,0,1,.57,12.11c-3.39,6.48-9.83,14.18-19.51,6.92,0,0-12.92-3.77-11-23.71.52-5.33,4.26-9.23,8.53-9l9.34.59A7.74,7.74,0,0,1,398.31,248.06Z" transform="translate(-136.37 -141.1)"/><path class="cls-4" d="M397.32,246.69s5.24,7.56-.59,13.94c0,0-5.36-4.28-1.86-14Z" transform="translate(-136.37 -141.1)"/><path class="cls-4" d="M393.2,244.36s-8,.07-7.94,9.78c0,0,6.1,2.21,9.61-7.54Z" transform="translate(-136.37 -141.1)"/><path class="cls-3" d="M322.65,338l6,6.09a9.54,9.54,0,0,1,1.93,9.34c-1.85,5.72-5.94,13-14.38,9.17,0,0-10.55-.45-11.48-16.39-.25-4.26,2.19-8,5.56-8.63l7.36-1.34A5.6,5.6,0,0,1,322.65,338Z" transform="translate(-136.37 -141.1)"/><path class="cls-4" d="M321.71,337.08s5,4.89,1.24,11c0,0-4.7-2.3-3.16-10.59Z" transform="translate(-136.37 -141.1)"/><path class="cls-4" d="M318.2,336.06s-6.22,1.59-5,9.16c0,0,5,.54,6.57-7.74Z" transform="translate(-136.37 -141.1)"/><path class="cls-3" d="M169.27,535.22l8-1.36c2.95-.5,5.84,1.44,7.1,4.84,2.17,5.87,3.67,15-4.7,20.39,0,0-7.83,9.83-18.25-.7-2.78-2.81-3.34-7.85-1.3-11.53l4.46-8A6.82,6.82,0,0,1,169.27,535.22Z" transform="translate(-136.37 -141.1)"/><path class="cls-4" d="M168.06,535.5s6.58-1.32,7.62,6.68c0,0-4.79,2.88-8.75-4.54Z" transform="translate(-136.37 -141.1)"/><path class="cls-4" d="M164.92,538.14s-3.48,7.13,2,11.37c0,0,3.94-4.45,0-11.87Z" transform="translate(-136.37 -141.1)"/><path class="cls-3" d="M212.89,304.37l8.64,5.31c3.19,2,5,6.29,4.47,10.7-1,7.62-4.3,17.91-15.44,16.29,0,0-13,3.21-17.7-15.88-1.27-5.1.85-10.56,4.81-12.5l8.67-4.26A6.66,6.66,0,0,1,212.89,304.37Z" transform="translate(-136.37 -141.1)"/><path class="cls-4" d="M211.54,303.64s7.22,4.17,4,12.95c0,0-6.26-1.13-6.26-11.77Z" transform="translate(-136.37 -141.1)"/><path class="cls-4" d="M207,303.64s-7.22,4.17-4,12.95c0,0,6.26-1.13,6.26-11.77Z" transform="translate(-136.37 -141.1)"/><path class="cls-5" d="M211.53,303.66a4.71,4.71,0,0,0-4.48,0l2.23,1.36Z" transform="translate(-136.37 -141.1)"/><path class="cls-6" d="M381.63,369.17c.63.6,1.29.74,1.76.39l.58-.43,8.37-6.23c.94-.7,2.43.57,3.12,2.66l1.51,4.56a5.59,5.59,0,0,0,1.34,2.27l4.85,4.58c1.6,1.52,2.23,4.93,1.09,6L397,389.71c-1.07,1-.59,4.13.89,5.77l3.81,4.25c1.84,2,2,6,.23,6l-4.18,0a1.32,1.32,0,0,1-.39-.06l-8.84-2.84a2.41,2.41,0,0,1-1-.71l-20.22-22.06a2.11,2.11,0,0,0-1.3-.77l-13.41-1c-1.23-.09-2.57-2.18-2.76-4.29l-1.13-12.51a5.4,5.4,0,0,1,0-.69L350,332.67c.09-1.93,1.36-2.45,2.62-1.08h0c1.52,1.67,2.95.48,2.55-2.12l-1.68-11.13c-.48-3.18,1.66-4,3.22-1.19l2.58,4.61a7.85,7.85,0,0,1,.5,1.14l4.92,14.85a6,6,0,0,0,1,1.89l4.41,5.44a6.13,6.13,0,0,1,1.1,2.23l4,14.59a5.78,5.78,0,0,0,1.46,2.62Z" transform="translate(-136.37 -141.1)"/><path class="cls-6" d="M263.58,469.15l-16.5-4.1a4.89,4.89,0,0,0-4.56,1.15l-4,4a4.82,4.82,0,0,1-4,1.25l-15.08-2.07a4.39,4.39,0,0,0-5,2.85l-1.77,6.71a3.59,3.59,0,0,1-1.38,2l-16.37,12.19c-3.46,2.57-.48,7.34,4,6.36l5.31-1.16a4.89,4.89,0,0,0,1.32-.51l34.87-19.69a5,5,0,0,1,2.16-.62l20.06-1.05C267.51,476.15,268.28,470.32,263.58,469.15Z" transform="translate(-136.37 -141.1)"/><path class="cls-6" d="M518.5,354.2l10.79-13.15a4.9,4.9,0,0,1,4.33-1.8l5.59.8a4.83,4.83,0,0,0,4-1.41L554,328a4.4,4.4,0,0,1,5.69-.68l5.42,4.33a3.69,3.69,0,0,0,2.29.76h20.41c4.31,0,4.77,5.61.61,7.48l-5,2.24a4.76,4.76,0,0,1-1.37.39l-39.73,5a4.82,4.82,0,0,0-2.09.79L523.6,359.44C519.53,362.15,515.43,357.94,518.5,354.2Z" transform="translate(-136.37 -141.1)"/><path class="cls-6" d="M347.11,434.38,344,434a4.23,4.23,0,0,0-3.24,7.47l5.65,4.6a4.23,4.23,0,0,1,1.09,5.21l-4.39,8.58a4.23,4.23,0,0,0,4.65,6.07l9.94-2.12a4.3,4.3,0,0,0,1-.37L371,457.1a4.24,4.24,0,0,0,2-2.25l4.51-11.72a4.23,4.23,0,0,0-5.34-5.51h0a4.23,4.23,0,0,1-4.9-1.65l-4.66-7a4.23,4.23,0,0,0-6.34-.81l-5.76,5.16A4.21,4.21,0,0,1,347.11,434.38Z" transform="translate(-136.37 -141.1)"/><path class="cls-6" d="M564.88,259.12l1.49-1c2-1.37,4.2-.15,3,1.7l-2,3.15a1.37,1.37,0,0,0,.45,2.12l3.84,1.77c1.42.65.72,2.68-1.18,3.39l-5.39,2a3.33,3.33,0,0,1-.6.16l-7.34,1.19a2.1,2.1,0,0,1-1.44-.22l-4.5-2.83c-1.29-.82-.31-2.86,1.62-3.39h0a3.06,3.06,0,0,0,2.15-1.93l1-3.71a3.15,3.15,0,0,1,3-2l3.88.2A3.24,3.24,0,0,0,564.88,259.12Z" transform="translate(-136.37 -141.1)"/></svg>