<svg id="图层_1" data-name="图层 1" xmlns="http://www.w3.org/2000/svg" viewBox="0 0 158.67 190.22"><defs><style>.cls-1{fill:#f4b72a;}.cls-2{fill:#6e4c3a;}.cls-3{fill:#ee922c;}</style></defs><path class="cls-1" d="M230.75,111.61s-8.46.76-14.51-12.31c0,0-15.06,2.06-15.47-13.35,0,0-5.11-8.74.49-15.09,0,0-12.94-12.78-5.69-23.74,0,0,9.24-13.61,25.23-4.87,0,0,8.66-4.94,12.7,2.72,0,0,3.51-1.12,4.5,0,0,0-4.67-16,14.62-15.28,0,0,16.93-.27,12.09,18.58,0,0-1.31,15,5.34,9.4,0,0,17.42-3.92,11.59,13,0,0,5.61,11.58-10.71,17.59,0,0-8.17,13.28-15.67,15.34,0,0-4.29,16.32-14.18,6.92Z" transform="translate(-124.16 -29.7)"/><path class="cls-2" d="M231.85,149.27l.08-65.39L216.1,64.26s-3-.52-5,3.25c0,0-1.35-.22-1.13-2.09,0,0-4.56-.22-1-1.82,0,0-2.88-2.11-1.62-3.62,0,0,1.18-1.35,3.63,2.64,0,0,3.65,1.86,3.41-.44,0,0-2.37-2-1.19-3.36,0,0,.72-2.14,5,4.12,0,0,1.11.25,1.28-5.71,0,0,1.22-1.76,1.66,7,0,0-1.4,3.55,2.66,7l8.47,9.54.63-11.52s2.12-6.34,5.74.06l1.65,25.61,5.39-7.42-.28-10.06s-6.76-7,.09-2.58c0,0,.52-4.18,2-.08v9.06l6.73-8.1s2.54-2.17,1.28,1.1l-1,1.8s1.07,1,3.49-2.46c0,0,4-6.63,1.91-1.33,0,0-2.08,4-.1,2.72,0,0,12.32-8.87,5.83-1.39,0,0,4.78,6.85-1.94,2.35,0,0-8.94-.72-14.13,8.68,0,0,13.68,2.12,1.25,3.4l-3.6.08L240.63,100l1.52,49.29Z" transform="translate(-124.16 -29.7)"/><path class="cls-3" d="M175.83,169.08s-11.69,1.06-20.05-17c0,0-20.82,2.86-21.39-18.45,0,0-7.06-12.08.69-20.86,0,0-17.89-17.66-7.87-32.82,0,0,12.77-18.8,34.87-6.72,0,0,12-6.84,17.55,3.76,0,0,4.87-1.56,6.23,0,0,0-6.45-22.11,20.21-21.12,0,0,23.4-.38,16.71,25.68,0,0-1.82,20.66,7.37,13,0,0,24.09-5.42,16,17.92,0,0,7.75,16-14.81,24.32,0,0-11.28,18.34-21.65,21.19,0,0-5.93,22.57-19.6,9.57Z" transform="translate(-124.16 -29.7)"/><path class="cls-2" d="M177.35,219.92l.12-89.16-21.88-27.13s-4.22-.72-6.91,4.49c0,0-1.87-.31-1.56-2.89,0,0-6.31-.3-1.33-2.51,0,0-4-2.92-2.24-5,0,0,1.63-1.86,5,3.65,0,0,5.05,2.58,4.71-.61,0,0-3.27-2.81-1.63-4.64,0,0,1-3,6.87,5.7,0,0,1.54.34,1.78-7.9,0,0,1.68-2.43,2.29,9.61,0,0-1.94,4.9,3.68,9.65L178,126.35l.88-15.92s2.92-8.77,7.93.08l2.28,35.4,7.45-10.25-.38-13.91s-9.35-9.61.11-3.57c0,0,.72-5.77,2.81-.11V130.6l9.31-11.2s3.5-3,1.77,1.53l-1.31,2.48s1.48,1.34,4.81-3.39c0,0,5.53-9.18,2.65-1.86,0,0-2.88,5.5-.14,3.76,0,0,17-12.25,8.06-1.9,0,0,6.61,9.45-2.68,3.24,0,0-12.36-1-19.54,12,0,0,18.92,2.93,1.74,4.7l-5,.11L189.49,153l2.11,65.2Z" transform="translate(-124.16 -29.7)"/></svg>