<svg xmlns="http://www.w3.org/2000/svg" viewBox="0 0 160.49 240.38"><defs><style>.cls-1{fill:#3c7778;}.cls-2{fill:#3f3221;}.cls-3{fill:#498484;}</style></defs><title>树2</title><g id="图层_2" data-name="图层 2"><g id="_0-展示" data-name="0-展示"><g id="树2"><path class="cls-1" d="M21.16,64.06C15,34.59,41.4,30.22,47.21,37.33,43.78,18.82,75.4-18.2,91.46,10.59c33.21-15.08,80.17,22.06,38.18,56.28,28.62-.06,50.55,49.29,3.25,62.32,47.3,11.65-5.48,56.89-29.47,58.95,4.8,19.88-19.88,30.85-37,19.2-9.6,17.13-48.67,8.91-40.44-15.77-19.2,0-28.11-45.25-4.8-48C-3.52,121-10.38,57.21,21.16,64.06Z"/><path class="cls-2" d="M80.24,82.57c-9.73,4.11-41.5,128-36,156.14,2.09,3.39,8.22.7,8.23,0C52.45,238.71,75.09,118.9,80.24,82.57Z"/><polygon class="cls-2" points="53.8 62.72 65.81 117.49 62.64 128.35 53.8 62.72"/><polygon class="cls-2" points="76.7 104.63 101.91 86.68 73.95 120.39 76.7 104.63"/><path class="cls-2" d="M67.45,156.13l38.05-27.77S69.36,173.54,63.38,178,67.45,156.13,67.45,156.13Z"/><path class="cls-1" d="M123.65,54.5c1.57-1.79-2.35-13.72-12.3-6.89,1.58-10.93-20.86-13.06-19.89,0"/><path class="cls-1" d="M84.84,94.39c3.54-1.24,14.46,3,14,9.71,0,0,14.2-12.94,10.71-17.42s-21.19-1.74-21.19-1.74Z"/><path class="cls-1" d="M48.67,85.92c.75-3.24,6.14-11.17,11.14-8.71,2.8-7.46,17-8,18.22-5.47s-10.2-16.18-10.2-16.18l-20.4,8.71Z"/><circle class="cls-3" cx="80.81" cy="43.27" r="6.86"/><circle class="cls-3" cx="122.06" cy="48.04" r="4.77"/><circle class="cls-3" cx="108.77" cy="80.49" r="6.86"/><circle class="cls-3" cx="131.9" cy="107.75" r="3.66"/><circle class="cls-3" cx="113.57" cy="156.56" r="8.07"/><circle class="cls-3" cx="84.61" cy="188.12" r="4.37"/><circle class="cls-3" cx="39.93" cy="138.9" r="4.82"/><circle class="cls-3" cx="51.42" cy="104.92" r="3.99"/><circle class="cls-3" cx="40.74" cy="66.51" r="5.63"/></g></g></g></svg>