<svg id="图层_1" data-name="图层 1" xmlns="http://www.w3.org/2000/svg" viewBox="0 0 361 361"><defs><style>.cls-1{fill:#8ba53d;}.cls-2{fill:#7f9335;}.cls-3{fill:#cec619;}.cls-4{fill:#a1a826;}.cls-5{fill:#963a17;}</style></defs><title>我想要的2021终稿</title><path class="cls-1" d="M204.82,63.12a66.88,66.88,0,0,0,12.88,7.41,9,9,0,0,0,7.77,2.65c-3,.55-11.69,1.92-16.78.76-6.24-1.42-56.45-.45-81.93-9.18,0,0,.46-.56,1.36-1.49C141.15,56.72,175.86,42.86,204.82,63.12Z"/><path class="cls-2" d="M204.82,63.12c-29-20.26-63.67-6.4-76.7.15C134.27,56.9,160.73,33,197,50c0,0,15.54,6.78,18.13,17a13.1,13.1,0,0,0,2.6,3.57A66.88,66.88,0,0,1,204.82,63.12Z"/><path class="cls-3" d="M198.52,35a67.55,67.55,0,0,0,14.71,2.18,9.06,9.06,0,0,0,8.21-.38c-2.6,1.6-10.18,6.06-15.35,6.85-6.33,1-52.74,20.23-79.68,21.45,0,0,.23-.69.73-1.88C136.87,52.34,164.11,26.75,198.52,35Z"/><path class="cls-1" d="M198.52,35c-34.41-8.23-61.65,17.36-71.38,28.22,3.38-8.18,19.24-40.12,59.25-37.54,0,0,17,.61,23.1,9.12a13.35,13.35,0,0,0,3.74,2.38A67.55,67.55,0,0,1,198.52,35Z"/><path class="cls-2" d="M58.23,95.33A67.2,67.2,0,0,1,50.1,107.8a9,9,0,0,1-5.72,5.9c2.93-.88,11.29-3.61,15.3-7,4.91-4.11,50.09-26.12,68.85-45.5,0,0-.67-.29-1.89-.71C112.07,60.63,74.86,64.09,58.23,95.33Z"/><path class="cls-1" d="M58.23,95.33c16.63-31.24,53.84-34.7,68.41-34.8-8.36-2.87-42.78-12.16-67.35,19.54,0,0-10.78,13.11-8.49,23.36a13,13,0,0,1-.7,4.37A67.2,67.2,0,0,0,58.23,95.33Z"/><path class="cls-2" d="M53.59,50.63c-5.73,2.93-8.67,4-12.17,12.59C38.3,70.45,35.16,77,34.65,80,37.55,81,47,67.06,51.12,64.78c22.5-12.44,53.31,7.77,77.86-3.41,0,0-.52-.51-1.5-1.35C113.9,54.78,85.12,34.47,53.59,50.63Z"/><path class="cls-1" d="M52.63,57.24c27.17-22.74,61.94,3.44,75.42,2.93-4.26-7.73-30.49-32.07-67.2-15.86,0,0-14.7,6.16-18.93,17.24C40.15,66.18,34.56,77.08,34.65,80,38.08,78.72,41.67,66.43,52.63,57.24Z"/><path class="cls-4" d="M127.62,60.39c4.59-1.64,16.71-4.35,32.89,4.41,20.83,11.26,34.4,46.77,31.28,61.61l.71,7.56C173.92,84.29,143.47,66.49,127.62,60.39Z"/><path class="cls-3" d="M130.86,82.89c-9.83-17.37-5.27-21.65-5.27-21.65a16.37,16.37,0,0,1,2-.85c15.85,6.1,46.3,23.9,64.88,73.58l.11,1.16L170,122.54,173.2,115l-9.91,2.93S140.68,100.26,130.86,82.89Z"/><path class="cls-5" d="M125.57,70.71s-9,107.71,43.06,242.08l22.77-7.85S164,268.81,153.8,212.12,136,143.63,131.57,83.68Z"/><path class="cls-3" d="M123.15,62.48c-4.8.9-16.64,4.67-26.29,20.46-12.41,20.31-6.44,58.05,3.66,69.38l3.16,6.93C95,106.66,112.47,75.8,123.15,62.48Z"/><path class="cls-4" d="M131.57,83.68c-.16-20.07-6.25-21.48-6.25-21.48a15,15,0,0,0-2.17.28C112.47,75.8,95,106.66,103.68,159.25l.49,1.06,13.31-22.39L110.92,133l10-2.46S131.73,103.75,131.57,83.68Z"/><path class="cls-1" d="M316.08,146.94a66.88,66.88,0,0,0,7.35,12.89,9,9,0,0,0,5.36,6.21c-2.87-1-11.05-4.23-14.85-7.8-4.66-4.37-48.43-28.86-66-49.25,0,0,.69-.25,1.93-.6C264.43,109.3,301.37,114.82,316.08,146.94Z"/><path class="cls-2" d="M316.08,146.94c-14.71-32.12-51.65-37.64-66.19-38.55,8.52-2.4,43.44-9.76,66.06,23.25,0,0,10,13.68,7.05,23.79a13.11,13.11,0,0,0,.43,4.4A66.88,66.88,0,0,1,316.08,146.94Z"/><path class="cls-3" d="M324.87,119.43a66.93,66.93,0,0,0,11.59,9.3,9,9,0,0,0,7.26,3.81c-3.05.08-11.84.11-16.69-1.82-5.94-2.36-55.69-9.09-79.52-21.62,0,0,.54-.48,1.57-1.27C263,103.36,299.38,95,324.87,119.43Z"/><path class="cls-1" d="M324.87,119.43C299.38,95,263,103.36,249.08,107.83c7-5.35,36.87-25,70-2.57,0,0,14.31,9.08,15.31,19.54a13,13,0,0,0,2,3.93A66.93,66.93,0,0,1,324.87,119.43Z"/><path class="cls-2" d="M173.43,100.88a67.68,67.68,0,0,1-13.3,6.68,9.08,9.08,0,0,1-7.92,2.21c3,.71,11.56,2.57,16.71,1.69,6.31-1.07,56.38,2.68,82.35-4.62,0,0-.43-.58-1.27-1.56C237.39,98,203.57,82.25,173.43,100.88Z"/><path class="cls-1" d="M173.43,100.88c30.14-18.63,64-2.86,76.57,4.4-5.75-6.7-30.72-32.07-67.93-17.07,0,0-15.92,5.9-19.13,15.92a13.14,13.14,0,0,1-2.81,3.43A67.68,67.68,0,0,0,173.43,100.88Z"/><path class="cls-2" d="M192.05,59.89c-6.43-.35-9.52-.87-16.86,4.76-6.35,4.67-12.38,8.77-14.33,11.09,2,2.28,17.2-5,21.9-4.86,25.68.59,42,33.59,68.83,36.3,0,0-.18-.7-.61-1.92C241.93,93.89,227.39,61.82,192.05,59.89Z"/><path class="cls-1" d="M187.87,65.13c34.91-6,51.65,34.19,63.53,40.55.24-8.83-10.07-43.09-49.9-47.59,0,0-15.79-2.08-25,5.36-3.87,3.11-14.19,9.72-15.6,12.29C164.47,76.36,173.78,67.54,187.87,65.13Z"/><path class="cls-4" d="M250.92,105.65c4.79.9,16.6,4.67,26.12,20.39,12.26,20.24,6,57.78-4.2,69L269.63,202C278.73,149.65,261.49,118.92,250.92,105.65Z"/><path class="cls-3" d="M242.33,126.73c.32-20,6.41-21.37,6.41-21.37a16.44,16.44,0,0,1,2.18.29c10.57,13.27,27.81,44,18.71,96.31l-.49,1.06L256,180.72l6.59-4.89-10-2.45S242,146.7,242.33,126.73Z"/><path class="cls-5" d="M243.93,113.54s-62.22,88.57-85.29,231l23.59,4.7s-5.36-45.05,14.52-99.19,19.31-68.18,45.79-122.23Z"/><path class="cls-3" d="M246,105.2c-4.59-1.64-16.71-4.35-33,4.44-21,11.3-34.9,46.93-31.93,61.82l-.78,7.58C199.39,129.2,230.06,111.33,246,105.2Z"/><path class="cls-4" d="M242.54,127.78c10-17.43,5.48-21.72,5.48-21.72a14.82,14.82,0,0,0-2-.86c-15.95,6.13-46.62,24-65.72,73.84l-.12,1.16L203,167.56,199.81,160l9.9,2.94S232.54,145.21,242.54,127.78Z"/></svg>