<svg width="71" height="164" viewBox="0 0 71 164" fill="none" xmlns="http://www.w3.org/2000/svg">
<path d="M48.3002 83.9998C48.3002 83.9998 52.3001 103.8 35.2001 104.5C18.0001 105.2 21.3002 106.3 21.3002 106.3L35.2001 151.8L30.8002 154.7C30.8002 154.7 -3.19989 108.8 1.20011 94.1998C5.60011 79.6998 48.3002 83.9998 48.3002 83.9998Z" fill="#1620CF"/>
<path d="M70.1 77.2C70.1 77.2 74.8 103.8 57.6 104.6C40.4 105.4 43.7 106.4 43.7 106.4L57.6 151.9L53.2 154.8C53.2 154.8 19.2 108.9 23.6 94.3C26.8 83.7 50 82 62.6 82.5C67.4 82.6 70.1 77.2 70.1 77.2Z" fill="#2234DC"/>
<path d="M51.7 149.2C56.2 146.6 56 149.1 57.4 151.5C58.8 153.8 56.2 157.9 51.7 160.5C47.2 163.1 43.9 164.4 42.5 162.1C41.1 159.8 47.2 151.8 51.7 149.2Z" fill="#252F64"/>
<path d="M29.7 149.2C34.2 146.6 34 149.1 35.4 151.5C36.8 153.9 34.2 157.9 29.7 160.5C25.2 163.1 21.9 164.4 20.5 162.1C19.1 159.8 25.2 151.8 29.7 149.2Z" fill="#252F64"/>
<path d="M35.3002 35.1998C35.3002 35.1998 16.2001 43.6999 15.2001 59.2999C14.2001 74.8999 15.2001 83.9998 15.2001 83.9998C15.2001 83.9998 44.7001 86.1998 58.4001 83.9998C72.2001 81.7998 71.4001 79.2998 70.5001 64.3998C69.6001 49.4998 57.0001 35.6998 43.7001 35.1998C30.4001 34.5998 35.3002 35.1998 35.3002 35.1998Z" fill="#6596FF"/>
<path d="M38.3002 26.1C40.8002 26.1 42.7001 28.1 42.7001 30.5V34.2C42.7001 36.7 40.7002 38.6 38.3002 38.6C35.8002 38.6 33.9001 36.6 33.9001 34.2V30.5C33.9001 28 35.9002 26.1 38.3002 26.1Z" fill="#F6C5AC"/>
<path d="M35.1002 8.19995H35.6002C41.9002 8.19995 47.0002 13.3 47.0002 19.6C47.0002 25.9 41.9002 31 35.6002 31H35.1002C28.8002 31 25.7002 28 24.9002 19.6C24.0002 11.2 28.8002 8.19995 35.1002 8.19995Z" fill="#F6DCCF"/>
<path d="M26.2002 1.99998C26.2002 1.99998 19.4003 3.29994 20.5003 14.6999C21.6003 26.0999 37.6002 9.49996 39.7002 12.1C41.0002 13.6 41.3003 15.7 40.5003 17.5C40.5003 17.5 46.0003 13.5 46.3003 16C46.6003 18.5 46.3002 20.6 44.6002 21.6C42.9002 22.6 51.4003 21.7 51.4003 12C51.4003 2.29998 39.0002 -6.42799e-05 34.7002 0.199936C31.9002 0.499936 29.0002 1.09998 26.2002 1.99998Z" fill="#373538"/>
<path d="M51.4003 76.1C56.7022 76.1 61.0002 70.8618 61.0002 64.4C61.0002 57.9383 56.7022 52.7 51.4003 52.7C46.0983 52.7 41.8003 57.9383 41.8003 64.4C41.8003 70.8618 46.0983 76.1 51.4003 76.1Z" fill="url(#paint0_linear)"/>
<path d="M6.30005 52.7H48.8C50.1 52.7 51.1 53.7 51.1 55V84.9C51.1 86.2 50.1 87.2 48.8 87.2H6.30005C5.00005 87.2 4 86.2 4 84.9V55C4 53.8 5.00005 52.7 6.30005 52.7Z" fill="#4969B2"/>
<path d="M25.9003 73.2999C28.496 73.2999 30.6002 71.1956 30.6002 68.5999C30.6002 66.0041 28.496 63.8999 25.9003 63.8999C23.3045 63.8999 21.2002 66.0041 21.2002 68.5999C21.2002 71.1956 23.3045 73.2999 25.9003 73.2999Z" fill="white"/>
<path d="M4.90015 83.6001H59.6001C60.9001 83.6001 61.9001 84.6001 61.9001 85.9001V86.4001C61.9001 87.7001 60.9001 88.7001 59.6001 88.7001H4.90015C3.60015 88.7001 2.6001 87.7001 2.6001 86.4001V85.9001C2.6001 84.6001 3.60015 83.6001 4.90015 83.6001Z" fill="#365395"/>
<defs>
<linearGradient id="paint0_linear" x1="44.6146" y1="56.335" x2="61.1168" y2="69.4749" gradientUnits="userSpaceOnUse">
<stop stop-color="#497EEE" stop-opacity="0"/>
<stop offset="1" stop-color="#497DEB"/>
</linearGradient>
</defs>
</svg>
