<svg id="图层_1" data-name="图层 1" xmlns="http://www.w3.org/2000/svg" viewBox="0 0 882 891"><defs><style>.cls-1,.cls-3{fill:#fff;}.cls-2{fill:#35318f;}.cls-3{stroke:#35318f;stroke-linecap:round;stroke-miterlimit:10;stroke-width:7px;}.cls-4{fill:#facea7;}</style></defs><title>12</title><path class="cls-1" d="M539.07,585.37a123.69,123.69,0,0,1-79.91-29.22,96.09,96.09,0,0,1-120.08,3.33A96.93,96.93,0,0,1,306,513.69a79.26,79.26,0,0,1-53.73-148.93,57.69,57.69,0,0,1,56.4-46.87h.84a99,99,0,0,1,189.52-19.58,54.42,54.42,0,0,1,88.59,49.17,123.9,123.9,0,0,1-48.57,237.88Z"/><path class="cls-2" d="M407.06,239.48a95.53,95.53,0,0,1,90.5,64.94,50.92,50.92,0,0,1,86.19,45.25,120.4,120.4,0,1,1-124.6,201.84,92.61,92.61,0,0,1-150.87-42.26,75.76,75.76,0,0,1-52.86-142,53.86,53.86,0,0,1,53.26-45.88c1.29,0,2.56.05,3.82.14a95.52,95.52,0,0,1,94.56-82m0-7a102.52,102.52,0,0,0-100.43,81.94,60.87,60.87,0,0,0-57.4,47.85A82.75,82.75,0,0,0,303.83,518,100.55,100.55,0,0,0,337,562.27a99.61,99.61,0,0,0,122.2-1.58A127.4,127.4,0,1,0,591.4,345.31c.14-1.67.22-3.35.22-5a57.93,57.93,0,0,0-91.11-47.48,102.43,102.43,0,0,0-93.45-60.32Z"/><path class="cls-3" d="M417.12,538.76s-12.8,29.13,13.6,52.07c0,0-75,23.1-77-55.39"/><path class="cls-4" d="M360.93,543.7S366.48,599,420.34,587c0,0-33-7.4-36.52-33.72,0,0,2.08-13.22-3.69,4.25,0,0-3.82,3.81-.94-9.25s-3.92-7.77-5.13,1.46-2.49-6.48-5-10.94-4.44-1.36-3.06,5.72-3.14-5-4.9-11.16S359.8,537.53,360.93,543.7Z"/><path class="cls-4" d="M264.57,369.93s-58.47,27.51-38.77,78,92.16,55,92.16,55S199.88,460.28,264.57,369.93Z"/><path class="cls-4" d="M502.82,312.47s60.83-25,71.92,41.09c0,0,104.08,48.62,56.36,151.8C631.1,505.36,628.44,359.22,502.82,312.47Z"/></svg>