<?xml version="1.0" encoding="UTF-8"?>
<svg width="384px" height="384px" viewBox="0 0 384 384" version="1.1" xmlns="http://www.w3.org/2000/svg" xmlns:xlink="http://www.w3.org/1999/xlink">
    <!-- Generator: Sketch 63.1 (92452) - https://sketch.com -->
    <title>睡觉的猫</title>
    <desc>Created with Sketch.</desc>
    <g id="睡觉的猫" stroke="none" stroke-width="1" fill="none" fill-rule="evenodd">
        <ellipse id="椭圆形" fill="#EEDDE5" cx="192" cy="192" rx="112" ry="72"></ellipse>
        <g id="猫" transform="translate(94.024164, 121.890663)">
            <path d="M22.9311558,45.1640971 C29.2686874,27.2437662 43.7429223,14.3867643 66.3538605,6.59309128 C100.270268,-5.09741823 143.956405,-1.35346078 161.204573,18.7223384 C178.452741,38.7981376 177.90503,43.3314437 180.125251,48.0751164 C182.345472,52.8187892 189.549107,64.6590191 185.947289,77.4278945 C182.345472,90.1967699 173.586829,100.278259 130.396285,107.508427 C105.15608,111.574568 63.6579497,104.369427 69.5074647,93.0755224 C73.4071414,85.5462528 57.8817051,69.5757777 22.9311558,45.1640971 Z" id="路径-108" fill="#FBFAE5"></path>
            <path d="M30.5005818,89.3778937 C25.4542978,91.7759914 22.9311558,94.6027806 22.9311558,97.8582613 C22.9311558,102.741482 25.4823763,103.235712 26.7158688,103.235712 C27.9493613,103.235712 29.4251592,105.083985 31.3407058,105.083985 C33.2562524,105.083985 29.6880243,106.126264 42.8451547,106.126264 C51.616575,106.126264 62.4557069,103.955074 75.3625504,99.6126959 L80.2016028,86.4332304 L54.0233992,78.3836736 L30.5005818,89.3778937 Z" id="路径-111" fill="#FBFAE5"></path>
            <path d="M33.2562524,92.1950549 C37.3095823,93.647196 40.2962128,95.2422019 42.2161439,96.9800729 C45.0960407,99.5868792 49.0571913,100.746873 58.0021452,98.1566978 C65.1120698,96.7349427 66.4097278,96.0381506 69.0916053,92.1950549 C71.7734828,88.3519593 72.7199151,84.9909084 75.3569798,81.781618 C77.9940444,78.5723276 77.5148915,77.5397166 77.5148915,78.0560221 C77.5148915,78.5723276 65.4682746,67.3660477 55.158635,69.1332831 C48.2855419,70.3114401 41.7160528,73.6452107 35.4501676,79.1345949 L33.2562524,92.1950549 Z" id="路径-107" fill="#FBFAE5"></path>
            <path d="M23.1292503,42.982597 C28.7636198,35.1214805 39.9616668,32.1218921 56.7233912,33.9838318 C67.502535,29.3425233 75.7388634,24.0689634 79.3021647,25.7813218 C81.6776989,26.9228941 79.3476596,34.1793321 72.3120469,47.5506359 C79.0536925,56.0364864 81.3837318,65.1750138 79.3021647,74.9662182 C78.5381194,78.584862 76.6487391,78.6639918 76.1114813,79.7238548 C75.5742236,80.7837177 53.3414838,76.4125374 50.9125529,73.9978833 C40.8060965,86.4934459 39.0748492,93.0502443 35.1168002,93.0755224 C31.1434708,91.2332624 28.9556585,90.6804339 25.1762497,87.8479563 C21.5674983,84.5584642 16.1512979,83.9984045 17.4945011,63.7827437 C9.39659451,62.2594825 0,56.1054186 0,47.5506359 C2.41014423,43.6955119 10.1198943,42.1728323 23.1292503,42.982597 Z" id="路径-106" fill="#FCC271"></path>
            <path d="M125.767488,28.1211462 C108.638697,37.9282999 101.694528,51.2058177 104.934981,67.9536996 C106.783957,78.6243143 110.127164,85.7657123 114.964603,89.3778937" id="路径-109" stroke="#FCC271"></path>
            <path d="M180.125251,48.0751164 C180.125251,49.1005583 181.220711,62.3308367 173.34607,73.7147543 C165.471429,85.098672 149.663226,88.9641367 127.561155,88.9641367 C112.826442,88.9641367 100.116616,87.849033 89.4316789,85.6188257 C79.2211318,83.7550256 73.3477927,84.5318584 71.8116615,87.949324 C69.5074647,93.0755224 70.1181423,96.6474926 77.5489319,102.09273 C97.8861234,112.153772 122.20676,108.476826 122.20676,108.476826 C122.20676,108.476826 170.07079,104.427613 181.787596,87.949324 C195.102514,69.1271779 180.125251,47.0496746 180.125251,48.0751164 Z" id="路径-110" fill="#FCC271"></path>
            <path d="M167.030281,25.4508742 C155.936921,31.5990889 150.863347,40.5282589 151.809557,52.2383841 C153.228872,69.8035719 159.516065,76.0706394 166.046841,81.0871946 C169.143689,79.082502 174.22229,74.5902733 177.689776,65.6892875 C182.82413,51.5718899 179.595572,46.9276843 176.668188,40.3198621 C174.58875,35.7846514 171.376115,30.828322 167.030281,25.4508742 Z" id="路径" fill="#FCC271"></path>
            <path d="M106.718161,75.1790835 C114.80144,74.8365608 122.600197,79.5694975 130.114431,89.3778937 C122.253727,89.4219724 120.851816,89.2685139 114.385048,88.949755 C110.386747,84.8156037 107.831118,80.2253798 106.718161,75.1790835 Z" id="路径-2" fill="#FCC271"></path>
            <path d="M55.4025922,11.3338635 C62.0315026,19.219498 71.3502667,21.9153475 83.3588844,19.421412 C101.371811,15.6805087 101.750033,2.75812029 99.6207272,1.13686838e-13 C81.605144,1.63560233 66.8657657,5.41355682 55.4025922,11.3338635 Z" id="路径-112" fill="#FCC271"></path>
            <path d="M68.4742026,75.3855684 C69.343859,75.92157 65.4745306,81.4478763 62.8723395,82.1320857 C60.2701483,82.816295 63.9664062,78.0406414 65.9314236,76.5321236 C67.896441,75.0236058 67.6045461,74.8495667 68.4742026,75.3855684 Z" id="路径-3" fill="#5C5C5C"></path>
            <path d="M39.3934791,84.9107418 C39.3934791,86.151618 44.5765506,89.9698226 46.1719628,89.0437667 C47.7673749,88.1177108 39.3934791,83.6698657 39.3934791,84.9107418 Z" id="路径-4" fill="#5C5C5C"></path>
            <path d="M53.3689152,94.3681405 C53.3127365,94.2860711 53.7398011,93.8529986 53.850348,93.7625186 C54.9075987,92.8971839 59.021134,91.9864721 59.9762657,93.0755224 C60.3779441,93.5335199 59.5788926,94.5316487 57.5791113,96.0699089 C55.4598598,95.9398078 54.0564611,95.3725516 53.3689152,94.3681405 Z" id="路径-5" fill="#5C5C5C"></path>
            <path d="M17.4945011,63.7827437 C16.1876268,76.9582025 18.9563688,85.1830108 25.8007273,88.4571686 C36.067265,93.3684054 40.4182098,96.0330449 44.5240892,98.4046156 C48.6299687,100.776186 60.3636801,98.5864977 66.3059405,95.5921112 C70.0085886,92.9465087 71.9986672,84.4377256 74.7737996,82.2735314 C77.5489319,80.1093372 82.387838,75.5560708 79.5997022,61.7983786 C78.227704,56.3183553 75.7984855,51.5691077 72.3120469,47.5506359" id="路径-115" stroke="#FCC271"></path>
        </g>
    </g>
</svg>