<svg xmlns="http://www.w3.org/2000/svg" viewBox="0 0 400 400"><defs><style>.cls-1{isolation:isolate;}.cls-2,.cls-7{fill:#e55564;}.cls-3{fill:#ff8597;}.cls-4{fill:#ff8fac;}.cls-4,.cls-5,.cls-7{opacity:0.3;}.cls-5{fill:#b53e39;}.cls-5,.cls-7{mix-blend-mode:multiply;}.cls-6{fill:#fff;}.cls-8{fill:#677de8;}</style></defs><title>元素整理</title><g class="cls-1"><g id="图层_12" data-name="图层 12"><circle class="cls-2" cx="189.94" cy="219.02" r="84.96"/><path class="cls-3" d="M111,233.34c-5.43-38.61,18.87-78.3,51.89-94.88-.87-.53-4.55,2.08-6,2.06-36.37,16.67-56.52,52.16-51.15,90.34A84.77,84.77,0,0,0,119.4,266.4c1.17.18,2.34.3,3.51.39A88.22,88.22,0,0,1,111,233.34Z"/><path class="cls-4" d="M178.1,134.89a85,85,0,0,0-21.64,6,73.28,73.28,0,0,1,30.95,7.77c8.84,4.58,16.5,11.58,20.69,20.73,3.57,7.81,4.33,17.06.09,24.76a24.82,24.82,0,0,1-4.09,5.46,24.1,24.1,0,0,1-5.42,3.92c-4.46,2.53-9.26,4.38-13.76,6.84a31.78,31.78,0,0,0-6.08,4.13,10,10,0,0,0-3.61,5.78c-.62,4,2.3,7.14,3.35,10.78a8.16,8.16,0,0,1-3.45,9.07c-3.43,2.28-7.73,3-11.66,4a36.77,36.77,0,0,0-5.84,1.77,12.46,12.46,0,0,0-5,4c-3,3.91-4.48,8.85-8.53,11.93-6.32,4.81-14.2,6.41-22,5.69-.71-.06-1.42-.15-2.12-.25a85,85,0,1,0,58.08-132.4Z"/><path class="cls-5" d="M178.21,134.88c5.18,1.35,10.36,2.69,15.51,4.15,6.41,1.81,12.78,3.8,19,6.19a52,52,0,0,1,16.52,9.64,35.77,35.77,0,0,1,10.09,15.33,45.92,45.92,0,0,1,1.91,9.22,38.74,38.74,0,0,1,0,8.94,22.45,22.45,0,0,1-2.33,8.3c-1.63,2.88-4.36,4.6-6.9,6.58a14.79,14.79,0,0,0-5,6.35,12.39,12.39,0,0,0-.61,5.57c.71,7.3,6.07,14.95,2.69,22.28-4.44,9.67-17.14,8.66-25.56,12.27a14.66,14.66,0,0,0-8.9,10.15c-.92,4.09-.35,8.32-.7,12.46a17.91,17.91,0,0,1-5.18,11.61c-3.48,3.32-8.27,4.94-12.92,5.72a53.47,53.47,0,0,1-15.42.13,56.82,56.82,0,0,1-6.82-1.27,52.08,52.08,0,0,1-7.86-2.79,108.44,108.44,0,0,1-21.17-12.42,85,85,0,1,0,53.64-138.41Z"/><path class="cls-6" d="M189.76,304.49a85.56,85.56,0,1,1,12.09-.85A86.54,86.54,0,0,1,189.76,304.49Zm.36-170a86,86,0,0,0-12,.84,84.13,84.13,0,1,0,12-.84Z"/><path class="cls-7" d="M140.64,187.51c-.24,4.42.27,8.88-.36,13.25-.87,6-3.88,12.06-2.21,17.9a11.69,11.69,0,0,0,22.6-.4c1-4.18-.26-8.77,1.29-12.79,1.72-4.42,6.39-6.93,9-10.87a13.83,13.83,0,0,0,.44-14.33c-3.36-5.76-10.39-8-16.65-7.71C145.6,173,141.13,178.46,140.64,187.51Z"/><path class="cls-7" d="M169,147.93a13.18,13.18,0,0,0-10.33.15c-3.16,1.58-5.41,5.2-4.75,8.68.82,4.32,5.4,6.8,9.65,7.94s8.92,1.69,12.25,4.57c3.06,2.66,4.33,6.76,6.09,10.41s4.7,7.34,8.75,7.57c3.28.19,6.36-2.15,7.72-5.14a14.73,14.73,0,0,0,.47-9.66c-1.66-6.68-6.16-12.37-11.53-16.66S169,147.93,169,147.93Z"/><path class="cls-7" d="M114.89,219.79c1.35,3.43,4.84,6.11,8.51,5.82a8.87,8.87,0,0,0,7.29-6.17c1.75-5.28-1.05-16.27-7.91-16.6C115.32,202.48,112.77,214.45,114.89,219.79Z"/><path class="cls-7" d="M132.38,266.1c3.88,7.4,9.63,14.1,17.22,17.6,9.26,4.27,21.27,2.87,28.34-4.48s7.6-20.5.2-27.52c-4.48-4.25-10.78-5.81-16.42-8.33-6.93-3.1-13.22-7.87-20.64-9.53-5.78-1.3-17.18.35-17.78,7.86C122.8,248,129.46,260.55,132.38,266.1Z"/><path class="cls-8" d="M107.44,237.74C102.62,240,82,248.88,90.79,256.37c4.7,4,45.73-4.23,92.43-24.7,59.66-26.15,101.16-56.85,101.58-66,.17-3.87-4.11-5-7.24-5.05-4.63-.11-9.07,1.05-13.51,2.19-.92.24-8.55,2.7-8.64,2.61l-7.64-8.53c.07.08,53.88-25.71,61.44,2.18,7.91,29.18-71.58,67.53-97.34,81.48-18.62,10.09-40.39,19-60.34,26.11-17.55,6.27-82.79,23.88-84.32-3.45-.76-13.36,30.72-32.06,38.53-34.84Z"/><path class="cls-6" d="M107.34,237.63c-3.08,1.44-6.15,2.86-9.1,4.55-3.22,1.85-6.86,4.06-8.88,7.28a5.06,5.06,0,0,0,1.44,7.18c1.4.92,3.49.87,5.09.86,7.79,0,15.68-1.85,23.22-3.64a344.6,344.6,0,0,0,36.26-11c14.5-5.19,28.69-11.21,42.61-17.8,12.57-6,24.92-12.38,37-19.36a331.47,331.47,0,0,0,28.26-18.13c6-4.35,12-8.94,17.11-14.37,2.46-2.63,7.49-8.14,2.88-11.32-1.91-1.32-4.44-1.53-6.68-1.48a47.44,47.44,0,0,0-10.71,1.75c-1.83.46-3.62,1-5.43,1.58l-2.94.91c-.41.12-1.49.67-1.91.55-.14,0-.54-.68-.67-.83l-1-1.07L252,161.21l-4-4.44-.31.25c.53,0,1.37-.56,1.83-.76q2.43-1,4.89-2a139.19,139.19,0,0,1,16.32-5.4,67.14,67.14,0,0,1,19.42-2.56c5.57.23,11.48,1.71,15.3,6.06A17,17,0,0,1,309.12,167c-1.14,5.5-4.41,10.4-7.95,14.65a104.53,104.53,0,0,1-15.58,14.67,241.25,241.25,0,0,1-19.85,13.92c-13.12,8.35-26.76,15.82-40.5,23.09-5.5,2.91-11,5.86-16.5,8.75-11,5.79-22.38,10.88-33.89,15.57-14.44,5.88-29,11.27-44.13,14.95a211.14,211.14,0,0,1-21.27,4.11,103.3,103.3,0,0,1-20.93,1c-5.38-.37-11.25-1.33-15.72-4.58-3.88-2.81-6.21-7.89-5.09-12.68a20.85,20.85,0,0,1,4.66-8.33,60.85,60.85,0,0,1,8.13-7.92,117.84,117.84,0,0,1,19.12-12.79,45.25,45.25,0,0,1,6.22-2.94l-.34-.05,1.69,9.38c0,.19.52.07.49-.13l-1.7-9.38c0-.14-.27-.08-.34,0-5.61,2-10.91,5.46-15.85,8.73-6.57,4.35-13.14,9.27-18.14,15.43a21,21,0,0,0-4.38,7.92,12.2,12.2,0,0,0,.61,7.33c1.77,4.5,6,7.16,10.4,8.59,5.88,1.9,12.27,2.09,18.39,1.87a149.74,149.74,0,0,0,22-2.67,233.54,233.54,0,0,0,36.76-10.07c11.91-4.34,23.7-9,35.26-14.25,8.95-4.05,17.62-8.58,26.29-13.17,13-6.87,26-13.72,38.68-21.23,13.85-8.23,27.74-17.1,39.46-28.24,4.56-4.34,8.94-9.16,11.91-14.76,2.27-4.3,3.65-9.25,2.55-14.09a16.49,16.49,0,0,0-10.22-11.93c-5.6-2.18-11.93-2-17.8-1.3-11,1.39-21.72,5.07-31.85,9.45l-1.48.65c-.21.09-.72.19-.4.22-.1,0-.45.1-.32.25l3.83,4.26,1.91,2.13.95,1.07c.24.26.68,1,1,1.09a1.19,1.19,0,0,0,.67-.08c.8-.21,1.59-.47,2.37-.71A88.93,88.93,0,0,1,273,161c3.5-.45,12.69-.8,11.52,5.22a11.13,11.13,0,0,1-2.42,4.43c-3.94,5.05-9.17,9.2-14.21,13.09a281.23,281.23,0,0,1-24.7,16.76,485.68,485.68,0,0,1-74.4,37,390.12,390.12,0,0,1-38.4,13.09,189.71,189.71,0,0,1-27.87,6.08,40.67,40.67,0,0,1-8.39.41c-2.19-.18-3.91-.93-4.86-3.1-1.49-3.39,2-6.55,4.34-8.4a56.79,56.79,0,0,1,10.32-6.07c1.21-.58,2.43-1.14,3.65-1.71C107.84,237.71,107.56,237.52,107.34,237.63Z"/><path class="cls-6" d="M72.17,259.65c-.9,2.52.35,5.11,2.09,6.94a17.87,17.87,0,0,0,7,4.27,39.92,39.92,0,0,0,8.78,1.86,64.17,64.17,0,0,0,9.8.39,52,52,0,0,0,11.1-1.62c.3-.07.21-.43-.1-.35a55.36,55.36,0,0,1-19,1.37c-5.56-.5-11.55-1.5-16-5.06-2.24-1.78-4.28-4.78-3.23-7.73.1-.27-.39-.29-.47-.07Z"/><path class="cls-6" d="M100.09,261.24a270.37,270.37,0,0,0,37.69-7.65q5.22-1.46,10.35-3.12c.28-.09.24-.29,0-.2a267.51,267.51,0,0,1-37.23,9.14q-5.32.9-10.69,1.6c-.21,0-.41.27-.07.23Z"/><path class="cls-6" d="M122.67,264.51a293.4,293.4,0,0,0,39.3-9.65q5.39-1.73,10.71-3.65c.31-.11,0-.25-.19-.17A296.34,296.34,0,0,1,134,262.1q-5.59,1.18-11.21,2.17c-.22,0-.41.3-.07.24Z"/><path class="cls-6" d="M177.74,239.74q15.3-5.1,30-11.67t28.54-14.49q7.92-4.52,15.59-9.49c.27-.18-.14-.28-.31-.17q-13.47,8.73-27.77,16.11t-29.08,13.21q-8.46,3.36-17.09,6.23c-.28.09-.22.36.07.27Z"/><path class="cls-6" d="M259.65,156.71c11.12-4,24-8.2,35.14-2a19,19,0,0,1,6.46,5.73c.1.14.57,0,.44-.2-3.07-4.41-8-7.09-13.14-8.25-6-1.35-12.2-.58-18.08,1-3.74,1-7.38,2.27-11,3.56-.32.12,0,.32.2.23Z"/><path class="cls-6" d="M267.34,191.62a52.65,52.65,0,0,0,20.41-16.09c2.56-3.37,5.19-7.78,4.1-12.18-.93-3.75-4.41-6-8-6.92-5.3-1.31-10.75.41-16,.91-.12,0-.52.22-.21.19,4.81-.45,9.7-1.95,14.55-1.18,3.57.57,7.32,2.45,8.79,5.94,1.75,4.15-.4,8.67-2.78,12.08a50.29,50.29,0,0,1-8.78,9.48,51.63,51.63,0,0,1-12.34,7.71c-.29.13.16.11.27.06Z"/><path class="cls-6" d="M91.42,261.71a17.18,17.18,0,0,1-6.84-1.16c-2.13-.8-4.44-2.11-5.38-4.3-1.37-3.19,1.09-6.14,3.09-8.41a42.35,42.35,0,0,1,8.35-7.22,61.53,61.53,0,0,1,11-5.68c.31-.13,0-.27-.19-.19-7,2.82-13.59,6.68-18.75,12.19-2.12,2.26-5,5.31-4.19,8.7.59,2.33,2.75,3.84,4.82,4.77A17.64,17.64,0,0,0,91.22,262c.17,0,.52-.28.2-.26Z"/><path class="cls-6" d="M164.39,248.5a192.12,192.12,0,0,0,34.51-10.81q4.65-2,9.18-4.14c.29-.14-.16-.13-.28-.07a190.27,190.27,0,0,1-33.43,12.45q-4.91,1.32-9.89,2.38c-.19,0-.42.26-.09.19Z"/><path class="cls-6" d="M236.7,221.35c10.22-5.11,20.35-10.48,30.19-16.31,8.62-5.1,17.06-10.81,23.81-18.29a52.58,52.58,0,0,0,5.16-6.63,17.4,17.4,0,0,0,3-7.91c0-.22-.47-.13-.48,0-.42,5.14-3.94,9.62-7.19,13.38a72.58,72.58,0,0,1-10.89,10.13c-8.21,6.3-17.36,11.33-26.43,16.28q-8.61,4.69-17.37,9.07c-.3.15,0,.35.2.23Z"/></g></g></svg>