<svg id="雨水" xmlns="http://www.w3.org/2000/svg" xmlns:xlink="http://www.w3.org/1999/xlink" width="200" height="200" viewBox="0 0 200 200">
  <defs>
    <clipPath id="clip-path">
      <circle id="椭圆_11" data-name="椭圆 11" cx="100" cy="100" r="100" fill="none"/>
    </clipPath>
  </defs>
  <g id="组_17" data-name="组 17" transform="translate(0 0)" clip-path="url(#clip-path)">
    <rect id="矩形_11" data-name="矩形 11" width="206.078" height="218.272" transform="translate(-3.039 -9.136)" fill="#ccaf9b"/>
    <text id="_" data-name=" " transform="translate(63.5 96.417)" font-size="1" font-family="SegoeUI, Segoe UI"><tspan x="0" y="0"> </tspan></text>
    <ellipse id="椭圆_2" data-name="椭圆 2" cx="16.25" cy="3.125" rx="16.25" ry="3.125" transform="translate(75.08 176.418)" fill="#dfd7ce"/>
    <ellipse id="椭圆_3" data-name="椭圆 3" cx="16.25" cy="3.125" rx="16.25" ry="3.125" transform="translate(93.348 179.387)" fill="#dfd7ce"/>
    <ellipse id="椭圆_4" data-name="椭圆 4" cx="38.625" cy="5.875" rx="38.625" ry="5.875" transform="translate(8.348 161.387)" fill="#dfd7ce"/>
    <ellipse id="椭圆_5" data-name="椭圆 5" cx="38.625" cy="5.875" rx="38.625" ry="5.875" transform="translate(136.348 167.387)" fill="#dfd7ce"/>
    <ellipse id="椭圆_6" data-name="椭圆 6" cx="23.375" cy="4.312" rx="23.375" ry="4.312" transform="translate(26.723 178.637)" fill="#dfd7ce"/>
    <g id="组_14" data-name="组 14" transform="translate(81.442 91.851)">
      <path id="路径_82" data-name="路径 82" d="M1737.088,608.726l5.566,5.907,2.613-2.385-7.27-5.111Z" transform="translate(-1723.911 -598.066)" fill="#fab001"/>
      <path id="路径_83" data-name="路径 83" d="M1885.922,823.342h4.555s-1.941-2.75-1.482-5.041-.8-9.488-.8-9.488h-3.41v10.513Z" transform="translate(-1834.687 -749.324)" fill="#ededed"/>
      <path id="路径_84" data-name="路径 84" d="M1856.236,733.266s.141,2.325-11.706,8.957c-7.035,5.6-9.057,21.287-1.617,23.794a27.158,27.158,0,0,0,8.329.566,1.812,1.812,0,0,0-.4-2.588,78.2,78.2,0,0,0,.647-10.317c-.162-4.077-.809-2.217-.89-5.937,0,0,7.926-1.7,8.006-7.2S1856.236,733.266,1856.236,733.266Z" transform="translate(-1799.751 -692.664)" fill="#463936"/>
      <path id="路径_85" data-name="路径 85" d="M1883.874,751.69l1.814,4.451s1.663,2.313,1.663,9.429c0,0,2.992,1.211,4.448,0l.1-5.805a18.06,18.06,0,0,0,5.078-14.7c-.324-5.014-2.129-3.2-1.886-6.681l-3.8-.709-1.485.37Z" transform="translate(-1834 -695.966)" fill="#463936"/>
      <path id="路径_86" data-name="路径 86" d="M1926.249,757.04v10.27h3.234v-3.656a22.872,22.872,0,0,1,.441-4.465c.118-.592.265-1.34.449-2.285a14.91,14.91,0,0,1,.917-3.594,57.78,57.78,0,0,0,1.908-10.576l-5.574-2.03Z" transform="translate(-1865.781 -698.243)" fill="#463936"/>
      <path id="路径_87" data-name="路径 87" d="M1896.092,717.738s-2.749,1.348-2.965,2.642,4.906,1.24,4.906,1.24l1.024-1.941Z" transform="translate(-1840.935 -681.018)" fill="#463936"/>
      <path id="路径_88" data-name="路径 88" d="M1897.768,849.113s2.853.8,4.321,0c0,0-.252,1.972.8,2.307s2.132,1.847.252,2.056h-3.273s-1.6.052-2.1-2.182C1897.306,848.525,1897.768,849.113,1897.768,849.113Z" transform="translate(-1844.266 -779.509)" fill="#fff"/>
      <path id="路径_89" data-name="路径 89" d="M1915.368,742.868s3.774-3.019,7.925-15.634c2.271-6.955,1.71-8.734,1.987-15.042.222-5.042-4.539,1.523-6.459,4.36a3.887,3.887,0,0,0-.593,2.918,5.176,5.176,0,0,0,1.021,2.425c1.174,1.294,2.842,9.37-3.95,17.578Z" transform="translate(-1857.569 -675.472)" fill="#fffffe"/>
      <path id="路径_90" data-name="路径 90" d="M1908.026,700.958s5.068,1.063,7.655-1.74a6.478,6.478,0,0,0,0-9.327c-2.7-2.8-7.494-1.779-8.194.97s-1.779,1.887-2.48,4.744l1.671,2.965-.6,1.579Z" transform="translate(-1849.85 -658.885)" fill="#463936"/>
      <path id="路径_91" data-name="路径 91" d="M1926.249,847.127h3.234s-.162,1.941.674,2.507,1.995,1.752.4,1.725-2.857.337-3.847-1.224C1926.5,848.76,1926.249,847.127,1926.249,847.127Z" transform="translate(-1865.781 -778.059)" fill="#fff"/>
      <ellipse id="椭圆_7" data-name="椭圆 7" cx="1.213" cy="0.957" rx="1.213" ry="0.957" transform="translate(59.716 35.431) rotate(-49.6)" fill="#c6c47c"/>
      <ellipse id="椭圆_8" data-name="椭圆 8" cx="1.213" cy="0.957" rx="1.213" ry="0.957" transform="translate(61.227 32.278) rotate(-76.268)" fill="#c6c47c"/>
      <path id="路径_92" data-name="路径 92" d="M1932.881,694.157s-3.558,1.7-4.448,1.617.445.526,1.132,1.334a5.516,5.516,0,0,1,1.154,3.51,3.469,3.469,0,0,0,.921,2.264,2.741,2.741,0,0,0,1.712.41C1933.933,703.293,1937.343,696.063,1932.881,694.157Z" transform="translate(-1867.198 -663.332)" fill="#fffffe"/>
      <path id="路径_93" data-name="路径 93" d="M1943.73,707.2s-.741.612-2.763,0a3.024,3.024,0,0,1,1.752,2.8" transform="translate(-1876.82 -673.116)" fill="none" stroke="#b7acab" stroke-miterlimit="10" stroke-width="1"/>
      <path id="路径_94" data-name="路径 94" d="M1939.293,703.609s-1.021.34-.794,1.248,1.134.189,1.21-.624S1939.293,703.609,1939.293,703.609Z" transform="translate(-1874.944 -670.406)" fill="#b9808f"/>
      <ellipse id="椭圆_9" data-name="椭圆 9" cx="0.438" cy="0.787" rx="0.438" ry="0.787" transform="translate(60.274 35.161) rotate(-63.065)" fill="#191515"/>
      <ellipse id="椭圆_10" data-name="椭圆 10" cx="0.438" cy="0.787" rx="0.438" ry="0.787" transform="translate(61.535 31.671) rotate(-83.396)" fill="#191515"/>
      <path id="路径_95" data-name="路径 95" d="M1897.3,724.817a14.1,14.1,0,0,1,1.923-1.008c.548-.166.454,1.48.454,1.48S1897.721,725.55,1897.3,724.817Z" transform="translate(-1844.072 -685.563)" fill="#d8a4a1"/>
      <path id="路径_96" data-name="路径 96" d="M1874.77,798.326s-.078-3.22-5.453-4.41" transform="translate(-1823.082 -738.151)" fill="none" stroke="#352b2a" stroke-miterlimit="10" stroke-width="1"/>
      <path id="路径_97" data-name="路径 97" d="M1711.395,645.1s5.907-16.205,20.749-12.419c0,0,1.15-19.31,16.818-21.809h0s3.628-14.691,11.958-15.6c0,0-9.548-6.78-3.938-11.965s8.784-3.029,8.784-3.029-14.237-3.938-21.961,1.06-32.411,17.266-32.411,17.266l-11.662,19.234-4.392,9.693.3,20.9s0-8.33,6.21-8.784S1711.395,645.1,1711.395,645.1Z" transform="translate(-1692.6 -576.816)" fill="#fab001"/>
      <path id="路径_98" data-name="路径 98" d="M1748.458,681.777c-8.33-16.357.01-54.068.01-54.068s12.561,34.531,20.739,41.649" transform="translate(-1729.664 -613.496)" fill="none" stroke="#926a2a" stroke-miterlimit="10" stroke-width="1"/>
      <path id="路径_99" data-name="路径 99" d="M1797.155,636.932s-28.772-18.326-37.557-19.84c0,0,26.273-10.3,49.515,4.241" transform="translate(-1740.793 -602.879)" fill="none" stroke="#926a2a" stroke-miterlimit="10" stroke-width="1"/>
      <line id="直线_23" data-name="直线 23" x2="37.939" y2="39.557" transform="translate(25.494 22.364)" fill="none" stroke="#f4f0df" stroke-miterlimit="10" stroke-width="5"/>
      <path id="路径_100" data-name="路径 100" d="M1703.627,610.968s2.877-19.386,29.23-25.6c0,0,3.938-14.388,24.687-11.056,0,0,4.392-2.272-13.934-3.18s-21.658,0-36.2,8.784c0,0-7.339,9.3-11.662,10.992,0,0-18.477,20.661-8.33,51.558C1687.422,642.47,1683.938,622.781,1703.627,610.968Z" transform="translate(-1684.378 -570.857)" fill="#ffc810"/>
      <path id="路径_101" data-name="路径 101" d="M1754.237,647.709c-5.081-7.5-.444-25.9-.444-25.9s22.36-4.619,29.674.3" transform="translate(-1734.988 -607.598)" fill="none" stroke="#926a2a" stroke-miterlimit="10" stroke-width="1" opacity="0.3"/>
      <path id="路径_102" data-name="路径 102" d="M1803.71,789.791s-8.249.4-9.3-3.154-.889-4.771,1.052-7.116,4.609-5.176.485-9.3-7.763.971-3.72,1.86,4.286,3.957.4,7.195-2.992,14.154,12.777,12.133Z" transform="translate(-1763.944 -719.186)" fill="#463936"/>
      <path id="路径_103" data-name="路径 103" d="M1913.773,681.388s-2.676.263-4.1-1.294c-.943-1.253-1.712-1.334-1.712-1.334s-.876,4.731,2.3,6.564Z" transform="translate(-1851.985 -651.784)" fill="#463936"/>
      <path id="路径_104" data-name="路径 104" d="M1925.207,800.592l-1.931,1.477,7.442,7.339a6.254,6.254,0,0,0,8.46.157c3.067-3.294,0-8.292-2.385-10.109l-1.363,1.363s5.554,4.089.992,7.137c-3.313,1.8-7.743-3.824-7.743-3.824Z" transform="translate(-1863.552 -742.306)" fill="#f6d906"/>
    </g>
    <g id="组_15" data-name="组 15" transform="translate(6.5 -25.321)">
      <line id="直线_24" data-name="直线 24" y2="84.5" transform="translate(65.5 45.958)" fill="none" stroke="#eeebe5" stroke-miterlimit="10" stroke-width="1"/>
      <line id="直线_25" data-name="直线 25" y2="84.5" transform="translate(77.5 23.625)" fill="none" stroke="#eeebe5" stroke-miterlimit="10" stroke-width="1"/>
      <line id="直线_26" data-name="直线 26" y2="84.5" transform="translate(34.5 9.63)" fill="none" stroke="#eeebe5" stroke-miterlimit="10" stroke-width="1"/>
      <line id="直线_27" data-name="直线 27" y2="84.5" transform="translate(19.074 96.13)" fill="none" stroke="#eeebe5" stroke-miterlimit="10" stroke-width="1"/>
      <line id="直线_28" data-name="直线 28" y2="84.5" transform="translate(42.287 83.13)" fill="none" stroke="#eeebe5" stroke-miterlimit="10" stroke-width="1"/>
      <line id="直线_29" data-name="直线 29" y2="66" transform="translate(87 88.208)" fill="none" stroke="#eeebe5" stroke-miterlimit="10" stroke-width="1"/>
      <line id="直线_30" data-name="直线 30" y2="53.331" transform="translate(133.5 65.875)" fill="none" stroke="#eeebe5" stroke-miterlimit="10" stroke-width="1"/>
      <line id="直线_31" data-name="直线 31" y2="84.5" transform="translate(92.5 9.63)" fill="none" stroke="#eeebe5" stroke-miterlimit="10" stroke-width="1"/>
      <line id="直线_32" data-name="直线 32" y2="84.5" transform="translate(123.5)" fill="none" stroke="#eeebe5" stroke-miterlimit="10" stroke-width="1"/>
      <line id="直线_33" data-name="直线 33" y2="84.5" transform="translate(151 42.25)" fill="none" stroke="#eeebe5" stroke-miterlimit="10" stroke-width="1"/>
      <line id="直线_34" data-name="直线 34" y2="84.5" transform="translate(175.5 33.25)" fill="none" stroke="#eeebe5" stroke-miterlimit="10" stroke-width="1"/>
      <line id="直线_35" data-name="直线 35" y2="84.5" transform="translate(162 80.25)" fill="none" stroke="#eeebe5" stroke-miterlimit="10" stroke-width="1"/>
      <line id="直线_36" data-name="直线 36" y2="84.5" transform="translate(187 96.13)" fill="none" stroke="#eeebe5" stroke-miterlimit="10" stroke-width="1"/>
      <line id="直线_37" data-name="直线 37" y2="84.5" transform="translate(0 53.88)" fill="none" stroke="#eeebe5" stroke-miterlimit="10" stroke-width="1"/>
      <line id="直线_38" data-name="直线 38" y2="84.5" transform="translate(14 35.88)" fill="none" stroke="#eeebe5" stroke-miterlimit="10" stroke-width="1"/>
    </g>
    <g id="组_16" data-name="组 16" transform="translate(14.569 14.804)">
      <line id="直线_39" data-name="直线 39" y2="37.229" transform="translate(64.872 84.5)" fill="none" stroke="#eeebe5" stroke-miterlimit="10" stroke-width="1"/>
      <line id="直线_40" data-name="直线 40" y2="84.5" transform="translate(94.159 9.63)" fill="none" stroke="#eeebe5" stroke-miterlimit="10" stroke-width="1"/>
      <line id="直线_41" data-name="直线 41" y2="84.5" transform="translate(44.117 9.63)" fill="none" stroke="#eeebe5" stroke-miterlimit="10" stroke-width="1"/>
      <line id="直线_42" data-name="直线 42" y2="84.5" transform="translate(28.69 96.13)" fill="none" stroke="#eeebe5" stroke-miterlimit="10" stroke-width="1"/>
      <line id="直线_43" data-name="直线 43" y2="84.5" transform="translate(51.904 83.13)" fill="none" stroke="#eeebe5" stroke-miterlimit="10" stroke-width="1"/>
      <line id="直线_44" data-name="直线 44" y2="24.432" transform="translate(152.617 126.622)" fill="none" stroke="#eeebe5" stroke-miterlimit="10" stroke-width="1"/>
      <line id="直线_45" data-name="直线 45" y2="84.5" transform="translate(102.117 9.63)" fill="none" stroke="#eeebe5" stroke-miterlimit="10" stroke-width="1"/>
      <line id="直线_46" data-name="直线 46" y2="84.5" transform="translate(133.117)" fill="none" stroke="#eeebe5" stroke-miterlimit="10" stroke-width="1"/>
      <line id="直线_47" data-name="直线 47" y2="84.5" transform="translate(160.617 42.25)" fill="none" stroke="#eeebe5" stroke-miterlimit="10" stroke-width="1"/>
      <line id="直线_48" data-name="直线 48" y2="84.5" transform="translate(185.117 33.25)" fill="none" stroke="#eeebe5" stroke-miterlimit="10" stroke-width="1"/>
      <line id="直线_49" data-name="直线 49" y2="84.5" transform="translate(171.617 80.25)" fill="none" stroke="#eeebe5" stroke-miterlimit="10" stroke-width="1"/>
      <line id="直线_50" data-name="直线 50" y2="84.5" transform="translate(196.617 96.13)" fill="none" stroke="#eeebe5" stroke-miterlimit="10" stroke-width="1"/>
      <line id="直线_51" data-name="直线 51" y2="84.5" transform="translate(0 83.13)" fill="none" stroke="#eeebe5" stroke-miterlimit="10" stroke-width="1"/>
      <line id="直线_52" data-name="直线 52" y2="84.5" transform="translate(23.617 35.88)" fill="none" stroke="#eeebe5" stroke-miterlimit="10" stroke-width="1"/>
    </g>
    <text id="雨水_" data-name="雨水。" transform="translate(37.845 80.769)" fill="#463936" font-size="8" font-family="STZhongsong"><tspan x="0" y="0">雨水。</tspan></text>
    <path id="路径_105" data-name="路径 105" d="M1492.561,488.591h-2.168v0h-.75v2.917h.75v-2.165h2.168Z" transform="translate(-1456.884 -417.305)" fill="#463936"/>
  </g>
</svg>
